<svg width="27" height="17" viewBox="0 0 27 17" fill="none" xmlns="http://www.w3.org/2000/svg">
<path d="M17.0056 12.944C17.5569 12.5169 18.3506 12.6175 18.7781 13.1686C19.2054 13.72 19.1047 14.5136 18.5534 14.9411C18.3448 15.1027 18.0008 15.3109 17.6658 15.4713C17.3973 15.5998 16.9801 15.788 16.6413 15.9342C16.1539 16.1446 15.6043 16.2063 15.0574 16.3034C14.6975 16.3672 14.3596 16.3997 13.9685 16.3668C13.8266 16.3549 13.605 16.3546 13.3484 16.3629C13.2267 16.3669 13.1085 16.3727 12.9997 16.3776C12.8986 16.3821 12.7884 16.3875 12.7058 16.3893C12.3647 16.3968 12.0194 16.3428 11.7878 16.3024C11.6689 16.2816 11.5458 16.2575 11.4665 16.2428C11.4232 16.2348 11.3895 16.2286 11.363 16.2243C11.3414 16.2207 11.3303 16.2197 11.3279 16.2194C10.7508 16.1573 9.86112 15.9457 9.4597 15.8287L9.34935 15.7975L9.28196 15.7633C9.27309 15.7606 9.26042 15.757 9.24388 15.7526C9.1799 15.7354 9.08603 15.7141 8.96068 15.6901L8.92454 15.6832L8.88841 15.6735C8.59227 15.5985 8.41323 15.4909 8.28587 15.403C7.71189 15.0065 7.56728 14.2192 7.9636 13.6452C8.32646 13.1202 9.01581 12.9557 9.57005 13.235C9.76848 13.2758 10.0056 13.3328 10.2175 13.4157C10.5659 13.513 11.2453 13.6687 11.5984 13.7067C11.7145 13.7192 11.8404 13.7423 11.9275 13.7584C12.0331 13.7781 12.1202 13.7954 12.2214 13.8131C12.4308 13.8497 12.5711 13.8646 12.6501 13.8629C12.7838 13.8599 13.6517 13.8038 14.1804 13.8483C14.289 13.8574 14.3975 13.8548 14.6159 13.8161C15.4345 13.6707 15.5079 13.6706 15.6394 13.6139C15.9579 13.4764 16.3446 13.3023 16.5749 13.192C16.6734 13.1449 16.7742 13.0901 16.8601 13.0387C16.9023 13.0135 16.9381 12.9906 16.9656 12.9723C16.9908 12.9556 17.0035 12.9455 17.0056 12.944Z" fill="#A3A3A3"/>
<path d="M15.3415 0.29164C15.9751 0.000490755 16.7256 0.277372 17.0173 0.910781C17.0829 1.05326 17.1805 1.26332 17.2409 1.42543C17.2789 1.52745 17.3014 1.60753 17.3161 1.66078C17.3201 1.67514 17.3223 1.68499 17.324 1.69105C17.4853 2.10878 17.5943 2.44756 17.6863 2.78773C17.7455 3.00688 17.8067 3.21155 17.8816 3.4225C18.0074 3.77676 18.2708 4.33663 18.487 4.70082C18.6023 4.89487 18.7027 5.08243 18.7771 5.21742C18.8566 5.36179 18.9184 5.46997 18.987 5.57191C19.2247 5.92492 19.3553 6.14056 19.5583 6.38148C19.6875 6.53478 19.7936 6.67799 19.8767 6.79066C19.9666 6.91268 20.0193 6.98475 20.074 7.05141C20.1572 7.1529 20.2109 7.19879 20.3015 7.24574C20.4488 7.32215 20.577 7.39818 20.6804 7.46156C20.7979 7.53356 20.8542 7.57 20.9275 7.61293C21.0052 7.65848 21.0407 7.67404 21.0525 7.67836C21.056 7.67894 21.0737 7.68124 21.1238 7.67738C21.1865 7.67251 21.2636 7.66101 21.4099 7.63637C21.6486 7.59611 21.8783 7.51676 21.9929 7.45082C22.1232 7.3758 22.2003 7.31277 22.3533 7.16859C22.4616 7.06642 22.565 6.95167 22.6921 6.7975C22.7876 6.68162 22.8669 6.57035 22.9333 6.40883C23.1157 5.96491 23.3185 5.39535 23.3904 5.05336C23.4658 4.69436 23.534 4.39856 23.657 3.88539C23.718 3.63077 23.7394 3.52408 23.7292 3.26137C23.714 2.8669 23.6974 2.43341 23.7126 2.20863C23.7603 1.51288 24.3634 0.986561 25.0593 1.03383C25.7551 1.08135 26.2812 1.68467 26.2341 2.38051C26.2339 2.38624 26.2332 2.40405 26.2331 2.43617C26.2331 2.48055 26.2343 2.53903 26.2361 2.61195C26.2395 2.75878 26.2462 2.94555 26.2546 3.16371C26.2771 3.74448 26.2046 4.09913 26.115 4.47328C25.9939 4.97848 25.9313 5.24814 25.863 5.57289C25.7414 6.1516 25.4639 6.89751 25.2702 7.36879C25.074 7.84639 24.83 8.17722 24.6423 8.40492C24.4767 8.60582 24.2987 8.80646 24.0867 9.00648C23.8722 9.20868 23.6301 9.42404 23.2527 9.64125C22.7983 9.90263 22.257 10.0565 21.8298 10.1286C21.5715 10.1721 21.1266 10.2543 20.6257 10.1686C20.2019 10.096 19.8769 9.92582 19.6511 9.79359C19.3695 9.62867 19.3283 9.58735 19.1384 9.48891C18.6671 9.24456 18.3586 8.94408 18.1199 8.65297C18.0136 8.52338 17.915 8.38673 17.8435 8.28969C17.765 8.1833 17.6989 8.09624 17.6257 8.00941C17.3074 7.63165 17.0613 7.23454 16.8913 6.98207C16.7584 6.78449 16.6527 6.59768 16.5642 6.43715C16.4705 6.26717 16.402 6.13865 16.3142 5.99086C16.0186 5.49301 15.6842 4.78497 15.5007 4.2682C15.3983 3.97972 15.3179 3.70975 15.2468 3.44691C15.1762 3.18561 15.0927 2.92267 14.9558 2.57094L14.948 2.55141L14.9411 2.53187C14.9089 2.44024 14.8867 2.35751 14.8806 2.33559C14.8748 2.31483 14.8744 2.31264 14.8728 2.30824C14.8535 2.2565 14.8054 2.15003 14.7214 1.96742C14.4299 1.3336 14.7077 0.583266 15.3415 0.29164Z" fill="#A3A3A3"/>
<path d="M0.735089 0.115859C1.36873 -0.175492 2.11913 0.101553 2.41087 0.734999C2.47642 0.877464 2.57409 1.08755 2.6345 1.24965C2.6725 1.35167 2.69495 1.43175 2.7097 1.485C2.71394 1.50031 2.71682 1.51026 2.71849 1.51625C2.87961 1.9335 2.9889 2.27205 3.08079 2.61195C3.14004 2.8311 3.2012 3.03574 3.2761 3.24672C3.4019 3.60096 3.66434 4.16088 3.8806 4.52504C3.99583 4.71906 4.09625 4.90664 4.17064 5.04164C4.25014 5.18593 4.31301 5.29327 4.38157 5.39516C4.61915 5.7481 4.74903 5.96391 4.95189 6.20473C5.08118 6.35817 5.18808 6.50211 5.27122 6.61488C5.36087 6.73648 5.413 6.80815 5.46751 6.87465C5.55083 6.97624 5.60462 7.02205 5.69505 7.06898C5.84271 7.14554 5.97139 7.22231 6.07493 7.28578C6.19252 7.35786 6.24858 7.39414 6.322 7.43715C6.40034 7.48303 6.43565 7.49841 6.447 7.50258C6.45131 7.50328 6.46962 7.50536 6.51829 7.5016C6.58105 7.49673 6.65819 7.48523 6.80442 7.46059C7.04302 7.42031 7.27287 7.34095 7.38743 7.27504C7.51766 7.20005 7.59488 7.13698 7.74778 6.99281C7.85612 6.89064 7.95956 6.77588 8.08665 6.62172C8.18212 6.50587 8.26149 6.39453 8.32786 6.23305C8.51025 5.78915 8.713 5.21958 8.78489 4.87758C8.86039 4.51845 8.92846 4.22212 9.0515 3.70863C9.11246 3.45416 9.13393 3.34744 9.12376 3.08461C9.1085 2.69027 9.0919 2.25753 9.10716 2.03285C9.15474 1.33714 9.75708 0.810973 10.4529 0.858046C11.1488 0.905434 11.6748 1.5088 11.6277 2.20473C11.6275 2.21064 11.6277 2.22787 11.6277 2.25941C11.6277 2.30385 11.6279 2.36298 11.6296 2.43617C11.6331 2.58289 11.6397 2.76904 11.6482 2.98695C11.6707 3.56813 11.5982 3.92315 11.5085 4.2975C11.3875 4.80275 11.3258 5.07231 11.2576 5.39711C11.1359 5.97583 10.8584 6.72173 10.6648 7.19301C10.4684 7.67084 10.2236 8.00143 10.0359 8.22914C9.87028 8.42999 9.69321 8.63074 9.48118 8.8307C9.26674 9.0329 9.02466 9.24826 8.6472 9.46547C8.19283 9.72688 7.6516 9.88072 7.22435 9.95277C6.9661 9.99629 6.52109 10.0785 6.02025 9.99281C5.59616 9.92018 5.2705 9.75009 5.04466 9.61781C4.76307 9.45288 4.72282 9.4106 4.53294 9.31215C4.06161 9.06781 3.75313 8.76829 3.51439 8.47719C3.408 8.34746 3.30864 8.21102 3.23704 8.11391C3.1587 8.00765 3.09329 7.92035 3.02025 7.83363C2.70196 7.45587 2.45484 7.05876 2.28489 6.80629C2.15193 6.60872 2.0462 6.42189 1.95775 6.26137C1.86409 6.09139 1.79649 5.96286 1.70872 5.81508C1.4131 5.3173 1.0788 4.60926 0.895245 4.09242C0.792818 3.80394 0.712391 3.53398 0.641339 3.27113C0.570641 3.00963 0.486444 2.74626 0.349347 2.39418L0.342511 2.37562L0.335675 2.35512C0.303393 2.26333 0.28112 2.18046 0.275128 2.15883C0.269307 2.13782 0.269073 2.1362 0.267315 2.13148C0.248006 2.07973 0.19982 1.97392 0.115948 1.79164C-0.175553 1.15792 0.101489 0.40758 0.735089 0.115859Z" fill="#A3A3A3"/>
</svg>
