<svg width="30" height="31" viewBox="0 0 30 31" fill="none" xmlns="http://www.w3.org/2000/svg">
<path fill-rule="evenodd" clip-rule="evenodd" d="M22.8073 0.0325867C24.9131 -0.243085 26.8363 1.26129 27.0757 3.3715L29.4627 24.4362C29.7013 26.5418 28.1709 28.4362 26.0621 28.6451L5.86095 30.6463C3.75736 30.8547 1.88857 29.3059 1.70248 27.2002L0.00735489 8.02589C-0.0391622 7.4993 0.1365 6.97681 0.49099 6.58464L3.74253 2.98747C4.0452 2.65271 4.45723 2.43698 4.90471 2.37832L22.8073 0.0325867ZM20.6883 5.57319C20.1858 5.56941 19.4802 5.62791 18.5714 5.74846C17.5586 5.88283 16.8095 6.01752 16.3253 6.15223C16.1212 6.20579 15.9605 6.31944 15.8428 6.49338C15.7325 6.65777 15.7176 6.84941 15.7994 7.06759C16.8133 10.527 17.4847 13.693 17.8129 16.5651C17.9529 17.7532 17.814 18.7361 17.3975 19.5136C16.9809 20.291 16.2793 20.7454 15.2926 20.8763C14.3232 21.0049 13.5373 20.7566 12.9347 20.1319C12.331 19.4985 11.9358 18.5772 11.749 17.3688C11.2998 14.3807 11.1307 11.1485 11.2421 7.67208C11.248 7.45115 11.1716 7.27156 11.0125 7.13414C10.8534 6.99669 10.6718 6.92839 10.4693 6.92884C9.98396 6.92278 9.24372 6.98612 8.24844 7.11816C7.30511 7.2433 6.59138 7.37315 6.10715 7.50783C5.72581 7.62005 5.53492 7.87393 5.5345 8.27008C5.58683 12.0509 5.83233 15.6 6.27217 18.9154C6.94409 23.9791 10.1499 26.1299 15.8889 25.3686C18.7022 24.9953 20.758 24.0886 22.0556 22.648C23.3605 21.1976 23.843 19.1911 23.5031 16.629C23.0448 13.1751 22.3654 9.68427 21.4658 6.15681C21.3264 5.77028 21.0674 5.57574 20.6883 5.57319Z" fill="#FEF9F6"/>
</svg>
