<svg width="101" height="31" viewBox="0 0 101 31" fill="none" xmlns="http://www.w3.org/2000/svg">
<path d="M3.52118 27.2465C2.45328 27.2465 1.52488 27.208 0.735984 27.1311C0.524328 27.1022 0.346345 27.0204 0.202035 26.8858C0.0673449 26.7414 0 26.5586 0 26.3374C0 23.0471 0.0625346 19.5163 0.187604 15.745C0.312673 11.9737 0.466604 9.12112 0.649398 7.18736C0.659018 6.9757 0.735984 6.79772 0.880295 6.65341C1.02461 6.5091 1.19297 6.42732 1.38538 6.40808C3.58852 6.27339 6.26789 6.20605 9.42348 6.20605C12.2808 6.20605 14.4984 6.69189 16.0762 7.66358C17.654 8.62565 18.4429 10.0014 18.4429 11.7909C18.4429 13.0512 18.1302 14.1912 17.5049 15.211C16.8891 16.2308 16.0473 17.0678 14.9794 17.722C13.9212 18.3666 12.6849 18.8525 11.2707 19.1796C9.86603 19.5067 8.3652 19.6462 6.76817 19.5981C6.28713 19.6269 6.06105 20.0021 6.08991 20.7237C6.08991 21.5222 6.22941 22.5757 6.50841 23.8841C6.78741 25.1829 6.94134 25.9622 6.9702 26.2219C6.99906 26.4528 6.93653 26.6549 6.7826 26.828C6.63829 27.0012 6.44587 27.1022 6.20536 27.1311C5.7147 27.208 4.81997 27.2465 3.52118 27.2465ZM7.24439 16.3366C8.95688 16.3078 10.2749 15.9663 11.1985 15.312C12.1317 14.6578 12.5983 13.8786 12.5983 12.9742C12.5983 11.5119 11.3043 10.7807 8.71636 10.7807C8.47584 10.7807 7.93708 10.8047 7.10008 10.8528C6.5517 10.8817 6.24384 11.1655 6.17649 11.7043C6.08029 12.8491 6.08029 14.1383 6.17649 15.5718C6.23422 16.1106 6.59018 16.3655 7.24439 16.3366Z" fill="#272621"/>
<path d="M22.7866 27.2465C21.7187 27.2465 20.8817 27.208 20.2756 27.1311C20.0447 27.1022 19.8523 27.0108 19.6984 26.8569C19.5541 26.703 19.4819 26.5105 19.4819 26.2796C19.4819 19.6029 19.6599 13.2484 20.0159 7.21622C20.0255 7.01419 20.0977 6.84582 20.2323 6.71113C20.3767 6.57644 20.5594 6.48505 20.7807 6.43694C21.3099 6.35998 21.9929 6.32149 22.8299 6.32149C23.6573 6.32149 24.3067 6.35998 24.7781 6.43694C25.2399 6.53315 25.4853 6.79291 25.5141 7.21622C25.8893 13.5755 26.0769 19.93 26.0769 26.2796C26.0769 26.5105 26 26.703 25.846 26.8569C25.6921 27.0108 25.5045 27.1022 25.2832 27.1311C24.6771 27.208 23.8449 27.2465 22.7866 27.2465Z" fill="#272621"/>
<path d="M38.1846 27.3331C36.5394 27.3331 35.0627 27.1503 33.7542 26.7847C32.4458 26.4191 31.2962 25.8563 30.3052 25.0963C29.3143 24.3363 28.5494 23.3213 28.0107 22.0513C27.4815 20.7814 27.217 19.2902 27.217 17.5777C27.217 15.2976 27.674 13.2965 28.5879 11.5744C29.5115 9.84267 30.8007 8.51502 32.4555 7.59143C34.1102 6.66784 36.0103 6.20605 38.1557 6.20605C40.5994 6.20605 42.7929 6.68708 44.7363 7.64915C45.0826 7.84157 45.2221 8.17829 45.1548 8.65933C45.1163 8.97681 45.0393 9.77533 44.9239 11.0549C44.8181 12.3248 44.7459 13.1137 44.7074 13.4216C44.6786 13.6332 44.5968 13.792 44.4621 13.8978C44.3274 13.994 44.1735 14.0229 44.0003 13.9844C43.8271 13.9363 43.678 13.8256 43.5529 13.6525C42.9372 12.7962 42.2108 12.142 41.3738 11.6898C40.5368 11.2281 39.5219 10.9972 38.3289 10.9972C36.8184 10.9972 35.611 11.5407 34.7067 12.6279C33.812 13.715 33.3646 15.2591 33.3646 17.2602C33.3646 18.9823 33.836 20.2571 34.7789 21.0845C35.7313 21.9022 37.0012 22.3111 38.5887 22.3111C41.3883 22.3111 43.5289 21.2865 45.0105 19.2373C45.1933 18.9294 45.4386 18.814 45.7465 18.8909C46.0543 18.9679 46.2131 19.2132 46.2227 19.6269C46.2612 20.1657 46.2948 20.7477 46.3237 21.3731C46.3526 21.9888 46.3814 22.6719 46.4103 23.4223C46.4391 24.1631 46.4632 24.7403 46.4824 25.154C46.5113 25.5485 46.3333 25.8611 45.9485 26.092C45.1115 26.4288 43.9185 26.7222 42.3696 26.9723C40.8303 27.2129 39.4353 27.3331 38.1846 27.3331Z" fill="#272621"/>
<path d="M51.2591 27.2465C50.1431 27.2465 49.2436 27.208 48.5605 27.1311C48.3392 27.1022 48.1564 27.0108 48.0121 26.8569C47.8678 26.703 47.7957 26.5105 47.7957 26.2796C47.7957 19.0353 48.0025 12.6712 48.4162 7.18736C48.4451 6.77367 48.6904 6.52353 49.1522 6.43694C49.7294 6.35998 50.4895 6.32149 51.4323 6.32149C52.4521 6.32149 53.2506 6.35998 53.8279 6.43694C54.078 6.48505 54.2704 6.58606 54.4051 6.73999C54.5494 6.88431 54.6023 7.07191 54.5638 7.30281C54.2464 9.16922 54.0876 10.646 54.0876 11.7331C54.0876 12.2238 54.2223 12.6231 54.4917 12.9309C54.7611 13.2388 55.0737 13.3927 55.4297 13.3927C56.0743 13.3927 56.6852 13.2051 57.2624 12.8299C57.8397 12.4451 58.3303 11.9496 58.7344 11.3435C59.1385 10.7278 59.4752 10.0591 59.7446 9.33759C60.014 8.61603 60.1968 7.88967 60.293 7.1585C60.3507 6.72556 60.6104 6.47543 61.0722 6.40808C61.7265 6.33111 62.5538 6.29263 63.5544 6.29263C64.2086 6.29263 65.0264 6.33111 66.0077 6.40808C66.277 6.43694 66.4839 6.54277 66.6282 6.72556C66.7725 6.89874 66.8302 7.12001 66.8014 7.38939C66.5609 11.6898 64.1461 14.2826 59.557 15.1677C59.3646 15.2158 59.2299 15.2928 59.1529 15.3986C59.0856 15.5045 59.0856 15.6103 59.1529 15.7161C59.2299 15.8123 59.3646 15.8845 59.557 15.9326C62.2219 16.3559 64.2375 17.3709 65.6036 18.9775C66.9794 20.5842 67.7827 22.9846 68.0136 26.1786C68.0424 26.6789 67.7683 26.9964 67.191 27.1311C66.7196 27.208 65.8489 27.2465 64.579 27.2465C63.1551 27.2465 62.1017 27.208 61.4186 27.1311C60.8991 27.0349 60.6249 26.7607 60.596 26.3085C60.5287 24.9712 60.2401 23.6772 59.7302 22.4266C59.2203 21.1662 58.5564 20.1368 57.7387 19.3383C56.9305 18.5398 56.0887 18.1405 55.2132 18.1405C54.9054 18.1405 54.636 18.3281 54.4051 18.7033C54.1742 19.0689 54.0588 19.5115 54.0588 20.031C54.0588 20.6563 54.0876 21.3009 54.1453 21.9648C54.2127 22.6286 54.3089 23.4415 54.434 24.4036C54.559 25.3561 54.6408 25.9814 54.6793 26.2796C54.7081 26.5105 54.6456 26.703 54.4917 26.8569C54.3474 27.0108 54.155 27.1022 53.9144 27.1311C53.3372 27.208 52.4521 27.2465 51.2591 27.2465Z" fill="#272621"/>
<path fill-rule="evenodd" clip-rule="evenodd" d="M94.2646 0.0325867C96.3704 -0.243085 98.2937 1.26129 98.5331 3.3715L100.92 24.4362C101.159 26.5418 99.6282 28.4362 97.5195 28.6451L77.3183 30.6463C75.2147 30.8547 73.3459 29.3059 73.1598 27.2002L71.4647 8.02589C71.4182 7.4993 71.5939 6.97681 71.9483 6.58464L75.1999 2.98747C75.5026 2.65271 75.9146 2.43698 76.3621 2.37832L94.2646 0.0325867ZM92.1457 5.57319C91.6431 5.56941 90.9375 5.62791 90.0288 5.74846C89.016 5.88283 88.2668 6.01752 87.7826 6.15223C87.5786 6.20579 87.4179 6.31944 87.3002 6.49338C87.1898 6.65777 87.175 6.84941 87.2568 7.06759C88.2707 10.527 88.9421 13.693 89.2703 16.5651C89.4102 17.7532 89.2714 18.7361 88.8549 19.5136C88.4383 20.291 87.7367 20.7454 86.75 20.8763C85.7806 21.0049 84.9946 20.7566 84.3921 20.1319C83.7884 19.4985 83.3931 18.5772 83.2064 17.3688C82.7572 14.3807 82.5881 11.1485 82.6994 7.67208C82.7053 7.45115 82.6289 7.27156 82.4699 7.13414C82.3107 6.99669 82.1292 6.92839 81.9266 6.92884C81.4413 6.92278 80.7011 6.98612 79.7058 7.11816C78.7625 7.2433 78.0487 7.37315 77.5645 7.50783C77.1832 7.62005 76.9923 7.87393 76.9919 8.27008C77.0442 12.0509 77.2897 15.6 77.7295 18.9154C78.4014 23.9791 81.6072 26.1299 87.3463 25.3686C90.1596 24.9953 92.2154 24.0886 93.5129 22.648C94.8179 21.1976 95.3003 19.1911 94.9604 16.629C94.5022 13.1751 93.8228 9.68427 92.9232 6.15681C92.7837 5.77028 92.5247 5.57574 92.1457 5.57319Z" fill="#272621"/>
</svg>
