<svg width="23" height="23" viewBox="0 0 23 23" fill="none" xmlns="http://www.w3.org/2000/svg">
<path d="M9.89 13.57L7.4175 11.0975C7.20667 10.8867 6.93833 10.7812 6.6125 10.7812C6.28667 10.7812 6.01833 10.8867 5.8075 11.0975C5.59667 11.3083 5.49125 11.5767 5.49125 11.9025C5.49125 12.2283 5.59667 12.4967 5.8075 12.7075L9.085 15.985C9.315 16.215 9.58333 16.33 9.89 16.33C10.1967 16.33 10.465 16.215 10.695 15.985L17.1925 9.4875C17.4033 9.27667 17.5088 9.00833 17.5088 8.6825C17.5088 8.35667 17.4033 8.08833 17.1925 7.8775C16.9817 7.66667 16.7133 7.56125 16.3875 7.56125C16.0617 7.56125 15.7933 7.66667 15.5825 7.8775L9.89 13.57ZM11.5 23C9.90917 23 8.41417 22.6981 7.015 22.0944C5.61583 21.4906 4.39875 20.6713 3.36375 19.6362C2.32875 18.6012 1.50938 17.3842 0.905625 15.985C0.301875 14.5858 0 13.0908 0 11.5C0 9.90917 0.301875 8.41417 0.905625 7.015C1.50938 5.61583 2.32875 4.39875 3.36375 3.36375C4.39875 2.32875 5.61583 1.50938 7.015 0.905625C8.41417 0.301875 9.90917 0 11.5 0C13.0908 0 14.5858 0.301875 15.985 0.905625C17.3842 1.50938 18.6012 2.32875 19.6362 3.36375C20.6713 4.39875 21.4906 5.61583 22.0944 7.015C22.6981 8.41417 23 9.90917 23 11.5C23 13.0908 22.6981 14.5858 22.0944 15.985C21.4906 17.3842 20.6713 18.6012 19.6362 19.6362C18.6012 20.6713 17.3842 21.4906 15.985 22.0944C14.5858 22.6981 13.0908 23 11.5 23ZM11.5 20.7C14.0683 20.7 16.2437 19.8088 18.0262 18.0262C19.8088 16.2437 20.7 14.0683 20.7 11.5C20.7 8.93167 19.8088 6.75625 18.0262 4.97375C16.2437 3.19125 14.0683 2.3 11.5 2.3C8.93167 2.3 6.75625 3.19125 4.97375 4.97375C3.19125 6.75625 2.3 8.93167 2.3 11.5C2.3 14.0683 3.19125 16.2437 4.97375 18.0262C6.75625 19.8088 8.93167 20.7 11.5 20.7Z" fill="#500311" fill-opacity="0.42"/>
</svg>
