<svg width="19" height="19" viewBox="0 0 19 19" fill="none" xmlns="http://www.w3.org/2000/svg">
<path d="M7.9054 2.00558C8.721 0.979773 10.279 0.979773 11.0946 2.00558V2.00558C11.5716 2.60546 12.3448 2.88691 13.0958 2.73395V2.73395C14.3799 2.4724 15.5734 3.47386 15.5389 4.78393V4.78393C15.5186 5.55005 15.9301 6.26269 16.6037 6.62823V6.62823C17.7555 7.25331 18.0261 8.78764 17.1575 9.76898V9.76898C16.6495 10.3429 16.5066 11.1533 16.7877 11.8662V11.8662C17.2682 13.0855 16.4892 14.4347 15.1931 14.6282V14.6282C14.4351 14.7413 13.8047 15.2702 13.5617 15.9971V15.9971C13.1461 17.24 11.6821 17.7728 10.5648 17.0878V17.0878C9.91145 16.6873 9.08855 16.6873 8.43519 17.0878V17.0878C7.31793 17.7728 5.85389 17.24 5.43832 15.9971V15.9971C5.19531 15.2702 4.56493 14.7413 3.80694 14.6282V14.6282C2.51077 14.4347 1.73177 13.0855 2.21234 11.8662V11.8662C2.49338 11.1533 2.35049 10.3429 1.84254 9.76898V9.76898C0.973943 8.78764 1.24449 7.25331 2.39634 6.62823V6.62823C3.06993 6.26269 3.48138 5.55005 3.46115 4.78393V4.78393C3.42656 3.47386 4.62005 2.4724 5.90422 2.73395V2.73395C6.65518 2.88691 7.42845 2.60546 7.9054 2.00558V2.00558Z" fill="#B1EE9F"/>
<path d="M13.5212 6.7605L9.57518 10.7065C8.93132 11.3504 8.60939 11.6723 8.20934 11.6723C7.8093 11.6723 7.48737 11.3504 6.84351 10.7065L5.79486 9.65788" stroke="#3D7B00" stroke-width="1.26667" stroke-linecap="round" stroke-linejoin="round"/>
</svg>
