<svg width="24" height="24" viewBox="0 0 24 24" fill="none" xmlns="http://www.w3.org/2000/svg">
<path d="M16.5 4.00006C16.9643 4.00006 17.1965 4.00006 17.3921 4.01932C19.2912 4.20637 20.7937 5.70888 20.9807 7.60799C21 7.80355 21 8.03572 21 8.50006V13.0001C21 16.7713 21 18.6569 19.8284 19.8285C18.6569 21.0001 16.7712 21.0001 13 21.0001H11C7.22876 21.0001 5.34315 21.0001 4.17157 19.8285C3 18.6569 3 16.7713 3 13.0001V8.50006C3 8.03572 3 7.80355 3.01926 7.60799C3.20631 5.70888 4.70882 4.20637 6.60793 4.01932C6.80349 4.00006 7.03566 4.00006 7.5 4.00006" stroke="#500311" stroke-opacity="0.42" stroke-width="2"/>
<rect x="8.00024" y="1.99994" width="8" height="4" rx="1" stroke="#500311" stroke-opacity="0.42" stroke-width="2"/>
</svg>
