<svg width="24" height="24" viewBox="0 0 24 24" fill="none" xmlns="http://www.w3.org/2000/svg">
<path d="M17.4096 3.61598C17.804 3.22158 18.339 3 18.8967 3C19.4545 3 19.9894 3.22158 20.3838 3.61598C20.7782 4.01039 20.9998 4.54532 20.9998 5.1031C20.9998 5.66087 20.7782 6.1958 20.3838 6.59021L12.9998 14L10.6511 14.5872C9.9187 14.7703 9.25531 14.1069 9.43841 13.3745L10.0256 11.0258L17.4096 3.61598Z" stroke="#500311" stroke-width="2" stroke-linecap="round" stroke-linejoin="round"/>
<path d="M13 3H11C7.22876 3 5.34315 3 4.17157 4.17157C3 5.34315 3 7.22876 3 11V13C3 16.7712 3 18.6569 4.17157 19.8284C5.34315 21 7.22876 21 11 21H13C16.7712 21 18.6569 21 19.8284 19.8284C21 18.6569 21 16.7712 21 13V11" stroke="#500311" stroke-width="2" stroke-linecap="round"/>
</svg>
