<svg width="33" height="50" viewBox="0 0 33 50" fill="none" xmlns="http://www.w3.org/2000/svg">
<rect x="6" y="21" width="22" height="22" rx="11" fill="#FF702D"/>
<rect x="6" y="21" width="22" height="22" rx="11" stroke="#FF702D" stroke-width="2"/>
<path d="M16.9999 29.9412C18.3644 29.9412 19.4705 28.8351 19.4705 27.4706C19.4705 26.1061 18.3644 25 16.9999 25C15.6354 25 14.5293 26.1061 14.5293 27.4706C14.5293 28.8351 15.6354 29.9412 16.9999 29.9412Z" stroke="#FFFAF4" stroke-width="1.5" stroke-linecap="round" stroke-linejoin="round"/>
<path d="M21.9412 38.9999V37.3528C21.9412 35.8179 21.9412 35.0505 21.6904 34.4451C21.3561 33.638 20.7148 32.9967 19.9077 32.6624C19.3023 32.4116 18.5349 32.4116 17 32.4116C15.4651 32.4116 14.6977 32.4116 14.0924 32.6624C13.2852 32.9967 12.6439 33.638 12.3096 34.4451C12.0588 35.0505 12.0588 35.8179 12.0588 37.3528V38.9999" stroke="#FFFAF4" stroke-width="1.5" stroke-linecap="round"/>
<rect width="32.7826" height="15.7826" rx="7.8913" fill="#FF702D"/>
<path d="M11.7293 10.8914H10.6236V7.68573L7.96577 3.90188H9.25411L11.1815 6.68144L13.1293 3.90188H14.4176L11.7293 7.69588V10.8914ZM16.2065 9.97836C16.9978 9.97836 17.647 9.40013 17.647 8.50743C17.647 7.64515 16.9978 7.07707 16.2065 7.07707C15.4254 7.07707 14.7761 7.64515 14.7761 8.50743C14.7761 9.40013 15.4254 9.97836 16.2065 9.97836ZM16.2065 10.9928C14.8674 10.9928 13.7414 10.0088 13.7414 8.50743C13.7414 7.00606 14.8674 6.05249 16.2065 6.05249C17.5557 6.05249 18.6919 7.00606 18.6919 8.50743C18.6919 10.0088 17.5557 10.9928 16.2065 10.9928ZM23.0465 8.70017V6.15393H24.0914V10.8914H23.0465V10.2015C22.7726 10.7392 22.1335 10.9928 21.6364 10.9928C20.4698 10.9928 19.7902 10.2624 19.8003 8.9132V6.15393H20.8452V8.79147C20.8452 9.57259 21.2611 9.97836 21.8292 9.97836C22.4378 9.97836 23.0465 9.6436 23.0465 8.70017Z" fill="white"/>
<path d="M18.5813 48.1271C18.1007 48.9595 16.8993 48.9595 16.4187 48.1271L13.8182 43.6229C13.3376 42.7905 13.9383 41.75 14.8995 41.75L20.1005 41.75C21.0617 41.75 21.6624 42.7905 21.1818 43.6229L18.5813 48.1271Z" fill="#FF702D"/>
</svg>
