<svg width="22" height="22" viewBox="0 0 22 22" fill="none" xmlns="http://www.w3.org/2000/svg">
<path d="M14.5718 15.4821L17.8374 12.2165C18.5487 11.5052 18.5487 10.3519 17.8374 9.6406L14.5718 6.37497" stroke="#FF4A4A" stroke-width="1.82143" stroke-linecap="round" stroke-linejoin="round"/>
<path d="M7.28564 19.125C7.28564 19.125 7.28565 19.125 7.28564 19.125ZM7.28564 19.125C5.27375 19.125 3.64279 17.494 3.64279 15.4821C3.64279 15.4821 3.64279 15.4821 3.64279 15.4821L3.64279 6.375C3.64279 6.375 3.64279 6.375 3.64279 6.375C3.64279 4.36311 5.27375 2.73214 7.28565 2.73214M7.28565 2.73214C7.28565 2.73214 7.28565 2.73214 7.28565 2.73214Z" stroke="#FF4A4A" stroke-width="1.82143" stroke-linecap="round"/>
<path d="M8.19678 10.9286L18.2146 10.9286" stroke="#FF4A4A" stroke-width="1.82143" stroke-linecap="round"/>
</svg>
