<svg width="64" height="22" viewBox="0 0 64 22" fill="none" xmlns="http://www.w3.org/2000/svg">
<path d="M2.61609 20.1354C1.95537 20.1354 1.38096 20.1116 0.892862 20.064C0.761909 20.0461 0.65179 19.9955 0.562503 19.9122C0.479169 19.8229 0.437503 19.7098 0.437503 19.5729C0.437503 17.5372 0.476193 15.3526 0.553575 13.0193C0.630956 10.6859 0.726195 8.92104 0.839291 7.72461C0.845243 7.59365 0.892862 7.48353 0.982149 7.39425C1.07143 7.30496 1.1756 7.25437 1.29465 7.24246C2.65775 7.15913 4.3155 7.11746 6.26789 7.11746C8.03576 7.11746 9.40779 7.41806 10.384 8.01925C11.3602 8.61449 11.8483 9.46569 11.8483 10.5728C11.8483 11.3526 11.6548 12.058 11.2679 12.6889C10.887 13.3199 10.3661 13.8377 9.70541 14.2425C9.05065 14.6413 8.28576 14.9419 7.41076 15.1443C6.54171 15.3467 5.61313 15.433 4.62503 15.4032C4.32741 15.4211 4.18752 15.6532 4.20538 16.0997C4.20538 16.5937 4.29169 17.2455 4.46431 18.055C4.63693 18.8586 4.73217 19.3407 4.75003 19.5015C4.76789 19.6443 4.72919 19.7693 4.63396 19.8765C4.54467 19.9836 4.42562 20.0461 4.27681 20.064C3.97324 20.1116 3.41966 20.1354 2.61609 20.1354ZM4.91967 13.3854C5.9792 13.3675 6.79468 13.1562 7.36611 12.7514C7.9435 12.3467 8.23219 11.8645 8.23219 11.305C8.23219 10.4002 7.43159 9.94783 5.83039 9.94783C5.68158 9.94783 5.34825 9.96271 4.83039 9.99248C4.4911 10.0103 4.30062 10.1859 4.25895 10.5193C4.19943 11.2276 4.19943 12.0252 4.25895 12.9121C4.29467 13.2455 4.51491 13.4032 4.91967 13.3854ZM14.5358 20.1354C13.8751 20.1354 13.3572 20.1116 12.9822 20.064C12.8394 20.0461 12.7203 19.9896 12.6251 19.8943C12.5358 19.7991 12.4911 19.68 12.4911 19.5372C12.4911 15.4062 12.6013 11.4746 12.8215 7.74246C12.8275 7.61746 12.8721 7.5133 12.9554 7.42996C13.0447 7.34663 13.1578 7.29008 13.2947 7.26032C13.6221 7.2127 14.0447 7.18889 14.5626 7.18889C15.0745 7.18889 15.4763 7.2127 15.768 7.26032C16.0537 7.31984 16.2055 7.48056 16.2233 7.74246C16.4555 11.677 16.5715 15.6086 16.5715 19.5372C16.5715 19.68 16.5239 19.7991 16.4287 19.8943C16.3334 19.9896 16.2174 20.0461 16.0805 20.064C15.7054 20.1116 15.1906 20.1354 14.5358 20.1354ZM24.0626 20.189C23.0448 20.189 22.1311 20.0759 21.3216 19.8497C20.512 19.6235 19.8007 19.2753 19.1876 18.805C18.5745 18.3348 18.1013 17.7068 17.768 16.9211C17.4406 16.1354 17.2769 15.2127 17.2769 14.1532C17.2769 12.7425 17.5596 11.5044 18.1251 10.4389C18.6965 9.36747 19.4942 8.54604 20.518 7.97461C21.5418 7.40318 22.7174 7.11746 24.0448 7.11746C25.5567 7.11746 26.9138 7.41508 28.1162 8.01032C28.3305 8.12937 28.4168 8.33771 28.3752 8.63533C28.3514 8.83176 28.3037 9.32581 28.2323 10.1175C28.1668 10.9032 28.1222 11.3913 28.0984 11.5818C28.0805 11.7127 28.0299 11.8109 27.9466 11.8764C27.8633 11.9359 27.768 11.9538 27.6609 11.93C27.5537 11.9002 27.4615 11.8318 27.3841 11.7246C27.0031 11.1949 26.5537 10.7901 26.0359 10.5103C25.518 10.2246 24.89 10.0818 24.1519 10.0818C23.2174 10.0818 22.4704 10.4181 21.9108 11.0907C21.3573 11.7633 21.0805 12.7187 21.0805 13.9568C21.0805 15.0223 21.3721 15.811 21.9555 16.3229C22.5448 16.8288 23.3305 17.0818 24.3126 17.0818C26.0448 17.0818 27.3692 16.4479 28.2859 15.18C28.399 14.9895 28.5508 14.9181 28.7412 14.9657C28.9317 15.0133 29.0299 15.1651 29.0359 15.4211C29.0597 15.7544 29.0805 16.1145 29.0984 16.5014C29.1162 16.8824 29.1341 17.305 29.152 17.7693C29.1698 18.2276 29.1847 18.5848 29.1966 18.8407C29.2145 19.0848 29.1043 19.2782 28.8662 19.4211C28.3484 19.6294 27.6103 19.811 26.6519 19.9657C25.6996 20.1146 24.8365 20.189 24.0626 20.189ZM32.152 20.1354C31.4615 20.1354 30.9049 20.1116 30.4823 20.064C30.3454 20.0461 30.2323 19.9896 30.143 19.8943C30.0537 19.7991 30.0091 19.68 30.0091 19.5372C30.0091 15.055 30.1371 11.1175 30.393 7.72461C30.4109 7.46865 30.5627 7.31389 30.8484 7.26032C31.2055 7.2127 31.6758 7.18889 32.2591 7.18889C32.8901 7.18889 33.3841 7.2127 33.7413 7.26032C33.896 7.29008 34.0151 7.35258 34.0984 7.44782C34.1877 7.53711 34.2204 7.65318 34.1966 7.79604C34.0002 8.9508 33.902 9.8645 33.902 10.5371C33.902 10.8407 33.9853 11.0877 34.152 11.2782C34.3187 11.4687 34.5121 11.5639 34.7323 11.5639C35.1312 11.5639 35.5091 11.4478 35.8663 11.2157C36.2234 10.9776 36.527 10.6711 36.777 10.2961C37.027 9.9151 37.2353 9.5014 37.402 9.05497C37.5687 8.60854 37.6818 8.15913 37.7413 7.70675C37.777 7.43889 37.9377 7.28413 38.2234 7.24246C38.6282 7.19484 39.1401 7.17103 39.7592 7.17103C40.1639 7.17103 40.6699 7.19484 41.277 7.24246C41.4437 7.26032 41.5717 7.32579 41.661 7.43889C41.7502 7.54603 41.786 7.68294 41.7681 7.84961C41.6193 10.5103 40.1252 12.1145 37.2859 12.6621C37.1669 12.6919 37.0836 12.7395 37.0359 12.805C36.9943 12.8705 36.9943 12.9359 37.0359 13.0014C37.0836 13.0609 37.1669 13.1056 37.2859 13.1354C38.9348 13.3973 40.1818 14.0252 41.027 15.0193C41.8782 16.0133 42.3753 17.4985 42.5181 19.4747C42.536 19.7842 42.3663 19.9806 42.0092 20.064C41.7175 20.1116 41.1788 20.1354 40.3931 20.1354C39.5121 20.1354 38.8603 20.1116 38.4377 20.064C38.1163 20.0044 37.9467 19.8348 37.9288 19.555C37.8871 18.7276 37.7086 17.927 37.3931 17.1532C37.0776 16.3735 36.6669 15.7366 36.1609 15.2425C35.6609 14.7485 35.1401 14.5014 34.5984 14.5014C34.4079 14.5014 34.2413 14.6175 34.0984 14.8496C33.9556 15.0758 33.8841 15.3497 33.8841 15.6711C33.8841 16.058 33.902 16.4568 33.9377 16.8675C33.9794 17.2782 34.0389 17.7812 34.1163 18.3765C34.1937 18.9657 34.2443 19.3527 34.2681 19.5372C34.2859 19.68 34.2472 19.7991 34.152 19.8943C34.0627 19.9896 33.9437 20.0461 33.7948 20.064C33.4377 20.1116 32.8901 20.1354 32.152 20.1354Z" fill="#500311"/>
<path d="M45.4782 7.4941C45.4474 7.15478 45.5654 6.8188 45.8015 6.57321L47.7962 4.49899C47.9825 4.30526 48.2296 4.18124 48.4962 4.1476L59.612 2.74534C60.9078 2.58186 62.0884 3.5062 62.2406 4.80343L63.6453 16.7742C63.7989 18.0826 62.8472 19.2618 61.5359 19.3879L49.04 20.5897C47.7429 20.7144 46.5919 19.7602 46.474 18.4625L45.4782 7.4941Z" fill="#500311"/>
<path d="M55.0563 17.9871C51.5038 18.4408 49.5116 17.1018 49.0796 13.9702C48.7969 11.9199 48.6334 9.72635 48.5891 7.38955C48.5881 7.14455 48.7055 6.98791 48.9414 6.91964C49.2409 6.83781 49.6827 6.75959 50.2668 6.685C50.883 6.6063 51.3414 6.56954 51.642 6.57473C51.7674 6.57505 51.8797 6.61792 51.9787 6.70332C52.0777 6.78873 52.1257 6.89972 52.1227 7.03629C52.0646 9.1846 52.1794 11.1828 52.467 13.0309C52.5865 13.7783 52.8341 14.3487 53.2101 14.7419C53.5853 15.1298 54.0729 15.2854 54.6731 15.2087C55.2839 15.1307 55.7171 14.8521 55.9727 14.3727C56.2283 13.8934 56.3109 13.2863 56.2204 12.5515C56.0082 10.7755 55.5826 8.817 54.9438 6.67598C54.8925 6.5409 54.9007 6.42273 54.9685 6.32146C55.041 6.21415 55.1404 6.14426 55.2668 6.11177C55.5663 6.02994 56.0295 5.94899 56.6564 5.86892C57.219 5.79706 57.656 5.76304 57.9673 5.76686C58.2021 5.76955 58.3633 5.8906 58.4509 6.13001C59.0191 8.31272 59.4505 10.4721 59.7451 12.608C59.9637 14.1926 59.671 15.4311 58.8672 16.3237C58.068 17.2102 56.7977 17.7647 55.0563 17.9871Z" fill="#FFF2E9"/>
</svg>
