<svg width="12" height="12" viewBox="0 0 12 12" fill="none" xmlns="http://www.w3.org/2000/svg">
<path d="M10 5.09091C10 6.66125 9.0257 8.12087 8.03879 9.19656C7.26579 10.0391 6.87929 10.4604 6 10.4604C5.12071 10.4604 4.73421 10.0391 3.96121 9.19656C2.97431 8.12087 2 6.66125 2 5.09091C2 4.00593 2.42143 2.96539 3.17157 2.1982C3.92172 1.43101 4.93913 1 6 1C7.06087 1 8.07828 1.43101 8.82843 2.1982C9.57857 2.96539 10 4.00593 10 5.09091Z" stroke="#FF702D" stroke-linecap="round" stroke-linejoin="round"/>
<path d="M6 6.45454C6.73638 6.45454 7.33333 5.84402 7.33333 5.09091C7.33333 4.33779 6.73638 3.72727 6 3.72727C5.26362 3.72727 4.66667 4.33779 4.66667 5.09091C4.66667 5.84402 5.26362 6.45454 6 6.45454Z" stroke="#FF702D" stroke-linecap="round" stroke-linejoin="round"/>
</svg>
