<svg width="24" height="24" viewBox="0 0 24 24" fill="none" xmlns="http://www.w3.org/2000/svg">
<g clip-path="url(#clip0_2365_409)">
<path d="M3.14479 6.29707C3.51141 9.72516 4.90017 13.0783 7.34342 15.8695C9.78667 18.6608 12.9264 20.4812 16.2758 21.2984C16.3268 21.3108 16.1993 21.2797 16.422 21.3082C17.9603 21.5049 20.0368 20.2984 20.6277 18.8645C20.7132 18.6569 20.7433 18.552 20.8033 18.342L20.8034 18.342C20.8575 18.1526 20.8846 18.058 20.9015 17.9699C21.0355 17.2694 20.7865 16.5507 20.2478 16.0833C20.1801 16.0245 20.1002 15.9669 19.9405 15.8517L17.5303 14.1128C16.7576 13.5553 15.6884 13.6725 15.0548 14.3842C14.3115 15.2192 13.0045 15.2137 12.2682 14.3725L9.47923 11.1862C8.74293 10.3451 8.91049 9.04892 9.83649 8.42264C10.6258 7.88883 10.8835 6.84458 10.4332 6.00484L9.02873 3.38571C8.93565 3.21213 8.88911 3.12534 8.83979 3.05038C8.44787 2.45462 7.76838 2.11262 7.0564 2.15275C6.96682 2.15779 6.86941 2.17212 6.67461 2.20075L6.67451 2.20077L6.67449 2.20077C6.45845 2.23253 6.35042 2.24841 6.13336 2.30572C4.6339 2.70156 3.16309 4.60004 3.15442 6.15084C3.15316 6.37535 3.13921 6.24489 3.14479 6.29707Z" stroke="#B5B3B3" stroke-width="2" stroke-linecap="round"/>
</g>
<defs>
<clipPath id="clip0_2365_409">
<rect width="24" height="24" fill="white"/>
</clipPath>
</defs>
</svg>
