<svg width="16" height="17" viewBox="0 0 16 17" fill="none" xmlns="http://www.w3.org/2000/svg">
<path d="M4.79987 15.1999C4.79987 14.3163 5.51653 13.5996 6.40016 13.5996C7.28372 13.5997 7.99995 14.3163 7.99995 15.1999C7.99986 16.0834 7.28366 16.7996 6.40016 16.7997C5.51659 16.7997 4.79996 16.0835 4.79987 15.1999Z" fill="#FF702D"/>
<path d="M10.3997 15.1999C10.3997 14.3163 11.1164 13.5996 12 13.5996C12.8836 13.5997 13.5998 14.3163 13.5998 15.1999C13.5997 16.0834 12.8835 16.7996 12 16.7997C11.1164 16.7997 10.3998 16.0835 10.3997 15.1999Z" fill="#FF702D"/>
<path d="M14.3997 7.59993C14.3997 6.42531 14.3909 6.01523 14.2963 5.70319C14.0636 4.93616 13.4635 4.33607 12.6965 4.1034C12.3845 4.00874 11.9744 4.00002 10.7998 4.00002H7.60017C6.42555 4.00002 6.01548 4.00874 5.70343 4.1034C4.93641 4.33607 4.33632 4.93616 4.10364 5.70319C4.00898 6.01523 4.00027 6.42531 4.00027 7.59993C4.00027 8.77423 4.00903 9.18416 4.10364 9.49617C4.33632 10.2632 4.93641 10.8638 5.70343 11.0965C6.01546 11.1911 6.42567 11.1998 7.60017 11.1998H10.7998C11.9743 11.1998 12.3845 11.1911 12.6965 11.0965C13.4635 10.8638 14.0636 10.2632 14.2963 9.49617C14.3909 9.18416 14.3997 8.77423 14.3997 7.59993ZM16 7.59993C16 8.65804 16.0086 9.36448 15.8277 9.96085C15.4399 11.2392 14.4395 12.2395 13.1612 12.6273C12.5648 12.8083 11.858 12.7996 10.7998 12.7996H7.60017C6.54195 12.7996 5.83515 12.8083 5.23875 12.6273C3.96046 12.2395 2.96003 11.2392 2.57226 9.96085C2.39136 9.36448 2.39997 8.65804 2.39997 7.59993C2.39997 6.54171 2.39134 5.83491 2.57226 5.2385C2.96007 3.96024 3.96048 2.95982 5.23875 2.57202C5.83515 2.3911 6.54195 2.39972 7.60017 2.39972H10.7998C11.858 2.39972 12.5648 2.3911 13.1612 2.57202C14.4394 2.95982 15.4399 3.96024 15.8277 5.2385C16.0086 5.83491 16 6.54171 16 7.59993Z" fill="#FF702D"/>
<path d="M2.39994 7.19982V2.39994C2.39985 1.95826 2.04198 1.60039 1.6003 1.6003H0.800149C0.358332 1.6003 0 1.24197 0 0.800149C0 0.358332 0.358332 0 0.800149 0H1.6003C2.92561 9.12179e-05 4.00015 1.07462 4.00024 2.39994V7.19982C4.00024 7.64163 3.6419 7.99997 3.20009 7.99997C2.75827 7.99997 2.39994 7.64163 2.39994 7.19982Z" fill="#FF702D"/>
</svg>
