<svg width="31" height="33" viewBox="0 0 31 33" fill="none" xmlns="http://www.w3.org/2000/svg">
<path d="M9.25 29.2923C9.25 27.5894 10.6311 26.2083 12.334 26.2083C14.0367 26.2085 15.417 27.5896 15.417 29.2923C15.4168 30.9949 14.0366 32.3752 12.334 32.3753C10.6312 32.3753 9.25018 30.9951 9.25 29.2923Z" fill="#3FA9F5"/>
<path d="M20.0417 29.2923C20.0417 27.5894 21.4228 26.2083 23.1256 26.2083C24.8284 26.2085 26.2086 27.5896 26.2086 29.2923C26.2085 30.9949 24.8283 32.3752 23.1256 32.3753C21.4229 32.3753 20.0418 30.9951 20.0417 29.2923Z" fill="#3FA9F5"/>
<path d="M27.75 14.6465C27.75 12.3828 27.7332 11.5926 27.5508 10.9912C27.1024 9.51306 25.9459 8.3566 24.4678 7.90821C23.8664 7.72579 23.0762 7.70899 20.8125 7.70899H14.6465C12.3828 7.70899 11.5926 7.72579 10.9912 7.90821C9.51306 8.3566 8.3566 9.51306 7.90821 10.9912C7.72579 11.5926 7.70899 12.3828 7.70899 14.6465C7.70899 16.9095 7.72588 17.6995 7.90821 18.3008C8.3566 19.7789 9.51306 20.9364 10.9912 21.3848C11.5925 21.5671 12.3831 21.584 14.6465 21.584H20.8125C23.0759 21.584 23.8664 21.5671 24.4678 21.3848C25.9459 20.9364 27.1024 19.7789 27.5508 18.3008C27.7331 17.6995 27.75 16.9095 27.75 14.6465ZM30.834 14.6465C30.834 16.6856 30.8506 18.047 30.502 19.1963C29.7547 21.6598 27.8267 23.5876 25.3633 24.335C24.2139 24.6836 22.8518 24.667 20.8125 24.667H14.6465C12.6072 24.667 11.2451 24.6836 10.0957 24.335C7.63228 23.5876 5.70432 21.6598 4.95704 19.1963C4.60842 18.047 4.625 16.6856 4.625 14.6465C4.625 12.6072 4.60838 11.2451 4.95704 10.0957C5.70439 7.63232 7.63232 5.70439 10.0957 4.95704C11.2451 4.60838 12.6072 4.625 14.6465 4.625H20.8125C22.8518 4.625 24.2139 4.60838 25.3633 4.95704C27.8267 5.70439 29.7546 7.63232 30.502 10.0957C30.8506 11.2451 30.834 12.6072 30.834 14.6465Z" fill="#3FA9F5"/>
<path d="M4.625 13.875V4.625C4.62483 3.77382 3.93517 3.08416 3.08398 3.08398H1.54199C0.690553 3.08398 0 2.39343 0 1.54199C0 0.690553 0.690553 0 1.54199 0H3.08398C5.63804 0.000175789 7.70881 2.07094 7.70898 4.625V13.875C7.70898 14.7264 7.01843 15.417 6.16699 15.417C5.31555 15.417 4.625 14.7264 4.625 13.875Z" fill="#3FA9F5"/>
</svg>
