<svg width="31" height="31" viewBox="0 0 31 31" fill="none" xmlns="http://www.w3.org/2000/svg">
<path d="M27.75 13.875C27.75 10.9247 27.7468 8.86704 27.5381 7.31445C27.3353 5.80614 26.9644 5.00738 26.3955 4.43848C25.8266 3.86958 25.0278 3.49869 23.5195 3.2959C21.9669 3.08718 19.9093 3.08399 16.959 3.08399H13.875C10.9247 3.08399 8.86704 3.08718 7.31445 3.2959C5.80614 3.49869 5.00738 3.86958 4.43848 4.43848C3.86958 5.00738 3.49869 5.80614 3.2959 7.31445C3.08718 8.86704 3.08399 10.9247 3.08399 13.875V16.959C3.08399 19.9093 3.08718 21.9669 3.2959 23.5195C3.49869 25.0278 3.86958 25.8266 4.43848 26.3955C5.00738 26.9644 5.80614 27.3353 7.31445 27.5381C8.86704 27.7468 10.9247 27.75 13.875 27.75H16.959C19.9093 27.75 21.9669 27.7468 23.5195 27.5381C25.0278 27.3353 25.8266 26.9644 26.3955 26.3955C26.9644 25.8266 27.3353 25.0278 27.5381 23.5195C27.7468 21.9669 27.75 19.9093 27.75 16.959V13.875ZM30.834 16.959C30.834 19.8222 30.8365 22.1249 30.5938 23.9307C30.345 25.7808 29.8134 27.3389 28.5762 28.5762C27.3389 29.8134 25.7808 30.345 23.9307 30.5938C22.1249 30.8365 19.8222 30.834 16.959 30.834H13.875C11.0117 30.834 8.70913 30.8365 6.90332 30.5938C5.05315 30.345 3.49506 29.8134 2.25781 28.5762C1.02057 27.3389 0.488998 25.7808 0.240235 23.9307C-0.00254864 22.1249 8.45512e-07 19.8222 1.09377e-06 16.959V13.875C8.45509e-07 11.0117 -0.00254864 8.70913 0.240235 6.90332C0.488998 5.05315 1.02057 3.49506 2.25781 2.25781C3.49506 1.02057 5.05315 0.488998 6.90332 0.240235C8.70913 -0.00254864 11.0117 8.45512e-07 13.875 1.09377e-06H16.959C19.8222 8.45509e-07 22.1249 -0.00254864 23.9307 0.240235C25.7808 0.488998 27.3389 1.02057 28.5762 2.25781C29.8134 3.49506 30.345 5.05315 30.5938 6.90332C30.8365 8.70913 30.834 11.0117 30.834 13.875V16.959Z" fill="#FF702D"/>
<path d="M7.70837 9.25034C7.70837 8.3989 8.39893 7.70834 9.25037 7.70834C10.1018 7.70834 10.7924 8.3989 10.7924 9.25034C10.7924 11.8047 12.863 13.8753 15.4174 13.8753C17.9715 13.8752 20.0424 11.8045 20.0424 9.25034C20.0424 8.399 20.7321 7.70852 21.5834 7.70834C22.4348 7.70834 23.1254 8.3989 23.1254 9.25034C23.1254 13.5074 19.6744 16.9582 15.4174 16.9583C11.1602 16.9583 7.70837 13.5075 7.70837 9.25034Z" fill="#FF702D"/>
</svg>
