<svg width="18" height="20" viewBox="0 0 18 20" fill="none" xmlns="http://www.w3.org/2000/svg">
<path d="M2 9C2 7.11438 2 6.17157 2.58579 5.58579C3.17157 5 4.11438 5 6 5H12C13.8856 5 14.8284 5 15.4142 5.58579C16 6.17157 16 7.11438 16 9V12C16 14.8089 16 16.2134 15.3259 17.2223C15.034 17.659 14.659 18.034 14.2223 18.3259C13.2134 19 11.8089 19 9 19C6.19108 19 4.78661 19 3.77772 18.3259C3.34096 18.034 2.96596 17.659 2.67412 17.2223C2 16.2134 2 14.8089 2 12V9Z" stroke="#FF4A4A" stroke-width="2" stroke-linecap="round"/>
<path d="M12 4V3C12 2.05719 12 1.58579 11.7071 1.29289C11.4142 1 10.9428 1 10 1H8C7.05719 1 6.58579 1 6.29289 1.29289C6 1.58579 6 2.05719 6 3V4" stroke="#FF4A4A" stroke-width="2" stroke-linecap="round"/>
<path d="M1 5H17" stroke="#FF4A4A" stroke-width="2" stroke-linecap="round"/>
<path d="M7 9V15" stroke="#FF4A4A" stroke-width="2" stroke-linecap="round"/>
<path d="M11 9V15" stroke="#FF4A4A" stroke-width="2" stroke-linecap="round"/>
</svg>
