<svg width="45" height="42" viewBox="0 0 45 42" fill="none" xmlns="http://www.w3.org/2000/svg">
<path d="M9.39575 35.0208L22.5014 21.9151C24.7791 19.6374 25.918 18.4985 27.3333 18.4985C28.7485 18.4985 29.8874 19.6374 32.1651 21.9151L35.8749 25.6249M17.0833 14.5208C17.0833 15.936 15.936 17.0833 14.5208 17.0833C13.1055 17.0833 11.9583 15.936 11.9583 14.5208C11.9583 13.1055 13.1055 11.9583 14.5208 11.9583C15.936 11.9583 17.0833 13.1055 17.0833 14.5208Z" stroke="#500311" stroke-width="3.41667" stroke-linecap="round" stroke-linejoin="round"/>
<rect x="5.125" y="5.125" width="30.75" height="30.75" rx="6.83333" stroke="#500311" stroke-width="3.41667" stroke-linecap="round"/>
<circle cx="36" cy="33" r="7.36364" fill="#500311" stroke="#500311" stroke-width="3.27273"/>
<path d="M35.9545 28.8977V37.0113M31.8977 32.9545H40.0113" stroke="#F6EEE9" stroke-width="1.5" stroke-linecap="round" stroke-linejoin="round"/>
</svg>
