<svg width="28" height="28" viewBox="0 0 28 28" fill="none" xmlns="http://www.w3.org/2000/svg">
<path d="M13.9999 10.2273C15.8827 10.2273 17.409 8.70097 17.409 6.81818C17.409 4.93539 15.8827 3.40909 13.9999 3.40909C12.1171 3.40909 10.5908 4.93539 10.5908 6.81818C10.5908 8.70097 12.1171 10.2273 13.9999 10.2273Z" stroke="#3FA9F5" stroke-width="2.27273" stroke-linecap="round" stroke-linejoin="round"/>
<path d="M20.4547 22.7273V20.4545C20.4547 18.3366 20.4547 17.2777 20.1087 16.4423C19.6474 15.3286 18.7625 14.4437 17.6487 13.9824C16.8134 13.6364 15.7545 13.6364 13.6365 13.6364C11.5186 13.6364 10.4597 13.6364 9.62435 13.9824C8.51058 14.4437 7.6257 15.3286 7.16436 16.4423C6.81836 17.2777 6.81836 18.3366 6.81836 20.4545V22.7273" stroke="#3FA9F5" stroke-width="2.27273" stroke-linecap="round"/>
</svg>
