<svg width="24" height="24" viewBox="0 0 24 24" fill="none" xmlns="http://www.w3.org/2000/svg">
<path d="M11.2318 15.9219C11.6316 15.4421 12.3684 15.4421 12.7682 15.9219L15.6332 19.3598C16.176 20.0111 15.7128 21 14.865 21H9.13504C8.2872 21 7.82405 20.0111 8.36682 19.3598L11.2318 15.9219Z" stroke="#4B17CD" stroke-width="2" stroke-linecap="round" stroke-linejoin="round"/>
<path d="M18 17C18.9319 17 19.3978 17 19.7654 16.8478C20.2554 16.6448 20.6448 16.2554 20.8478 15.7654C21 15.3978 21 14.9319 21 14V7C21 5.11438 21 4.17157 20.4142 3.58579C19.8284 3 18.8856 3 17 3H7C5.11438 3 4.17157 3 3.58579 3.58579C3 4.17157 3 5.11438 3 7V14C3 14.9319 3 15.3978 3.15224 15.7654C3.35523 16.2554 3.74458 16.6448 4.23463 16.8478C4.60218 17 5.06812 17 6 17" stroke="#4B17CD" stroke-width="2" stroke-linecap="round" stroke-linejoin="round"/>
<circle cx="18" cy="17" r="1" fill="#4B17CD"/>
</svg>
