<svg width="24" height="24" viewBox="0 0 24 24" fill="none" xmlns="http://www.w3.org/2000/svg">
<path d="M4 9C4 8.05719 4 7.58579 4.29289 7.29289C4.58579 7 5.05719 7 6 7H18C18.9428 7 19.4142 7 19.7071 7.29289C20 7.58579 20 8.05719 20 9V13C20 16.7712 20 18.6569 18.8284 19.8284C17.6569 21 15.7712 21 12 21C8.22876 21 6.34315 21 5.17157 19.8284C4 18.6569 4 16.7712 4 13V9Z" stroke="#4B17CD" stroke-width="2" stroke-linecap="round"/>
<rect x="2" y="3" width="20" height="4" rx="1" stroke="#4B17CD" stroke-width="2" stroke-linecap="round"/>
<path d="M10 11H14" stroke="#4B17CD" stroke-width="2" stroke-linecap="round"/>
</svg>
