<svg width="24" height="24" viewBox="0 0 24 24" fill="none" xmlns="http://www.w3.org/2000/svg">
<path d="M14 6.02686C14.6545 6.06034 15.1229 6.13554 15.5307 6.30447C16.5108 6.71045 17.2895 7.48914 17.6955 8.46925C18 9.20434 18 10.1362 18 12C18 13.8638 18 14.7956 17.6955 15.5307C17.2895 16.5108 16.5108 17.2895 15.5307 17.6955C15.1229 17.8644 14.6545 17.9396 14 17.9731" stroke="#4B17CD" stroke-width="2" stroke-linecap="round"/>
<path d="M7 6.02686C6.34549 6.06034 5.87709 6.13554 5.46926 6.30447C4.48915 6.71045 3.71046 7.48914 3.30448 8.46925C3 9.20434 3 10.1362 3 12C3 13.8638 3 14.7956 3.30448 15.5307C3.71046 16.5108 4.48915 17.2895 5.46927 17.6955C5.87709 17.8644 6.34549 17.9396 7 17.9731" stroke="#4B17CD" stroke-width="2" stroke-linecap="round"/>
<path d="M21 10L21 14" stroke="#4B17CD" stroke-width="2" stroke-linecap="round"/>
<path d="M11.6667 8L9.05247 10.2407C8.34757 10.8449 8.77485 12 9.70326 12H11.2967C12.2251 12 12.6524 13.1551 11.9475 13.7593L9.33333 16" stroke="#4B17CD" stroke-width="2" stroke-linecap="round"/>
</svg>
