<svg width="24" height="24" viewBox="0 0 24 24" fill="none" xmlns="http://www.w3.org/2000/svg">
<path d="M13.73 21C13.5542 21.3031 13.3019 21.5547 12.9982 21.7295C12.6946 21.9044 12.3504 21.9965 12 21.9965C11.6496 21.9965 11.3054 21.9044 11.0018 21.7295C10.6982 21.5547 10.4458 21.3031 10.27 21" stroke="#4B17CD" stroke-width="2" stroke-linecap="round" stroke-linejoin="round"/>
<path d="M5 10C5 6.13401 8.13401 3 12 3C15.866 3 19 6.13401 19 10V16.5C19 16.9659 19 17.1989 18.9239 17.3827C18.8224 17.6277 18.6277 17.8224 18.3827 17.9239C18.1989 18 17.9659 18 17.5 18H6.5C6.03406 18 5.80109 18 5.61732 17.9239C5.37229 17.8224 5.17761 17.6277 5.07612 17.3827C5 17.1989 5 16.9659 5 16.5V10Z" stroke="#4B17CD" stroke-width="2" stroke-linecap="round"/>
</svg>
