<svg width="24" height="24" viewBox="0 0 24 24" fill="none" xmlns="http://www.w3.org/2000/svg">
<path d="M4 6.54545L16.6934 15.0077C17.7461 15.7095 18.2724 16.0604 18.2913 16.5717C18.3102 17.083 17.8112 17.4718 16.8133 18.2494L15.2293 19.4837C13.8245 20.5783 13.1221 21.1256 12.5611 20.8515C12 20.5775 12 19.687 12 17.9061V6.09394C12 4.31301 12 3.42255 12.5611 3.14846C13.1221 2.87437 13.8245 3.42169 15.2293 4.51634L16.8133 5.7506C17.8112 6.52823 18.3102 6.91705 18.2913 7.42833C18.2724 7.93962 17.7461 8.29051 16.6934 8.9923L4 17.4545" stroke="#4B17CD" stroke-width="2" stroke-linecap="round" stroke-linejoin="round"/>
</svg>
