<svg width="24" height="24" viewBox="0 0 24 24" fill="none" xmlns="http://www.w3.org/2000/svg">
<path d="M4 12V17.5679C4 19.095 4 19.8586 4.49652 20.1479C4.99304 20.4373 5.65737 20.0608 6.98602 19.3079L11.014 17.0254C11.4956 16.7525 11.7364 16.6161 12 16.6161C12.2636 16.6161 12.5044 16.7525 12.986 17.0254L17.014 19.3079C18.3426 20.0608 19.007 20.4373 19.5035 20.1479C20 19.8586 20 19.095 20 17.5679V12C20 8.22876 20 6.34315 18.8284 5.17157C17.6569 4 15.7712 4 12 4C8.22876 4 6.34315 4 5.17157 5.17157C4 6.34315 4 8.22876 4 12Z" stroke="#4B17CD" stroke-width="2"/>
</svg>
