<svg width="24" height="24" viewBox="0 0 24 24" fill="none" xmlns="http://www.w3.org/2000/svg">
<path d="M12 7.77778C12 6.77585 11.5786 5.81496 10.8284 5.10649C10.0783 4.39801 9.06087 4 8 4C5.17157 4 3.75736 4 2.87868 4.87868C2 5.75736 2 7.17157 2 10V12.1667C2 14.9951 2 16.4093 2.87868 17.288C3.75736 18.1667 5.17157 18.1667 8 18.1667H9C9.79565 18.1667 10.5587 18.4652 11.1213 18.9965C11.6839 19.5279 12 20.2486 12 21M12 7.77778V21M12 7.77778C12 6.77585 12.4214 5.81496 13.1716 5.10649C13.9217 4.39801 14.9391 4 16 4C18.8284 4 20.2426 4 21.1213 4.87868C22 5.75736 22 7.17157 22 10V12.1667C22 14.9951 22 16.4093 21.1213 17.288C20.2426 18.1667 18.8284 18.1667 16 18.1667H15C14.2044 18.1667 13.4413 18.4652 12.8787 18.9965C12.3161 19.5279 12 20.2486 12 21" stroke="#4B17CD" stroke-width="2" stroke-linecap="round" stroke-linejoin="round"/>
</svg>
