<svg width="24" height="24" viewBox="0 0 24 24" fill="none" xmlns="http://www.w3.org/2000/svg">
<path d="M19.5 20H10C7.19108 20 5.78661 20 4.77772 19.3259C4.34096 19.0341 3.96596 18.6591 3.67412 18.2223C3 17.2134 3 15.809 3 13V10.5C3 10.0357 3 9.80353 3.01926 9.60797C3.18039 7.97205 4.31763 6.63041 5.84366 6.17041" stroke="#4B17CD" stroke-width="2" stroke-linecap="round"/>
<path d="M15 6V5C15 4.06812 15 3.60218 14.8478 3.23463C14.6448 2.74458 14.2554 2.35523 13.7654 2.15224C13.3978 2 12.9319 2 12 2C11.0681 2 10.6022 2 10.2346 2.15224C9.74458 2.35523 9.35523 2.74458 9.15224 3.23463C9 3.60218 9 4.06812 9 5V6" stroke="#4B17CD" stroke-width="2"/>
<path d="M9.73105 9.70532C8.68533 10.4269 8 11.6334 8 13C8 15.2091 9.79086 17 12 17C13.3529 17 14.5489 16.3284 15.2728 15.3004" stroke="#4B17CD" stroke-width="2"/>
<path d="M3 3L21 21" stroke="#4B17CD" stroke-width="2" stroke-linecap="round"/>
<path d="M21 17V14C21 10.2288 21 8.34315 19.8284 7.17157C18.6569 6 16.7712 6 13 6H9" stroke="#4B17CD" stroke-width="2" stroke-linecap="round"/>
</svg>
