<svg width="24" height="24" viewBox="0 0 24 24" fill="none" xmlns="http://www.w3.org/2000/svg">
<path d="M3 10.875C3 9.55901 2.99999 9.57213 3.03495 8.625C3.1127 6.51866 3.36338 5.22721 4.17156 4.31802C5.34313 3 7.22875 3 11 3H13C16.7712 3 18.6569 3 19.8284 4.31802C21 5.63604 21 7.75736 21 12C21 16.2426 21 18.364 19.8284 19.682C18.6569 21 16.7712 21 13 21" stroke="#4B17CD" stroke-width="2" stroke-linecap="round"/>
<path d="M3 18.0566C3.7252 18.2045 4.3909 18.5624 4.91425 19.0858C5.4376 19.6091 5.7955 20.2748 5.9434 21M3 15C4.53267 15.1705 5.96172 15.8574 7.05216 16.9478C8.14261 18.0383 8.82954 19.4673 9 21M3 21H3.00755" stroke="#4B17CD" stroke-width="2" stroke-linecap="round" stroke-linejoin="round"/>
</svg>
