<svg width="24" height="24" viewBox="0 0 24 24" fill="none" xmlns="http://www.w3.org/2000/svg">
<path d="M21 13.125C21 14.441 21 14.4279 20.9651 15.375C20.8873 17.4813 20.6366 18.7728 19.8284 19.682C18.6569 21 16.7712 21 13 21H11C7.22877 21 5.34315 21 4.17157 19.682C3 18.364 3 16.2426 3 12C3 7.75736 3 5.63604 4.17157 4.31802C5.34315 3 7.22877 3 11 3H12" stroke="#4B17CD" stroke-width="2" stroke-linecap="round"/>
<path d="M21 4L13.8284 11.1787C12.4952 12.5134 11.8285 13.1807 10.9998 13.1809C10.1711 13.1811 9.5041 12.5141 8.17016 11.1802L8 11.01" stroke="#4B17CD" stroke-width="2" stroke-linecap="round" stroke-linejoin="round"/>
</svg>
