<svg width="24" height="24" viewBox="0 0 24 24" fill="none" xmlns="http://www.w3.org/2000/svg">
<path d="M22 11.0857V12.0057C21.9988 14.1621 21.3005 16.2604 20.0093 17.9875C18.7182 19.7147 16.9033 20.9782 14.8354 21.5896C12.7674 22.201 10.5573 22.1276 8.53447 21.3803C6.51168 20.633 4.78465 19.2518 3.61096 17.4428C2.43727 15.6338 1.87979 13.4938 2.02168 11.342C2.16356 9.19029 2.99721 7.14205 4.39828 5.5028C5.79935 3.86354 7.69279 2.72111 9.79619 2.24587C11.8996 1.77063 14.1003 1.98806 16.07 2.86572M22 4.00574L14.8284 11.1845C13.4952 12.5191 12.8285 13.1864 11.9998 13.1866C11.1711 13.1868 10.5041 12.5198 9.17016 11.1859L9 11.0157" stroke="#4B17CD" stroke-width="2" stroke-linecap="round" stroke-linejoin="round"/>
</svg>
