<svg width="24" height="24" viewBox="0 0 24 24" fill="none" xmlns="http://www.w3.org/2000/svg">
<path d="M16.5 4C16.9643 4 17.1965 4 17.3921 4.01926C19.2912 4.20631 20.7937 5.70882 20.9807 7.60793C21 7.80349 21 8.03566 21 8.5V13C21 16.7712 21 18.6569 19.8284 19.8284C18.6569 21 16.7712 21 13 21H11C7.22876 21 5.34315 21 4.17157 19.8284C3 18.6569 3 16.7712 3 13V8.5C3 8.03566 3 7.80349 3.01926 7.60793C3.20631 5.70882 4.70882 4.20631 6.60793 4.01926C6.80349 4 7.03566 4 7.5 4" stroke="#4B17CD" stroke-width="2"/>
<rect x="8" y="2" width="8" height="4" rx="1" stroke="#4B17CD" stroke-width="2"/>
</svg>
