<svg width="24" height="24" viewBox="0 0 24 24" fill="none" xmlns="http://www.w3.org/2000/svg">
<path d="M18 18H4.625C3.17525 18 2 16.8247 2 15.375V15.1601C2 13.8291 3.07906 12.75 4.41015 12.75H4.63109C4.64218 12.75 4.65116 12.741 4.65116 12.7299V9.52325C4.65116 8.3075 5.04396 7.18349 5.70958 6.27121M20.1379 16.2332C20.6795 15.5049 21 14.6024 21 13.625C21 11.2088 19.0412 9.25 16.625 9.25H15.7097C15.7031 9.25 15.6977 9.24461 15.6977 9.23796C15.6977 6.34511 13.3526 4 10.4597 4H10.1744C9.77141 4 9.37848 4.04316 9 4.12512" stroke="#4B17CD" stroke-width="2" stroke-linecap="round"/>
<path d="M3 3L21 21" stroke="#4B17CD" stroke-width="2" stroke-linecap="round"/>
</svg>
