<svg width="24" height="24" viewBox="0 0 24 24" fill="none" xmlns="http://www.w3.org/2000/svg">
<path d="M7.94384 6.38598C9.92179 5.22248 10.9108 4.64073 12 4.64073C13.0892 4.64073 14.0782 5.22248 16.0562 6.38598L17.6987 7.35218C18.5038 7.82574 18.9063 8.06251 19.2272 8.36167C19.8189 8.91315 20.2295 9.63106 20.4049 10.4207C20.5 10.849 20.5 11.316 20.5 12.25C20.5 13.184 20.5 13.651 20.4049 14.0793C20.2295 14.8689 19.8189 15.5868 19.2272 16.1383C18.9063 16.4375 18.5038 16.6743 17.6987 17.1478L16.0562 18.114C14.0782 19.2775 13.0892 19.8593 12 19.8593C10.9108 19.8593 9.92179 19.2775 7.94384 18.114L6.30129 17.1478C5.49625 16.6743 5.09373 16.4375 4.77276 16.1383C4.18106 15.5868 3.77045 14.8689 3.59511 14.0793C3.5 13.651 3.5 13.184 3.5 12.25C3.5 11.316 3.5 10.849 3.59511 10.4207C3.77045 9.63106 4.18106 8.91315 4.77276 8.36167C5.09373 8.06251 5.49625 7.82574 6.30129 7.35218L7.94384 6.38598Z" stroke="#4B17CD" stroke-width="2"/>
<path d="M4.23999 9.46228L12 13.9838L19.76 9.46228M12 19.5V13.9749" stroke="#4B17CD" stroke-width="2" stroke-linecap="round" stroke-linejoin="round"/>
<path d="M4.23999 14.5378L12 10.0162L19.76 14.5378M12 5.00002V10.0252" stroke="#4B17CD" stroke-width="2" stroke-linecap="round" stroke-linejoin="round"/>
</svg>
