<svg width="24" height="24" viewBox="0 0 24 24" fill="none" xmlns="http://www.w3.org/2000/svg">
<path d="M4 12C4 10.1144 4 9.17157 4.58579 8.58579C5.17157 8 6.11438 8 8 8H14C15.8856 8 16.8284 8 17.4142 8.58579C18 9.17157 18 10.1144 18 12V13C18 15.8089 18 17.2134 17.3259 18.2223C17.034 18.659 16.659 19.034 16.2223 19.3259C15.2134 20 13.8089 20 11 20C8.19108 20 6.78661 20 5.77772 19.3259C5.34096 19.034 4.96596 18.659 4.67412 18.2223C4 17.2134 4 15.8089 4 13V12Z" stroke="#4B17CD" stroke-width="2"/>
<path d="M18 16L18 11L19.5 11C19.9647 11 20.197 11 20.3902 11.0384C21.1836 11.1962 21.8038 11.8164 21.9616 12.6098C22 12.803 22 13.0353 22 13.5C22 13.9647 22 14.197 21.9616 14.3902C21.8038 15.1836 21.1836 15.8038 20.3902 15.9616C20.197 16 19.9647 16 19.5 16L18 16Z" stroke="#4B17CD" stroke-width="2"/>
<path d="M7 3V5M11 3V5M15 3V5" stroke="#4B17CD" stroke-width="2" stroke-linecap="round" stroke-linejoin="round"/>
</svg>
