<svg width="24" height="24" viewBox="0 0 24 24" fill="none" xmlns="http://www.w3.org/2000/svg">
<path d="M12 22C17.5228 22 22 17.5228 22 12C22 6.47715 17.5228 2 12 2C6.47715 2 2 6.47715 2 12C2 17.5228 6.47715 22 12 22Z" stroke="#4B17CD" stroke-width="2" stroke-linecap="round" stroke-linejoin="round"/>
<path d="M14.3426 8.39247C15.1244 8.13188 15.8681 8.87562 15.6076 9.65738L14.4362 13.1713C14.2372 13.7685 13.7685 14.2372 13.1713 14.4362L9.65738 15.6076C8.87562 15.8681 8.13188 15.1244 8.39247 14.3426L9.56378 10.8287C9.76285 10.2315 10.2315 9.76285 10.8287 9.56378L14.3426 8.39247Z" stroke="#4B17CD" stroke-width="2" stroke-linecap="round" stroke-linejoin="round"/>
</svg>
