<svg width="24" height="24" viewBox="0 0 24 24" fill="none" xmlns="http://www.w3.org/2000/svg">
<path d="M5.84579 7.63258C7.00392 5.85521 7.58298 4.96653 8.47468 4.48327C9.36637 4 10.4271 4 12.5485 4H13C16.7712 4 18.6569 4 19.8284 5.17157C21 6.34315 21 8.22876 21 12C21 15.7712 21 17.6569 19.8284 18.8284C18.6569 20 16.7712 20 13 20H12.5485C10.4271 20 9.36637 20 8.47468 19.5167C7.58298 19.0335 7.00392 18.1448 5.84579 16.3674L4.4229 14.1837C3.73237 13.124 3.38711 12.5941 3.38711 12C3.38711 11.4059 3.73237 10.876 4.4229 9.81629L5.84579 7.63258Z" stroke="#4B17CD" stroke-width="2"/>
<path d="M15 10L11 14M11 10L15 14" stroke="#4B17CD" stroke-width="2" stroke-linecap="round" stroke-linejoin="round"/>
</svg>
