<svg width="24" height="24" viewBox="0 0 24 24" fill="none" xmlns="http://www.w3.org/2000/svg">
<path d="M17.4099 3.61598C17.8043 3.22158 18.3392 3 18.897 3C19.4547 3 19.9897 3.22158 20.3841 3.61598C20.7785 4.01039 21.0001 4.54532 21.0001 5.1031C21.0001 5.66087 20.7785 6.1958 20.3841 6.59021L13.0001 14L10.6513 14.5872C9.91895 14.7703 9.25556 14.1069 9.43865 13.3745L10.0258 11.0258L17.4099 3.61598Z" stroke="#4B17CD" stroke-width="2" stroke-linecap="round" stroke-linejoin="round"/>
<path d="M13 3H11C7.22876 3 5.34315 3 4.17157 4.17157C3 5.34315 3 7.22876 3 11V13C3 16.7712 3 18.6569 4.17157 19.8284C5.34315 21 7.22876 21 11 21H13C16.7712 21 18.6569 21 19.8284 19.8284C21 18.6569 21 16.7712 21 13V11" stroke="#4B17CD" stroke-width="2" stroke-linecap="round"/>
</svg>
