<svg width="24" height="24" viewBox="0 0 24 24" fill="none" xmlns="http://www.w3.org/2000/svg">
<path d="M16.6168 3.75204C16.8552 3.51361 17.1383 3.32448 17.4498 3.19545C17.7613 3.06641 18.0952 3 18.4324 3C18.7696 3 19.1035 3.06641 19.415 3.19545C19.7265 3.32448 20.0095 3.51361 20.248 3.75204C20.4864 3.99046 20.6755 4.27351 20.8046 4.58503C20.9336 4.89655 21 5.23043 21 5.56761C21 5.90479 20.9336 6.23868 20.8046 6.55019C20.6755 6.86171 20.4864 7.14476 20.248 7.38319L8.18061 19.4505C8.05756 19.5736 7.90452 19.6624 7.73662 19.7082L4.68834 20.5395C3.94184 20.7431 3.25686 20.0582 3.46046 19.3117L4.29181 16.2634C4.3376 16.0955 4.42641 15.9424 4.54946 15.8194L16.6168 3.75204Z" stroke="#4B17CD" stroke-width="2" stroke-linecap="round" stroke-linejoin="round"/>
</svg>
