<svg width="24" height="24" viewBox="0 0 24 24" fill="none" xmlns="http://www.w3.org/2000/svg">
<path d="M16 3H17C18.8856 3 19.8284 3 20.4142 3.58579C21 4.17157 21 5.11438 21 7V8" stroke="#4B17CD" stroke-width="2" stroke-linecap="round" stroke-linejoin="round"/>
<path d="M12 3H11C7.22876 3 5.34315 3 4.17157 4.17157C3 5.34315 3 7.22876 3 11V13C3 16.7712 3 18.6569 4.17157 19.8284C5.34315 21 7.22876 21 11 21H13C16.7712 21 18.6569 21 19.8284 19.8284C21 18.6569 21 16.7712 21 13V12" stroke="#4B17CD" stroke-width="2" stroke-linecap="round"/>
<path d="M20 4L12 12" stroke="#4B17CD" stroke-width="2" stroke-linecap="round"/>
</svg>
