<svg width="24" height="24" viewBox="0 0 24 24" fill="none" xmlns="http://www.w3.org/2000/svg">
<path d="M13.45 12C13.45 14.3708 13.45 15.5562 13.9763 16.1299C14.3286 16.5139 14.817 16.7453 15.3374 16.7746C16.1146 16.8184 17.0318 16.0675 18.8663 14.5656C20.0043 13.6339 20.5734 13.168 20.7519 12.5962C20.8732 12.208 20.8732 11.792 20.7519 11.4038C20.5734 10.832 20.0043 10.3661 18.8663 9.43439C17.0318 7.93251 16.1146 7.18156 15.3374 7.2254C14.817 7.25474 14.3286 7.48607 13.9763 7.87013C13.45 8.44375 13.45 9.62917 13.45 12Z" stroke="#4B17CD" stroke-width="2" stroke-linecap="round" stroke-linejoin="round"/>
<path d="M3 12C3 14.3708 3 15.5562 3.52628 16.1299C3.87864 16.5139 4.36701 16.7453 4.88739 16.7746C5.66462 16.8184 6.58185 16.0675 8.41629 14.5656C9.55434 13.6339 10.1234 13.168 10.3019 12.5962C10.4232 12.208 10.4232 11.792 10.3019 11.4038C10.1234 10.832 9.55434 10.3661 8.41629 9.43439C6.58185 7.93251 5.66462 7.18156 4.88739 7.2254C4.36701 7.25474 3.87864 7.48607 3.52628 7.87013C3 8.44375 3 9.62917 3 12Z" stroke="#4B17CD" stroke-width="2" stroke-linecap="round" stroke-linejoin="round"/>
</svg>
