<svg width="24" height="24" viewBox="0 0 24 24" fill="none" xmlns="http://www.w3.org/2000/svg">
<path d="M15.3169 8.68963L8.68471 15.3183M3 21L8.68471 15.3183M16.738 15.3183H8.68471M19.3341 12.7047C20.4007 11.6386 21 10.1926 21 8.68487C21 7.17715 20.4007 5.73118 19.3341 4.66506C18.2674 3.59894 16.8206 3 15.3121 3C13.8036 3 12.3569 3.59894 11.2902 4.66506L6.5628 9.38996C6.07545 9.87706 5.83177 10.1206 5.63846 10.3916C5.28578 10.886 5.05032 11.4543 4.94993 12.0533C4.8949 12.3816 4.8949 12.7261 4.8949 13.4151C4.8949 14.9892 4.8949 15.7763 5.11335 16.4099C5.51433 17.5729 6.42812 18.4867 7.5911 18.8876C8.2247 19.1061 9.01193 19.1061 10.5864 19.1061C11.2768 19.1061 11.622 19.1061 11.9508 19.0509C12.5503 18.9502 13.1189 18.7143 13.6136 18.3609C13.8849 18.1671 14.1286 17.9228 14.6161 17.4341L19.3341 12.7047Z" stroke="#4B17CD" stroke-width="2" stroke-linecap="round" stroke-linejoin="round"/>
</svg>
