<svg width="24" height="24" viewBox="0 0 24 24" fill="none" xmlns="http://www.w3.org/2000/svg">
<path d="M3 11C3 7.22876 3 5.34315 4.17157 4.17157C5.34315 3 7.22876 3 11 3H11.6863C13.3213 3 14.1388 3 14.8739 3.30448C15.609 3.60896 16.187 4.18702 17.3431 5.34315L18.6569 6.65685C19.813 7.81298 20.391 8.39104 20.6955 9.12612C21 9.8612 21 10.6787 21 12.3137V13C21 16.7712 21 18.6569 19.8284 19.8284C18.6569 21 16.7712 21 13 21H11C7.22876 21 5.34315 21 4.17157 19.8284C3 18.6569 3 16.7712 3 13V11Z" stroke="#4B17CD" stroke-width="2" stroke-linecap="round"/>
<path d="M14 3.5V8C14 9.10457 14.8954 10 16 10H20.5" stroke="#4B17CD" stroke-width="2" stroke-linecap="round"/>
<path d="M9 17H15" stroke="#4B17CD" stroke-width="2" stroke-linecap="round"/>
<path d="M9 13H15" stroke="#4B17CD" stroke-width="2" stroke-linecap="round"/>
<path d="M9 9H10" stroke="#4B17CD" stroke-width="2" stroke-linecap="round"/>
</svg>
