<svg width="24" height="24" viewBox="0 0 24 24" fill="none" xmlns="http://www.w3.org/2000/svg">
<path d="M16.4331 9.5829C18.8384 6.73863 20.041 5.31649 19.5036 4.15825C18.9662 3 17.1038 3 13.3788 3H10.6212C6.89625 3 5.03377 3 4.49637 4.15825C3.95898 5.31649 5.16163 6.73863 7.56693 9.5829L9.05428 11.3417C9.52218 11.895 9.75614 12.1716 9.87807 12.5046C10 12.8377 10 13.2 10 13.9246V17.7639C10 18.3653 10 18.666 10.1493 18.9077C10.2987 19.1493 10.5677 19.2838 11.1056 19.5528C12.4028 20.2014 13.0515 20.5257 13.5257 20.2326C14 19.9395 14 19.2143 14 17.7639V13.9246C14 13.2 14 12.8377 14.1219 12.5046C14.2439 12.1716 14.4778 11.895 14.9457 11.3417L16.4331 9.5829Z" stroke="#4B17CD" stroke-width="2" stroke-linecap="round" stroke-linejoin="round"/>
</svg>
