<svg width="24" height="24" viewBox="0 0 24 24" fill="none" xmlns="http://www.w3.org/2000/svg">
<path d="M3 7C3 5.11438 3 4.17157 3.58579 3.58579C4.17157 3 5.11438 3 7 3H7.85926C8.9072 3 9.43116 3 9.87335 3.23665C10.3155 3.4733 10.6062 3.90927 11.1875 4.7812L11.4109 5.11631C11.6969 5.54542 11.84 5.75998 12.0566 5.87805C12.0611 5.88048 12.0656 5.88288 12.0701 5.88525C12.2885 6 12.5463 6 13.0621 6H13.5C16.7875 6 18.4312 6 19.5376 6.90796C19.7401 7.07418 19.9258 7.25989 20.092 7.46243C21 8.56878 21 10.2125 21 13.5C21 16.7875 21 18.4312 20.092 19.5376C19.9258 19.7401 19.7401 19.9258 19.5376 20.092C18.4312 21 16.7875 21 13.5 21H11C7.22876 21 5.34315 21 4.17157 19.8284C3 18.6569 3 16.7712 3 13V7Z" stroke="#4B17CD" stroke-width="2" stroke-linecap="round"/>
<path d="M9 14H15" stroke="#4B17CD" stroke-width="2" stroke-linecap="round"/>
</svg>
