<svg width="24" height="24" viewBox="0 0 24 24" fill="none" xmlns="http://www.w3.org/2000/svg">
<path d="M5 16V13C5 11.1144 5 10.1716 5.58579 9.58579C6.17157 9 7.11438 9 9 9H15.5C16.9045 9 17.6067 9 18.1111 8.66294C18.3295 8.51702 18.517 8.32952 18.6629 8.11114C19 7.60669 19 6.90446 19 5.5C19 4.09554 19 3.39331 18.6629 2.88886C18.517 2.67048 18.3295 2.48298 18.1111 2.33706C17.6067 2 16.9045 2 15.5 2H9.82843C7.7735 2 6.74603 2 6.49033 2.61732C6.23463 3.23463 6.96116 3.96116 8.41421 5.41421L15.5858 12.5858C17.0388 14.0388 17.7654 14.7654 17.5097 15.3827C17.254 16 16.2265 16 14.1716 16H12M5 16H12M5 16L8.58579 19.5858C10.0388 21.0388 10.7654 21.7654 11.3827 21.5097C12 21.254 12 20.2265 12 18.1716V16" stroke="#4B17CD" stroke-width="2" stroke-linecap="round" stroke-linejoin="round"/>
</svg>
