<svg width="24" height="24" viewBox="0 0 24 24" fill="none" xmlns="http://www.w3.org/2000/svg">
<path d="M21.6518 14.1175L16.6201 17.6985C14.3796 19.2931 13.2594 20.0904 11.9813 20.0904C10.7032 20.0904 9.58299 19.2931 7.34253 17.6985L2.31085 14.1175C2.1812 14.0241 2.08504 13.893 2.03611 13.7428C1.98718 13.5927 1.988 13.4312 2.03844 13.2816L3.14623 9.92035L5.36181 3.24232C5.3833 3.18791 5.41751 3.13918 5.46169 3.10005C5.53364 3.03569 5.62757 3 5.72502 3C5.82247 3 5.91639 3.03569 5.98835 3.10005C6.035 3.14421 6.06938 3.1993 6.08823 3.26011L7.14349 6.43232C7.38224 7.15004 7.50162 7.5089 7.66404 7.81158C8.24582 8.89584 9.29425 9.65199 10.5067 9.86178C10.8452 9.92035 11.2234 9.92035 11.9798 9.92035C12.7367 9.92035 13.1152 9.92035 13.4539 9.8617C14.6672 9.65164 15.716 8.89453 16.2975 7.80916C16.4598 7.50616 16.5789 7.14693 16.8173 6.42847L17.8744 3.24232C17.8959 3.18791 17.9301 3.13918 17.9743 3.10005C18.0462 3.03569 18.1401 3 18.2376 3C18.335 3 18.429 3.03569 18.5009 3.10005C18.5476 3.14421 18.582 3.1993 18.6008 3.26011L20.8164 9.93813L21.9696 13.2816C22.0155 13.4359 22.0093 13.6005 21.9521 13.7511C21.8948 13.9017 21.7895 14.0301 21.6518 14.1175Z" stroke="#4B17CD" stroke-width="2" stroke-linecap="round" stroke-linejoin="round"/>
</svg>
