<svg width="24" height="24" viewBox="0 0 24 24" fill="none" xmlns="http://www.w3.org/2000/svg">
<path d="M10 6.5C10 5.09554 10 4.39331 9.66294 3.88886C9.51702 3.67048 9.32952 3.48298 9.11114 3.33706C8.60669 3 7.90446 3 6.5 3C5.09554 3 4.39331 3 3.88886 3.33706C3.67048 3.48298 3.48298 3.67048 3.33706 3.88886C3 4.39331 3 5.09554 3 6.5C3 7.90446 3 8.60669 3.33706 9.11114C3.48298 9.32952 3.67048 9.51702 3.88886 9.66294C4.39331 10 5.09554 10 6.5 10C7.90446 10 8.60669 10 9.11114 9.66294C9.32952 9.51702 9.51702 9.32952 9.66294 9.11114C10 8.60669 10 7.90446 10 6.5Z" stroke="#4B17CD" stroke-width="2" stroke-linecap="round" stroke-linejoin="round"/>
<path d="M21 6.5C21 5.09554 21 4.39331 20.6629 3.88886C20.517 3.67048 20.3295 3.48298 20.1111 3.33706C19.6067 3 18.9045 3 17.5 3C16.0955 3 15.3933 3 14.8889 3.33706C14.6705 3.48298 14.483 3.67048 14.3371 3.88886C14 4.39331 14 5.09554 14 6.5C14 7.90446 14 8.60669 14.3371 9.11114C14.483 9.32952 14.6705 9.51702 14.8889 9.66294C15.3933 10 16.0955 10 17.5 10C18.9045 10 19.6067 10 20.1111 9.66294C20.3295 9.51702 20.517 9.32952 20.6629 9.11114C21 8.60669 21 7.90446 21 6.5Z" stroke="#4B17CD" stroke-width="2" stroke-linecap="round" stroke-linejoin="round"/>
<path d="M21 17.5C21 16.0955 21 15.3933 20.6629 14.8889C20.517 14.6705 20.3295 14.483 20.1111 14.3371C19.6067 14 18.9045 14 17.5 14C16.0955 14 15.3933 14 14.8889 14.3371C14.6705 14.483 14.483 14.6705 14.3371 14.8889C14 15.3933 14 16.0955 14 17.5C14 18.9045 14 19.6067 14.3371 20.1111C14.483 20.3295 14.6705 20.517 14.8889 20.6629C15.3933 21 16.0955 21 17.5 21C18.9045 21 19.6067 21 20.1111 20.6629C20.3295 20.517 20.517 20.3295 20.6629 20.1111C21 19.6067 21 18.9045 21 17.5Z" stroke="#4B17CD" stroke-width="2" stroke-linecap="round" stroke-linejoin="round"/>
<path d="M10 17.5C10 16.0955 10 15.3933 9.66294 14.8889C9.51702 14.6705 9.32952 14.483 9.11114 14.3371C8.60669 14 7.90446 14 6.5 14C5.09554 14 4.39331 14 3.88886 14.3371C3.67048 14.483 3.48298 14.6705 3.33706 14.8889C3 15.3933 3 16.0955 3 17.5C3 18.9045 3 19.6067 3.33706 20.1111C3.48298 20.3295 3.67048 20.517 3.88886 20.6629C4.39331 21 5.09554 21 6.5 21C7.90446 21 8.60669 21 9.11114 20.6629C9.32952 20.517 9.51702 20.3295 9.66294 20.1111C10 19.6067 10 18.9045 10 17.5Z" stroke="#4B17CD" stroke-width="2" stroke-linecap="round" stroke-linejoin="round"/>
</svg>
