<svg width="24" height="24" viewBox="0 0 24 24" fill="none" xmlns="http://www.w3.org/2000/svg">
<path d="M12.993 6.87504L12.5893 7.29545C12.2678 7.63026 11.7322 7.63026 11.4107 7.29545L11.007 6.87504C8.97661 4.76076 5.59482 4.76077 3.56444 6.87504C2.03172 8.4711 1.69762 10.8863 2.71894 12.8494C3.87844 15.078 5.62 16.9787 7.7453 18.3183L11.1811 20.4839L11.1812 20.4839C11.4572 20.6579 11.5952 20.7449 11.7418 20.784C11.911 20.8292 12.089 20.8292 12.2582 20.784C12.4048 20.7449 12.5428 20.6579 12.8188 20.4839L12.8189 20.4839L16.2547 18.3182C18.38 16.9787 20.1216 15.078 21.2811 12.8494C22.3024 10.8863 21.9683 8.4711 20.4356 6.87504C18.4052 4.76076 15.0234 4.76076 12.993 6.87504Z" stroke="#4B17CD" stroke-width="2" stroke-linecap="round"/>
</svg>
