<svg width="24" height="24" viewBox="0 0 24 24" fill="none" xmlns="http://www.w3.org/2000/svg">
<path d="M21 10L17.895 4.0175C17.746 3.71206 17.5162 3.45501 17.2316 3.27526C16.947 3.09551 16.6189 3.00018 16.284 3H7.71598C7.3811 3.00018 7.05291 3.09551 6.76832 3.27526C6.48372 3.45501 6.254 3.71206 6.10498 4.0175L3 10" stroke="#4B17CD" stroke-width="2" stroke-linecap="round" stroke-linejoin="round"/>
<path d="M3 10V12C3 15.7712 3 17.6569 4.17157 18.8284C5.34315 20 7.22876 20 11 20H13C16.7712 20 18.6569 20 19.8284 18.8284C21 17.6569 21 15.7712 21 12V10" stroke="#4B17CD" stroke-width="2" stroke-linecap="round"/>
<path d="M21 10H15.6L13.8 13H10.2L8.4 10H3" stroke="#4B17CD" stroke-width="2" stroke-linecap="round" stroke-linejoin="round"/>
</svg>
