<svg width="24" height="24" viewBox="0 0 24 24" fill="none" xmlns="http://www.w3.org/2000/svg">
<path d="M16.9905 7H17M15.5645 11.6348C15.6818 12.4268 15.5466 13.2358 15.1782 13.9465C14.8098 14.6572 14.227 15.2336 13.5125 15.5936C12.798 15.9536 11.9884 16.0789 11.1986 15.9516C10.4089 15.8244 9.67941 15.4512 9.11382 14.885C8.54823 14.3188 8.17538 13.5885 8.0483 12.798C7.92123 12.0074 8.0464 11.1969 8.40601 10.4817C8.76562 9.76646 9.34136 9.18296 10.0513 8.81417C10.7613 8.44539 11.5694 8.3101 12.3606 8.42755C13.1677 8.54736 13.9149 8.92383 14.4918 9.50136C15.0687 10.0789 15.4448 10.8269 15.5645 11.6348Z" stroke="#4B17CD" stroke-width="2" stroke-linecap="round" stroke-linejoin="round"/>
<rect x="3" y="3" width="18" height="18" rx="4" stroke="#4B17CD" stroke-width="2" stroke-linecap="round"/>
</svg>
