<svg width="24" height="24" viewBox="0 0 24 24" fill="none" xmlns="http://www.w3.org/2000/svg">
<path d="M20.1 12.45L15.5777 14.7111C13.8221 15.589 12.9443 16.0279 12 16.0279C11.0557 16.0279 10.1779 15.589 8.42229 14.7111L3.9 12.45M20.1 16.95L15.5777 19.2111C13.8221 20.089 12.9443 20.5279 12 20.5279C11.0557 20.5279 10.1779 20.089 8.42229 19.2111L3.9 16.95M17.4223 9.28885L15.5777 10.2111C13.8221 11.089 12.9443 11.5279 12 11.5279C11.0557 11.5279 10.1779 11.089 8.42229 10.2111L6.57771 9.28885C5.01661 8.50831 4.23607 8.11803 4.23607 7.5C4.23607 6.88197 5.01661 6.49169 6.57771 5.71115L8.42229 4.78885C10.1779 3.91104 11.0557 3.47214 12 3.47214C12.9443 3.47214 13.8221 3.91104 15.5777 4.78885L17.4223 5.71115C18.9834 6.49169 19.7639 6.88197 19.7639 7.5C19.7639 8.11803 18.9834 8.50831 17.4223 9.28885Z" stroke="#4B17CD" stroke-width="2" stroke-linecap="round" stroke-linejoin="round"/>
</svg>
