<svg width="24" height="24" viewBox="0 0 24 24" fill="none" xmlns="http://www.w3.org/2000/svg">
<path d="M5.63699 5.63699L9.45299 9.45299M14.547 14.547L18.363 18.363M18.363 5.63699L14.547 9.45299L17.724 6.27601M5.63699 18.363L9.45299 14.547M21 12C21 16.9706 16.9706 21 12 21C7.02944 21 3 16.9706 3 12C3 7.02944 7.02944 3 12 3C16.9706 3 21 7.02944 21 12ZM15.6 12C15.6 13.9882 13.9882 15.6 12 15.6C10.0118 15.6 8.4 13.9882 8.4 12C8.4 10.0118 10.0118 8.4 12 8.4C13.9882 8.4 15.6 10.0118 15.6 12Z" stroke="#4B17CD" stroke-width="2" stroke-linecap="round" stroke-linejoin="round"/>
</svg>
