<svg width="24" height="24" viewBox="0 0 24 24" fill="none" xmlns="http://www.w3.org/2000/svg">
<path d="M14.4545 8H16.9091C17.4463 8 17.9783 8.10346 18.4746 8.30448C18.9709 8.5055 19.4219 8.80014 19.8018 9.17157C20.1817 9.54301 20.483 9.98396 20.6886 10.4693C20.8942 10.9546 21 11.4747 21 12C21 12.5253 20.8942 13.0454 20.6886 13.5307C20.483 14.016 20.1817 14.457 19.8018 14.8284C19.4219 15.1999 18.9709 15.4945 18.4746 15.6955C17.9783 15.8965 17.4463 16 16.9091 16H14.4545M9.54545 16H7.09091C6.55368 16 6.02172 15.8965 5.52539 15.6955C5.02905 15.4945 4.57808 15.1999 4.1982 14.8284C3.43101 14.0783 3 13.0609 3 12C3 10.9391 3.43101 9.92172 4.1982 9.17157C4.96539 8.42143 6.00593 8 7.09091 8H9.54545M8.72727 12H15.2727" stroke="#4B17CD" stroke-width="2" stroke-linecap="round" stroke-linejoin="round"/>
</svg>
