<svg width="24" height="24" viewBox="0 0 24 24" fill="none" xmlns="http://www.w3.org/2000/svg">
<path d="M8.16044 4.73665L4.19668 6.47514C3.46961 6.79403 3 7.51279 3 8.30672V18.382C3 19.1253 3.78231 19.6088 4.44721 19.2764L8.0653 17.4674C8.65087 17.1746 9.34267 17.1869 9.91743 17.5004L13.4843 19.446C14.1127 19.7887 14.8762 19.7696 15.4866 19.3958L19.0445 17.2167C19.6381 16.8532 20 16.2072 20 15.5112V5.68454C20 4.92548 19.1875 4.44317 18.5211 4.80665L15.3981 6.51013C14.8341 6.81776 14.1567 6.83574 13.5772 6.55846L9.82698 4.7641C9.30193 4.51288 8.69348 4.50286 8.16044 4.73665Z" stroke="#4B17CD" stroke-width="2" stroke-linecap="round"/>
<path d="M9 6V17" stroke="#4B17CD" stroke-width="2" stroke-linecap="round"/>
<path d="M14.5 7V19" stroke="#4B17CD" stroke-width="2" stroke-linecap="round"/>
</svg>
