<svg width="24" height="24" viewBox="0 0 24 24" fill="none" xmlns="http://www.w3.org/2000/svg">
<path d="M3 12C3 8.22876 3 6.34315 4.17157 5.17157C5.34315 4 7.22876 4 11 4H14C16.8089 4 18.2134 4 19.2223 4.67412C19.659 4.96596 20.034 5.34096 20.3259 5.77772C21 6.78661 21 8.19108 21 11C21 13.8089 21 15.2134 20.3259 16.2223C20.034 16.659 19.659 17.034 19.2223 17.3259C18.2134 18 16.8089 18 14 18H10.7313C9.55034 18 8.95985 18 8.40805 18.162C8.20115 18.2228 7.99951 18.3001 7.80509 18.3934C7.28655 18.6421 6.84764 19.0371 5.96982 19.8272C4.8639 20.8225 4.31094 21.3202 3.8358 21.2411C3.66783 21.2131 3.50978 21.1427 3.37664 21.0366C3 20.7363 3 19.9924 3 18.5045V12Z" stroke="#4B17CD" stroke-width="2" stroke-linecap="round"/>
</svg>
