<svg width="24" height="24" viewBox="0 0 24 24" fill="none" xmlns="http://www.w3.org/2000/svg">
<path d="M8.5 5.5L9.16279 4.83442C10.4933 3.49826 11.1586 2.83019 11.987 2.82845C12.8155 2.82671 13.4835 3.49198 14.8197 4.82254L15.5 5.5" stroke="#4B17CD" stroke-width="2" stroke-linecap="round" stroke-linejoin="round"/>
<path d="M11.9853 3.4853V11.9706" stroke="#4B17CD" stroke-width="2" stroke-linecap="round"/>
<path d="M15.5 18.5L14.8077 19.1836C13.4763 20.4984 12.8106 21.1557 11.9871 21.154C11.1636 21.1523 10.5007 20.4921 9.17475 19.1719L8.5 18.5" stroke="#4B17CD" stroke-width="2" stroke-linecap="round" stroke-linejoin="round"/>
<path d="M11.9854 20.4853V12" stroke="#4B17CD" stroke-width="2" stroke-linecap="round"/>
<path d="M18.5 8.5L19.1718 9.17463C20.4922 10.5005 21.1523 11.1635 21.1541 11.987C21.1558 12.8105 20.4984 13.4762 19.1837 14.8076L18.5 15.5" stroke="#4B17CD" stroke-width="2" stroke-linecap="round" stroke-linejoin="round"/>
<path d="M20.4853 11.9853L12 11.9853" stroke="#4B17CD" stroke-width="2" stroke-linecap="round"/>
<path d="M5.50024 15.5L4.8228 14.8197C3.49221 13.4836 2.82692 12.8155 2.82865 11.9871C2.83039 11.1586 3.49848 10.4933 4.83467 9.1628L5.50027 8.5" stroke="#4B17CD" stroke-width="2" stroke-linecap="round" stroke-linejoin="round"/>
<path d="M3.48539 11.9853L11.9707 11.9853" stroke="#4B17CD" stroke-width="2" stroke-linecap="round"/>
</svg>
