<svg width="24" height="24" viewBox="0 0 24 24" fill="none" xmlns="http://www.w3.org/2000/svg">
<path d="M9 18V8.38851C9 6.77017 9 5.961 9.47396 5.4015C9.94792 4.84201 10.7461 4.70899 12.3424 4.44293L16.3424 3.77627C18.5045 3.41592 19.5855 3.23575 20.2927 3.83488C21 4.43401 21 5.52996 21 7.72184V16M9 18C9 19.6569 7.65685 21 6 21C4.34315 21 3 19.6569 3 18C3 16.3431 4.34315 15 6 15C7.65685 15 9 16.3431 9 18ZM21 16C21 17.6569 19.6569 19 18 19C16.3431 19 15 17.6569 15 16C15 14.3431 16.3431 13 18 13C19.6569 13 21 14.3431 21 16Z" stroke="#4B17CD" stroke-width="2" stroke-linecap="round" stroke-linejoin="round"/>
</svg>
