<svg width="24" height="24" viewBox="0 0 24 24" fill="none" xmlns="http://www.w3.org/2000/svg">
<path d="M10.1233 7.09386C10.9096 4.95971 11.3027 3.89264 12 3.89264C12.6973 3.89264 13.0904 4.95971 13.8767 7.09386L17.1019 15.8481C17.8959 18.0033 18.293 19.0809 17.7586 19.5331C17.2243 19.9853 16.2272 19.4155 14.233 18.276L12.9923 17.567C12.5078 17.2902 12.2656 17.1518 12 17.1518C11.7344 17.1518 11.4922 17.2902 11.0077 17.567L9.76704 18.276C7.77284 19.4155 6.77574 19.9853 6.24139 19.5331C5.70704 19.0809 6.10405 18.0033 6.89808 15.8481L10.1233 7.09386Z" stroke="#4B17CD" stroke-width="2" stroke-linecap="round" stroke-linejoin="round"/>
</svg>
