<svg width="24" height="24" viewBox="0 0 24 24" fill="none" xmlns="http://www.w3.org/2000/svg">
<path d="M8.42162 12.3554C6.15895 11.7897 5.02761 11.5069 4.95822 10.8061C4.88882 10.1053 5.94272 9.60608 8.05053 8.60765L16.9391 4.39728C19.0506 3.39707 20.1064 2.89696 20.6047 3.39527C21.103 3.89358 20.6029 4.94937 19.6027 7.06093L15.3924 15.9495C14.3939 18.0573 13.8947 19.1112 13.1939 19.0418C12.4931 18.9724 12.2103 17.8411 11.6446 15.5784L11.291 14.1642C11.1492 13.597 11.0783 13.3134 10.8825 13.1175C10.6866 12.9217 10.403 12.8508 9.83583 12.709L8.42162 12.3554Z" stroke="#4B17CD" stroke-width="2" stroke-linecap="round" stroke-linejoin="round"/>
</svg>
