<svg width="24" height="24" viewBox="0 0 24 24" fill="none" xmlns="http://www.w3.org/2000/svg">
<path d="M5.51685 4.34315C6.67298 3.18702 7.25104 2.60896 7.98612 2.30448C8.7212 2 9.53871 2 11.1737 2H12.8263C14.4613 2 15.2788 2 16.0139 2.30448C16.749 2.60896 17.327 3.18702 18.4831 4.34315L19.6569 5.51685C20.813 6.67298 21.391 7.25104 21.6955 7.98612C22 8.7212 22 9.53871 22 11.1737V12.8263C22 14.4613 22 15.2788 21.6955 16.0139C21.391 16.749 20.813 17.327 19.6569 18.4831L18.4831 19.6569C17.327 20.813 16.749 21.391 16.0139 21.6955C15.2788 22 14.4613 22 12.8263 22H11.1737C9.53871 22 8.7212 22 7.98612 21.6955C7.25104 21.391 6.67298 20.813 5.51685 19.6569L4.34315 18.4831C3.18702 17.327 2.60896 16.749 2.30448 16.0139C2 15.2788 2 14.4613 2 12.8263V11.1737C2 9.53871 2 8.7212 2.30448 7.98612C2.60896 7.25104 3.18702 6.67298 4.34315 5.51685L5.51685 4.34315Z" stroke="#4B17CD" stroke-width="2" stroke-linecap="round" stroke-linejoin="round"/>
</svg>
