<svg width="24" height="24" viewBox="0 0 24 24" fill="none" xmlns="http://www.w3.org/2000/svg">
<path d="M21 11.4384L12.9628 19.4644C11.9782 20.4476 10.6427 21 9.25028 21C7.85782 21 6.52239 20.4476 5.53777 19.4644C4.55315 18.4811 4 17.1476 4 15.7571C4 14.3665 4.55315 13.033 5.53777 12.0497L13.575 4.02375C14.2314 3.36825 15.1217 3 16.05 3C16.9783 3 17.8686 3.36825 18.525 4.02375C19.1814 4.67924 19.5502 5.56829 19.5502 6.4953C19.5502 7.42231 19.1814 8.31135 18.525 8.96685L10.479 16.9928C10.1508 17.3206 9.70569 17.5047 9.24154 17.5047C8.77738 17.5047 8.33224 17.3206 8.00403 16.9928C7.67583 16.6651 7.49144 16.2206 7.49144 15.7571C7.49144 15.2935 7.67583 14.849 8.00403 14.5213L15.429 7.11537" stroke="#4B17CD" stroke-width="2" stroke-linecap="round" stroke-linejoin="round"/>
</svg>
