<svg width="24" height="24" viewBox="0 0 24 24" fill="none" xmlns="http://www.w3.org/2000/svg">
<g clip-path="url(#clip0_812_1064)">
<rect x="12.5564" y="19.6274" width="10" height="3.04344" rx="1.52172" transform="rotate(-45 12.5564 19.6274)" stroke="#4B17CD" stroke-width="2" stroke-linecap="round"/>
<path d="M12.7218 4.66985L8.54034 3.83356C5.87946 3.30139 4.54901 3.0353 3.79215 3.79216C3.03529 4.54903 3.30137 5.87947 3.83355 8.54035L4.66983 12.7218C4.99015 14.3233 5.15031 15.1241 5.56579 15.7654C5.82175 16.1605 6.14544 16.5073 6.52196 16.7898C7.13313 17.2484 7.921 17.4633 9.49676 17.893L9.49678 17.893C10.9812 18.2979 11.7234 18.5003 12.4452 18.4335C12.8903 18.3922 13.3254 18.2767 13.7323 18.0916C14.3922 17.7915 14.9362 17.2476 16.0242 16.1596L16.1596 16.0242C17.2475 14.9362 17.7915 14.3923 18.0916 13.7323C18.2767 13.3254 18.3922 12.8904 18.4334 12.4452C18.5003 11.7234 18.2979 10.9812 17.893 9.49677C17.4633 7.92102 17.2484 7.13314 16.7898 6.52197C16.5072 6.14546 16.1605 5.82177 15.7654 5.5658C15.1241 5.15032 14.3233 4.99016 12.7218 4.66985Z" stroke="#4B17CD" stroke-width="2" stroke-linecap="round"/>
<circle cx="11.8492" cy="11.8492" r="2" transform="rotate(-45 11.8492 11.8492)" stroke="#4B17CD" stroke-width="2" stroke-linecap="round"/>
<path d="M10.435 10.435L4.07104 4.07108" stroke="#4B17CD" stroke-width="2" stroke-linecap="round"/>
</g>
<defs>
<clipPath id="clip0_812_1064">
<rect width="24" height="24" fill="white"/>
</clipPath>
</defs>
</svg>
