<svg width="24" height="24" viewBox="0 0 24 24" fill="none" xmlns="http://www.w3.org/2000/svg">
<g clip-path="url(#clip0_812_1073)">
<path d="M3.1447 6.29707C3.51132 9.72516 4.90007 13.0783 7.34332 15.8695C9.78658 18.6608 12.9263 20.4812 16.2757 21.2984C16.3267 21.3108 16.1993 21.2797 16.4219 21.3082C17.9602 21.5049 20.0367 20.2984 20.6276 18.8645C20.7131 18.6569 20.7432 18.552 20.8032 18.342L20.8033 18.342C20.8574 18.1526 20.8845 18.058 20.9014 17.9699C21.0354 17.2694 20.7864 16.5507 20.2477 16.0833C20.18 16.0245 20.1001 15.9669 19.9404 15.8517L17.5302 14.1128C16.7575 13.5553 15.6883 13.6725 15.0547 14.3842C14.3114 15.2192 13.0044 15.2137 12.2681 14.3725L9.47914 11.1862C8.74284 10.3451 8.9104 9.04892 9.8364 8.42264C10.6257 7.88883 10.8834 6.84458 10.4331 6.00484L9.02864 3.38571C8.93556 3.21213 8.88902 3.12534 8.8397 3.05038C8.44778 2.45462 7.76829 2.11262 7.0563 2.15275C6.96673 2.15779 6.86932 2.17212 6.67452 2.20075L6.67442 2.20077L6.6744 2.20077C6.45836 2.23253 6.35033 2.24841 6.13327 2.30572C4.63381 2.70156 3.163 4.60004 3.15432 6.15084C3.15307 6.37535 3.13912 6.24489 3.1447 6.29707Z" stroke="#4B17CD" stroke-width="2" stroke-linecap="round"/>
</g>
<defs>
<clipPath id="clip0_812_1073">
<rect width="24" height="24" fill="white"/>
</clipPath>
</defs>
</svg>
