<svg width="24" height="24" viewBox="0 0 24 24" fill="none" xmlns="http://www.w3.org/2000/svg">
<g clip-path="url(#clip0_812_1089)">
<path d="M8.49989 10L8.95101 9.58345C10.0441 8.57413 10.5906 8.06947 10.7039 7.39531C10.8172 6.72115 10.4657 6.06555 9.76256 4.75437L9.02864 3.38572C8.93557 3.21214 8.88903 3.12535 8.83971 3.05039C8.44779 2.45463 7.7683 2.11263 7.05631 2.15276C6.96673 2.1578 6.86929 2.17213 6.67443 2.20078C6.45837 2.23254 6.35035 2.24842 6.13328 2.30573C4.63382 2.70157 3.16301 4.60005 3.15433 6.15085C3.15308 6.37535 3.13912 6.24487 3.1447 6.29706C3.39269 8.61591 4.10836 10.9005 5.30173 13M10.9999 13L12.2561 14.3991C13.002 15.2297 14.3045 15.2269 15.0468 14.3931C15.6849 13.6764 16.7617 13.5584 17.5399 14.1198L19.9404 15.8517C20.1001 15.9669 20.18 16.0245 20.2478 16.0833C20.7864 16.5507 21.0354 17.2695 20.9014 17.9699C20.8845 18.058 20.8574 18.1527 20.8033 18.342C20.7432 18.552 20.7131 18.657 20.6276 18.8645C20.0367 20.2984 17.9603 21.5049 16.422 21.3082C16.1993 21.2798 16.3267 21.3109 16.2757 21.2984C13.4021 20.5973 10.6827 19.1577 8.42512 17" stroke="#4B17CD" stroke-width="2" stroke-linecap="round"/>
<path d="M21 3L3 21" stroke="#4B17CD" stroke-width="2" stroke-linecap="round"/>
</g>
<defs>
<clipPath id="clip0_812_1089">
<rect width="24" height="24" fill="white"/>
</clipPath>
</defs>
</svg>
