<svg width="24" height="24" viewBox="0 0 24 24" fill="none" xmlns="http://www.w3.org/2000/svg">
<g clip-path="url(#clip0_812_1082)">
<path d="M16 2V4C16 5.88562 16 6.82843 16.5858 7.41421C17.1716 8 18.1144 8 20 8H22" stroke="#4B17CD" stroke-width="2" stroke-linecap="round" stroke-linejoin="round"/>
<path d="M3.14494 6.29707C3.51157 9.72516 4.90032 13.0783 7.34357 15.8695C9.78682 18.6608 12.9266 20.4812 16.276 21.2984C16.327 21.3108 16.1995 21.2797 16.4222 21.3082C17.9605 21.5049 20.037 20.2984 20.6278 18.8645C20.7134 18.6569 20.7434 18.552 20.8035 18.342L20.8035 18.342C20.8577 18.1526 20.8848 18.058 20.9016 17.9699C21.0357 17.2694 20.7866 16.5507 20.248 16.0833C20.1802 16.0245 20.1004 15.9669 19.9406 15.8517L17.5305 14.1128C16.7577 13.5553 15.6886 13.6725 15.055 14.3842C14.3116 15.2192 13.0047 15.2137 12.2684 14.3725L9.47938 11.1862C8.74308 10.3451 8.91064 9.04892 9.83665 8.42264C10.6259 7.88883 10.8837 6.84458 10.4334 6.00484L9.02888 3.38571C8.9358 3.21213 8.88926 3.12534 8.83995 3.05038C8.44802 2.45462 7.76853 2.11262 7.05655 2.15275C6.96698 2.15779 6.86956 2.17212 6.67476 2.20075L6.67467 2.20077L6.67465 2.20077C6.4586 2.23253 6.35057 2.24841 6.13351 2.30572C4.63406 2.70156 3.16324 4.60004 3.15457 6.15084C3.15331 6.37535 3.13936 6.24489 3.14494 6.29707Z" stroke="#4B17CD" stroke-width="2" stroke-linecap="round"/>
<path d="M17 7L22 2" stroke="#4B17CD" stroke-width="2" stroke-linecap="round"/>
</g>
<defs>
<clipPath id="clip0_812_1082">
<rect width="24" height="24" fill="white"/>
</clipPath>
</defs>
</svg>
