<svg width="24" height="24" viewBox="0 0 24 24" fill="none" xmlns="http://www.w3.org/2000/svg">
<path d="M21.2099 15.89C20.5737 17.3945 19.5787 18.7202 18.3118 19.7513C17.0449 20.7824 15.5447 21.4874 13.9424 21.8048C12.34 22.1222 10.6843 22.0422 9.12006 21.5718C7.55578 21.1015 6.13054 20.2551 4.96893 19.1067C3.80733 17.9583 2.94473 16.5428 2.45655 14.984C1.96837 13.4252 1.86948 11.7705 2.16851 10.1647C2.46755 8.5588 3.15541 7.05064 4.17196 5.77205C5.18851 4.49345 6.5028 3.48333 7.99992 2.83002M21.2387 8.17317C20.7362 6.95991 19.9996 5.85752 19.071 4.92893C18.1424 4.00035 17.04 3.26375 15.8268 2.7612C14.4888 2.20701 13.8198 1.92991 12.9491 2.46759C12.9166 2.48769 12.8609 2.52487 12.8299 2.54724C11.9999 3.14593 11.9999 4.07294 11.9999 5.92697V8C11.9999 9.88562 11.9999 10.8284 12.5857 11.4142C13.1715 12 14.1143 12 15.9999 12H18.073C19.927 12 20.854 12 21.4527 11.17C21.4751 11.139 21.5123 11.0834 21.5323 11.0508C22.07 10.1801 21.7929 9.51112 21.2387 8.17317Z" stroke="#4B17CD" stroke-width="2" stroke-linecap="round" stroke-linejoin="round"/>
</svg>
