<svg width="24" height="24" viewBox="0 0 24 24" fill="none" xmlns="http://www.w3.org/2000/svg">
<path d="M12 21C16.9706 21 21 16.9706 21 12C21 7.02944 16.9706 3 12 3C7.02944 3 3 7.02944 3 12C3 16.9706 7.02944 21 12 21Z" stroke="#4B17CD" stroke-width="2" stroke-linecap="round" stroke-linejoin="round"/>
<path d="M10 12C10 10.3406 10 9.51088 10.4901 9.22038C10.5401 9.19078 10.5925 9.16559 10.6468 9.14509C11.1798 8.94384 11.8277 9.46215 13.1235 10.4988C13.9521 11.1617 14.3664 11.4931 14.3968 11.9306C14.4 11.9768 14.4 12.0232 14.3968 12.0694C14.3664 12.5069 13.9521 12.8383 13.1235 13.5012C11.8277 14.5378 11.1798 15.0562 10.6468 14.8549C10.5925 14.8344 10.5401 14.8092 10.4901 14.7796C10 14.4891 10 13.6594 10 12Z" stroke="#4B17CD" stroke-width="2" stroke-linecap="round"/>
</svg>
