<svg width="24" height="24" viewBox="0 0 24 24" fill="none" xmlns="http://www.w3.org/2000/svg">
<path d="M3 8.53846C3 7.10696 3 6.39121 3.18112 5.80999C3.5722 4.55496 4.55496 3.5722 5.80999 3.18112C6.39121 3 7.10696 3 8.53846 3H15.4615C16.893 3 17.6088 3 18.19 3.18112C19.445 3.5722 20.4278 4.55496 20.8189 5.80999C21 6.39121 21 7.10696 21 8.53846V12C21 16.9706 16.9706 21 12 21C7.02944 21 3 16.9706 3 12V8.53846Z" stroke="#4B17CD" stroke-width="2" stroke-linecap="round"/>
<path d="M16 10L14.8284 11.1716C13.4951 12.5049 12.8284 13.1716 12 13.1716C11.1716 13.1716 10.5049 12.5049 9.17157 11.1716L8 10" stroke="#4B17CD" stroke-width="2" stroke-linecap="round" stroke-linejoin="round"/>
</svg>
