<svg width="24" height="24" viewBox="0 0 24 24" fill="none" xmlns="http://www.w3.org/2000/svg">
<path d="M17 18H18.75C18.9822 18 19.0983 18 19.196 17.9904C20.1456 17.8968 20.8968 17.1456 20.9904 16.196C21 16.0983 21 15.9822 21 15.75V13C21 11.1144 21 10.1716 20.4142 9.58579C19.8284 9 18.8856 9 17 9H7C5.11438 9 4.17157 9 3.58579 9.58579C3 10.1716 3 11.1144 3 13V15.75C3 15.9822 3 16.0983 3.00963 16.196C3.10315 17.1456 3.85441 17.8968 4.80397 17.9904C4.90175 18 5.01783 18 5.25 18H7" stroke="#4B17CD" stroke-width="2" stroke-linecap="round"/>
<rect x="7" y="14" width="10" height="7" rx="2" stroke="#4B17CD" stroke-width="2" stroke-linecap="round"/>
<path d="M7 7C7 5.11438 7 4.17157 7.58579 3.58579C8.17157 3 9.11438 3 11 3H13C14.8856 3 15.8284 3 16.4142 3.58579C17 4.17157 17 5.11438 17 7V9H7V7Z" stroke="#4B17CD" stroke-width="2" stroke-linecap="round"/>
</svg>
