<svg width="24" height="24" viewBox="0 0 24 24" fill="none" xmlns="http://www.w3.org/2000/svg">
<path d="M20 10L16.6255 6.75888C15.8438 6.04184 14.8768 5.51803 13.8147 5.23633C12.7525 4.95464 11.6299 4.92424 10.5515 5.14797C9.47307 5.3717 8.47404 5.84227 7.64761 6.51577C6.82119 7.18927 6.1943 8.04375 5.82545 8.99947M4 14L7.37455 17.2411C8.15618 17.9582 9.12318 18.482 10.1853 18.7637C11.2475 19.0454 12.3701 19.0758 13.4485 18.852C14.5269 18.6283 15.526 18.1577 16.3524 17.4842C17.1788 16.8107 17.8057 15.9563 18.1745 15.0005" stroke="#4B17CD" stroke-width="2" stroke-linecap="round" stroke-linejoin="round"/>
<path d="M15.343 11L16.9999 11C18.8855 11 19.8283 11 20.4141 10.4142C20.9999 9.82843 20.9999 8.88562 20.9999 7L20.9999 5.34315" stroke="#4B17CD" stroke-width="2" stroke-linecap="round" stroke-linejoin="round"/>
<path d="M8.65673 13L6.99988 13C5.11426 13 4.17145 13 3.58566 13.5858C2.99988 14.1716 2.99988 15.1144 2.99988 17L2.99988 18.6569" stroke="#4B17CD" stroke-width="2" stroke-linecap="round" stroke-linejoin="round"/>
</svg>
