<svg width="24" height="24" viewBox="0 0 24 24" fill="none" xmlns="http://www.w3.org/2000/svg">
<path d="M4 10L7.37455 6.75888C8.15618 6.04184 9.12318 5.51803 10.1853 5.23633C11.2475 4.95464 12.3701 4.92424 13.4485 5.14797C14.5269 5.3717 15.526 5.84227 16.3524 6.51577C17.1788 7.18927 17.8057 8.04375 18.1745 8.99947M20 14L16.6255 17.2411C15.8438 17.9582 14.8768 18.482 13.8147 18.7637C12.7525 19.0454 11.6299 19.0758 10.5515 18.852C9.47307 18.6283 8.47404 18.1577 7.64761 17.4842C6.82119 16.8107 6.1943 15.9563 5.82545 15.0005" stroke="#4B17CD" stroke-width="2" stroke-linecap="round" stroke-linejoin="round"/>
<path d="M8.65698 11L7.00012 11C5.1145 11 4.17169 11 3.58591 10.4142C3.00012 9.82843 3.00012 8.88562 3.00012 7L3.00012 5.34315" stroke="#4B17CD" stroke-width="2" stroke-linecap="round" stroke-linejoin="round"/>
<path d="M15.3433 13L17.0001 13C18.8857 13 19.8285 13 20.4143 13.5858C21.0001 14.1716 21.0001 15.1144 21.0001 17L21.0001 18.6569" stroke="#4B17CD" stroke-width="2" stroke-linecap="round" stroke-linejoin="round"/>
</svg>
