<svg width="24" height="24" viewBox="0 0 24 24" fill="none" xmlns="http://www.w3.org/2000/svg">
<path d="M5.25928 14.6584C5.84287 16.2943 6.949 17.6985 8.41099 18.6596C9.87298 19.6206 11.6116 20.0864 13.365 19.9868C15.1183 19.8871 16.7914 19.2274 18.1321 18.107C19.4728 16.9867 20.4085 15.4663 20.7982 13.7751C21.1879 12.0839 21.0105 10.3134 20.2927 8.73046C19.5749 7.14748 18.3557 5.83775 16.8186 4.99861C15.2816 4.15947 13.5101 3.83639 11.7709 4.07803C10.0318 4.31968 8.41932 5.11297 7.17641 6.33837L5.08826 8.16919L4.04419 9.08459" stroke="#4B17CD" stroke-width="2" stroke-linecap="round" stroke-linejoin="round"/>
<path d="M8.65698 10L7.00012 10C5.1145 10 4.17169 10 3.58591 9.41421C3.00012 8.82843 3.00012 7.88562 3.00012 6L3.00012 4.34315" stroke="#4B17CD" stroke-width="2" stroke-linecap="round" stroke-linejoin="round"/>
</svg>
