<svg width="24" height="24" viewBox="0 0 24 24" fill="none" xmlns="http://www.w3.org/2000/svg">
<path d="M18.9124 14.6584C18.3288 16.2943 17.2226 17.6985 15.7606 18.6596C14.2987 19.6206 12.56 20.0864 10.8066 19.9868C9.05328 19.8871 7.38022 19.2274 6.03953 18.107C4.69884 16.9867 3.76315 15.4663 3.37346 13.7751C2.98376 12.0839 3.16116 10.3134 3.87893 8.73046C4.5967 7.14748 5.81596 5.83775 7.35299 4.99861C8.89002 4.15947 10.6616 3.83639 12.4007 4.07803C14.1398 4.31968 15.7523 5.11297 16.9952 6.33837L19.0834 8.16919L20.1274 9.08459" stroke="#4B17CD" stroke-width="2" stroke-linecap="round" stroke-linejoin="round"/>
<path d="M15.5147 10L17.1715 10C19.0571 10 19.9999 10 20.5857 9.41421C21.1715 8.82843 21.1715 7.88562 21.1715 6L21.1715 4.34315" stroke="#4B17CD" stroke-width="2" stroke-linecap="round" stroke-linejoin="round"/>
</svg>
