<svg width="24" height="24" viewBox="0 0 24 24" fill="none" xmlns="http://www.w3.org/2000/svg">
<path d="M9.89995 3.69026C10.3567 1.43654 13.5776 1.43654 14.0343 3.69026C14.4121 5.55457 16.3378 6.66639 18.1413 6.06142C20.3214 5.33009 21.9319 8.1195 20.2085 9.64188C18.7828 10.9012 18.7828 13.1249 20.2085 14.3842C21.9319 15.9066 20.3214 18.696 18.1413 17.9647C16.3378 17.3597 14.4121 18.4715 14.0343 20.3358C13.5776 22.5895 10.3567 22.5895 9.89995 20.3358C9.52215 18.4715 7.59642 17.3597 5.79298 17.9647C3.61285 18.696 2.00238 15.9066 3.7258 14.3842C5.15144 13.1249 5.15144 10.9012 3.7258 9.64188C2.00238 8.1195 3.61285 5.33009 5.79298 6.06142C7.59642 6.66639 9.52215 5.55457 9.89995 3.69026Z" stroke="#4B17CD" stroke-width="2.39013" stroke-linecap="round" stroke-linejoin="round"/>
<circle cx="12" cy="12" r="3" stroke="#4B17CD" stroke-width="2" stroke-linecap="round" stroke-linejoin="round"/>
</svg>
