<svg width="24" height="24" viewBox="0 0 24 24" fill="none" xmlns="http://www.w3.org/2000/svg">
<path d="M5.25 5.25C3.90632 5.69789 3 6.95535 3 8.37171V9.87758C3 11.6474 3 12.5323 3.15105 13.3463C3.5363 15.4226 4.63937 17.2972 6.26723 18.6423C6.90547 19.1697 7.67902 19.5995 9.22612 20.459L9.33967 20.522C10.0372 20.9096 10.386 21.1033 10.7428 21.2214C11.5591 21.4917 12.4409 21.4917 13.2572 21.2214C13.614 21.1033 13.9628 20.9096 14.6603 20.522L16.7052 19.386L17.7276 18.818M9.47018 3.84327C10.724 3.42534 11.3509 3.21637 12 3.21637C12.6491 3.21637 13.276 3.42534 14.5298 3.84327L17.3214 4.7738C18.224 5.07466 18.6753 5.22509 19.0469 5.44643C19.9974 6.01258 20.671 6.94715 20.9075 8.02794C21 8.45049 21 8.92618 21 9.87758V14.4261" stroke="#4B17CD" stroke-width="2" stroke-linecap="round"/>
<path d="M3 3L21 21" stroke="#4B17CD" stroke-width="2" stroke-linecap="round"/>
</svg>
