<svg width="24" height="24" viewBox="0 0 24 24" fill="none" xmlns="http://www.w3.org/2000/svg">
<path d="M19 6V18M11.247 15.0024C8.65538 17.0757 7.3596 18.1123 6.29356 17.7098C6.18495 17.6688 6.08011 17.6184 5.98024 17.5592C5 16.9782 5 15.3188 5 12C5 8.68117 5 7.02176 5.98024 6.44076C6.08011 6.38156 6.18495 6.33118 6.29356 6.29017C7.3596 5.88768 8.65538 6.92431 11.247 8.99756C12.9042 10.3233 13.7328 10.9862 13.7936 11.8612C13.8 11.9536 13.8 12.0464 13.7936 12.1388C13.7328 13.0138 12.9042 13.6767 11.247 15.0024Z" stroke="#4B17CD" stroke-width="2" stroke-linecap="round" stroke-linejoin="round"/>
</svg>
