<svg width="24" height="24" viewBox="0 0 24 24" fill="none" xmlns="http://www.w3.org/2000/svg">
<path d="M5 18V6M12.753 8.99756C15.3446 6.92431 16.6404 5.88768 17.7064 6.29017C17.8151 6.33118 17.9199 6.38156 18.0198 6.44076C19 7.02176 19 8.68117 19 12C19 15.3188 19 16.9782 18.0198 17.5592C17.9199 17.6184 17.8151 17.6688 17.7064 17.7098C16.6404 18.1123 15.3446 17.0757 12.753 15.0024C11.0958 13.6767 10.2672 13.0138 10.2064 12.1388C10.2 12.0464 10.2 11.9536 10.2064 11.8612C10.2672 10.9862 11.0958 10.3233 12.753 8.99756Z" stroke="#4B17CD" stroke-width="2" stroke-linecap="round" stroke-linejoin="round"/>
</svg>
