<svg width="24" height="24" viewBox="0 0 24 24" fill="none" xmlns="http://www.w3.org/2000/svg">
<path d="M14.25 10.2C13.503 10.2 12.9 9.597 12.9 8.85V4.35C12.9 3.603 13.503 3 14.25 3C14.997 3 15.6 3.603 15.6 4.35V8.85C15.6 9.597 14.997 10.2 14.25 10.2Z" stroke="#4B17CD" stroke-width="2" stroke-linecap="round" stroke-linejoin="round"/>
<path d="M19.65 10.2H18.3V8.85C18.3 8.103 18.903 7.5 19.65 7.5C20.397 7.5 21 8.103 21 8.85C21 9.597 20.397 10.2 19.65 10.2Z" stroke="#4B17CD" stroke-width="2" stroke-linecap="round" stroke-linejoin="round"/>
<path d="M9.75 13.8C10.497 13.8 11.1 14.403 11.1 15.15V19.65C11.1 20.397 10.497 21 9.75 21C9.003 21 8.4 20.397 8.4 19.65V15.15C8.4 14.403 9.003 13.8 9.75 13.8Z" stroke="#4B17CD" stroke-width="2" stroke-linecap="round" stroke-linejoin="round"/>
<path d="M4.35 13.8H5.7V15.15C5.7 15.897 5.097 16.5 4.35 16.5C3.603 16.5 3 15.897 3 15.15C3 14.403 3.603 13.8 4.35 13.8Z" stroke="#4B17CD" stroke-width="2" stroke-linecap="round" stroke-linejoin="round"/>
<path d="M13.8 14.25C13.8 13.503 14.403 12.9 15.15 12.9H19.65C20.397 12.9 21 13.503 21 14.25C21 14.997 20.397 15.6 19.65 15.6H15.15C14.403 15.6 13.8 14.997 13.8 14.25Z" stroke="#4B17CD" stroke-width="2" stroke-linecap="round" stroke-linejoin="round"/>
<path d="M15.15 18.3H13.8V19.65C13.8 20.397 14.403 21 15.15 21C15.897 21 16.5 20.397 16.5 19.65C16.5 18.903 15.897 18.3 15.15 18.3Z" stroke="#4B17CD" stroke-width="2" stroke-linecap="round" stroke-linejoin="round"/>
<path d="M10.2 9.75C10.2 9.003 9.597 8.4 8.85 8.4H4.35C3.603 8.4 3 9.003 3 9.75C3 10.497 3.603 11.1 4.35 11.1H8.85C9.597 11.1 10.2 10.497 10.2 9.75Z" stroke="#4B17CD" stroke-width="2" stroke-linecap="round" stroke-linejoin="round"/>
<path d="M8.85 5.7H10.2V4.35C10.2 3.603 9.597 3 8.85 3C8.103 3 7.5 3.603 7.5 4.35C7.5 5.097 8.103 5.7 8.85 5.7Z" stroke="#4B17CD" stroke-width="2" stroke-linecap="round" stroke-linejoin="round"/>
</svg>
