<svg width="24" height="24" viewBox="0 0 24 24" fill="none" xmlns="http://www.w3.org/2000/svg">
<path d="M16.5455 17.4C16.5455 16.2065 16.0666 15.0619 15.2141 14.218C14.3617 13.3741 13.2055 12.9 12 12.9C10.7945 12.9 9.63832 13.3741 8.78588 14.218C7.93344 15.0619 7.45455 16.2065 7.45455 17.4M12 9V3M4.92725 10.398L6.21816 11.676M2 17.4H3.81818M20.1818 17.4H22M17.7818 11.676L19.0727 10.398M22 21H2" stroke="#4B17CD" stroke-width="2" stroke-linecap="round" stroke-linejoin="round"/>
<path d="M8 6L9.17157 7.17157C10.5049 8.50491 11.1716 9.17157 12 9.17157C12.8284 9.17157 13.4951 8.50491 14.8284 7.17157L16 6" stroke="#4B17CD" stroke-width="2" stroke-linecap="round" stroke-linejoin="round"/>
</svg>
