<svg width="24" height="24" viewBox="0 0 24 24" fill="none" xmlns="http://www.w3.org/2000/svg">
<g clip-path="url(#clip0_812_1239)">
<path d="M5.33159 14.5566C4.17547 13.4004 3.59741 12.8224 3.29293 12.0873C2.98845 11.3522 2.98845 10.5347 2.98845 8.89971L2.98844 6.98846C2.98844 5.10284 2.98844 4.16003 3.57423 3.57424C4.16002 2.98845 5.10283 2.98845 6.98845 2.98846L8.89969 2.98846C10.5347 2.98846 11.3522 2.98846 12.0873 3.29294C12.8224 3.59743 13.4004 4.17549 14.5565 5.3316L17.9417 8.71673C19.6079 10.3829 20.441 11.2161 20.7303 12.1854C20.953 12.9317 20.953 13.7267 20.7303 14.473C20.441 15.4423 19.6079 16.2755 17.9417 17.9417C16.2754 19.6079 15.4423 20.441 14.473 20.7303C13.7267 20.953 12.9317 20.953 12.1854 20.7303C11.216 20.441 10.3829 19.6079 8.71671 17.9417L5.33159 14.5566Z" stroke="#4B17CD" stroke-width="2" stroke-linecap="round"/>
<path d="M7 7H7.01" stroke="#4B17CD" stroke-width="2" stroke-linecap="round" stroke-linejoin="round"/>
</g>
<defs>
<clipPath id="clip0_812_1239">
<rect width="24" height="24" fill="white"/>
</clipPath>
</defs>
</svg>
