<svg width="24" height="24" viewBox="0 0 24 24" fill="none" xmlns="http://www.w3.org/2000/svg">
<path d="M13.7268 14.2573V5.0453C13.7268 4.50285 13.5114 3.98262 13.1278 3.59905C12.7442 3.21549 12.224 3 11.6815 3C11.1391 3 10.6189 3.21549 10.2353 3.59905C9.85173 3.98262 9.63624 4.50285 9.63624 5.0453V14.2573C8.97952 14.6961 8.48132 15.3345 8.21522 16.0781C7.94913 16.8218 7.92925 17.6313 8.15852 18.3871C8.38778 19.1429 8.85404 19.805 9.48844 20.2755C10.1228 20.746 10.8917 21 11.6815 21C12.4714 21 13.2403 20.746 13.8746 20.2755C14.509 19.805 14.9753 19.1429 15.2046 18.3871C15.4338 17.6313 15.414 16.8218 15.1479 16.0781C14.8818 15.3345 14.3836 14.6961 13.7268 14.2573Z" stroke="#4B17CD" stroke-width="2" stroke-linecap="round" stroke-linejoin="round"/>
</svg>
