<svg width="24" height="24" viewBox="0 0 24 24" fill="none" xmlns="http://www.w3.org/2000/svg">
<path d="M20.8842 6.39206C21.4282 5.64804 20.5178 4.90278 19.6488 5.21004C19.4827 5.26878 19.3148 5.3232 19.1455 5.37324C18.5979 4.75576 17.8703 4.3181 17.0609 4.11947C16.2516 3.92083 15.3995 3.9708 14.6201 4.26261C13.8406 4.55442 13.1713 5.07399 12.7027 5.75105C12.2341 6.42812 11.9888 7.23001 12 8.04827V8.93995C10.4024 8.98058 8.81934 8.63305 7.39183 7.92829C6.48825 7.4822 5.66474 6.90176 4.94904 6.21045C4.39523 5.67552 3.46749 5.79908 3.29398 6.54925C2.70632 9.09008 2.49987 13.9363 8.36364 16.4925C7.68135 16.9467 6.95152 17.3185 6.18997 17.6032C5.19969 17.9735 4.96033 19.5313 5.99687 19.7395C13.1115 21.1683 20.1818 16.6439 20.1818 8.02152C20.181 7.77315 20.1566 7.52539 20.1091 7.28143C20.3939 7.00595 20.6529 6.70827 20.8842 6.39206Z" stroke="#4B17CD" stroke-width="2" stroke-linecap="round" stroke-linejoin="round"/>
</svg>
