<svg width="24" height="24" viewBox="0 0 24 24" fill="none" xmlns="http://www.w3.org/2000/svg">
<path d="M3 7C3 5.11438 3 4.17157 3.58579 3.58579C4.17157 3 5.11438 3 7 3H17C18.8856 3 19.8284 3 20.4142 3.58579C21 4.17157 21 5.11438 21 7V12.5942C21 13.4657 21 13.9015 20.829 14.288C20.6581 14.6745 20.3356 14.9676 19.6907 15.5539L18.1443 16.9598C17.5788 17.4738 17.296 17.7309 16.948 17.8654C16.5999 18 16.2178 18 15.4536 18H14.3284C13.9197 18 13.7153 18 13.5315 18.0761C13.3478 18.1522 13.2032 18.2968 12.9142 18.5858L11 20.5C10.3391 21.1609 10.0087 21.4913 9.73597 21.5575C9.31312 21.6602 8.8724 21.4777 8.64601 21.1061C8.5 20.8664 8.5 20.3991 8.5 19.4645C8.5 19.0319 8.5 18.8156 8.4342 18.6432C8.33266 18.3774 8.12264 18.1673 7.85675 18.0658C7.68445 18 7.46814 18 7.03553 18H6.66667C5.10295 18 4.32109 18 3.78248 17.5867C3.64381 17.4803 3.51969 17.3562 3.41329 17.2175C3 16.6789 3 15.8971 3 14.3333L3 7Z" stroke="#4B17CD" stroke-width="2" stroke-linecap="round"/>
<path d="M16 7V12" stroke="#4B17CD" stroke-width="2" stroke-linecap="round"/>
<path d="M12 7V12" stroke="#4B17CD" stroke-width="2" stroke-linecap="round"/>
</svg>
