<svg width="24" height="24" viewBox="0 0 24 24" fill="none" xmlns="http://www.w3.org/2000/svg">
<path d="M9 9C10.6569 9 12 7.65685 12 6C12 4.34315 10.6569 3 9 3C7.34315 3 6 4.34315 6 6C6 7.65685 7.34315 9 9 9Z" stroke="#4B17CD" stroke-width="2" stroke-linecap="round" stroke-linejoin="round"/>
<path d="M15 20V18C15 16.1362 15 15.2044 14.6955 14.4693C14.2895 13.4892 13.5108 12.7105 12.5307 12.3045C11.7956 12 10.8638 12 9 12C7.13623 12 6.20435 12 5.46927 12.3045C4.48915 12.7105 3.71046 13.4892 3.30448 14.4693C3 15.2044 3 16.1362 3 18V20" stroke="#4B17CD" stroke-width="2" stroke-linecap="round"/>
<path d="M21.1213 11.1213L16.8787 6.87866" stroke="#4B17CD" stroke-width="2" stroke-linecap="round"/>
<path d="M21.1213 6.8787L16.8787 11.1213" stroke="#4B17CD" stroke-width="2" stroke-linecap="round"/>
</svg>
