<svg width="24" height="24" viewBox="0 0 24 24" fill="none" xmlns="http://www.w3.org/2000/svg">
<path d="M12 9C13.6569 9 15 7.65685 15 6C15 4.34315 13.6569 3 12 3C10.3431 3 9 4.34315 9 6C9 7.65685 10.3431 9 12 9Z" stroke="#4B17CD" stroke-width="2" stroke-linecap="round" stroke-linejoin="round"/>
<path d="M18 20V18C18 16.1362 18 15.2044 17.6955 14.4693C17.2895 13.4892 16.5108 12.7105 15.5307 12.3045C14.7956 12 13.8638 12 12 12C10.1362 12 9.20435 12 8.46927 12.3045C7.48915 12.7105 6.71046 13.4892 6.30448 14.4693C6 15.2044 6 16.1362 6 18V20" stroke="#4B17CD" stroke-width="2" stroke-linecap="round"/>
</svg>
