<svg width="24" height="24" viewBox="0 0 24 24" fill="none" xmlns="http://www.w3.org/2000/svg">
<path d="M15.5277 16.8856C15.1548 17.5833 14.5833 18.1548 13.8856 18.5277C13.0019 19 11.8346 19 9.5 19C7.16537 19 5.99805 19 5.11441 18.5277C4.4167 18.1548 3.84525 17.5833 3.47231 16.8856C3 16.0019 3 14.8346 3 12.5V11.5C3 9.16537 3 7.99805 3.47231 7.11441C3.84525 6.4167 4.4167 5.84525 5.11441 5.47231M9.5 5C11.8346 5 13.0019 5 13.8856 5.47231C14.5833 5.84525 15.1548 6.4167 15.5277 7.11441C16 7.99805 16 9.16537 16 11.5" stroke="#4B17CD" stroke-width="2" stroke-linecap="round"/>
<path d="M16 12L17.4636 10.2437C18.9418 8.4699 19.6809 7.58298 20.3404 7.82178C21 8.06058 21 9.21508 21 11.5241L21 15.5" stroke="#4B17CD" stroke-width="2" stroke-linecap="round"/>
<path d="M3 3L21 21" stroke="#4B17CD" stroke-width="2" stroke-linecap="round"/>
</svg>
