<svg width="24" height="24" viewBox="0 0 24 24" fill="none" xmlns="http://www.w3.org/2000/svg">
<path d="M11 8.92626C11 6.83532 11 5.78985 10.3762 5.53658C9.75234 5.28331 9.02356 6.03291 7.56601 7.5321L6.98781 8.12682C6.85241 8.2661 6.78471 8.33573 6.70799 8.38964C6.59149 8.4715 6.45885 8.52753 6.31895 8.554C6.22683 8.57143 6.1297 8.57143 5.93546 8.57143C5.06412 8.57143 4.62846 8.57143 4.28171 8.70487C3.75379 8.90802 3.33659 9.32522 3.13344 9.85313C3 10.1999 3 10.6356 3 11.5069V12.4931C3 13.3644 3 13.8001 3.13344 14.1469C3.33659 14.6748 3.75379 15.092 4.28171 15.2951C4.62846 15.4286 5.06412 15.4286 5.93546 15.4286C6.1297 15.4286 6.22683 15.4286 6.31895 15.446C6.45885 15.4725 6.59149 15.5285 6.70799 15.6104C6.78471 15.6643 6.85241 15.7339 6.98781 15.8732L7.56601 16.4679C9.02356 17.9671 9.75234 18.7167 10.3762 18.4634C11 18.2102 11 17.1647 11 15.0737V8.92626Z" stroke="#4B17CD" stroke-width="2" stroke-linecap="round" stroke-linejoin="round"/>
</svg>
