<svg width="24" height="24" viewBox="0 0 24 24" fill="none" xmlns="http://www.w3.org/2000/svg">
<path d="M3 3L21 21M15.8618 11.231C16.532 11.558 17.1586 11.9676 17.7272 12.45M6.27273 12.45C7.48534 11.4362 8.94481 10.7615 10.5027 10.4946M10.9446 6.31362C12.6974 6.17238 14.4608 6.38576 16.1294 6.94102C17.798 7.49628 19.3376 8.38205 20.6564 9.54544M3.34362 9.54545C4.47858 8.54224 5.77992 7.74482 7.18908 7.18909M9.16093 15.3627C9.99155 14.7726 10.9852 14.4555 12.0041 14.4555C13.023 14.4555 14.0167 14.7726 14.8473 15.3627M12 18.5455H12.0082" stroke="#4B17CD" stroke-width="2" stroke-linecap="round" stroke-linejoin="round"/>
</svg>
