<svg width="24" height="24" viewBox="0 0 24 24" fill="none" xmlns="http://www.w3.org/2000/svg">
<path d="M5.93085 5.34315C7.08697 4.18703 7.66504 3.60896 8.40012 3.30448C9.1352 3 9.95271 3 11.5877 3H12.4123C14.0473 3 14.8648 3 15.5999 3.30448C16.335 3.60896 16.913 4.18702 18.0691 5.34315L18.6569 5.93085C19.813 7.08697 20.391 7.66504 20.6955 8.40012C21 9.1352 21 9.95271 21 11.5877V12.4123C21 14.0473 21 14.8648 20.6955 15.5999C20.391 16.335 19.813 16.913 18.6569 18.0691L18.0691 18.6569C16.913 19.813 16.335 20.391 15.5999 20.6955C14.8648 21 14.0473 21 12.4123 21H11.5877C9.95271 21 9.1352 21 8.40012 20.6955C7.66504 20.391 7.08698 19.813 5.93085 18.6569L5.34315 18.0691C4.18702 16.913 3.60896 16.335 3.30448 15.5999C3 14.8648 3 14.0473 3 12.4123V11.5877C3 9.95271 3 9.1352 3.30448 8.40012C3.60896 7.66504 4.18702 7.08698 5.34315 5.93085L5.93085 5.34315Z" stroke="#4B17CD" stroke-width="2" stroke-linecap="round" stroke-linejoin="round"/>
<path d="M14.2426 14.2426L10 10" stroke="#4B17CD" stroke-width="2" stroke-linecap="round"/>
<path d="M14.2426 10L10 14.2427" stroke="#4B17CD" stroke-width="2" stroke-linecap="round"/>
</svg>
