<svg width="24" height="24" viewBox="0 0 24 24" fill="none" xmlns="http://www.w3.org/2000/svg">
<path d="M20.6232 7.03493C20.526 6.63586 20.3281 6.27021 20.0494 5.97492C19.7707 5.67963 19.4211 5.46516 19.036 5.35317C17.6288 5 12 5 12 5C12 5 6.3712 5 4.964 5.3868C4.57886 5.4988 4.22929 5.71327 3.95061 6.00856C3.67193 6.30384 3.474 6.66949 3.37681 7.06856C3.11927 8.53637 2.9933 11.0254 3.00047 12.5168C2.99129 14.0195 3.11727 16.5199 3.37681 17.9987C3.48395 18.3854 3.68632 18.7371 3.96435 19.0199C4.24239 19.3028 4.58669 19.5071 4.964 19.6132C6.3712 20 12 20 12 20C12 20 17.6288 20 19.036 19.6132C19.4211 19.5012 19.7707 19.2867 20.0494 18.9914C20.3281 18.6962 20.526 18.3305 20.6232 17.9314C20.8787 16.4747 21.0047 13.997 20.9995 12.5168C21.0087 11.0141 20.8827 8.51378 20.6232 7.03493Z" stroke="#4B17CD" stroke-width="2" stroke-linecap="round" stroke-linejoin="round"/>
<path d="M10 12.27C10 13.6433 10 14.33 10.4117 14.6295C10.4668 14.6696 10.5258 14.704 10.5879 14.7321C11.0518 14.9418 11.6487 14.6024 12.8425 13.9235C14.0601 13.2311 14.6689 12.8848 14.7218 12.3729C14.7289 12.3045 14.7289 12.2355 14.7218 12.1671C14.6689 11.6552 14.0601 11.3089 12.8425 10.6165C11.6487 9.93761 11.0518 9.59816 10.5879 9.80794C10.5258 9.83602 10.4668 9.87038 10.4117 9.91047C10 10.21 10 10.8967 10 12.27Z" stroke="#4B17CD" stroke-width="2" stroke-linecap="round" stroke-linejoin="round"/>
</svg>
