<svg width="202" height="203" viewBox="0 0 202 203" fill="none" xmlns="http://www.w3.org/2000/svg">
<ellipse opacity="0.05" cx="102.711" cy="172.943" rx="70" ry="16.5" fill="#1B1B1B"/>
<path d="M42.082 99.5545C41.9805 99.5545 41.4203 99.199 39.3048 98.0001C37.7255 97.105 35.0055 95.8362 32.9332 94.7242C29.435 92.8472 27.6704 91.453 26.9786 90.7358C26.5098 90.2498 25.7235 89.3522 23.9613 87.3361C22.8115 86.0205 21.3357 83.9486 20.5 82.8005C19.0725 80.8392 18.4331 79.55 17.6659 78.0402C16.966 76.663 16.6386 75.6039 16.253 74.4973C15.9748 73.6987 15.4597 72.2734 15.2773 71.2384C15.1594 70.5693 15.0472 69.7525 14.9695 69.0838C14.8505 68.0599 14.7394 66.6221 14.7125 64.2689C14.6901 62.3133 14.9425 60.4659 15.0203 59.5178C15.1247 58.2438 15.4566 57.1323 15.6859 55.7756C16.0901 53.3845 16.6355 52.5152 17.0964 51.1824C17.3999 50.3049 17.8144 49.3878 18.1999 48.4359C18.5539 47.562 19.9075 44.586 20.8925 42.6137C21.6414 41.1142 22.3792 39.9997 22.9702 39.0732C23.6809 37.9589 24.7893 36.306 25.4327 35.5326C26.0067 34.8426 27.5011 33.1817 28.4084 32.1721C28.9681 31.5493 30.0713 30.8147 30.8447 30.1713C32.0752 29.1478 34.2298 28.0413 34.8716 27.7081C35.5786 27.341 36.2306 27.1179 37.3826 26.6062C39.3167 25.747 41.1555 25.5788 42.9424 25.3988C47.6481 24.9246 48.5922 25.5265 50.3606 25.9097C52.575 26.3896 55.9796 27.2687 56.726 27.3988C57.542 27.5409 58.2389 27.8351 59.4925 28.3199C61.4494 29.0767 62.0865 29.3218 62.8561 29.655C63.6977 30.0194 64.6506 30.2452 65.5748 30.6808C66.2457 30.997 67.0115 31.1686 69.0584 32.1913C70.2227 32.773 70.9607 33.5265 71.8333 34.0913C72.9943 34.8427 75.507 37.254 77.4246 38.7592C78.8546 39.8816 79.5793 40.8092 80.4781 41.7857C81.1571 42.5234 81.8386 43.3763 83.0922 45.1162C84.119 46.5415 84.7105 47.4794 85.557 49.0423C86.0573 49.9662 86.5081 50.8653 86.8921 51.7118C87.5766 53.2208 87.8409 54.6052 88.3542 56.0719C88.6474 56.9099 88.8166 57.7387 88.9967 58.766C89.1571 59.681 89.1768 60.509 89.3299 61.4855C89.4383 62.1766 89.6385 62.8699 89.7662 63.564C89.8432 64.3089 89.9971 64.7706 90.074 65.103C90.1002 65.2831 90.1002 65.4862 90.1002 65.6956" stroke="#500311" stroke-width="4.8752" stroke-linecap="round"/>
<path d="M24.537 58.9239C25.305 58.5145 26.0206 58.1052 26.8671 57.7458C28.5585 57.0277 29.4588 56.5661 30.126 56.1298C30.5767 55.8351 30.9994 55.6411 31.2811 55.488C31.919 55.1412 31.8721 54.0544 31.9498 53.3857C32.0282 52.7108 32.1799 51.8997 32.2576 49.3149C32.2927 48.1471 32.4877 47.0271 32.6678 46.0506C32.8275 45.184 33.0017 44.0506 33.2057 43.4581C33.2476 43.3361 33.4604 43.3796 33.6404 43.4558C34.6175 43.8691 35.3072 44.814 36.0506 45.3773C37.4269 46.4202 37.9236 46.9686 38.54 47.5073C39.109 48.0045 39.7704 48.2522 40.4376 48.56C41.2307 48.9259 42.3314 48.1537 46.3506 46.9748C47.3118 46.7655 47.6211 46.7147 47.9535 46.6123C48.1336 46.5608 48.3368 46.51 48.8539 46.4577" stroke="#FFC64A" stroke-width="4.8752" stroke-linecap="round"/>
<path d="M49.9312 46.3038C49.4187 47.4304 49.1124 48.2492 48.8293 49.1734C48.6103 49.8881 48.0874 50.8625 47.6496 51.6882C47.3411 52.2699 47.2133 52.9186 46.8801 53.535C46.7218 53.8278 46.5976 54.1514 46.5199 54.4585C46.3022 55.3184 48.1829 55.6889 48.9024 56.2799C49.6754 56.9149 50.8977 57.4834 51.9289 58.0498C52.7945 58.5253 53.314 58.9732 53.9304 59.3588C54.2126 59.5353 54.5468 59.6412 54.7015 59.8459C55.1423 60.4293 53.0124 60.2568 51.1186 60.3345C50.5453 60.3581 47.7519 60.463 43.7504 60.7678C42.3602 60.8736 42.3899 61.682 42.3645 62.0721C42.3053 62.9819 42.1344 63.7935 41.9543 64.6154C41.7777 65.4217 41.7743 66.1544 41.6211 66.7708C41.4528 67.4483 41.211 68.2568 41.1333 68.9509C41.0465 69.7256 40.6969 70.3098 40.4161 70.9262C40.143 71.5254 39.9798 72.1567 39.5958 72.5953C39.0922 73.1705 38.8008 71.3933 38.5177 70.6754C38.0852 69.5788 38.0806 68.9309 37.8251 68.059C37.6207 67.3615 37.5173 66.5207 37.4396 65.3156C37.3681 64.207 37.2095 62.9809 37.1318 62.0567C37.0737 61.3668 36.8493 60.8247 36.697 60.44C36.3184 59.484 34.5469 60.463 33.3157 60.5908C31.0025 60.5662 30.1853 60.463 29.0833 60.3353C28.5477 60.3091 27.6335 60.3091 26.6917 60.3091" stroke="#FFC64A" stroke-width="4.8752" stroke-linecap="round"/>
<path d="M53.9803 40.6559C54.7483 40.2465 55.464 39.8371 56.3105 39.4777C58.0019 38.7596 58.9022 38.298 59.5694 37.8617C60.02 37.567 60.4428 37.3731 60.7244 37.2199C61.3624 36.8731 61.3154 35.7863 61.3932 35.1176C61.4716 34.4427 61.6232 33.6317 61.701 31.0468C61.7361 29.8791 61.931 28.7591 62.1111 27.7825C62.2709 26.916 62.4451 25.7825 62.649 25.19C62.691 25.0681 62.9037 25.1115 63.0838 25.1877C64.0608 25.6011 64.7506 26.5459 65.4939 27.1092C66.8703 28.1521 67.3669 28.7006 67.9833 29.2392C68.5523 29.7365 69.2138 29.9841 69.881 30.2919C70.6741 30.6578 71.7748 29.8856 75.794 28.7067C76.7551 28.4974 77.0645 28.4466 77.3969 28.3443C77.577 28.2927 77.7801 28.2419 78.2972 28.1896" stroke="#FFC64A" stroke-width="4.8752" stroke-linecap="round"/>
<path d="M79.3746 28.0358C78.8621 29.1623 78.5558 29.9811 78.2726 30.9053C78.0536 31.62 77.5308 32.5944 77.0929 33.4201C76.7844 34.0018 76.6566 34.6506 76.3234 35.267C76.1651 35.5598 76.041 35.8834 75.9633 36.1904C75.7456 37.0503 77.6262 37.4209 78.3457 38.0118C79.1188 38.6468 80.3411 39.2154 81.3722 39.7817C82.2379 40.2572 82.7574 40.7052 83.3738 41.0907C83.656 41.2672 83.9902 41.3731 84.1448 41.5778C84.5857 42.1612 82.4557 41.9887 80.5619 42.0665C79.9887 42.09 77.1953 42.195 73.1938 42.4997C71.8036 42.6056 71.8333 43.4139 71.8079 43.804C71.7486 44.7139 71.5778 45.5255 71.3977 46.3473C71.221 47.1536 71.2176 47.8864 71.0645 48.5027C70.8962 49.1802 70.6543 49.9887 70.5766 50.6828C70.4899 51.4576 70.1403 52.0418 69.8594 52.6582C69.5864 53.2574 69.4231 53.8886 69.0391 54.3273C68.5356 54.9025 68.2442 53.1253 67.961 52.4073C67.5285 51.3108 67.5239 50.6628 67.2685 49.7909C67.0641 49.0934 66.9606 48.2526 66.8829 47.0476C66.8114 45.9389 66.6528 44.7128 66.5751 43.7886C66.5171 43.0988 66.2927 42.5566 66.1403 42.1719C65.7618 41.216 63.9903 42.195 62.7591 42.3227C60.4459 42.2981 59.6286 42.195 58.5267 42.0672C57.9911 42.0411 57.0769 42.0411 56.135 42.0411" stroke="#FFC64A" stroke-width="4.8752" stroke-linecap="round"/>
<path d="M52.9641 66.7068C53.9522 67.158 54.5162 67.6652 54.9135 67.9921C55.5706 68.5327 56.2413 69.9534 56.525 70.6476C56.9945 71.7964 57.3439 72.5538 57.8252 74.2064C58.1435 75.2993 58.1377 76.0057 58.2081 76.3882C58.2505 76.7987 58.3073 77.249 58.3777 77.7308C58.3921 77.8444 58.3921 77.9564 58.3921 78.0717" stroke="#500311" stroke-width="4.8752" stroke-linecap="round"/>
<path d="M57.2897 70.5235C57.4864 70.5235 58.3855 70.3556 59.421 69.9735C59.7155 69.8649 60.8137 69.3692 63.0396 68.1305C64.3164 67.42 65.7693 66.3321 66.5754 65.7426C67.4902 65.0737 67.636 64.8699 67.9731 64.5472C68.6971 63.8542 69.5265 62.6987 70.247 61.7098C70.7461 61.0253 70.9717 60.6869 71.1842 60.3473C71.227 60.262 71.255 60.1781 71.3686 60.0916" stroke="#500311" stroke-width="4.8752" stroke-linecap="round"/>
<path d="M37.6149 150.141C38.5064 151.033 40.1691 152.832 41.101 153.629C41.9693 154.37 43.0011 155.113 44.5539 156.287C45.7589 157.199 46.7329 158.015 47.5632 158.639C48.895 159.64 51.0867 160.574 52.2953 161.265C53.2949 161.837 56.1121 162.917 58.3761 163.65C59.9178 164.15 61.0381 164.376 62.4531 164.653C63.7943 164.915 64.9067 164.998 66.0138 165.275C67.1209 165.552 68.0871 165.827 69.1579 166.104C70.4908 166.449 71.8852 166.52 72.9249 166.726C74.2956 166.998 75.9611 167.208 77.5192 167.383C78.5991 167.505 79.8339 167.693 84.0384 167.798C85.9316 167.845 87.9817 168.178 94.164 168.35C98.8893 168.482 107.922 168.386 112.677 168.351C117.432 168.317 117.637 168.249 118.016 168.214C118.396 168.178 118.943 168.178 119.507 167.971" stroke="#FF702D" stroke-width="4.8752" stroke-linecap="round"/>
<path d="M95.043 134.177C95.6629 134.453 96.7637 134.592 97.8035 134.798C99.0416 135.044 100.015 135.144 102.221 135.248C103.617 135.314 104.99 135.285 106.165 135.18C107.347 135.074 108.859 134.87 110.069 134.627C110.928 134.592 111.695 134.524 112.247 134.386C112.524 134.316 112.798 134.248 113.495 134.177" stroke="#FF702D" stroke-width="4.8752" stroke-linecap="round"/>
<path d="M134.4 21.7908C134.4 22.5309 133.294 27.3373 132.168 32.0641C131.403 35.2782 130.864 37.1456 130.723 38.4959C130.59 39.7686 130.305 41.2398 129.979 42.5455C129.525 44.3562 129.652 50.6907 129.884 54.1831C129.958 55.3078 130.395 56.6002 130.999 58.0455C131.491 59.2205 132.07 60.3258 132.721 61.4443C133.564 62.8935 135.69 65.2523 137.049 66.8428C138.483 68.5217 139.516 69.5421 140.493 70.6606C141.396 71.6931 142.029 72.8934 142.775 74.0119C143.521 75.1304 144.448 76.2448 145.289 77.3633C146.096 78.4379 146.777 79.5961 147.245 80.7146C147.712 81.8322 148.269 82.9475 148.873 84.066C149.458 85.1483 149.944 86.2989 150.317 87.4174C150.69 88.5359 151.061 89.6502 151.434 90.7687C151.715 91.8872 151.807 92.7251 151.947 93.3283C151.994 93.6551 151.994 94.0237 151.994 94.4036" stroke="#FF702D" stroke-width="4.8752" stroke-linecap="round"/>
<path d="M161.05 161.27C161.509 160.964 162.432 160.451 163.865 159.837C165.619 159.084 166.28 158.451 167.049 157.862C168.621 156.658 169.813 155.277 170.872 154.321C172.106 153.206 173.769 151.577 175.076 150.297C175.871 149.518 176.437 148.961 177.053 148.218C178.2 146.832 178.798 146.191 179.72 145.191C180.355 144.503 180.901 143.627 181.492 142.958C182.02 142.36 182.44 141.574 183.286 140.318C183.936 139.355 184.696 137.883 185.109 137.059C185.552 136.175 185.98 135.47 186.34 134.725C186.822 133.732 187.109 132.906 187.495 132.134C187.977 131.169 188.239 130.083 188.444 129.159C188.607 128.428 188.753 127.722 188.906 126.978C189.069 126.185 189.162 125.158 189.342 124.362C189.485 123.73 189.522 123.105 189.676 122.463C189.855 121.712 189.984 121.003 190.112 120.283C190.265 119.42 190.292 118.796 190.42 118.103C190.611 117.065 190.6 114.403 190.472 112.487C190.366 110.896 190.292 109.263 190.139 108.176C190.043 107.497 189.883 106.791 189.805 106.022C189.72 105.185 189.421 104.483 189.215 103.841C188.98 103.105 188.704 102.38 188.446 101.584C188.223 100.896 187.731 99.6654 187.369 98.7874C187.114 98.1704 186.804 97.4554 186.216 96.1479C185.888 95.4191 185.727 94.7866 185.369 94.0425C184.969 93.2144 184.496 92.3242 184.01 91.3246C183.65 90.5864 183.163 90.0156 182.471 88.9906C181.881 88.1156 181.369 87.2977 180.778 86.5012C180.247 85.7866 179.777 84.9368 179.341 84.295C178.824 83.5344 178.392 82.8344 177.981 82.1657C177.593 81.5346 177.059 80.8337 176.596 80.165C176.174 79.556 175.776 78.9345 175.365 78.3181C174.954 77.7017 174.544 77.0876 174.134 76.4713C173.773 75.8549 173.518 75.4439 173.262 75.2139C173.158 75.0853 173.107 74.933 172.901 74.776" stroke="#FF702D" stroke-width="4.8752" stroke-linecap="round"/>
<path d="M147.288 30.1019C148.254 26.8573 148.806 25.7523 149.6 24.3031C150.414 22.8176 151.153 21.61 151.675 20.5682C152.194 19.533 153.429 17.0572 154.197 15.5583C154.779 14.4231 155.44 13.5203 157.06 10.935C158.278 8.9914 159.997 6.40914 160.968 4.95167C161.878 3.58618 162.145 2.73747 162.386 2.52911C163.087 1.92479 162.698 4.59922 162.87 7.88631C163.032 10.9657 163.111 16.9204 163.216 20.1235C163.329 23.6027 163.459 25.1821 163.493 27.2885C163.511 28.3734 163.667 31.661 163.632 36.3247C163.615 38.7489 163.252 39.9787 163.08 40.9479C163.031 41.2227 163.045 41.5668 162.976 41.6062C162.908 41.6456 162.771 41.3719 162.666 41.1283C162.561 40.8847 162.493 40.6795 162.423 40.468" stroke="#FFC64A" stroke-width="4.8752" stroke-linecap="round"/>
<path d="M151.227 24.2969C152.469 25.4019 153.296 25.8145 154.643 26.5401C155.7 27.1095 156.613 27.7509 158.44 28.7149C159.097 29.0611 159.918 29.4716 160.478 29.8199C161.038 30.1682 161.311 30.4419 162.008 30.9312" stroke="#FFC64A" stroke-width="4.8752" stroke-linecap="round"/>
<path d="M155.166 17.0405C155.579 17.1089 156.406 17.3847 157.236 17.8677C158.067 18.4213 158.894 18.9728 159.724 19.5263C159.933 19.6652 160.138 19.8021 160.764 20.1504" stroke="#FFC64A" stroke-width="4.8752" stroke-linecap="round"/>
<path d="M188.723 61.7169C188.701 62.0336 188.7 62.6053 188.802 62.7418C188.856 62.8133 188.927 62.8782 189.041 62.9131C189.155 62.948 189.313 62.948 189.485 62.8577C189.878 62.6509 190.068 62.3331 190.136 62.1516C190.177 62.0428 190.16 61.8797 190.126 61.7757C190.009 61.4178 189.476 61.5118 189.362 61.5456C189.245 61.5806 189.27 61.8072 189.304 61.9778C189.37 62.3104 189.771 62.2866 189.885 62.287C189.978 62.2872 189.75 62.0821 189.613 62.0025C189.547 61.9637 189.477 61.9454 189.431 61.9676C189.385 61.9898 189.362 62.0575 189.373 62.1262C189.384 62.195 189.429 62.2627 189.475 62.2637C189.521 62.2647 189.566 62.197 189.589 62.1057C189.612 61.9016 189.567 61.7176 189.465 61.5812C189.408 61.5124 189.34 61.4447 189.202 61.4434" stroke="#1B1B1B" stroke-width="2.91834" stroke-linecap="round"/>
<path d="M134.958 21.5115C135.142 22.1594 136.07 24.0138 136.632 25.4172C137.083 26.5415 137.472 27.65 137.981 28.7686C138.477 29.8559 138.773 31.0014 139.146 32.3517C139.472 33.5317 139.89 34.632 140.263 35.7506C140.646 36.8997 141.286 37.9834 141.937 39.1019C142.107 39.3935 142.309 39.6591 142.45 39.6633C143.383 39.691 143.241 37.7153 143.614 36.5968C143.987 35.4783 144.543 34.3639 145.057 33.2454C145.607 32.0473 146.406 31.3812 146.963 31.148C148.037 30.6986 149.196 32.2135 150.082 33.191C151.016 34.2202 152.268 35.1906 153.154 36.3091C154.078 37.4739 154.876 38.542 155.622 39.6605C156.368 40.779 157.295 41.8933 158.413 42.6879C159.387 43.3799 160.831 43.2953 162.044 43.5732C163.168 43.8306 164.277 44.0382 165.395 44.411C166.514 44.7839 167.628 45.1553 168.747 45.5282C169.865 45.901 170.98 46.2724 172.33 46.6453C173.51 46.9711 174.61 47.2052 175.729 47.4831C176.904 47.7752 178.146 48.5067 179.591 49.1113C180.709 49.5788 181.871 49.8081 182.99 50.2759C184.078 50.7308 185.223 51.0202 186.387 51.393C187.723 51.8206 188.853 51.953 189.972 52.2309C191.148 52.5229 192.205 53.4388 193.323 54.1844C194.442 54.9301 195.556 55.673 196.397 56.6966C197.25 57.7354 197.885 58.9294 198.307 60.9695C199.478 66.6325 197.891 67.8664 197.518 68.9849C197.135 70.134 196.126 71.402 193.848 73.2188C192.686 74.146 191.378 74.2004 190.26 74.5733C189.166 74.9379 187.842 75.0383 186.353 75.365C183.889 75.9052 179.771 75.6918 177.133 75.4139C176.015 75.0411 174.901 74.6696 173.782 74.2968C173.501 74.2032 173.225 74.1111 172.661 73.7368" stroke="#FF702D" stroke-width="4.8752" stroke-linecap="round"/>
<path d="M62.8024 104.59C61.7485 103.235 61.0722 102.407 60.5617 101.803C59.829 100.936 59.4868 100.447 59.0158 99.8613C58.682 99.4466 58.3944 98.938 58.0354 98.4851C57.6437 97.9911 57.3382 97.4679 57.0363 97.015C56.7343 96.5621 56.4335 96.1109 56.3187 95.658C56.1681 95.0636 57.6322 94.53 58.6528 93.6049C59.2434 93.0697 60.1223 92.5306 60.6708 92.0579C61.2056 91.597 61.857 91.2098 62.3484 90.814C62.862 90.4003 63.5533 89.8913 64.0446 89.5509C64.5347 89.2114 65.0618 88.8351 65.6272 88.3267C66.2971 87.7245 67.172 87.1772 67.682 86.743C68.2041 86.2984 68.7936 85.9333 69.3404 85.4804C70.1521 84.8081 71.3561 83.8978 71.9599 83.4449C72.6713 82.9114 73.43 82.3146 74.1832 81.8431C74.8783 81.4078 75.4271 80.883 76.0496 80.3916C76.7602 79.8308 77.388 79.336 78.028 78.8656C79.1249 78.0594 80.0251 77.3774 81.0242 76.4541C81.6207 75.9028 82.3637 75.3781 82.9478 74.945C83.6793 74.4025 84.2476 73.8333 84.7577 73.4743C85.3529 73.0553 85.9439 72.6641 86.5845 72.2688C87.8764 71.4718 88.5448 71.0062 89.0362 70.7597C89.5784 70.4877 90.0534 69.95 90.9942 69.3292C91.6999 68.8636 92.0889 68.4799 92.8234 67.8026C93.3076 67.356 93.7852 67.0099 94.3313 66.7452C95.1638 66.3419 95.7076 66.9691 96.1605 67.2524C96.5828 67.5166 97.0646 67.7607 97.5175 68.0627C97.9704 68.3646 98.4216 68.6654 98.8745 68.9673C99.3274 69.2693 99.8532 69.6447 100.363 70.0038C101.02 70.4661 101.588 71.0402 102.041 71.3421C102.494 71.644 102.945 72.0195 103.398 72.3599C103.874 72.718 104.415 73.0757 104.924 73.4522C105.75 74.0635 106.186 74.6204 106.677 74.9794C107.163 75.3345 107.656 75.7512 108.539 76.5021C110.039 77.7768 110.975 78.8814 111.219 79.0691C112.115 79.7577 112.935 80.84 113.331 81.1991C113.825 81.6477 114.366 82.2355 114.838 82.6499C115.372 83.1189 115.911 83.554 116.403 83.9131C116.909 84.283 117.307 84.7233 117.872 85.1378C118.457 85.5666 118.964 86.0419 119.643 86.6073C120.474 87.3003 121.113 87.5866 121.773 88.1153C122.627 88.7999 123.187 89.1336 123.734 89.6233C124.262 90.0967 124.958 90.6783 125.543 91.2064C126.265 91.8581 127.333 92.8269 127.937 93.3737C128.6 93.9746 129.294 94.5616 129.84 95.0513C130.565 95.7002 131.555 96.5971 132.271 97.2932C132.761 97.7692 133.401 98.4042 134.005 98.9148C134.836 99.6889 135.25 100.027 135.588 100.366C135.74 100.518 135.852 100.63 136.194 100.971" stroke="#3FA9F5" stroke-width="4" stroke-linecap="round"/>
<path d="M109.711 75.805C110.247 75.4987 111.481 74.4941 112.214 73.8746C114.091 72.2882 115.262 71.1274 115.822 70.7214C116.321 70.3591 116.958 70.0068 117.461 69.6767C117.896 69.3913 118.502 69.4639 120.521 69.4436C121.405 69.4347 122.01 69.733 122.974 70.0033C123.798 70.2343 124.479 70.4291 125 70.6031C125.616 70.8084 126.098 71.3177 126.697 71.8392C127.233 72.3064 127.757 72.7864 128.221 73.2319C128.647 73.642 129.146 74.0625 129.647 74.4691C130.401 75.0799 130.805 75.6867 131.613 76.5556C132.258 77.2488 132.848 77.8909 133.887 78.9524C134.664 79.7455 135.393 80.5591 135.953 81.0046C136.428 81.3828 137.203 82.1415 137.939 82.7639C138.529 83.2632 139.019 83.6914 139.558 84.1752C140.281 84.8239 141.062 85.355 141.526 85.6647C141.982 85.97 142.411 86.3991 142.914 86.8051C143.398 87.196 143.955 87.5592 145.474 89.0436C146.202 89.7539 146.655 90.304 146.945 90.8649C147.188 91.3347 147.389 91.8122 147.543 92.3731C147.678 92.8632 147.775 94.086 147.66 94.945C147.593 95.4437 147.16 95.8725 146.793 96.3754C146.27 97.0944 145.619 97.3807 145.02 97.8261C144.567 98.1629 143.999 98.4248 143.343 98.8894C142.637 99.3894 142.108 99.4317 141.645 99.6829C141.197 99.9259 140.72 100.128 140.257 100.379C139.808 100.622 139.332 100.9 138.753 101.114C138.598 101.172 138.445 101.248 138.309 101.307C138.173 101.366 138.059 101.404 137.941 101.443" stroke="#3FA9F5" stroke-width="4" stroke-linecap="round"/>
<path d="M116.711 83.6513C116.936 83.4647 117.313 82.862 117.633 82.4277C117.954 81.9936 118.593 81.8058 119.084 81.6163C119.53 81.4446 121.556 81.3896 123.022 81.5021C123.625 81.5484 124.134 81.8035 124.719 81.9545C125.199 82.0783 125.642 82.3305 126.095 82.5385C126.61 82.7748 127.187 83.0474 127.772 83.3109C128.511 83.6434 129.449 84.3275 129.94 84.6679C130.388 84.9779 130.919 85.3453 131.316 85.7609C131.646 86.105 132.237 86.6254 132.692 87.2864C133.281 88.1433 133.972 89.1879 134.351 89.85C134.728 90.5086 135.105 91.3387 135.256 91.9042C135.417 92.5055 135.558 93.1843 135.69 94.107C135.907 95.6217 135.447 96.0883 135.145 96.635C134.806 97.1071 134.504 97.5584 134.146 98.0113C134.051 98.1249 133.977 98.2369 133.9 98.3522" stroke="#3FA9F5" stroke-width="4" stroke-linecap="round"/>
<path d="M80.442 103.799C80.8949 103.497 81.3461 103.271 82.0048 102.896C83.431 102.083 84.0601 101.048 84.288 100.634C84.6542 99.9677 84.2524 98.7502 83.9504 98.2589C83.6655 97.7951 83.3477 97.3548 83.0271 96.8832C82.6591 96.3419 82.443 95.8847 82.2723 95.2452C81.9118 93.8952 82.4408 93.3968 82.6104 92.9439C82.7977 92.4439 83.2685 92.0398 83.7215 91.6242C84.1194 91.2591 84.9625 91.0221 85.5495 90.7942C86.0787 90.5887 87.2197 90.5675 88.3002 90.8677C88.8715 91.0264 89.4497 91.3206 90.0349 91.4716C90.5149 91.5954 90.9583 91.7729 91.6735 91.6808C92.7728 91.5391 92.693 90.4566 92.8824 89.8912C93.0801 89.301 93.1838 88.6857 93.3347 88.1005C93.4585 87.6206 93.6361 87.1772 93.9182 86.743C94.2122 86.2904 94.8031 86.1956 95.256 86.0447C96.6104 85.5932 99.1003 86.0803 99.5719 86.4195C100.168 86.8483 100.383 87.3988 100.666 87.8517C100.923 88.2619 101.061 88.7559 101.269 89.2088C101.492 89.6939 101.853 90.1129 102.286 90.4906C102.84 90.9737 103.359 91.2821 103.85 91.4716C104.296 91.6433 105.501 91.6983 106.338 91.5858C106.811 91.5222 107.242 91.2098 107.695 91.0017C108.163 90.7867 108.599 90.5313 109.164 90.3605C110.177 90.0543 110.748 90.7914 111.295 91.2256C111.742 91.5807 112.143 91.9222 112.445 92.3938C112.773 92.9057 112.86 93.4669 113.105 94.0521C113.322 94.5712 113.313 95.2763 113.314 96.8001C113.314 97.5019 112.863 97.9157 112.655 98.3686C112.44 98.8366 112.259 99.2727 112.239 100.007C112.224 100.58 112.858 101.157 113.443 101.723C113.846 102.113 114.367 102.177 115.007 102.234C115.55 102.282 117.108 102.441 118.174 102.891C118.766 103.141 118.628 104.058 118.629 105.808C118.629 106.559 117.99 106.962 116.861 108.072C116.216 108.707 115.54 109.073 115.03 109.357C114.493 109.658 114.032 109.866 113.579 110.111C113.141 110.348 112.6 110.769 112.315 111.26C112.184 111.486 112.07 111.713 112.013 112.013C111.851 112.876 112.596 113.408 112.822 113.861C113.08 114.376 113.2 114.878 113.219 116.082C113.23 116.703 112.937 117.14 112.768 117.593C112.555 118.161 111.883 118.535 111.412 118.725C110.851 118.95 110.151 119.026 109.584 119.177C108.947 119.347 108.491 119.478 107.005 119.48C106.304 119.48 105.89 119.103 105.4 118.971C104.778 118.803 103.934 118.838 103.139 118.97C102.711 119.04 102.346 119.178 102.082 119.234C101.566 119.343 101.629 120.193 101.497 120.665C101.349 121.192 101.59 121.738 101.365 122.229C101.147 122.706 100.876 123.133 100.668 123.605C100.419 124.169 100.009 124.529 99.5566 124.831" stroke="#3FA9F5" stroke-width="4" stroke-linecap="round"/>
<path d="M34.6486 54.2252C34.6486 54.3085 34.6902 55.0598 34.795 56.029C34.8921 56.9265 35.5729 53.3463 35.7004 52.5653C35.8306 51.7681 36.078 51.0304 36.2055 50.3763C36.2427 50.1859 36.3305 49.9368 36.4568 51.204C36.5831 52.4712 36.7498 55.2631 36.8565 56.7848C36.9632 58.3064 37.0049 58.4731 37.0472 58.6214C37.0895 58.7698 37.1311 58.8948 37.2776 58.73C38.3012 57.5785 38.6868 56.5865 40.4711 54.2971C41.2476 53.3009 41.6341 52.922 41.8867 52.857C42.3557 52.7362 41.6808 55.3452 41.1972 57.9118C40.904 59.4676 40.6681 59.948 40.6883 59.9088C41.5569 58.2259 41.6771 56.8391 42.2844 55.5586C43.6955 52.5839 43.9083 52.206 44.0131 52.0791C44.3317 51.6933 44.3718 53.2528 44.4766 54.0951C44.6382 55.3936 44.6243 56.0322 44.6868 56.3699C44.8013 56.9884 45.2532 54.3211 45.4028 53.1758C45.5828 51.7983 45.4249 50.0202 45.1307 49.4905C44.8107 48.9143 44.4576 50.644 43.9317 51.2975C43.6154 51.783 43.1115 52.2856 42.6058 52.939C42.4789 53.0874 42.3539 53.2124 42.0988 53.5938" stroke="#FFC64A" stroke-width="7" stroke-linecap="round"/>
<path d="M66.2174 32.2532C65.2173 34.6702 64.202 36.7903 63.4861 38.0329C63.3659 38.2413 63.8977 37.3535 65.1131 35.6759C66.7702 33.3887 68.1103 32.1699 68.3414 32.127C68.6173 32.0757 67.9499 34.2976 66.7938 37.2418C66.3363 38.407 66.0128 38.8524 65.9251 39.0052C65.9053 39.0397 66.2161 38.6112 67.0306 37.5663C68.8779 35.1963 70.3832 33.6852 70.5935 33.6423C70.8314 33.5937 70.1383 35.5629 69.1078 38.024C68.4144 39.6802 67.9448 40.2061 67.7958 40.5451C67.4071 41.4296 68.9942 38.7375 70.1629 37.4009C71.1745 36.2438 73.1651 34.2307 74.174 33.2413C75.183 32.252 75.183 32.377 74.9121 33.2956C73.5601 37.8811 73.2472 38.3549 73.2257 38.5449C73.1592 39.1334 74.1298 37.4331 74.5705 37.0113C74.881 36.7142 75.14 36.4216 75.2663 36.4197C76.2758 36.4046 75.0996 38.0998 74.8262 38.7962C74.5678 39.4545 74.2157 40.2061 73.8167 40.8166C73.7106 40.965 73.6272 41.09 73.5426 41.2169C73.458 41.3438 73.3747 41.4688 73.2888 41.5976" stroke="#FFC64A" stroke-width="7" stroke-linecap="round"/>
<path d="M136.733 115.099C136.682 114.742 136.478 114.025 136.298 113.383C136.095 112.662 136.118 111.923 135.99 110.974C135.794 109.52 135.81 108.081 135.963 107.073C136.081 106.294 136.527 105.714 136.886 105.098C137.267 104.442 137.654 103.612 138.142 102.943C138.606 102.308 139.039 101.713 140.191 100.611C140.991 99.8459 141.809 99.3516 142.425 98.9661C143.024 98.5916 143.81 98.6313 144.426 98.4782C145.139 98.3011 146.066 98.222 146.735 98.0165C146.889 97.9649 147.042 97.9141 147.679 97.888C148.316 97.8618 149.433 97.8618 150.585 97.8618" stroke="#500311" stroke-width="4.8752" stroke-linecap="round"/>
<path d="M6.26294 140.161C6.26294 140.952 6.37521 141.858 6.46111 142.709C6.55454 143.634 6.99779 144.41 7.31078 145.232C7.61331 146.027 8.01841 146.904 8.64184 147.812C9.23992 148.683 10.0562 149.567 10.8532 150.054C11.1925 150.251 11.5344 150.423 11.8738 150.564C12.0448 150.649 12.2132 150.761 12.3867 150.877" stroke="#500311" stroke-width="3" stroke-linecap="round"/>
<path d="M1.5 145.604C1.5 146.565 1.72454 147.808 2.03753 148.663C2.31367 149.417 2.91526 150.023 3.36944 150.704C3.48341 150.875 3.59568 151.044 3.73771 151.187C3.87975 151.33 4.04815 151.442 4.39176 151.728" stroke="#500311" stroke-width="3" stroke-linecap="round"/>
<path d="M132.021 190.14C132.929 190.442 133.85 190.825 135.067 191.32C136.835 192.039 140.248 192.58 143.95 193.153C147.416 193.69 150.495 193.806 152.256 193.996C154.319 194.111 157.36 194.264 160.452 194.227C161.579 194.189 161.806 194.113 162.268 194.035" stroke="#500311" stroke-width="3" stroke-linecap="round"/>
<path d="M141.73 199.695C142.317 199.863 143.157 200.114 144.063 200.325C144.72 200.479 145.39 200.579 146.188 200.683C147.735 200.887 149.17 200.831 150.335 200.936C151.447 201.036 152.461 201.167 153.407 201.231C153.64 201.252 153.807 201.293 154.351 201.315C154.896 201.336 155.812 201.336 156.883 201.21" stroke="#500311" stroke-width="3" stroke-linecap="round"/>
<path d="M48.7111 150.356C48.7111 150.798 48.7111 151.24 48.8385 151.38C50.2315 152.904 55.5445 150.149 59.2309 147.248C60.0016 146.641 61.4823 145.892 61.5724 146.067C62.8387 148.516 54.5547 149.9 53.05 151.912C51.5918 153.862 50.2608 155.177 49.7009 155.715C48.5148 156.857 52.5571 152.072 57.7417 147.513C60.5819 145.016 65.0076 146.204 65.9524 146.067C68.4766 145.701 60.9904 150.254 59.2309 153.292C56.801 157.487 55.6642 158.485 55.4055 158.889C55.2247 159.171 56.1739 158.046 58.0043 156.049C59.5437 154.37 62.4681 151.487 65.9524 148.523C69.4367 145.559 73.4574 144.198 75.9974 143.44C78.9846 142.549 81.1876 143.498 79.952 142.297C78.732 141.111 74.7474 145.733 72.894 148.745C71.0405 151.758 69.1715 154.501 69.3556 154.631C69.5397 154.761 71.8333 152.195 74.7565 149.457C77.6796 146.72 81.1626 143.888 83.2117 142.297C85.7119 140.355 86.5506 139.99 86.8518 140.031C87.0648 140.061 86.7282 140.869 85.3239 143.179C83.9196 145.489 81.2861 149.471 78.5278 153.292C75.7694 157.112 72.966 160.652 71.4369 162.608C69.9078 164.564 69.7379 164.829 69.8202 164.789C70.3336 164.538 72.2066 161.818 76.8609 156.254C79.7691 152.778 84.3187 148.479 86.7642 146.067C89.2098 143.655 89.5496 143.389 89.6397 143.474C89.7298 143.558 89.5599 144.001 87.6459 146.972C85.7319 149.943 82.079 155.429 81.9812 155.821C81.8834 156.214 85.4513 151.348 88.861 147.248C92.2706 143.148 95.4139 139.963 97.0756 138.455C98.7373 136.946 98.8222 137.212 98.4412 138.455C98.0602 139.697 97.2107 141.909 95.4139 145.526C93.617 149.144 90.8985 154.099 89.668 156.474C88.4375 158.85 88.7773 158.496 89.2922 157.783C89.807 157.07 90.4867 156.008 92.5783 153.47C94.6699 150.932 98.1529 146.95 100.372 144.545C104.696 139.858 106.967 138.206 108.297 137.401C108.74 137.132 108.862 137.48 108.608 138.413C108.355 139.346 107.76 140.939 106.519 143.44C105.279 145.942 103.41 149.304 101.47 152.408C97.7429 158.371 94.7986 161.877 93.6826 162.907C92.3881 164.101 95.818 158.048 97.8607 154.544C99.5716 151.608 102.962 146.527 106.198 142.202C109.433 137.877 114.142 134.345 114.711 136.943M114.711 136.943C116.146 143.493 110.449 145.526 110.449 145.526C110.449 148.679 115.646 144.406 114.711 136.943ZM114.711 136.943C114.414 134.575 114.551 139.909 113.046 143.817C111.542 147.725 109.758 151.53 108.626 153.844C106.466 158.262 105.181 160.357 104.659 161.303C104.061 162.39 105.515 158.496 106.286 156.619C107.076 154.696 108.002 152.506 108.433 151.742C109.585 149.701 108.352 159.628 108.262 162.105C108.199 163.853 109.892 158.941 110.449 158.133C111.36 156.811 110.412 162.77 109.938 164.516C109.809 164.92 109.639 165.274 109.509 165.589C109.379 165.904 109.294 166.17 109.207 166.443" stroke="#FF702D" stroke-width="8" stroke-linecap="round"/>
<path d="M155.928 117.458C154.874 120.796 153.98 123.217 153.448 124.062C152.859 124.997 153.533 121.546 154.062 119.597C154.898 116.519 155.481 113.839 155.926 112.14C155.998 111.867 156.103 111.609 156.061 111.781C155.318 114.774 153.448 118.251 152.781 119.275C152.703 119.395 152.559 119.06 152.733 118.573C153.79 115.619 155.659 113.914 156.102 113.557C156.443 113.283 156.372 117.778 155.756 125.471C155.42 129.672 154.996 135.726 155.211 138.443C155.597 143.33 157.8 133.043 157.711 133.443C157.502 134.382 154.23 137.087 157.37 130.497C159.259 126.533 163.038 119.465 164.982 116.02C166.926 112.575 167.014 113.014 166.094 119.432C165.173 125.849 163.241 138.232 162.114 145.094C160.572 154.48 160.098 155.777 160.009 155.957C159.971 156.032 160.095 155.434 162.072 151.299C164.05 147.165 167.914 139.349 170.914 133.874C173.915 128.399 175.935 125.501 177.063 124.227C178.191 122.954 178.367 123.393 178.37 124.19C178.376 126.136 177.313 129.764 175.283 135.817C174.064 139.449 172.023 144.065 171.335 145.497C170.647 146.928 171.262 144.996 173.51 140.576C175.759 136.156 179.623 129.306 181.877 125.514C184.502 121.098 185.377 120.301 185.73 119.9C187.449 117.955 184.408 128.353 183.475 131.77C182.85 134.059 182.098 135.64 181.788 136.304C181.644 136.612 181.566 136.88 181.652 136.269C181.951 134.158 182.449 132.1 183.374 127.877C184.181 124.193 185.44 117.331 186.075 114.109C186.71 110.888 186.622 111.503 186.445 112.258C186.059 113.906 184.855 116.817 182.646 121.239C181.419 123.695 179.559 126.363 178.567 127.282C177.574 128.202 177.398 127.236 178.801 120.898C180.203 114.56 183.189 102.88 183.586 100.244C183.982 97.6086 181.699 104.371 179.996 108.82C178.292 113.27 177.239 115.202 176.608 116.329C175.977 117.456 175.802 117.719 176.37 114.035C176.938 110.35 178.255 102.71 178.934 98.4668C179.907 92.3786 180.145 90.6735 180.189 90.2717C180.251 89.6957 180.147 92.7838 178.782 97.0644C177.846 99.998 175.748 104.243 173.831 107.821C171.914 111.399 170.069 114.121 169.075 115.216C168.081 116.311 167.994 115.697 168.431 110.023C168.869 104.349 169.835 93.6354 170.421 87.9405C171.006 82.2455 171.182 81.8942 171.228 82.1963C171.275 82.4983 171.187 83.4643 170.132 86.7722C169.077 90.0801 167.057 95.7005 165.006 100.264C162.956 104.828 160.936 108.166 159.896 109.533C158.855 110.901 158.855 110.199 160.041 104.129C161.226 98.0583 163.597 86.6418 165.214 79.5311C166.831 72.4204 167.621 69.9614 168.204 68.2995C168.787 66.6376 169.138 65.8472 169.363 65.5718C169.561 65.3294 169.678 67.412 169.062 72.0026C168.656 75.0312 167.568 79.4033 166.148 84.1243C164.728 88.8453 162.884 93.7631 161.846 96.604C160.808 99.4448 160.633 100.06 160.542 100.113C160.452 100.166 160.452 99.6391 162.164 94.7132C163.877 89.7873 167.302 80.4785 169.505 74.8487C171.709 69.219 172.587 67.5504 173.127 66.9543C173.667 66.3582 173.843 66.8851 173.889 68.1225C173.936 69.36 173.848 71.292 172.881 75.7562C171.914 80.2203 170.069 87.1581 169.295 89.1074C168.521 91.0567 168.872 87.8074 169.097 84.1576C169.565 76.5638 169.412 71.9573 169.279 70.9833C169.218 70.5381 169.234 70.185 169.146 70.1357C168.85 69.9697 167.121 74.5733 164.023 81.7904C162.603 85.099 161.101 87.5147 160.289 88.9131C159.478 90.3116 159.302 90.575 159.475 89.0422C159.648 87.5093 160.175 84.1722 160.49 79.7307C160.806 75.2891 160.894 69.8443 160.895 67.259C160.896 64.6736 160.808 65.1127 160.544 66.0854C159.87 68.5595 158.246 72.6359 156.033 77.3729C153.078 83.6988 151.672 84.5448 151.185 85.2087C150.958 85.5187 150.786 85.7849 150.784 82.4078C150.781 79.0308 150.957 72.0052 151.091 68.1665C151.225 64.3277 151.313 63.8886 151.358 64.6284C151.707 70.3355 150.871 73.1868 150.607 74.7848C150.546 75.1488 150.43 75.4062 150.428 75.3224C150.42 74.7924 150.605 72.0638 150.518 67.9895C150.392 62.1562 149.009 58.7392 149.009 58.6008C149.009 53.9846 146.262 68.1305 145.904 68.8916C145.85 69.0072 145.991 68.237 146.036 64.321C146.081 60.4051 146.081 53.1161 145.906 48.4829C145.663 42.0763 144.929 40.0203 144.708 40.2359C143.466 41.4485 143.955 44.0893 142.985 46.7811C140.122 54.7271 138.987 56.1552 138.41 57.048C138.225 57.335 138.01 55.8145 137.262 51.7642C136.643 48.4087 135.373 42.4447 134.695 39.2366C134.018 36.0285 133.93 35.7651 133.841 37.2101C133.557 41.8113 133.31 45.9521 132.823 47.8097C132.298 49.8139 132.155 51.3677 132.066 51.7695C131.943 52.3267 132.594 49.5208 133.171 47.4397C134.532 42.5218 135.788 36.3878 136.321 35.4511C136.412 35.2918 136.762 35.5788 137.6 39.6212C138.438 43.6635 139.843 51.5673 140.611 55.7706C141.379 59.974 141.467 60.2374 141.512 60.5927C141.613 61.382 143.402 56.7459 146.284 48.6772C148.061 43.7018 148.564 41.9737 148.785 41.0888C149.012 40.1796 149.187 44.9329 148.878 54.1007C148.545 64.0016 147.856 65.3842 147.723 65.7408C147.038 67.5784 149.269 60.2534 151.213 55.7028C154.042 49.0817 156.723 44.7227 157.254 44.2782C157.472 44.0965 157.785 44.3607 157.965 44.7586C158.145 45.1564 158.232 45.7712 158.321 48.3712C158.411 50.9712 158.498 55.5378 158.5 58.1976C158.501 61.4734 158.323 62.5447 158.323 62.9465C158.323 62.9838 158.323 62.3824 159.245 59.7837C160.167 57.185 162.011 52.5306 163.093 50.0011C164.175 47.4717 164.438 47.2082 164.618 47.2481C165.08 47.3509 164.976 52.9191 165.064 59.9314C165.09 62.0274 165.327 61.1476 165.593 60.3C166.477 57.4843 167.456 56.3468 167.99 55.1905C168.124 54.8993 168.43 54.6596 168.697 54.3921C168.965 54.1247 169.228 53.8612 169.452 54.2963C169.675 54.7314 169.851 55.8731 169.942 58.8323C170.177 66.5307 170.208 70.9807 170.606 70.1397C170.989 69.3297 173.295 65.951 176.661 60.7231C179.938 55.6342 181.56 54.8352 182.137 54.4347C182.448 54.2183 182.54 55.4473 182.584 56.5969C182.634 57.9278 182.718 62.6857 182.629 68.6308C182.6 70.536 182.715 70.185 183.902 68.2476C187.277 62.7382 189.988 59.0026 190.431 59C193.801 58.9797 190.614 68.0347 190.479 69.8616C190.417 70.7092 190.257 71.5049 190.257 71.8176C190.433 70.6241 190.965 69.5623 191.585 68.4964C191.763 68.229 191.939 67.9655 192.386 67.428" stroke="#FF702D" stroke-width="8" stroke-linecap="round"/>
<path d="M153.745 55.1771C153.683 56.0264 153.681 57.5599 153.963 57.9259C154.111 58.1177 154.308 58.2918 154.622 58.3854C154.936 58.4789 155.372 58.4789 155.846 58.2368C156.932 57.6821 157.457 56.8299 157.646 56.3428C157.759 56.0511 157.71 55.6137 157.616 55.3349C157.295 54.3749 155.824 54.6268 155.509 54.7176C155.185 54.8113 155.255 55.4192 155.349 55.8769C155.531 56.7688 156.637 56.7051 156.953 56.706C157.208 56.7068 156.579 56.1566 156.202 55.9429C156.019 55.8389 155.826 55.7898 155.698 55.8494C155.571 55.909 155.508 56.0906 155.539 56.275C155.569 56.4593 155.693 56.6409 155.82 56.6437C155.946 56.6464 156.071 56.4648 156.135 56.2199C156.199 55.6724 156.075 55.1789 155.793 54.813C155.635 54.6286 155.448 54.447 155.067 54.4434" stroke="#1B1B1B" stroke-width="4.8752" stroke-linecap="round"/>
<path d="M128.711 178.443C127.044 175.61 121.111 156.843 120.711 156.443C134.311 154.443 166.211 153.443 174.711 177.443L171.711 181.443L163.711 183.443L128.711 178.443Z" fill="#FFFAF4"/>
<path d="M129.346 116.022C128.938 116.022 128.118 116.124 127.501 116.329C126.74 116.583 125.963 117.303 125.321 117.714C124.605 118.172 123.962 118.432 123.371 118.816C122.669 119.273 122.217 120.175 121.551 120.791C120.985 121.315 120.576 122.123 120.113 122.92C119.743 123.556 119.447 124.176 118.908 125.227C118.448 126.125 118.369 126.793 118.239 127.409C118.097 128.085 117.855 128.793 117.675 129.41C117.487 130.054 117.394 130.896 117.316 131.59C117.221 132.441 117.086 133.358 117.008 134.589C116.972 135.157 116.88 136.024 116.854 137.023C116.84 137.571 116.726 140.364 116.751 144.492C116.765 146.753 116.981 147.57 117.161 148.211C117.377 148.981 117.443 149.826 117.521 150.776C117.595 151.689 117.905 152.495 117.982 153.136C118.1 154.105 118.52 155.314 118.598 156.035C118.677 156.771 118.982 157.777 119.213 158.727C119.523 160.005 119.905 161.009 120.213 161.985C120.434 162.687 120.675 163.523 120.778 164.218C120.903 165.061 121.392 165.934 121.548 166.705C121.743 167.677 122.214 168.347 122.445 169.116C122.692 169.942 123.341 171.212 123.804 172.323C124.105 173.044 124.369 173.733 124.727 174.375C125.164 175.157 125.446 175.888 125.779 176.504C126.102 177.101 126.369 177.735 127.008 178.377C129.119 180.498 133.498 180.508 134.242 180.636C135.129 180.788 136.268 180.918 137.063 180.995C137.968 181.084 138.577 181.225 139.219 181.303C140.078 181.407 141.495 181.586 142.604 181.713C143.551 181.822 144.779 181.893 145.988 182.021C148.364 182.272 149.196 182.201 149.991 182.329C150.983 182.488 151.914 182.611 152.609 182.791C153.333 182.979 154.171 183.072 154.917 183.15C155.719 183.234 156.532 183.38 157.353 183.56C158.209 183.748 159.148 183.74 160.097 183.868C160.891 183.975 162.423 184.048 164.4 184.176C168.888 184.466 169.613 183.947 170.282 183.741C170.89 183.554 171.513 183.485 172.129 183.279C172.762 183.068 173.359 182.715 174.231 181.973C174.58 181.677 174.849 181.433 175.079 181.126C175.803 180.161 175.416 178.357 175.082 177.613C174.776 176.929 174.391 176.202 173.954 175.433C173.44 174.526 172.596 173.792 171.852 172.97C171.156 172.201 170.34 171.382 168.777 169.792C167.945 168.945 167.056 168.301 166.184 167.737C165.388 167.222 164.747 166.608 164.131 166.197C163.514 165.786 162.9 165.376 162.156 164.838C161.329 164.239 160.438 163.376 159.31 162.326C158.656 161.716 158.129 161.018 157.513 160.273C156.779 159.387 156.639 158.657 156.408 157.913C156.2 157.242 156.024 156.555 155.844 155.758C155.679 155.028 155.664 153.686 155.536 152.019C155.278 148.661 155.356 147.733 155.228 146.832C155.13 146.141 154.946 145.421 154.843 144.626C154.708 143.588 154.331 142.703 154.253 142.035C154.177 141.381 153.817 140.804 153.536 140.035C153.221 139.173 152.946 138.24 152.689 137.24C152.392 136.079 151.819 135.011 151.28 133.446C150.606 131.491 149.923 130.191 149.508 129.26C149.171 128.504 148.79 127.568 147.921 125.674C147.496 124.749 146.894 124.081 146.431 123.412C145.969 122.745 144.441 121.114 143.328 120.129C142.553 119.442 141.868 118.796 141.071 118.179C140.276 117.564 139.353 117.05 138.736 116.665C138.162 116.305 137.506 116.075 136.889 115.869C136.273 115.664 135.557 115.561 134.025 115.433C133.007 115.407 131.128 115.407 129.192 115.407" stroke="#500311" stroke-width="4.8752" stroke-linecap="round"/>
<path d="M85.9013 92.8605C85.6321 94.0178 85.5247 94.3677 85.0705 96.7833C84.6423 99.0606 83.9229 103.493 83.5382 105.84C83.0883 108.585 83.0727 109.235 83.0056 109.789C82.9877 109.937 82.9919 110.124 83.0185 110.101C83.5191 109.653 83.3418 109.025 84.1156 106.383C84.8442 103.894 86.3296 99.0995 87.1119 96.5732C87.929 93.9344 88.0825 93.5903 88.2171 93.1866C88.2716 93.0229 88.2983 92.9429 88.312 93.2217C88.3258 93.5005 88.3258 94.1406 88.0724 96.7506C87.819 99.3605 87.3123 103.921 87.0513 106.337C86.7468 109.155 86.6828 109.561 86.6423 109.817C86.6065 110.043 86.7886 109.302 87.1511 107.555C87.3372 106.659 87.5936 105.756 88.3973 103.408C89.201 101.061 90.5611 97.3005 91.4752 94.8966C92.3892 92.4928 92.8159 91.5593 93.0491 91.0385C93.3906 90.2756 93.5513 89.9527 93.6726 89.629C93.7044 89.5441 93.7663 89.4678 93.3404 92.7736C92.9145 96.0794 92.0077 102.773 91.3539 106.849C90.7001 110.924 90.3268 112.177 90.1478 112.783C89.9687 113.389 89.9954 113.309 90.2892 111.947C90.583 110.586 91.143 107.946 92.1649 104.319C93.1869 100.692 94.6537 96.1578 95.4493 93.7422C96.3004 91.1583 96.4607 90.8417 96.6749 90.3459C97.3402 88.8057 97.8588 87.9905 98.3054 87.3258C98.3502 87.259 98.4003 87.3634 98.4141 87.4979C98.4278 87.6325 98.4278 87.8192 98.4011 88.0087C98.3745 88.1982 98.3211 88.3849 97.6669 91.8947C97.0127 95.4046 95.7592 102.232 94.8868 106.509C94.0144 110.786 93.561 112.307 93.3008 113.223C92.9665 114.4 92.9056 114.761 92.8652 114.829C92.804 114.932 92.9048 114.467 92.999 114.171C93.0497 114.012 93.0664 113.823 94.0936 110.446C95.1208 107.07 97.1477 100.509 98.3118 96.8492C99.476 93.1894 99.716 92.6293 99.853 92.2742C100.152 91.4985 100.34 91.0033 100.448 90.7997C100.47 90.7579 100.502 90.9985 99.8752 95.1213C99.2489 99.2442 97.9688 107.325 97.2693 111.635C96.5698 115.944 96.4898 116.237 96.4219 116.549C96.1913 117.606 96.2191 117.939 96.1653 118.141C96.1399 118.236 96.1116 118.316 96.4312 117.09C96.7509 115.865 97.4176 113.331 98.5078 110.053C99.598 106.774 101.091 102.827 101.914 100.687C102.737 98.5467 102.844 98.3334 102.939 98.1034C103.034 97.8735 103.114 97.6335 103.421 96.8964C104.245 94.9251 104.866 93.562 104.933 93.6537C105.051 93.8139 104.921 94.3588 103.973 98.4202C103.026 102.482 101.159 110.082 100.158 114.091C99.1559 118.1 99.0759 118.287 99.0081 118.49C98.7637 119.22 98.6977 119.662 98.6298 119.854C98.6031 119.929 98.6961 119.535 100.137 115.251C101.578 110.967 104.405 102.646 105.915 98.2659C107.424 93.886 107.531 93.6994 107.599 93.5632C107.668 93.427 107.694 93.347 107.708 93.3991C107.722 93.4513 107.722 93.6379 107.015 97.6278C106.308 101.618 104.895 109.405 104.14 113.484C103.385 117.562 103.332 117.695 103.291 117.831C103.211 118.096 103.116 118.477 103.021 118.747C102.968 118.899 103.168 118.265 104.183 115.383C105.149 112.636 107.01 107.273 108.159 104.125C109.307 100.977 109.681 100.203 109.9 99.765C110.119 99.3266 110.172 99.2466 110.226 99.152C110.28 99.0575 110.334 98.9508 110.294 100.016C110.255 101.081 110.122 103.321 110.027 104.622C109.931 105.923 109.878 106.216 109.837 106.554C109.796 106.892 109.77 107.265 109.489 108.898C109.209 110.53 108.675 113.41 108.307 115.228C107.802 117.722 107.533 118.558 107.48 118.841C107.44 119.047 107.372 119.206 107.345 119.234C107.177 119.406 107.452 118.669 108.173 116.787C108.842 115.039 110.12 111.678 110.86 109.8C111.599 107.922 111.759 107.629 112.042 107.011C113.235 104.4 113.432 104.015 113.607 103.691C113.65 103.611 113.675 103.53 113.702 103.542C113.821 103.595 113.756 104.811 113.662 106.76C113.582 108.423 113.379 109.425 113.392 109.736C113.406 110.052 114.075 108.332 114.764 107.088C115.147 106.396 115.453 105.739 115.641 105.388C115.732 105.217 115.83 105.065 115.844 105.037C116.102 104.513 115.293 105.951 114.929 106.329C114.776 106.488 114.592 106.545 114.417 106.519C114.146 106.478 114.053 106.008 113.879 105.526C113.62 104.81 113.219 103.991 112.83 102.797C112.582 102.037 112.307 100.937 112.103 99.8939C111.713 97.9043 111.628 96.6613 111.548 96.1776C111.468 95.6997 111.493 95.3666 111.453 95.0454C111.423 94.8056 111.439 94.4041 111.199 95.4515C110.959 96.4988 110.479 99.0058 110.205 100.377C109.898 101.913 109.77 102.34 109.635 102.891C109.378 103.949 109.044 104.842 108.719 105.614C108.496 106.145 108.342 106.598 108.006 107.257C107.799 107.661 107.455 108.266 107.01 109.02C106.539 109.819 105.999 110.423 105.37 111.266C104.869 111.938 103.915 113.042 103.368 113.672C102.71 114.43 101.829 115.133 100.672 116.102C99.8915 116.755 99.3992 116.889 99.0755 116.931C98.4076 117.018 98.2435 114.88 97.6483 113.781C97.5601 113.618 97.4596 113.551 97.3917 113.47C97.3238 113.389 97.2705 113.309 96.643 114.067C96.0154 114.826 94.8153 116.427 94.1437 117.304C93.4721 118.182 93.3655 118.289 93.4172 118.01C93.6823 117.065 94.1154 115.978 94.6654 115.079C95.002 114.579 95.4554 113.992 95.9225 113.388" stroke="#3FA9F5" stroke-width="4" stroke-linecap="round"/>
<path d="M57.1648 109.097C57.3171 108.892 58.1344 108.484 59.0339 107.996C59.9131 107.518 60.6492 107.355 62.1097 106.944C63.0739 106.672 63.7796 106.431 64.6253 106.276C65.8394 106.053 66.5499 105.917 68.1882 105.584C69.114 105.396 69.9358 105.302 70.9354 105.224C71.89 105.15 74.0296 104.892 77.7241 104.813C79.046 104.785 79.7872 105.454 80.0434 105.607C80.2992 105.76 80.3012 106.171 80.3782 106.656C80.7402 108.937 78.5637 111.399 77.1262 112.811C76.305 113.618 75.6364 114.071 74.9946 114.61C74.2992 115.193 73.2786 115.761 72.4298 116.354C71.7098 116.857 71.0193 117.405 70.5552 117.766C69.6865 118.443 74.9438 115.416 76.8084 114.563C78.8545 113.626 80.1427 113.357 80.9915 113.125C81.6643 112.94 82.6052 112.944 84.1142 112.817C86.4201 112.622 88.098 112.841 88.4051 112.944C89.0156 113.147 89.4816 113.763 90.175 114.455C90.6878 114.967 90.7159 116.626 90.4351 117.841C90.2664 118.57 89.7433 119.251 89.0261 120.174C88.2625 121.156 87.6409 121.868 87.1523 122.484C86.6212 123.154 85.6925 123.662 84.9984 124.331C84.2736 125.029 83.3839 125.562 82.7152 125.922C82.0094 126.303 81.6371 126.744 81.4824 126.847C80.9983 127.169 82.5559 126.079 83.7087 125.337C84.5331 124.806 85.1723 124.54 85.7887 124.206C86.6085 123.763 87.8903 123.361 88.5844 123.103C89.4009 122.8 90.3527 122.693 91.2769 122.615C92.2052 122.537 93.4308 122.385 96.1434 122.383C96.8849 122.383 97.1784 122.742 97.46 122.972C98.0609 123.463 98.3065 124.432 98.5643 125.101C98.9906 126.206 98.6174 128.024 98.3865 128.64C98.1164 129.362 97.3892 130.329 96.8483 131.231C96.4328 131.923 95.7486 132.69 95.0276 133.437C94.3328 134.156 93.2369 134.999 92.208 135.822C90.4736 137.208 89.1307 137.772 88.3843 138.183C87.5198 138.659 86.462 139.004 85.5378 139.261C84.7559 139.479 83.8456 139.825 83.0492 140.184C82.1918 140.57 79.7549 141.614 77.3586 142.466C76.4056 142.805 75.0793 143.107 73.8157 143.391C72.6843 143.646 71.1239 143.928 68.6661 144.57C67.348 144.913 66.4052 144.904 65.5041 145.212C64.6906 145.49 63.5303 145.572 62.3252 145.828C61.0314 146.102 59.3748 146.342 57.4557 146.673C55.4063 147.028 54.5022 147.213 53.7812 147.393C53.0806 147.568 52.2429 147.573 51.6265 147.701C50.9689 147.837 48.3122 147.881 44.5423 148.008C42.3311 148.083 38.1145 148.035 35.8413 148.009C32.8484 147.976 31.826 147.779 30.7486 147.701C29.8674 147.638 28.751 147.37 27.3897 147.214C25.9014 147.044 25.3097 146.803 24.5147 146.65C23.5963 146.473 23.0011 146.086 22.257 145.881C21.6067 145.701 21.0003 145.369 20.5117 144.83C20.023 144.292 19.4613 143.83 18.8449 143.138C17.5774 141.716 16.5864 138.957 16.4063 138.316C16.204 137.595 16.2262 135.535 16.3793 134.032C16.4653 133.19 16.7895 132.392 16.995 131.723C17.1858 131.102 17.5067 130.391 17.8915 129.519C18.676 127.742 19.3536 126.904 20.1208 125.572C21.5734 123.049 22.0715 122.286 22.6879 121.285C23.2372 120.392 23.8168 119.719 24.5086 118.95C25.2806 118.091 26.2238 116.798 27.0226 115.769C27.6365 114.979 28.28 114.487 29.1488 113.438C31.1079 111.073 32.734 109.826 33.896 108.792C35.1859 107.644 37.0895 105.779 39.0248 103.869C39.6879 103.214 40.2322 102.738 40.951 102.046C41.208 101.713 41.465 101.403 41.772 101.122C41.9267 100.992 42.0791 100.891 42.2361 100.786" stroke="#500311" stroke-width="4.8752" stroke-linecap="round"/>
<path d="M144.5 121.443C145.271 120.788 146.22 120.193 147.38 119.09C148.634 117.896 150.373 116.085 151.486 114.819C152.144 114.071 153.174 112.381 153.954 111.237C154.421 110.552 154.609 109.805 154.699 109.088C154.792 108.347 155.026 107.656 155.322 106.108C155.84 103.405 155.087 102.641 154.849 101.924C154.61 101.206 154.373 100.492 154.135 99.7744C153.897 99.0571 153.718 98.5198 153.629 98.1329C153.599 97.9234 151.5 98.1869 151.5 97.9434" stroke="#500311" stroke-width="4.8752" stroke-linecap="round"/>
</svg>
