<svg width="132" height="107" viewBox="0 0 132 107" fill="none" xmlns="http://www.w3.org/2000/svg">
<path d="M26.9071 49.4692C26.8684 47.6931 26.7302 45.7572 26.6024 43.2667C26.5759 42.7493 26.5159 42.5996 26.4581 41.0847C26.2908 36.6964 26.4158 33.6791 26.7035 33.5712C27.281 33.3544 27.8564 33.1385 28.5574 33.046C30.1632 32.834 32.7908 32.725 33.757 32.6267C34.7294 32.5278 35.7865 32.3538 36.5609 32.2597C37.4826 32.1476 38.4451 31.99 39.8698 31.8817C41.727 31.7405 44.5421 31.5511 45.9907 31.4423C47.2534 31.3474 48.7004 31.1545 50.4637 31.0388C51.5634 30.9667 52.3268 30.7696 53.4608 30.5659C54.3018 30.4149 55.4638 30.3433 56.5306 30.1931C57.7829 30.0168 59.0408 29.9594 60.1818 29.8076C60.9794 29.7015 61.9414 29.4894 63.3937 29.3805C64.8448 29.2717 66.8786 29.0758 68.0621 28.9728C69.2019 28.8736 70.7463 28.6856 72.7508 28.5647C74.0905 28.4838 75.2447 28.2816 76.3809 28.1796C77.7114 28.0602 79.3565 27.8861 80.9497 27.7741C82.0722 27.6952 82.8376 27.5043 83.5386 27.4118C84.34 27.306 85.4933 27.1405 86.4377 27.0427C87.2522 26.9583 88.2931 26.7216 89.094 26.5772C89.7909 26.4516 90.467 26.2674 92.7397 26.2416C93.1895 26.2364 93.2366 26.4578 93.2897 26.6608C93.5396 27.6155 93.6222 28.5382 93.7818 29.2244C93.9775 30.0652 94.1181 31.2768 94.2616 32.3211C94.5013 34.0664 94.5053 35.6968 94.6518 36.8764C94.759 37.7402 94.9499 38.3478 95.0394 39.0852C95.1238 39.7802 95.2873 40.4813 95.3879 41.7261C95.4525 42.5262 95.7339 43.224 96.1837 43.8518" stroke="#500311" stroke-width="4" stroke-linecap="round"/>
<path d="M71.9907 81.4423C72.3859 81.3781 72.7811 81.3138 74.21 81.0871C75.6388 80.8605 78.0894 80.4733 81.053 80.0838C84.0167 79.6943 87.4192 79.3141 89.2378 79.103C91.4838 78.8422 92.1199 78.7565 92.7333 78.6867C93.5158 78.5976 93.8778 78.4653 94.3034 78.3996C94.881 78.3104 95.3388 78.152 95.7389 78.0733C96.1873 77.9852 96.4579 77.9591 96.6304 77.9136C97.1711 77.771 96.6655 76.3838 96.6003 75.2497C96.5605 74.5577 96.5505 73.6071 96.5609 72.2316C96.5639 71.8335 96.5875 70.3856 96.5293 68.3227C96.5064 67.5094 96.4155 66.1751 96.3865 64.238C96.372 63.2688 96.2122 58.0858 96.2955 57.6071C96.4208 56.8868 96.7647 58.9333 96.7913 58.3137C96.8178 57.6942 96.2074 56.0291 96.8091 59.1331C96.8307 59.2442 96.1811 57.3216 96.178 57.1784" stroke="#500311" stroke-width="4" stroke-linecap="round"/>
<path d="M71.8382 81.7826C71.9809 82.2278 72.2061 82.7824 72.7725 83.697C73.1056 84.2348 73.5572 84.7754 73.9811 85.2169C74.6911 85.9567 74.8479 86.35 75.1371 86.7511C75.3817 87.0904 75.5926 87.4292 75.8137 87.7619C76.0349 88.0946 76.2553 88.426 76.5014 88.6886C76.7835 88.9896 77.2912 88.2382 79.4154 86.7778C80.5676 85.9858 81.325 85.7612 81.5365 85.6866C82.4642 85.3596 84.0019 84.9166 84.4415 84.7945C85.002 84.6388 85.3608 84.6619 86.5504 84.5938C87.6602 84.5303 89.8019 84.5086 90.9446 84.4975C92.4084 84.4834 92.8898 84.5811 93.213 84.6865C93.2941 84.713 93.374 84.739 93.4551 84.7655C93.5362 84.792 93.6161 84.818 93.7803 84.9274" stroke="#500311" stroke-width="4" stroke-linecap="round"/>
<path d="M59.5844 85.6736C59.6409 85.8401 59.8612 86.1715 60.6248 86.982C61.0865 87.4719 61.6668 88.2085 62.3505 88.9393C62.9812 89.6134 63.7409 90.216 64.2177 90.6409C64.7844 91.1458 65.3437 91.5563 66.6323 92.4825C67.2932 92.9576 68.1113 93.5453 68.6165 93.9303C69.1666 94.3497 69.608 94.7227 70.123 95.0629C70.7456 95.4741 71.4784 96.0572 71.9163 96.4285C72.2932 96.748 72.7853 97.1258 73.2212 97.4951C73.6445 97.8537 74.037 98.1654 74.6066 98.6021C75.22 99.0724 75.559 99.3962 75.914 99.712C76.2551 100.015 76.6481 100.328 76.9738 100.546C77.2994 100.764 77.6251 101.036 77.9652 101.31C78.379 101.644 78.7393 101.939 79.0275 102.242C79.0884 102.307 79.1755 102.324 79.2686 102.295C80.0349 102.052 80.9367 101.08 81.4632 100.717C82.2934 100.144 82.6466 99.8348 83.0802 99.53C83.7 99.0943 83.9854 98.7657 84.3126 98.4497C84.6828 98.0922 85.0062 97.8165 85.3205 97.5147C85.6498 97.1985 86.0271 96.8672 87.3799 95.3959C87.7708 94.9708 88.3436 94.2651 89.1645 93.3489C89.9119 92.5146 90.5095 91.742 91.1329 91.0277C91.8752 90.1772 92.123 89.8243 92.4352 89.4248C92.8082 88.9474 93.1626 88.4819 93.369 88.14C93.5755 87.798 93.7283 87.4584 93.8944 87.1173C93.933 87.0317 93.9576 86.9478 93.9826 86.8625C94.0075 86.7773 94.3424 85.6383 94.3678 85.5518" stroke="#500311" stroke-width="4" stroke-linecap="round"/>
<path d="M45.951 84.8679C46.1517 85.5081 46.3311 85.3982 46.3832 85.9318C46.4439 86.5527 46.6149 87.3875 46.6657 87.8638C46.7111 88.2887 46.8045 88.7316 46.9104 89.2906C47.01 89.8162 47.0796 90.3267 47.2568 91.12C47.6967 93.0901 47.846 93.6504 47.9946 94.3091C48.0861 94.7149 48.1454 95.1068 48.2474 95.4837C48.2805 95.6061 48.2674 95.7766 48.2293 95.8494C48.0945 96.1075 47.6272 95.7383 47.1581 95.6499C46.7217 95.5677 46.2346 95.5159 44.9285 95.5296C44.4086 95.5351 44.0493 95.759 43.6257 95.9507C43.1567 96.1629 42.6735 96.3789 41.9613 96.7307C41.5275 96.945 41.1678 97.1415 40.694 97.4186C39.9051 97.8798 39.5864 98.103 39.2708 98.3488C38.9286 98.6154 38.6443 98.9932 38.3448 99.3659C38.0912 99.6814 37.9719 100.048 37.8738 100.457C37.78 100.849 37.5984 101.291 37.4998 101.673C37.3878 102.107 37.3044 102.506 37.2064 102.916C37.1207 103.274 37.0079 103.608 36.9099 104.018C36.8657 104.203 36.8107 104.372 36.8133 104.512C36.816 104.651 38.1392 104.596 39.9406 104.571C40.765 104.559 41.2195 104.613 41.7396 104.616C42.927 104.622 44.5853 104.68 45.3214 104.706C46.5594 104.751 48.1946 104.742 49.0696 104.765C51.1595 104.82 52.6547 104.729 52.9612 104.764C53.8266 104.864 54.8393 104.822 55.9124 104.868C57.0763 104.919 57.9194 104.867 58.7011 104.892C59.4027 104.914 60.7244 104.862 61.4451 104.86C62.2459 104.858 63.2793 104.89 64.7142 104.553C66.2932 104.182 65.0272 102.523 64.9105 102.076C64.7938 101.628 64.6763 101.127 64.4052 100.305C64.1271 99.4619 63.9903 99.0621 63.876 98.7271C63.7617 98.3921 63.6479 98.0583 63.4653 97.641C63.29 97.2403 63.2205 96.8323 63.0376 96.4002C62.8827 96.0343 62.7937 95.6332 62.6761 95.1445C62.5646 94.6812 62.3863 94.0713 62.2386 93.4548C62.118 92.9511 62.0056 92.5611 61.9556 92.1261C61.9116 91.7428 61.8178 91.3012 61.7679 90.8662C61.6663 90.4888 61.6005 89.9307 61.5241 89.4811C61.5081 89.369 61.505 89.23 61.4182 88.9201" stroke="#500311" stroke-width="4" stroke-linecap="round"/>
<path d="M26.1938 49.9142C26.0093 49.9738 25.5893 50.2628 24.7938 51.0933C24.1442 51.7715 23.1866 52.7303 22.2857 53.6335C21.764 54.1566 21.5406 54.4802 21.0593 55.0242C20.7555 55.3675 20.4219 55.7956 20.0165 56.1988C19.2966 56.9148 18.6492 57.6865 17.9274 58.3507C17.4502 58.7898 17.1295 59.127 16.7236 59.5293C16.4271 59.8233 16.0588 60.2171 15.1025 61.0238C14.9 61.1946 14.8257 61.2839 13.9931 61.9568C13.1605 62.6298 11.5751 63.8879 10.7064 64.5789C9.51865 65.5237 9.15703 65.8738 8.77536 66.1358C8.41264 66.3847 8.05301 66.685 7.73749 66.9307C7.33254 67.2462 6.87134 67.609 6.34686 68.0279C5.89762 68.3867 5.53379 68.7337 5.15363 69.0656C4.63089 69.522 3.91232 70.2859 3.31223 70.9302C2.88078 71.3934 2.6108 71.8867 2.32558 72.273C2.03682 72.6641 1.96741 73.0249 2.0129 73.9349C2.04359 74.5486 2.69488 74.6388 3.02023 74.8428C3.35782 75.0545 4.03609 75.0039 4.66588 75.0601C5.66588 75.1493 6.14431 74.9023 6.75568 74.7204C7.43421 74.5186 8.34697 74.2087 9.23348 73.8945C9.7508 73.7111 10.0407 73.469 10.6187 73.0641C10.9677 72.8197 11.3055 72.683 11.8834 72.2924C12.5647 71.8321 12.9902 71.608 13.4248 71.275C13.5952 71.1444 13.754 71.0285 13.8603 70.9975C14.1773 70.9051 13.6359 71.6748 13.34 72.1587C13.0977 72.5548 12.9445 73.0382 12.753 73.4216C12.4777 73.9725 12.3326 74.3712 12.1056 74.966C11.9385 75.404 11.9362 75.8124 12.0493 76.147C12.2601 76.7709 13.1988 76.3208 13.7589 76.2108C14.4631 76.0726 14.8724 75.836 15.2173 75.6873C15.6702 75.4921 16.2476 75.1875 16.801 74.8813C17.3797 74.5611 17.6702 74.2868 17.9986 74.026C18.3516 73.7456 18.8521 73.447 19.6136 72.8405C20.253 72.3313 20.6643 71.9732 20.9128 71.7015C21.2179 71.3678 21.893 70.8542 22.4704 70.3057C23.0055 69.7973 23.4388 69.3576 23.7652 69.0412C24.2865 68.5359 24.6922 68.1236 25.0604 67.7907C25.4109 67.4736 25.6856 67.089 26.5195 66.2163C26.9037 65.8143 27.2246 65.4273 27.8376 64.7681C28.2828 64.2892 28.7403 63.8775 29.1325 63.4888C29.5517 63.0734 29.9385 62.5317 30.3568 62.0578C30.6731 61.6994 31.0083 61.3269 31.3849 60.8708C32.3116 59.8094 32.623 59.4664 32.8839 59.1232C32.9357 59.0374 32.9868 58.9529 33.1194 58.864" stroke="#500311" stroke-width="4" stroke-linecap="round"/>
<path d="M96.4022 44.0495C96.5953 44.0424 100.17 45.767 101.182 46.2781C102.009 46.6953 103.215 47.2718 104.35 47.8152C105.008 48.1299 105.32 48.3589 105.946 48.7072C106.341 48.927 106.791 49.2167 107.3 49.4582C108.205 49.887 109.06 50.3934 109.95 50.7726C110.539 51.0233 110.948 51.2315 111.458 51.4721C111.831 51.6478 112.302 51.8932 113.459 52.3264C113.704 52.4182 113.802 52.477 114.8 52.8264C115.798 53.1758 117.692 53.8193 118.729 54.1734C120.148 54.6575 120.6 54.8639 121.043 54.9801C121.464 55.0906 121.898 55.2506 122.273 55.3743C122.755 55.533 123.305 55.7172 123.932 55.9326C124.469 56.1171 124.922 56.3198 125.385 56.5026C126.022 56.754 126.941 57.2285 127.711 57.6308C128.264 57.92 128.674 58.2932 129.065 58.5599C129.461 58.83 129.64 59.147 129.883 60.022C130.047 60.6121 129.46 60.9211 129.217 61.2255C128.965 61.5414 128.309 61.7267 127.732 61.9962C126.815 62.4241 126.286 62.3552 125.651 62.3935C124.947 62.436 123.987 62.457 123.051 62.4648C122.505 62.4694 122.155 62.3404 121.482 62.1566C121.075 62.0457 120.713 62.0327 120.045 61.8624C119.256 61.6618 118.784 61.5964 118.269 61.4312C118.067 61.3664 117.88 61.3115 117.77 61.3187C117.442 61.3404 118.195 61.8813 118.627 62.2366C118.98 62.5275 119.277 62.9314 119.579 63.2276C120.012 63.6533 120.274 63.98 120.676 64.4637C120.972 64.8199 121.102 65.2048 121.101 65.5597C121.098 66.2213 120.07 66.1188 119.506 66.2074C118.798 66.3188 118.337 66.236 117.964 66.2141C117.475 66.1854 116.834 66.0961 116.215 65.9971C115.568 65.8935 115.207 65.7343 114.815 65.6008C114.393 65.4574 113.827 65.3473 112.917 65.0362C112.153 64.775 111.651 64.5781 111.331 64.4069C110.938 64.1966 110.139 63.9436 109.421 63.6239C108.756 63.3277 108.208 63.0613 107.801 62.8747C107.149 62.5766 106.636 62.3266 106.184 62.1387C105.753 61.9597 105.373 61.6908 104.311 61.1532C103.821 60.9055 103.396 60.6504 102.61 60.2384C102.039 59.9391 101.477 59.7075 100.985 59.4752C100.458 59.2269 99.9225 58.8482 99.3783 58.5444C98.9668 58.3147 98.5331 58.078 98.0339 57.7767C96.8248 57.0928 96.4228 56.8758 96.0684 56.6414C95.9925 56.5781 95.9177 56.5158 95.7644 56.4775" stroke="#500311" stroke-width="4" stroke-linecap="round"/>
<path d="M29.7723 62.9077C29.8048 63.1859 29.9285 63.9677 30.179 65.0577C30.3316 65.7218 30.5273 66.9563 30.8413 68.497C31.0086 69.3175 31.2106 70.1452 31.3904 70.9878C31.5167 71.5791 31.7164 72.4684 31.8387 73.169C31.923 73.6522 32.076 74.2589 32.3222 75.1518C32.4581 75.6447 32.5168 76.1031 32.8494 77.3017C33.051 78.0282 33.212 78.5874 33.3333 79.2458C33.4347 79.796 33.5685 80.238 33.6871 80.7692C33.8058 81.3013 33.9231 81.8027 34.0417 82.3348C34.1292 82.7272 34.1922 83.1181 34.2507 83.9439C34.2859 84.4409 34.391 84.8834 34.5052 85.2184C34.5622 85.3853 34.6459 85.5528 34.7687 85.6905C34.9984 85.9479 35.5054 85.872 36.0675 85.9297C36.9998 86.0253 37.3707 85.8029 37.8135 85.7517C54.7673 83.793 40.294 85.599 41.5194 85.5023C42.8665 85.396 43.2935 85.365 43.6532 85.2872C44.0398 85.2366 44.2783 85.1472 44.4503 85.1013C44.5437 85.0849 44.6494 85.0826 44.8366 84.9943" stroke="#500311" stroke-width="4" stroke-linecap="round"/>
<path d="M67.7654 61.5449C67.9622 61.5406 68.3578 61.4907 68.7421 61.3988C69.0891 61.3158 69.638 61.1712 70.0825 61.0464C70.5013 60.9289 70.8377 60.7072 71.6207 60.2738C71.9523 60.0903 72.1898 59.927 72.4232 59.703C72.8354 59.3071 73.5723 58.7921 73.8361 58.5877C74.2648 58.2556 74.698 57.6628 74.9215 57.438C75.355 57.0021 76.0129 56.154 76.2923 55.751C76.3589 55.6035 76.5311 55.3708 76.7726 55.0843C76.8607 54.9664 76.879 54.904 76.8978 54.8398" stroke="#500311" stroke-width="4" stroke-linecap="round"/>
<path d="M52.1417 50.7508C52.2239 50.8941 52.3896 51.2646 52.5987 51.7399C52.8007 52.1991 52.9704 52.4205 53.2145 52.7173C53.6096 53.1978 53.8259 53.4653 54.0805 53.7931C54.4231 54.2344 55.021 54.8117 55.4596 55.2025C55.7662 55.4757 56.0535 55.6274 56.2942 55.7372C56.5428 55.8508 56.7742 55.9457 57.024 56.0238C57.3103 56.1133 57.5526 56.179 57.8998 56.203C58.2888 56.2299 58.7606 56.1538 59.1453 56.0407C59.4698 55.9452 59.7463 55.8608 60.0002 55.6786C60.3995 55.3919 60.5596 54.9686 60.906 54.5028C61.3545 53.8997 61.3185 53.3894 61.5011 52.6657C61.6186 52.1999 61.6604 51.7755 61.7207 51.3463C61.7803 50.9215 61.7727 50.5432 61.8118 50.0725C61.8611 49.4793 61.8503 48.6473 61.789 48.1019C61.7539 47.7891 61.7063 47.4994 61.6506 47.2082C61.5799 46.8386 61.5254 46.4612 61.4845 45.9613C61.4724 45.8562 61.4514 45.7947 61.4384 45.6598C61.4253 45.525 61.4208 45.3187 61.4162 45.1061" stroke="#500311" stroke-width="4" stroke-linecap="round"/>
<path d="M67.6426 42.9723C67.7248 43.1156 67.8905 43.4861 68.0995 43.9614C68.3015 44.4206 68.4712 44.642 68.7153 44.9388C69.1105 45.4193 69.3267 45.6868 69.5813 46.0146C69.924 46.4559 70.5219 47.0332 70.9605 47.424C71.267 47.6971 71.5544 47.8489 71.795 47.9587C72.0437 48.0723 72.2751 48.1672 72.5248 48.2453C72.8112 48.3348 73.0534 48.4005 73.4007 48.4245C73.7896 48.4514 74.2615 48.3753 74.6462 48.2622C74.9707 48.1667 75.2472 48.0823 75.501 47.9001C75.9004 47.6134 76.0604 47.1901 76.4068 46.7243C76.8554 46.1212 76.8194 45.6109 77.002 44.8872C77.1195 44.4214 77.1613 43.997 77.2215 43.5678C77.2811 43.143 77.2736 42.7647 77.3127 42.294C77.362 41.7008 77.3512 40.8688 77.2899 40.3234C77.2548 40.0106 77.2072 39.7209 77.1514 39.4297C77.0807 39.0601 77.0263 38.6827 76.9854 38.1828C76.9732 38.0777 76.9523 38.0162 76.9392 37.8813C76.9262 37.7465 76.9217 37.5402 76.917 37.3276" stroke="#500311" stroke-width="4" stroke-linecap="round"/>
<path d="M41.8693 16.4126C41.668 17.5524 41.6264 17.9228 41.5807 18.1628C41.5147 18.5099 42.1399 17.4136 42.4226 17.0491C42.6716 16.7279 43.0266 16.5205 43.188 16.4369C43.6481 16.1986 43.2777 17.595 43.2498 18.059C43.213 18.6692 42.9865 19.241 42.9416 19.481C42.8833 19.7922 43.2994 18.6569 43.6989 18.0004C44.0263 17.4626 44.3689 17.0209 44.8459 16.4424C45.2334 15.9724 45.4467 15.701 45.5562 15.5535C45.6111 15.4796 45.6911 15.4317 45.7324 15.5608C46.0841 16.6614 45.4948 17.8368 45.3562 18.4091C45.2787 18.7287 45.1416 18.9569 45.1051 19.0112C44.9017 19.3139 45.7314 17.4487 46.6089 15.6872C46.9757 14.9509 47.2266 14.5593 47.6037 13.9957C48.4697 12.7011 49.0831 11.9214 49.1978 11.9966C49.5579 12.2326 49.1492 13.707 48.7966 15.8745C48.5959 17.1077 48.157 18.5716 47.8845 19.4893C47.3879 21.1618 47.2297 21.3692 47.2059 21.4363C47.0995 21.7364 47.4418 20.7596 47.9073 19.7076C48.2189 19.0036 48.689 18.1461 49.0898 17.4467C49.5652 16.6175 49.8551 16.2399 50.0874 15.9173C50.1468 15.8348 50.2214 15.7562 50.2613 15.8196C50.4064 16.0504 50.2906 16.5436 50.0414 17.6777C49.8422 18.5839 49.373 20.1292 49.0761 21.101C48.6707 22.4279 48.3721 23.0077 48.2031 23.329C48.19 23.3538 48.268 22.9363 48.5831 21.9304C49.1435 20.1408 49.8131 18.9105 50.0903 18.4176C50.8152 17.1289 51.1887 16.3456 51.4918 15.7947C51.6235 15.5553 51.7437 15.2473 51.9037 15.0975C51.9518 15.0525 51.9964 15.2893 51.9385 16.0391C51.8806 16.7888 51.7351 18.1002 51.5927 19.1043C51.4502 20.1084 51.3153 20.7655 51.1416 21.4595C50.7879 22.8727 50.4974 23.7027 50.4139 23.9024C50.2826 24.2163 51.0854 21.9773 51.7762 20.3138C52.2916 19.0728 53.0356 18.102 53.4986 17.4715C54.0817 16.6775 54.5281 16.1634 54.6652 16.1203C54.8014 16.0775 54.7474 16.9181 54.3848 18.6101C54.1545 19.6846 53.6425 21.1476 53.1526 22.4103C52.6626 23.6729 52.1621 24.6781 51.915 25.1172C51.6678 25.5563 51.6893 25.3988 51.7235 25.2387C51.8553 24.6218 52.0122 24.0962 52.434 22.7697C52.8167 21.5664 53.4405 20.5249 53.9373 19.7493C54.4203 18.9954 54.8321 18.5885 54.9941 18.5314C55.1576 18.4738 54.8933 20.0801 54.488 22.2012C54.1131 24.1633 53.7652 24.8715 53.5985 25.2985C53.429 25.7326 54.1694 23.9429 54.4498 23.5265C54.5127 23.4331 54.5591 23.3524 54.6104 23.3894C55.7195 24.1877 54.8371 26.8342 54.8458 26.6628C54.8691 26.2041 55.1658 25.7971 55.3802 25.2775C55.4516 25.0773 55.5467 24.8373 55.6912 24.5702C55.7646 24.4615 55.8381 24.4076 55.9138 24.352" stroke="#FF702D" stroke-width="2.86546" stroke-linecap="round"/>
<path d="M62.6891 22.9813C62.7104 23.9577 62.6721 24.485 62.6571 25.5418C62.6529 25.8373 62.6052 26.0476 62.6327 26.1667C62.6391 26.1944 62.7036 25.9971 63.0834 25.123C63.4631 24.2489 64.1748 22.6635 64.5779 21.8067C65.1216 20.6512 65.37 20.3603 65.5181 20.2377C65.7135 20.076 65.6924 22.4226 65.6627 23.9309C65.6489 24.6338 65.6002 25.1093 65.5553 25.3501C65.4667 25.826 65.8315 24.2369 66.1584 23.1217C66.3177 22.5785 66.5597 21.9232 66.8755 20.9157C67.6044 18.5899 68.0302 17.8998 68.3049 17.2584C68.3857 17.0697 68.4834 16.8338 68.5374 16.9599C69.0431 18.1402 68.3238 19.6758 68.0672 20.6681C67.978 21.0133 67.9042 21.281 67.8677 21.3353C67.6509 21.6578 67.9373 20.5168 68.1258 19.4498C68.2779 18.5892 68.6097 17.0943 68.9442 15.6515C69.2787 14.2087 69.6226 12.8668 69.8354 12.0963C70.0481 11.3257 70.1193 11.1672 70.1675 11.046C70.246 10.8488 70.293 12.1505 70.2855 14.6573C70.2797 16.5978 70.033 17.5081 70.0339 17.5485C70.0445 18.0366 70.1397 16.6621 70.4771 14.9913C70.7871 13.4566 71.3006 10.5103 71.681 8.71761C72.0614 6.92495 72.2732 6.37087 72.4083 6.13719C72.5435 5.90352 72.5955 6.00704 72.6361 6.12548C72.6768 6.24392 72.7045 6.37414 72.7402 7.42194C72.7759 8.46973 72.8187 10.4312 72.8294 11.4942C72.8412 12.6624 72.7966 12.8753 72.7986 12.9684C72.807 13.3535 72.9781 12.0039 73.585 9.39401C73.98 7.69491 74.3061 6.07914 74.4518 5.86426C74.5051 5.78567 74.6021 5.8586 74.6552 5.9629C74.9374 6.51657 74.9875 7.35348 75.081 8.18396C75.1865 9.12138 75.3925 9.77955 75.47 9.89679C75.5447 10.0096 75.838 9.53673 76.1128 8.89683C76.2549 8.56579 76.7692 7.43512 77.4744 5.79474C77.8465 4.92933 77.9945 4.64999 78.0058 4.58314C78.0281 4.45184 77.7774 4.99566 77.5219 5.34415C77.2785 5.67611 76.7755 6.20445 75.3387 7.85127C74.2467 9.10294 72.2945 11.0769 71.2557 12.1497C70.1288 13.3136 69.945 13.4402 69.8325 13.4696C69.7885 13.4811 69.7913 13.3405 69.7548 13.3789C69.3784 13.7757 69.2106 14.2998 68.1835 15.4433C67.8827 15.7783 67.5445 16.025 67.3543 16.0854C67.1642 16.1459 67.111 15.99 67.0828 15.8705C67.0007 15.523 67.1144 15.0385 67.069 14.6684C67.0025 14.1259 66.7255 15.5973 66.5359 16.1294C66.3815 16.5626 66.2986 16.7967 66.2873 16.8635C66.265 16.9948 66.7089 16.1851 67.3422 15.3404C67.6468 14.9342 67.9784 14.6264 69.315 13.5197C70.6516 12.413 72.9987 10.5303 74.2565 9.50701C75.5142 8.48372 75.6114 8.37694 75.7115 8.26693" stroke="#FF702D" stroke-width="2.86546" stroke-linecap="round"/>
<path d="M59.6983 29.2433C59.7092 28.6752 59.8725 27.5901 59.9604 26.7163C60.0496 25.8291 60.2256 25.3984 60.2634 24.9644C60.3156 24.3662 60.476 23.9335 60.642 23.4715C60.8637 22.8544 61.0075 22.412 61.3208 21.7129C61.572 21.1523 61.9034 20.3881 62.0499 20.0501C62.2093 19.6826 62.4409 19.1412 62.7563 18.4892C63.0005 17.9844 63.1353 17.5166 63.3147 17.1029C63.5601 16.5372 63.7378 16.0173 63.9639 15.5919C64.3265 14.9095 64.8436 13.8404 65.0598 13.5261C65.5749 12.7773 66.206 11.5837 66.4225 11.2817C66.6423 10.9748 66.9313 10.4068 67.1927 9.91677C67.4434 9.44672 67.8573 8.657 68.5334 7.28006C68.9399 6.45236 69.3914 5.60222 69.7981 4.81315C70.0306 4.3619 70.1825 4.07356 70.5449 3.46028C70.7794 3.06357 71.0015 2.79372 71.2915 2.62556C71.7345 2.36864 72.2834 2.3441 72.7312 2.29684C72.826 2.28684 72.9181 2.25602 73.7923 2.22433C74.6665 2.19263 76.3194 2.15657 77.2172 2.12473C78.2087 2.08957 79.211 2.01924 80.6219 2.00071C81.4316 1.99007 81.9023 2.08375 82.2442 2.11378C82.549 2.14055 82.9163 2.23533 83.2484 2.30195C83.3219 2.31668 83.3902 2.34822 83.431 2.56817C83.6386 3.68717 83.3107 4.00685 83.2243 4.36765C83.1469 4.69097 82.8891 5.12807 82.732 5.51677C82.5498 5.96785 82.164 6.3821 81.9236 6.73439C81.5095 7.34126 80.9058 8.0427 80.6316 8.43284C80.3986 8.76445 80.1524 9.09841 79.8761 9.38986C79.5504 9.73339 79.3724 10.0315 78.7887 10.7112C78.4796 11.0712 78.2727 11.3917 77.9645 11.8067C77.6882 12.1787 77.244 12.6998 76.911 13.1288C76.5897 13.5426 76.2588 13.9343 75.9606 14.325C75.7152 14.6465 75.4338 14.9426 75.2506 15.2316C75.0707 15.5155 74.6107 15.9731 74.2767 16.4031C73.9342 16.8441 73.5111 17.3333 73.0865 17.9134C72.8075 18.2946 72.4572 18.7192 72.1266 19.2086C71.8844 19.567 71.5904 19.9496 71.2242 20.4409C70.9206 20.8482 70.6758 21.1826 70.4019 21.5849C70.117 22.0034 69.9022 22.4124 69.6618 22.715C69.4398 22.9942 69.3333 23.3156 69.107 23.704C68.836 24.1693 68.6537 24.5182 68.4388 24.8941C68.2353 25.2501 68.1825 25.5677 68.0948 25.867C68.0071 26.1662 67.8732 26.4653 67.7628 26.8266C67.6563 27.1753 67.6618 27.5834 67.5986 27.9192C67.5299 28.2839 66.8996 28.1702 66.5248 28.2652C66.1796 28.3527 65.8452 28.3669 65.5403 28.4474C65.23 28.5293 64.8624 28.611 64.5575 28.6915C64.253 28.7719 63.9256 28.8289 63.6452 28.9341C63.3648 29.0394 63.0389 29.1452 62.6643 29.2525C62.2898 29.3597 62.0087 29.4156 61.8329 29.4317C61.7503 29.4458 61.681 29.4718 61.539 29.5001" stroke="#500311" stroke-width="4" stroke-linecap="round"/>
<path d="M35.6349 19.4955C35.6783 19.3468 35.8129 19.0477 36.1058 18.4979C36.446 17.8595 37.2368 16.699 37.8164 16.0094C37.9593 15.8394 38.1147 15.6562 38.8485 15.0634C39.4901 14.5451 40.6811 13.5892 41.4094 13.0325C42.62 12.1071 42.9525 12.0372 43.2906 11.8932C43.637 11.7457 44.1407 11.5658 44.8514 11.2412C45.2959 11.0381 45.7738 10.9111 46.7999 10.5803C47.5388 10.342 48.1293 10.0446 48.6102 9.84707C48.9583 9.70408 49.3217 9.57173 49.7286 9.37764C50.3526 9.07998 50.6507 9.02309 51.0013 8.91634C51.3742 8.8028 51.748 8.65322 52.0637 8.53424C52.1422 8.50466 52.2391 8.5178 52.3593 8.62541C53.0231 9.21962 53.2109 9.90555 53.5029 10.332C53.7923 10.7546 54.1074 11.0737 54.3272 11.4401C54.5769 11.8566 54.8832 12.1451 55.1979 12.5469C55.6066 13.0686 55.9245 13.4838 56.1793 13.8371C56.4066 14.1524 56.5821 14.5087 56.7184 14.803C56.8644 15.1183 57.0954 15.3883 57.28 15.7432C57.5197 16.2042 57.7867 16.8579 57.9004 17.2143C58.006 17.5456 58.1616 17.8638 58.324 18.306C58.4441 18.6327 58.6091 18.9675 58.7104 19.2878C58.8114 19.6075 59.5779 22.0286 59.6805 22.4116C59.7766 22.7705 59.5297 20.9689 59.6304 21.264C59.6556 21.3381 59.3718 21.5743 59.3971 21.6483C59.4224 21.7224 59.9466 23.4045 60.0444 23.5523" stroke="#500311" stroke-width="4" stroke-linecap="round"/>
<path d="M35.7656 19.2986C35.8609 19.3952 36.3336 19.5816 36.7033 19.7354C37.1388 19.9165 37.595 20.1985 37.9167 20.3522C38.2495 20.5112 38.5458 20.6231 38.8319 20.7776C39.1087 20.9271 39.4021 21.0498 39.7835 21.2883C40.2737 21.5949 40.9023 22.0044 41.5123 22.3519C41.9069 22.5766 42.3345 22.8165 42.62 22.9468C42.9151 23.0815 43.1908 23.2432 43.5959 23.4819C43.9452 23.6878 44.3823 23.9595 44.8964 24.3436C45.3474 24.6805 45.7449 24.9438 46.1522 25.269C46.6642 25.6778 46.8737 25.9585 47.3792 26.5279C47.8063 27.0091 47.9643 27.4193 48.1006 27.7137C48.2523 28.0412 48.5481 28.2974 48.708 28.6035C48.9181 29.0057 49.1336 29.2497 49.3284 29.5427C49.6233 29.9862 50.5554 29.7153 51.3242 29.6614C51.9995 29.614 53.2577 29.6066 53.9405 29.6039C54.6939 29.601 55.744 29.6266 57.2607 29.6057C58.478 29.6411 59.6588 29.6399 60.0917 29.6675C60.431 29.6728 61.013 29.6601 61.6127 29.647" stroke="#500311" stroke-width="4" stroke-linecap="round"/>
</svg>
