<svg width="266" height="180" viewBox="0 0 266 180" fill="none" xmlns="http://www.w3.org/2000/svg">
<path d="M1.81531 173.932C4.35497 174.065 5.25461 174.152 6.38551 174.219C7.96551 174.312 9.71892 174.373 14.1121 174.44C18.225 174.502 26.1649 174.462 30.3386 174.484C35.2462 174.51 36.3715 174.749 37.6433 174.749C40.3327 174.749 38.1804 174.814 41.5104 174.837C44.8405 174.859 51.4638 174.749 58.0882 174.749" stroke="#FF702D" stroke-width="3.63051" stroke-linecap="round"/>
<path d="M206.939 173.932C209.479 174.065 210.378 174.152 211.509 174.219C213.089 174.312 214.843 174.373 219.236 174.44C223.349 174.502 231.289 174.462 235.462 174.484C240.37 174.51 241.495 174.749 242.767 174.749C245.456 174.749 243.304 174.814 246.634 174.837C249.964 174.859 256.588 174.749 263.212 174.749" stroke="#FF702D" stroke-width="3.63051" stroke-linecap="round"/>
<path d="M113.445 175.339C113.403 174.756 113.316 173.787 113.188 173.002C113.075 172.316 112.972 171.541 112.907 170.834C112.845 170.168 112.714 169.494 112.648 168.181C112.634 167.884 112.584 167.74 112.562 166.29C112.54 164.841 112.54 162.091 112.562 160.602C112.596 158.189 112.755 156.629 112.82 153.616C112.834 152.972 112.884 152.828 112.906 151.33C112.928 149.832 112.928 146.985 112.95 145.447C112.973 143.762 113.058 141.636 113.079 138.566C113.087 137.475 113.143 137.33 113.165 135.157C113.187 132.984 113.187 128.786 113.208 126.552C113.235 123.779 113.401 122.906 113.467 122.271C113.497 121.972 113.575 119.756 113.596 116.54C113.604 115.399 113.66 115.254 113.682 113.997C113.745 110.377 113.747 107.796 113.811 107.384C113.996 106.204 113.963 105.508 114.091 104.873C114.213 104.271 114.436 103.704 114.844 103.24C115.253 102.775 115.77 102.581 116.288 102.265C116.774 101.967 117.321 101.947 117.839 101.801C118.357 101.656 118.958 101.558 120.885 101.387C122.375 101.255 125.238 101.362 126.774 101.386C128.311 101.41 128.439 101.459 129.55 101.483C130.661 101.508 132.752 101.508 133.914 101.532C135.076 101.557 135.247 101.605 137.126 101.63C139.006 101.654 142.59 101.654 144.5 101.679C146.885 101.709 147.572 101.897 148.197 101.971C148.754 102.037 149.252 102.432 149.77 102.847C150.331 103.295 150.589 103.991 150.934 104.576C151.279 105.162 151.538 105.745 151.711 106.331C151.883 106.916 151.97 107.693 152.077 108.426C152.204 109.295 152.314 109.985 152.379 112.755C152.393 113.349 152.443 113.494 152.465 119.792C152.487 126.09 152.487 138.538 152.466 145.023C152.444 151.507 152.402 151.652 152.38 151.847C152.276 152.769 152.143 153.746 151.992 154.431C151.865 155.003 151.841 156.082 151.733 157.11C151.627 158.13 151.497 158.816 151.431 160.372C151.386 161.452 151.409 162.617 151.581 163.203C151.776 163.864 151.797 164.76 151.819 167.823C151.828 168.96 151.626 169.635 151.561 170.706C151.478 172.068 151.538 174.021 151.711 174.606C151.754 174.753 151.797 174.898 151.819 175.238C151.841 175.578 151.841 176.108 151.841 176.655" stroke="#500311" stroke-width="4.53814" stroke-linecap="round"/>
<path d="M33.7043 55.593V159.001" stroke="#500311" stroke-width="4.53814" stroke-linecap="round"/>
<path d="M223.891 53.5144C223.891 55.5748 224.062 59.7448 224.194 61.4324C224.312 62.9592 224.582 64.6814 224.713 67.0158C224.821 68.9309 225.102 71.1768 225.233 73.9426C225.262 74.5579 225.361 74.8143 225.406 78.6336C225.45 82.4529 225.45 89.8265 225.407 93.7537C225.361 97.9398 225.19 101.118 225.147 105.664C225.119 108.681 224.759 110.929 224.627 113.048C224.598 113.531 224.499 113.787 224.455 116.706C224.411 119.625 224.411 125.198 224.453 128.198C224.5 131.457 224.67 135.063 224.713 140.258C224.731 142.371 224.93 145.804 224.973 150.74C225.015 155.521 225.621 161.074 225.667 163.624C225.696 165.245 225.278 166.79 224.931 167.83C224.759 168.349 224.67 168.957 224.585 169.605C224.499 169.91 224.327 170.167 224.151 170.952" stroke="#500311" stroke-width="4.53814" stroke-linecap="round"/>
<path d="M33.7044 156.142C33.6186 156.659 33.4446 159.925 33.746 162.114C33.9074 163.287 34.8268 164.192 35.5205 165.232C36.2142 166.273 36.9053 167.309 38.2889 168.738C39.2527 169.734 40.1946 170.516 41.2352 171.209C42.2758 171.903 43.3125 172.594 44.353 173.072C45.4285 173.566 46.4303 173.982 47.4708 174.328C48.4886 174.668 49.5481 174.761 50.8043 174.892C51.9883 175.016 53.357 175.281 55.129 175.585C59.3639 176.311 61.1464 175.889 63.0118 176.104C64.9326 176.326 66.5246 176.234 67.6444 176.364C69.6089 176.592 71.1156 176.494 76.3925 176.624C81.4108 176.747 91.1865 176.668 96.3932 176.711C101.6 176.754 101.943 176.84 104.306 176.884C106.669 176.928 111.042 176.928 113.466 176.971C115.89 177.014 116.233 177.099 119.753 177.144C123.274 177.188 129.962 177.188 133.578 177.145C137.195 177.102 137.538 177.016 142.816 176.972C148.094 176.928 158.297 176.928 163.682 176.885C169.325 176.84 171.818 176.668 175.367 176.625C177.822 176.596 179.369 176.237 182.093 176.106C184.91 175.97 188.202 175.717 191.704 175.586C194.181 175.493 197.125 175.197 200.106 175.066C200.765 175.037 201.022 174.938 203.512 174.894C210.717 174.766 215.834 174.764 216.352 174.591C217.529 174.199 218.949 174.158 219.99 173.811C220.508 173.639 221.03 173.379 221.549 173.033C221.81 172.859 222.067 172.688 222.852 171.991" stroke="#500311" stroke-width="4.53814" stroke-linecap="round"/>
<path d="M35.3976 36.8806L74.2491 3.29834H186.165L223.277 36.8806" stroke="#FF702D" stroke-width="5.44577"/>
<path d="M30.8594 39.6034H50.8272C59.3488 39.6034 66.2569 46.5115 66.2569 55.0331V55.0331H30.8594V39.6034Z" fill="#FEF9F6"/>
<rect x="29.0441" y="32.3424" width="5.44577" height="6.35339" fill="#FEF8F4"/>
<path d="M202.401 55.0331C202.401 45.509 210.122 37.7882 219.646 37.7882H226.907V55.0331H202.401V55.0331Z" fill="#FEF9F6"/>
<path d="M63.951 50.434C67.6194 54.8048 77.157 60.924 85.961 50.434" stroke="#FF702D" stroke-width="4.53814"/>
<path d="M85.9609 50.434C89.6293 54.8048 99.1669 60.924 107.971 50.434" stroke="#FF702D" stroke-width="4.53814"/>
<path d="M107.971 50.434C111.639 54.8048 121.177 60.924 129.981 50.434" stroke="#FF702D" stroke-width="4.53814"/>
<path d="M129.981 50.434C133.456 54.8048 142.492 60.924 150.832 50.434" stroke="#FF702D" stroke-width="4.53814"/>
<path d="M150.832 50.434C154.501 54.8048 164.038 60.924 172.842 50.434" stroke="#FF702D" stroke-width="4.53814"/>
<path d="M172.842 50.434C176.51 54.8048 186.048 60.924 194.852 50.434" stroke="#FF702D" stroke-width="4.53814"/>
<path d="M36.3051 35.519C36.3051 35.519 21.3293 45.9568 22.248 50.3877C23.1667 54.8186 31.052 61.0451 43.0995 50.3877C46.5748 54.8283 55.6104 61.0451 63.951 50.3877" stroke="#FF702D" stroke-width="4.53814"/>
<path d="M220.337 32.4324C218.285 33.7038 236.437 44.1416 236.555 49.8086C236.673 55.4757 227.751 60.4661 215.704 49.8086C212.228 54.2492 203.193 60.4661 194.852 49.8086" stroke="#FF702D" stroke-width="4.53814"/>
<path d="M220.554 125.828L230.537 126.736V137.627H221.461L220.554 125.828Z" fill="#FEF9F6"/>
<path d="M148.397 128.551L157.02 120.836L158.835 129.912L156.112 138.535L151.12 139.442H149.759L150.212 132.635L148.397 128.551Z" fill="#FEF9F6"/>
<path d="M153.059 124.835C153.059 123.223 152.972 121.463 152.905 119.201C152.891 118.731 152.84 118.594 152.817 117.218C152.752 113.233 152.925 110.497 153.189 110.405C153.717 110.22 154.243 110.035 154.881 109.965C156.343 109.805 158.729 109.758 159.608 109.688C160.492 109.617 161.455 109.48 162.159 109.41C162.998 109.327 163.874 109.203 165.169 109.133C166.857 109.041 169.416 108.925 170.732 108.855C171.88 108.794 173.197 108.648 174.799 108.578C175.798 108.534 176.495 108.37 177.528 108.208C178.294 108.087 179.35 108.045 180.321 107.93C181.461 107.795 182.603 107.768 183.642 107.653C184.368 107.572 185.245 107.399 186.565 107.329C187.884 107.259 189.733 107.121 190.809 107.051C191.845 106.984 193.25 106.844 195.072 106.774C196.289 106.727 197.34 106.566 198.373 106.496C199.583 106.414 201.079 106.289 202.527 106.219C203.547 106.169 204.246 106.011 204.883 105.941C205.613 105.861 206.663 105.734 207.521 105.664C208.262 105.603 209.211 105.409 209.941 105.294C210.576 105.194 211.193 105.04 213.256 105.061C213.664 105.066 213.702 105.268 213.747 105.453C213.955 106.324 214.011 107.163 214.142 107.789C214.303 108.556 214.407 109.658 214.516 110.608C214.699 112.197 214.671 113.676 214.78 114.75C214.861 115.536 215.022 116.091 215.088 116.762C215.151 117.394 215.286 118.033 215.352 119.165C215.395 119.892 215.637 120.531 216.032 121.109" stroke="#500311" stroke-width="3.63051" stroke-linecap="round"/>
<path d="M193.335 154.741C193.695 154.69 194.055 154.64 195.356 154.462C196.657 154.285 198.888 153.982 201.585 153.687C204.282 153.392 207.377 153.115 209.032 152.959C211.075 152.767 211.654 152.702 212.212 152.651C212.923 152.585 213.255 152.473 213.642 152.421C214.168 152.352 214.587 152.217 214.951 152.154C215.36 152.083 215.606 152.064 215.763 152.026C216.257 151.908 215.825 150.639 215.789 149.609C215.766 148.98 215.776 148.117 215.813 146.869C215.823 146.508 215.873 145.195 215.861 143.322C215.857 142.583 215.801 141.371 215.813 139.612C215.819 138.732 215.776 134.026 215.861 133.593C215.989 132.942 216.261 134.806 216.297 134.244C216.334 133.683 215.813 132.16 216.297 134.988C216.315 135.09 215.763 133.332 215.763 133.202" stroke="#500311" stroke-width="3.63051" stroke-linecap="round"/>
<path d="M193.19 155.046C193.311 155.453 193.504 155.961 194 156.802C194.291 157.297 194.691 157.796 195.066 158.205C195.696 158.89 195.831 159.25 196.085 159.62C196.3 159.933 196.485 160.244 196.679 160.551C196.873 160.857 197.067 161.162 197.285 161.405C197.535 161.684 198.01 161.012 199.967 159.729C201.028 159.033 201.72 158.844 201.913 158.781C202.761 158.502 204.165 158.131 204.567 158.029C205.078 157.899 205.404 157.927 206.484 157.888C207.493 157.853 209.436 157.875 210.474 157.888C211.802 157.904 212.237 158.002 212.528 158.105C212.601 158.13 212.673 158.155 212.746 158.181C212.819 158.207 212.891 158.232 213.038 158.334" stroke="#500311" stroke-width="3.63051" stroke-linecap="round"/>
<path d="M181.994 158.334C182.042 158.487 182.235 158.792 182.912 159.542C183.321 159.996 183.833 160.676 184.439 161.353C184.998 161.977 185.675 162.539 186.1 162.934C186.604 163.403 187.103 163.786 188.254 164.652C188.844 165.097 189.575 165.646 190.026 166.006C190.517 166.397 190.91 166.744 191.371 167.063C191.927 167.448 192.581 167.992 192.971 168.338C193.306 168.635 193.745 168.988 194.134 169.331C194.511 169.665 194.861 169.956 195.369 170.363C195.916 170.802 196.217 171.103 196.533 171.396C196.837 171.678 197.187 171.97 197.478 172.174C197.77 172.378 198.06 172.632 198.363 172.887C198.732 173.198 199.053 173.473 199.308 173.754C199.362 173.814 199.441 173.831 199.526 173.806C200.226 173.602 201.064 172.738 201.549 172.418C202.314 171.915 202.64 171.641 203.04 171.373C203.611 170.99 203.876 170.697 204.179 170.417C204.522 170.1 204.821 169.856 205.112 169.589C205.417 169.308 205.766 169.015 207.023 167.707C207.386 167.329 207.92 166.7 208.683 165.885C209.378 165.142 209.935 164.453 210.515 163.817C211.205 163.06 211.437 162.745 211.729 162.389C212.076 161.963 212.407 161.548 212.601 161.241C212.795 160.935 212.941 160.63 213.098 160.324C213.135 160.247 213.159 160.171 213.183 160.094C213.208 160.017 213.534 158.991 213.559 158.913" stroke="#500311" stroke-width="3.63051" stroke-linecap="round"/>
<path d="M169.639 157.333C169.808 157.918 169.973 157.822 170.01 158.307C170.052 158.872 170.191 159.633 170.228 160.066C170.261 160.453 170.337 160.856 170.422 161.366C170.502 161.845 170.555 162.309 170.7 163.033C171.06 164.829 171.184 165.34 171.306 165.941C171.381 166.311 171.427 166.668 171.512 167.012C171.54 167.124 171.524 167.278 171.489 167.343C171.361 167.575 170.944 167.231 170.52 167.141C170.126 167.058 169.685 167.001 168.5 166.988C168.028 166.982 167.697 167.179 167.309 167.344C166.879 167.527 166.437 167.714 165.783 168.019C165.385 168.205 165.055 168.376 164.62 168.618C163.895 169.021 163.601 169.217 163.31 169.434C162.994 169.669 162.729 170.006 162.45 170.338C162.213 170.62 162.098 170.95 162.001 171.32C161.908 171.674 161.734 172.071 161.637 172.416C161.527 172.807 161.443 173.167 161.346 173.537C161.261 173.86 161.152 174.161 161.055 174.531C161.012 174.698 160.958 174.85 160.958 174.978C160.958 175.104 162.159 175.08 163.795 175.093C164.543 175.099 164.954 175.157 165.426 175.17C166.503 175.198 168.007 175.284 168.674 175.323C169.797 175.387 171.281 175.412 172.074 175.45C173.97 175.541 175.328 175.488 175.606 175.526C176.389 175.634 177.309 175.616 178.282 175.679C179.337 175.748 180.103 175.717 180.812 175.756C181.448 175.79 182.648 175.769 183.302 175.781C184.029 175.795 184.966 175.845 186.275 175.568C187.715 175.262 186.599 173.732 186.502 173.323C186.405 172.915 186.308 172.458 186.078 171.706C185.843 170.936 185.727 170.571 185.629 170.264C185.532 169.958 185.436 169.653 185.278 169.271C185.127 168.904 185.072 168.532 184.915 168.136C184.782 167.801 184.709 167.435 184.612 166.99C184.52 166.567 184.37 166.01 184.248 165.448C184.149 164.988 184.054 164.632 184.018 164.236C183.985 163.888 183.909 163.485 183.872 163.09C183.788 162.745 183.739 162.237 183.678 161.828C183.666 161.726 183.666 161.6 183.593 161.317" stroke="#500311" stroke-width="3.63051" stroke-linecap="round"/>
<path d="M152.403 125.225C152.234 125.275 151.847 125.529 151.109 126.267C150.506 126.87 149.618 127.721 148.783 128.522C148.299 128.987 148.09 129.276 147.642 129.76C147.36 130.066 147.049 130.447 146.673 130.805C146.005 131.441 145.403 132.128 144.735 132.717C144.293 133.106 143.995 133.405 143.619 133.762C143.344 134.023 143.002 134.373 142.118 135.086C141.931 135.237 141.862 135.317 141.093 135.911C140.324 136.505 138.861 137.615 138.059 138.225C136.962 139.059 136.627 139.369 136.276 139.6C135.942 139.818 135.609 140.084 135.318 140.3C134.945 140.579 134.519 140.899 134.035 141.269C133.62 141.585 133.283 141.893 132.931 142.186C132.448 142.59 131.781 143.269 131.224 143.842C130.823 144.254 130.568 144.696 130.302 145.041C130.032 145.39 129.962 145.716 129.985 146.543C130.001 147.1 130.59 147.195 130.881 147.387C131.183 147.585 131.8 147.553 132.37 147.616C133.276 147.717 133.715 147.502 134.273 147.349C134.893 147.18 135.727 146.917 136.538 146.649C137.011 146.493 137.279 146.279 137.811 145.923C138.133 145.708 138.442 145.591 138.974 145.248C139.601 144.844 139.992 144.649 140.393 144.355C140.55 144.24 140.697 144.138 140.794 144.112C141.083 144.034 140.577 144.722 140.298 145.155C140.071 145.51 139.922 145.946 139.741 146.29C139.48 146.784 139.341 147.143 139.123 147.678C138.963 148.072 138.952 148.443 139.048 148.749C139.227 149.319 140.088 148.929 140.598 148.841C141.24 148.729 141.616 148.522 141.932 148.394C142.347 148.226 142.877 147.961 143.385 147.694C143.917 147.415 144.186 147.172 144.489 146.942C144.815 146.695 145.275 146.433 145.978 145.898C146.568 145.449 146.948 145.132 147.179 144.89C147.463 144.594 148.085 144.141 148.62 143.655C149.116 143.204 149.518 142.814 149.82 142.533C150.303 142.085 150.68 141.719 151.02 141.424C151.345 141.143 151.601 140.799 152.375 140.024C152.732 139.667 153.031 139.322 153.6 138.736C154.014 138.31 154.437 137.946 154.8 137.601C155.189 137.232 155.551 136.748 155.94 136.327C156.234 136.008 156.545 135.676 156.896 135.27C157.758 134.325 158.047 134.02 158.291 133.714C158.34 133.637 158.388 133.561 158.51 133.483" stroke="#500311" stroke-width="3.63051" stroke-linecap="round"/>
<path d="M216.227 121.293C216.402 121.291 219.611 122.926 220.52 123.41C221.262 123.805 222.345 124.352 223.364 124.868C223.954 125.166 224.234 125.38 224.795 125.709C225.149 125.916 225.551 126.188 226.009 126.417C226.821 126.824 227.587 127.3 228.387 127.662C228.917 127.901 229.284 128.098 229.741 128.327C230.076 128.494 230.499 128.726 231.54 129.142C231.761 129.23 231.849 129.285 232.748 129.622C233.646 129.959 235.351 130.58 236.286 130.922C237.564 131.389 237.97 131.585 238.369 131.7C238.749 131.808 239.14 131.962 239.478 132.082C239.912 132.235 240.407 132.413 240.972 132.621C241.456 132.799 241.862 132.992 242.279 133.167C242.853 133.408 243.677 133.857 244.367 134.237C244.864 134.51 245.228 134.857 245.578 135.107C245.932 135.36 246.088 135.651 246.291 136.45C246.429 136.988 245.89 137.257 245.663 137.529C245.428 137.81 244.829 137.965 244.3 138.199C243.46 138.569 242.981 138.496 242.404 138.518C241.764 138.543 240.893 138.543 240.044 138.531C239.548 138.524 239.233 138.4 238.626 138.22C238.259 138.112 237.931 138.093 237.327 137.925C236.616 137.727 236.189 137.659 235.724 137.499C235.542 137.436 235.374 137.382 235.274 137.387C234.976 137.4 235.649 137.906 236.034 138.236C236.349 138.507 236.61 138.88 236.877 139.155C237.262 139.549 237.494 139.851 237.849 140.298C238.11 140.627 238.221 140.979 238.212 141.301C238.197 141.901 237.266 141.788 236.753 141.857C236.108 141.944 235.691 141.86 235.353 141.833C234.91 141.797 234.33 141.703 233.77 141.601C233.185 141.494 232.861 141.343 232.508 141.214C232.128 141.075 231.616 140.964 230.796 140.664C230.108 140.412 229.658 140.223 229.37 140.061C229.018 139.863 228.298 139.617 227.653 139.313C227.055 139.031 226.563 138.779 226.197 138.601C225.612 138.318 225.151 138.081 224.745 137.901C224.357 137.73 224.017 137.479 223.064 136.97C222.625 136.736 222.245 136.496 221.539 136.106C221.027 135.823 220.522 135.602 220.079 135.381C219.607 135.146 219.128 134.791 218.64 134.505C218.271 134.288 217.882 134.065 217.435 133.782C216.352 133.137 215.991 132.932 215.674 132.713C215.607 132.654 215.54 132.596 215.402 132.558" stroke="#500311" stroke-width="3.63051" stroke-linecap="round"/>
<path d="M155.393 137.086C155.417 137.339 155.513 138.051 155.719 139.045C155.844 139.651 155.997 140.775 156.252 142.179C156.387 142.927 156.554 143.682 156.701 144.45C156.804 144.989 156.967 145.8 157.064 146.438C157.131 146.878 157.258 147.432 157.464 148.247C157.578 148.697 157.622 149.114 157.9 150.208C158.068 150.872 158.203 151.382 158.3 151.982C158.382 152.483 158.494 152.887 158.591 153.371C158.688 153.857 158.785 154.314 158.882 154.799C158.954 155.157 159.003 155.513 159.04 156.263C159.062 156.715 159.148 157.119 159.246 157.425C159.294 157.577 159.367 157.731 159.475 157.858C159.679 158.096 160.14 158.038 160.649 158.101C161.493 158.206 161.834 158.012 162.237 157.974C177.66 156.533 164.491 157.885 165.605 157.821C166.829 157.752 167.217 157.732 167.545 157.668C167.897 157.63 168.115 157.554 168.272 157.515C168.357 157.502 168.453 157.502 168.625 157.426" stroke="#500311" stroke-width="3.63051" stroke-linecap="round"/>
<path d="M189.895 136.602C190.074 136.602 190.434 136.564 190.784 136.488C191.101 136.42 191.601 136.3 192.007 136.195C192.39 136.097 192.699 135.902 193.418 135.525C193.723 135.365 193.942 135.221 194.158 135.023C194.54 134.671 195.219 134.219 195.462 134.039C195.858 133.746 196.262 133.216 196.47 133.017C196.872 132.63 197.485 131.873 197.747 131.513C197.81 131.381 197.971 131.173 198.196 130.918C198.278 130.812 198.296 130.756 198.314 130.698" stroke="#500311" stroke-width="3.63051" stroke-linecap="round"/>
<path d="M175.931 126.498C176.003 126.629 176.146 126.969 176.326 127.404C176.501 127.825 176.65 128.029 176.866 128.303C177.215 128.747 177.406 128.994 177.63 129.297C177.933 129.704 178.464 130.24 178.854 130.603C179.127 130.857 179.385 131 179.601 131.105C179.824 131.213 180.032 131.303 180.257 131.379C180.515 131.466 180.734 131.53 181.048 131.559C181.401 131.591 181.831 131.532 182.182 131.437C182.478 131.356 182.731 131.285 182.965 131.125C183.333 130.873 183.486 130.492 183.81 130.076C184.229 129.538 184.206 129.074 184.386 128.421C184.502 128 184.549 127.616 184.612 127.228C184.674 126.843 184.675 126.5 184.72 126.074C184.776 125.536 184.783 124.781 184.738 124.285C184.712 124.001 184.675 123.737 184.63 123.471C184.573 123.135 184.531 122.791 184.504 122.337C184.495 122.241 184.477 122.185 184.468 122.062C184.459 121.94 184.459 121.752 184.459 121.559" stroke="#500311" stroke-width="3.63051" stroke-linecap="round"/>
<path d="M190.151 119.746C190.223 119.878 190.366 120.217 190.546 120.653C190.72 121.074 190.87 121.278 191.086 121.552C191.435 121.996 191.626 122.243 191.85 122.545C192.152 122.953 192.683 123.488 193.074 123.851C193.346 124.105 193.604 124.249 193.82 124.353C194.044 124.461 194.252 124.552 194.477 124.628C194.735 124.715 194.954 124.779 195.268 124.808C195.621 124.84 196.05 124.78 196.402 124.685C196.698 124.605 196.95 124.534 197.184 124.373C197.552 124.121 197.706 123.74 198.03 123.324C198.449 122.786 198.426 122.322 198.606 121.669C198.722 121.249 198.768 120.865 198.831 120.476C198.894 120.092 198.895 119.749 198.939 119.322C198.996 118.785 199.002 118.03 198.958 117.534C198.932 117.249 198.895 116.985 198.85 116.72C198.793 116.383 198.751 116.04 198.724 115.585C198.715 115.49 198.697 115.433 198.688 115.311C198.679 115.188 198.679 115.001 198.679 114.808" stroke="#500311" stroke-width="3.63051" stroke-linecap="round"/>
<path d="M167.29 95.1354C167.085 96.1657 167.04 96.5009 166.994 96.7179C166.927 97.0315 167.516 96.0491 167.78 95.7239C168.012 95.4374 168.338 95.2563 168.486 95.1836C168.908 94.9764 168.545 96.2362 168.51 96.6567C168.465 97.2096 168.248 97.724 168.202 97.9409C168.143 98.2222 168.543 97.2003 168.919 96.6125C169.226 96.1309 169.546 95.7369 169.99 95.2214C170.351 94.8026 170.55 94.5605 170.653 94.4289C170.704 94.3629 170.777 94.321 170.812 94.439C171.11 95.4446 170.552 96.4995 170.415 97.0161C170.338 97.3046 170.209 97.5089 170.175 97.5575C169.984 97.8281 170.774 96.152 171.605 94.571C171.953 93.9102 172.188 93.5598 172.541 93.0558C173.353 91.8983 173.925 91.2028 174.027 91.2733C174.349 91.4946 173.949 92.8245 173.587 94.7843C173.38 95.8993 172.953 97.219 172.687 98.0463C172.204 99.5542 172.056 99.7392 172.033 99.7997C171.931 100.07 172.261 99.1903 172.704 98.2449C173 97.6122 173.444 96.8434 173.822 96.2168C174.269 95.4737 174.54 95.1368 174.757 94.8487C174.813 94.775 174.882 94.7052 174.917 94.7634C175.044 94.9758 174.929 95.421 174.68 96.4452C174.482 97.2636 174.025 98.6564 173.737 99.5324C173.343 100.728 173.06 101.249 172.9 101.537C172.888 101.559 172.967 101.182 173.273 100.275C173.817 98.6625 174.449 97.5593 174.71 97.1175C175.393 95.9625 175.748 95.2591 176.034 94.7652C176.158 94.5506 176.273 94.2735 176.421 94.1407C176.466 94.1008 176.502 94.3167 176.434 94.9958C176.367 95.675 176.209 96.8621 176.06 97.7704C175.911 98.6787 175.775 99.2723 175.604 99.8986C175.255 101.174 174.975 101.921 174.895 102.101C174.77 102.383 175.543 100.367 176.202 98.8716C176.695 97.7556 177.389 96.8894 177.822 96.3265C178.367 95.6175 178.782 95.1599 178.907 95.1235C179.031 95.0874 178.966 95.8491 178.603 97.3772C178.373 98.3477 177.879 99.6651 177.41 100.801C176.94 101.937 176.466 102.839 176.233 103.233C176 103.626 176.023 103.484 176.057 103.339C176.189 102.782 176.342 102.308 176.751 101.113C177.122 100.029 177.708 99.096 178.175 98.4021C178.628 97.7276 179.01 97.3665 179.158 97.3179C179.307 97.2689 179.036 98.7212 178.626 100.638C178.247 102.411 177.917 103.047 177.757 103.431C177.595 103.821 178.302 102.212 178.565 101.84C178.624 101.756 178.668 101.684 178.713 101.718C179.704 102.465 178.851 104.849 178.862 104.693C178.892 104.278 179.17 103.914 179.375 103.447C179.443 103.267 179.534 103.051 179.671 102.811C179.739 102.714 179.807 102.667 179.877 102.618" stroke="#3FA9F5" stroke-width="2.60078" stroke-linecap="round"/>
<path d="M186.239 101.467C186.239 102.353 186.194 102.831 186.159 103.789C186.149 104.058 186.102 104.247 186.125 104.356C186.13 104.381 186.192 104.204 186.554 103.418C186.916 102.632 187.593 101.208 187.976 100.438C188.492 99.4005 188.723 99.1414 188.86 99.0331C189.041 98.8902 188.975 101.019 188.918 102.387C188.892 103.025 188.838 103.455 188.793 103.673C188.703 104.103 189.065 102.668 189.384 101.663C189.539 101.173 189.772 100.583 190.078 99.6753C190.786 97.5792 191.186 96.9614 191.448 96.3848C191.525 96.2153 191.618 96.0031 191.665 96.1186C192.1 97.1996 191.417 98.5788 191.165 99.4742C191.077 99.7856 191.005 100.027 190.971 100.076C190.767 100.364 191.05 99.3342 191.242 98.3698C191.397 97.5919 191.728 96.242 192.06 94.9394C192.392 93.6368 192.731 92.426 192.939 91.731C193.147 91.036 193.215 90.8935 193.261 90.7845C193.336 90.6071 193.353 91.7892 193.297 94.0638C193.253 95.8245 193.011 96.6456 193.011 96.6823C193.011 97.1254 193.125 95.8801 193.464 94.3707C193.776 92.9842 194.3 90.3208 194.681 88.7017C195.061 87.0825 195.264 86.5839 195.392 86.3746C195.519 86.1652 195.564 86.2602 195.599 86.3685C195.633 86.4767 195.656 86.5954 195.667 87.5469C195.679 88.4984 195.679 90.2791 195.668 91.2439C195.655 92.3042 195.611 92.4965 195.611 92.581C195.611 92.9307 195.793 91.7094 196.395 89.3531C196.787 87.8192 197.115 86.3595 197.251 86.1674C197.301 86.0971 197.388 86.1652 197.434 86.2609C197.679 86.7689 197.708 87.5293 197.776 88.2847C197.854 89.1375 198.027 89.7388 198.095 89.8467C198.161 89.9505 198.436 89.5272 198.698 88.952C198.834 88.6545 199.323 87.6387 199.995 86.1641C200.35 85.3862 200.49 85.1357 200.502 85.0752C200.524 84.9565 200.286 85.445 200.047 85.7562C199.82 86.0526 199.353 86.5221 198.017 87.988C197.001 89.1021 195.191 90.8547 194.227 91.8076C193.181 92.8414 193.012 92.9526 192.909 92.9771C192.869 92.9866 192.874 92.8591 192.84 92.8932C192.491 93.2458 192.328 93.7181 191.374 94.7354C191.094 95.0334 190.782 95.2506 190.609 95.3016C190.435 95.3527 190.39 95.2103 190.366 95.1013C190.299 94.7843 190.412 94.3469 190.378 94.0102C190.328 93.5166 190.048 94.8462 189.865 95.3254C189.716 95.7153 189.637 95.9261 189.625 95.9866C189.602 96.1053 190.021 95.3793 190.612 94.6254C190.897 94.2628 191.204 93.9901 192.439 93.0123C193.673 92.0346 195.84 90.3726 197.002 89.469C198.164 88.5653 198.254 88.4704 198.347 88.3725" stroke="#3FA9F5" stroke-width="2.60078" stroke-linecap="round"/>
<path d="M183.214 107.131C183.235 106.616 183.405 105.634 183.502 104.843C183.601 104.04 183.769 103.653 183.812 103.26C183.871 102.718 184.025 102.328 184.185 101.912C184.398 101.357 184.537 100.958 184.836 100.33C185.075 99.8263 185.391 99.1395 185.53 98.8357C185.682 98.5053 185.903 98.0186 186.202 97.4333C186.434 96.9801 186.565 96.5583 186.736 96.1864C186.97 95.678 187.142 95.2097 187.355 94.8281C187.698 94.2161 188.188 93.2563 188.391 92.9754C188.873 92.306 189.469 91.2354 189.671 90.9657C189.877 90.6916 190.151 90.1819 190.397 89.7424C190.634 89.3208 191.025 88.6124 191.666 87.3764C192.051 86.6333 192.478 85.8709 192.863 85.1629C193.083 84.758 193.226 84.4994 193.567 83.9501C193.788 83.5947 193.995 83.3543 194.261 83.2074C194.668 82.9831 195.167 82.9717 195.574 82.9376C195.66 82.9304 195.744 82.9043 196.538 82.8928C197.332 82.8814 198.833 82.8814 199.648 82.8703C200.548 82.858 201.459 82.814 202.74 82.8251C203.475 82.8315 203.9 82.9259 204.21 82.9599C204.486 82.9902 204.817 83.0835 205.117 83.1505C205.184 83.1653 205.245 83.1953 205.278 83.3957C205.444 84.4152 205.14 84.6988 205.055 85.0245C204.978 85.3163 204.735 85.7078 204.585 86.0574C204.411 86.4632 204.053 86.8314 203.827 87.1463C203.44 87.6888 202.878 88.3133 202.621 88.6619C202.403 88.9582 202.173 89.2564 201.917 89.5154C201.615 89.8207 201.447 90.0876 200.904 90.6929C200.616 91.0134 200.422 91.3001 200.134 91.6706C199.876 92.0027 199.463 92.4668 199.152 92.8494C198.853 93.2186 198.545 93.5675 198.266 93.916C198.037 94.203 197.776 94.466 197.604 94.7247C197.435 94.9787 197.009 95.3848 196.697 95.7685C196.378 96.1618 195.984 96.5973 195.587 97.1153C195.326 97.4557 195 97.8341 194.69 98.2716C194.464 98.592 194.189 98.9334 193.847 99.3719C193.564 99.7355 193.335 100.034 193.078 100.394C192.812 100.768 192.609 101.135 192.384 101.405C192.178 101.654 192.074 101.943 191.862 102.291C191.606 102.708 191.434 103.021 191.232 103.358C191.04 103.677 190.986 103.964 190.9 104.234C190.815 104.503 190.687 104.772 190.58 105.098C190.476 105.412 190.473 105.783 190.409 106.086C190.34 106.416 189.77 106.3 189.428 106.379C189.113 106.451 188.809 106.458 188.531 106.525C188.248 106.593 187.913 106.66 187.634 106.727C187.357 106.794 187.058 106.839 186.802 106.929C186.545 107.019 186.247 107.108 185.905 107.198C185.563 107.288 185.307 107.333 185.147 107.344C185.072 107.355 185.009 107.378 184.879 107.401" stroke="#500311" stroke-width="3.63051" stroke-linecap="round"/>
<path d="M161.759 97.768C161.801 97.6339 161.929 97.3652 162.206 96.8721C162.527 96.2995 163.267 95.2622 163.807 94.6478C163.94 94.4964 164.085 94.3333 164.762 93.8099C165.355 93.3523 166.454 92.5085 167.126 92.0177C168.243 91.202 168.546 91.1451 168.856 91.0211C169.173 90.8942 169.634 90.7409 170.285 90.4604C170.692 90.2849 171.129 90.1791 172.066 89.8993C172.741 89.6977 173.283 89.4395 173.723 89.2698C174.042 89.1469 174.375 89.034 174.748 88.8659C175.32 88.6082 175.591 88.5625 175.912 88.4726C176.252 88.3769 176.594 88.2486 176.883 88.1469C176.955 88.1216 177.043 88.1354 177.15 88.2354C177.74 88.7878 177.897 89.4139 178.154 89.8066C178.408 90.1959 178.687 90.4917 178.88 90.8285C179.098 91.2114 179.37 91.4792 179.648 91.85C180.008 92.3315 180.289 92.7146 180.513 93.0403C180.713 93.3309 180.865 93.6576 180.983 93.9274C181.109 94.2164 181.313 94.466 181.474 94.7916C181.682 95.2147 181.912 95.8132 182.008 96.1389C182.097 96.4416 182.232 96.7333 182.37 97.1378C182.473 97.4367 182.616 97.7437 182.702 98.0364C182.787 98.3285 183.435 100.541 183.52 100.89C183.6 101.218 183.412 99.578 183.497 99.8478C183.519 99.9155 183.257 100.124 183.278 100.192C183.299 100.26 183.742 101.796 183.828 101.932" stroke="#500311" stroke-width="3.63051" stroke-linecap="round"/>
<path d="M161.694 97.6334C161.779 97.723 162.204 97.9015 162.537 98.0484C162.928 98.2213 163.336 98.4862 163.625 98.632C163.924 98.7829 164.191 98.8904 164.447 99.0362C164.696 99.1773 164.959 99.2945 165.301 99.5185C165.74 99.8063 166.302 100.19 166.849 100.518C167.202 100.73 167.585 100.956 167.842 101.08C168.107 101.208 168.354 101.36 168.717 101.584C169.03 101.778 169.421 102.033 169.88 102.392C170.282 102.707 170.638 102.954 171.001 103.257C171.458 103.638 171.642 103.897 172.089 104.423C172.467 104.868 172.603 105.244 172.721 105.514C172.852 105.814 173.115 106.052 173.254 106.333C173.437 106.702 173.628 106.928 173.799 107.198C174.057 107.606 174.908 107.378 175.607 107.345C176.221 107.315 177.363 107.333 177.982 107.344C178.666 107.357 179.619 107.401 180.995 107.412C182.099 107.468 183.171 107.49 183.563 107.524C183.871 107.535 184.399 107.535 184.943 107.535" stroke="#500311" stroke-width="3.63051" stroke-linecap="round"/>
<path d="M35.2777 38.1767C35.4705 40.3561 35.3432 42.5395 35.1176 43.7662C34.9304 44.7835 34.8919 45.6949 34.5399 47.0113C34.2228 48.1973 33.9931 49.1011 33.7356 49.9391C33.6756 50.1344 33.6074 50.3239 33.7974 50.1358C34.5019 49.4384 35.7193 47.4481 38.0869 44.0545C39.5571 41.947 41.8547 39.2606 43.2569 37.5961C45.1217 35.3824 46.7749 33.3702 48.5098 30.9603C49.7362 29.2566 50.7038 28.151 51.0924 27.6014C51.272 27.3473 51.2862 28.6564 50.9998 31.0509C50.7733 32.9444 50.1406 36.1823 49.7818 38.0773C49.3372 40.4261 49.0373 41.768 48.6853 43.7228C47.9854 47.6096 47.4943 48.7153 47.2687 49.7453C47.2129 49.9998 47.2359 50.2583 47.3313 50.1349C47.4268 50.0114 47.6178 49.5022 49.7847 44.88C51.9517 40.2578 56.0888 31.5379 58.3792 26.5685C61.0887 20.6898 61.3794 19.3425 61.5713 18.542C62.1003 16.3353 62.7295 15.4194 62.8259 15.3847C62.9761 15.3306 62.8587 16.0501 62.7314 17.2353C62.6041 18.4205 62.3495 20.2663 61.1363 25.6408C59.9232 31.0152 57.7591 39.8624 56.5806 44.5791C55.1712 50.2202 54.6963 51.2227 54.4687 51.8389C54.2105 52.5379 54.8853 50.2024 55.1418 49.4974C55.4396 48.679 55.7204 47.8242 58.1738 42.6947C60.443 37.9504 64.7643 28.8454 67.1212 23.9657C70.0659 17.8692 70.701 16.6442 71.2786 15.3259C71.4876 14.849 71.6017 14.455 71.73 14.3248C72.5439 13.4987 71.6036 16.8274 70.456 21.2895C69.4238 25.3031 67.5263 32.8803 66.4471 37.0049C64.9574 42.699 64.34 44.5994 63.9851 46.0469C63.6218 47.5287 63.1808 48.5899 63.1798 48.7201C63.1633 50.9513 65.2986 43.3264 65.908 42.012C66.2184 41.3426 66.4539 40.6339 69.0992 35.1177C71.7444 29.6015 76.7727 19.2904 79.3948 13.8832C82.33 7.83023 82.7884 7.06216 82.9167 6.80371C83.0419 6.55143 83.1105 7.57135 82.0285 12.9535C80.9956 18.0912 78.7824 28.0739 77.604 33.3808C76.3521 39.0183 76.1034 39.7158 75.9433 40.4854C75.6048 42.1127 74.7591 45.0353 74.3357 46.8512C73.9173 48.6459 73.4668 49.3595 73.2103 49.8774C73.0331 50.2351 73.5941 48.5977 75.5055 43.6562C77.2079 39.2551 80.7266 31.1406 82.9745 26.0844C85.2225 21.0282 86.1772 19.3097 87.401 16.8014C88.6248 14.293 90.0887 11.0469 90.8747 9.27925C91.9178 6.93321 92.2393 6.35431 92.3994 5.96953C92.4825 5.76963 92.6231 5.58474 92.6887 5.83644C92.7542 6.08814 92.7542 6.78828 91.7677 11.8271C90.7811 16.866 88.808 26.2223 87.6961 31.2968C86.5842 36.3714 86.3932 36.8805 85.7539 38.8932C85.1145 40.9058 84.0325 44.4065 83.4432 46.3054C82.6733 48.7866 82.5319 49.3614 82.5319 49.5553C82.5319 50.3953 83.1722 47.1839 85.5967 40.9936C87.5561 35.9905 91.5816 26.5386 94.4419 20.0937C97.3022 13.6488 98.9571 10.53 99.8732 8.82792C100.789 7.12581 100.917 6.93486 101.014 6.74102C101.111 6.54718 101.175 6.35624 101.208 6.63976C101.328 7.68065 101.113 8.98319 100.125 13.3508C99.2523 17.2067 97.6725 24.4016 96.7573 28.3613C95.8422 32.321 95.6512 32.8302 95.2346 34.1109C94.1579 37.4207 93.4621 39.845 93.2702 40.5182C92.7322 42.4051 91.7937 44.9157 91.245 46.0816C90.8936 46.8283 90.8255 47.6236 90.7609 48.1415C90.7501 48.2281 91.0145 47.7625 93.627 41.361C96.2395 34.9595 101.268 22.4844 103.922 15.9623C106.855 8.75381 107.347 7.89923 107.605 7.34954C107.635 7.28543 107.733 7.63307 107.766 8.59165C107.798 9.55024 107.798 11.2051 106.971 17.2131C106.144 23.2212 104.489 33.5322 103.573 39.0031C102.601 44.8048 102.398 45.3111 102.302 46.0141C101.957 48.5599 101.499 49.6797 101.242 50.6778C101.183 50.906 101.113 51.0954 101.144 50.8755C101.175 50.6556 101.302 50.0191 101.909 48.0682C102.516 46.1173 103.598 42.8712 104.314 40.8489C105.031 38.8266 105.349 38.1265 106.468 35.2835C107.586 32.4406 109.496 27.476 110.639 24.6321C112.53 19.9247 113.454 18.3145 114.73 15.9537C115.79 13.9945 117.535 10.4105 118.485 8.47882C119.523 6.36808 119.755 5.90491 120.076 5.42369C120.221 5.20629 120.27 5.00612 120.302 5.35329C120.335 5.70047 120.335 6.59155 119.699 11.4105C119.062 16.2295 117.789 24.9493 117.07 29.6641C116.281 34.8337 116.028 35.9837 115.55 38.8903C115.186 41.1056 114.372 44.7884 113.978 46.7856C113.472 49.3524 113.265 50.2583 113.167 51.0963C113.144 51.2915 113.072 51.4811 113.071 51.484C112.84 52.1754 113.646 49.4984 116.044 42.8481C117.326 39.2913 119.71 33.7251 121.082 30.4896C122.453 27.2542 122.835 26.554 123.795 24.5067C124.756 22.4593 126.284 19.0859 127.166 17.189C128.953 13.3467 130.426 10.0247 130.941 9.02369C131.06 8.79245 131.198 8.54344 131.295 8.31681C131.811 7.11752 131.075 14.7617 130.657 17.1042C130.467 18.1692 130.43 19.0011 129.411 24.1692C128.392 29.3372 126.419 38.8209 125.37 43.8018C124.2 49.363 124.065 50.2583 123.968 51.0963C123.945 51.2915 123.873 51.4811 123.935 51.134C123.998 50.7868 124.189 49.8957 124.701 48.0046C125.213 46.1134 126.041 43.2493 126.53 41.4237C127.204 38.9125 127.533 37.5402 128.778 33.998C129.796 31.1019 131.487 25.9368 133.009 21.8489C134.531 17.7609 135.804 14.8967 136.587 13.2303C138.296 9.59392 139.557 6.80757 139.975 5.96953C140.343 5.23093 140.649 4.4275 140.972 3.8778C141.611 2.7907 141.038 7.69093 140.846 9.74504C140.76 10.6519 140.78 11.29 139.825 17.3462C138.871 23.4025 136.961 34.8592 135.818 41.4931C134.675 48.127 134.357 49.591 134.161 50.4406C133.833 51.8679 134.195 50.0664 134.161 51.0963C134.159 51.1727 133.771 53.4832 135.363 49.1194C136.955 44.7556 140.074 36.2903 142.954 28.938C145.833 21.5856 148.379 15.6026 149.723 12.425C151.066 9.24743 151.13 9.05648 151.003 11.0585C150.877 13.0606 150.559 17.2614 150.299 19.9346C150.04 22.6078 149.849 23.6262 149.719 24.5964C149.589 25.5665 149.525 26.4576 148.887 30.5128C148.25 34.568 147.041 41.7603 146.418 45.5609C145.764 49.5475 145.731 50.0037 145.635 50.6122C145.579 50.9633 145.602 51.4117 148.243 44.8626C150.885 38.3136 156.167 24.7565 159.016 17.5497C161.865 10.343 162.12 9.89741 162.346 9.4133C163.136 7.72616 163.474 6.80757 163.891 5.80944C164.064 5.39656 164.054 7.42283 163.544 14.5216C163.193 19.4005 162.27 26.8395 161.557 32.4579C160.845 38.0764 160.272 41.6407 159.977 43.6041C159.547 46.4653 159.296 47.6236 159.104 48.3961C159.006 48.7897 158.91 49.3595 159.006 49.4926C159.161 49.7091 159.292 48.3527 161.427 42.2926C163.562 36.2325 167.636 25.0303 170.275 18.082C172.915 11.1337 173.997 8.77874 174.586 7.40644C175.543 5.17791 175.945 4.23462 176.268 3.46216C176.347 3.27366 176.396 3.07737 176.461 3.2336C176.525 3.38983 176.589 3.89902 175.763 11.1308C174.936 18.3627 173.218 32.3017 172.332 39.5779C171.377 47.4319 171.254 48.0113 171.318 48.1415C171.356 48.2206 171.509 47.7625 173.611 41.6474C175.713 35.5324 179.787 23.6301 181.949 17.3713C184.111 11.1125 184.238 10.8579 184.336 10.8859C184.433 10.9139 184.497 11.2321 184.052 16.7425C183.608 22.2529 182.653 32.9459 182.098 38.7408C181.486 45.1158 181.284 46.1443 181.124 47.8059C180.597 53.3163 180.192 54.1814 180.095 54.9538C180.07 55.1487 180.353 53.7291 180.352 53.6683C180.335 52.612 180.639 52.8428 181.441 50.6903C181.669 50.0776 181.858 49.4405 183.357 45.4847C184.856 41.5288 187.656 34.2729 189.258 30.2486C191.1 25.6197 191.633 24.6793 192.113 23.496C192.943 21.4447 193.691 20.0484 193.819 20.0455C194.591 20.0281 193.95 23.1787 193.376 29.2842C192.969 33.6184 191.911 40.4179 191.355 44.1808C190.532 49.76 190.156 51.5467 190.124 52.0279C190.109 52.2563 190.029 52.4455 191.905 47.5793C193.782 42.7131 197.601 32.7839 199.6 27.7643C201.599 22.7448 201.663 22.9357 201.632 25.8983C201.601 28.8608 201.474 34.5892 201.313 38.0812C201.028 44.2461 200.378 45.8839 200.314 46.3121C199.934 48.8248 201.213 42.8095 201.978 40.3532C202.629 38.2626 204.016 34.5236 204.768 32.4618C205.52 30.4 205.647 30.1454 205.745 30.3006C205.842 30.4559 205.906 31.0287 205.971 33.0742C206.035 35.1196 206.099 38.6203 206.068 40.901C206.006 45.4472 205.651 46.721 205.586 47.6902C205.521 48.6497 206.161 44.9388 207.027 42.1479C208.4 37.7209 209.763 34.3886 210.084 33.3943C210.623 31.7194 211.05 31.2351 211.178 31.2322C211.377 31.2277 211.306 31.9931 211.339 34.7068C211.372 37.4206 211.372 42.2579 211.372 44.6225C211.372 46.9872 211.372 46.7326 211.404 46.4423C211.471 45.83 212.583 43.0236 214.158 39.1352C215.008 37.036 215.357 36.4427 215.613 36.3443C216.91 35.8471 216.448 39.4535 216.803 41.416C217.403 44.7293 218.123 48.9101 218.218 49.265C218.314 49.3017 218.504 49.0471 218.698 48.8204C218.892 48.5938 219.083 48.4029 219.666 48.0133" stroke="#FF702D" stroke-width="6.35339" stroke-linecap="round"/>
<path d="M222.366 42.2271C220.825 47.749 220.373 49.4251 220.341 49.6199C220.119 50.9345 222.42 45.9727 223.617 44.447C224.156 43.7592 224.102 47.2919 224.42 48.968C224.91 51.55 227.311 46.0884 228.086 45.8589C228.536 46.9795 229.687 50.8138 230.433 53.1842C230.53 53.4755 230.594 53.7301 230.852 54.1853" stroke="#FF702D" stroke-width="6.35339" stroke-linecap="round"/>
<path d="M144.637 32.5834C143.619 37.6753 142.903 40.8712 142.36 42.7893C142.007 44.1346 141.497 46.235 141.235 47.1579C140.973 48.0808 140.973 47.7626 141.166 47.2418" stroke="#FF702D" stroke-width="6.35339" stroke-linecap="round"/>
<path d="M168.361 33.9335C168.361 33.9971 168.361 34.0608 168.17 35.9712C167.979 37.8816 167.597 41.6369 167.337 43.8578C166.909 47.5082 166.563 48.9044 166.432 49.7164C166.294 50.5717 166.625 47.3151 167.265 42.5675C167.414 41.4636 167.397 40.8885 167.397 40.7844C167.397 39.9199 166.949 42.4161 166.594 43.1886C166.498 43.3824 166.371 43.5733 166.146 43.8308C165.921 44.0883 165.603 44.4066 165.082 44.7344" stroke="#FF702D" stroke-width="6.35339" stroke-linecap="round"/>
<path d="M128.05 50.5207C127.732 50.8389 127.414 51.1572 127.218 51.2256C126.947 51.3203 126.893 50.5245 126.798 49.9459C126.762 49.7302 126.511 49.7492 126.317 49.8447C125.545 50.5188 124.393 51.4156 123.424 51.9017C123.23 51.9981 123.039 52.1254 122.843 52.2566" stroke="#FF702D" stroke-width="6.35339" stroke-linecap="round"/>
<path d="M111.27 51.6779C111.27 51.6143 111.27 51.5506 111.27 51.4224C111.27 51.2941 111.27 51.1032 110.888 51.0048C110.506 50.9064 109.743 50.9064 109.317 50.811C108.892 50.7155 108.828 50.5246 108.795 50.3307C108.699 49.5583 108.443 48.9796 108.25 48.3721C108.184 47.9555 108.184 47.319 108.184 46.6632" stroke="#FF702D" stroke-width="6.35339" stroke-linecap="round"/>
<path d="M112.042 28.9187C111.143 35.2103 110.503 38.547 110.082 40.8374C109.473 43.5637 108.956 46.4683 108.924 46.8531C108.892 47.047 108.828 47.2379 108.763 47.8204" stroke="#FF702D" stroke-width="6.35339" stroke-linecap="round"/>
<path d="M124.266 31.4347C124.329 31.562 124.393 31.6893 124.235 33.8871C124.077 36.0849 123.695 40.3493 123.403 42.9281C123.11 45.5068 122.919 46.2706 122.821 46.7914C122.723 47.3121 122.723 47.5667 122.53 48.2148" stroke="#FF702D" stroke-width="6.35339" stroke-linecap="round"/>
<path d="M156.596 12.1385C156.596 14.4299 156.596 17.0106 156.564 19.2913C156.532 20.1718 156.468 20.49 156.436 20.8131C156.403 21.1361 156.403 21.4544 156.21 22.168" stroke="#FF702D" stroke-width="6.35339" stroke-linecap="round"/>
<path d="M187.841 6.54529C188.227 13.4811 187.972 16.5593 187.809 18.2422C187.714 18.6925 187.648 19.2711 187.616 19.9452C187.585 20.2374 187.521 20.4284 187.455 20.818" stroke="#FF702D" stroke-width="6.35339" stroke-linecap="round"/>
<path d="M193.435 16.9604C193.944 20.0156 194.206 22.4169 193.983 24.2434C193.315 26.3882 191.774 29.1598 189.944 31.7935C189.195 32.8359 188.813 33.2815 188.034 33.9334" stroke="#FF702D" stroke-width="6.35339" stroke-linecap="round"/>
<path d="M156.403 37.9838C155.002 43.7121 154.154 47.045 153.929 47.7191C153.832 48.0113 153.768 48.2023 153.703 48.3961C153.639 48.5899 153.575 48.7809 153.51 49.1705" stroke="#FF702D" stroke-width="6.35339" stroke-linecap="round"/>
<path d="M95.4542 43.5771C95.1996 46.505 95.0685 48.2042 95.0367 48.6526C95.0048 48.9101 94.9412 49.2284 94.8766 49.4878C94.812 49.7472 94.7483 49.9381 94.4899 50.3278" stroke="#FF702D" stroke-width="6.35339" stroke-linecap="round"/>
<path d="M44.5356 43.3843C43.3899 45.421 42.7361 46.6612 42.6396 47.046C42.6068 47.4308 42.4795 47.8185 42.2548 48.2032C42.1574 48.3971 42.0938 48.588 41.8353 48.7848" stroke="#FF702D" stroke-width="6.35339" stroke-linecap="round"/>
<path d="M28.1414 46.6632C28.0777 46.6632 28.0141 46.6632 27.8858 46.886C27.7576 47.1087 27.5666 47.5543 27.4364 47.8793C27.3062 48.2043 27.2426 48.3952 27.177 48.9777" stroke="#FF702D" stroke-width="6.35339" stroke-linecap="round"/>
<path d="M73.2739 50.9064V51.8707" stroke="#FF702D" stroke-width="6.35339" stroke-linecap="round"/>
<path d="M178.198 44.3486L178.005 44.9273" stroke="#FF702D" stroke-width="6.35339" stroke-linecap="round"/>
<path d="M119.671 142.444C119.749 142.56 119.846 142.639 119.983 142.668C120.06 142.685 120.157 142.678 120.217 142.649C120.276 142.62 120.296 142.562 120.296 142.503C120.296 142.444 120.277 142.386 120.238 142.347C120.199 142.307 120.141 142.288 120.023 142.268" stroke="#3FA9F5" stroke-width="6.35339" stroke-linecap="round"/>
<path d="M96.29 108.525C96.1685 108.321 95.6789 108.156 95.0857 108.055C94.5772 107.967 92.5452 107.911 90.7126 107.809C90.2839 107.785 89.6764 107.788 89.2825 107.768C88.8887 107.748 88.7267 107.707 82.7113 107.687C76.6959 107.666 64.8319 107.666 58.6189 107.767C52.406 107.868 52.2035 108.071 52.0385 108.317C51.3346 109.366 51.0967 110.444 50.7078 112.85C50.5296 113.953 50.4415 114.858 50.298 115.679C50.1564 116.489 50.1544 117.15 50.0526 117.928C49.8555 119.432 49.909 121.31 50.0108 122.571C50.0753 123.37 50.1544 123.941 50.2562 124.474C50.3492 124.96 50.3998 125.455 50.5219 125.946C50.6468 126.449 50.8489 126.927 51.0127 127.419C51.1765 127.91 51.4207 128.4 51.8704 128.871C52.2708 129.29 52.8514 129.342 53.4851 129.486C54.1871 129.645 54.6919 129.629 55.4477 129.731C56.2829 129.844 57.6686 129.875 59.4091 129.976C61.7359 130.113 63.4454 130.038 65.1687 130.099C66.7292 130.155 69.686 130.12 71.2694 130.14C72.8529 130.16 72.9743 130.201 74.0492 130.222C77.1481 130.282 79.3965 130.283 80.0671 130.345C82.4138 130.559 84.0469 130.243 85.9322 130.141C90.5155 129.893 91.0924 129.997 91.6255 129.875C92.168 129.751 92.8912 129.548 93.6084 129.384C94.3957 129.205 95.0605 129.099 95.552 128.975C96.0604 128.847 96.2066 128.159 96.5139 127.566C96.782 127.048 96.8618 126.36 96.9237 125.807C96.9961 125.161 97.1489 124.601 97.2507 123.987C97.3519 123.378 97.4753 122.802 97.5373 121.862C97.6047 120.838 97.7207 119.366 97.7422 116.898C97.7506 115.924 97.5587 115.195 97.4968 114.458C97.4446 113.837 97.3133 113.19 97.2514 112.495C97.1489 111.921 97.0679 111.349 97.006 110.654C96.9857 110.489 96.9452 110.368 96.9035 109.997" stroke="#3FA9F5" stroke-width="3.88907" stroke-linecap="round"/>
<path d="M58.1449 121.857C58.1449 121.834 58.1449 121.811 58.636 121.137C59.1271 120.463 60.1092 119.138 60.638 118.421C61.3053 117.497 61.4437 117.289 61.5357 117.151C61.5821 117.082 61.6278 117.013 61.6749 116.943" stroke="#3FA9F5" stroke-width="3.88907" stroke-linecap="round"/>
<path d="M64.6512 124.418C64.9939 123.824 65.3365 123.23 66.2439 121.931C67.1513 120.631 68.6131 118.644 69.4233 117.563C70.5655 116.039 71.0176 115.56 71.2488 115.248C71.4094 115.007 71.5492 114.798 71.6298 114.66C71.6648 114.59 71.6876 114.522 71.7804 114.382" stroke="#3FA9F5" stroke-width="3.88907" stroke-linecap="round"/>
<path d="M73.9952 123.31C74.3835 122.762 74.7718 122.214 75.4058 121.441C76.0398 120.667 76.9078 119.685 77.3778 119.145C77.8934 118.536 78.009 118.351 78.1357 118.144C78.1938 118.051 78.2395 117.982 78.3558 117.773" stroke="#3FA9F5" stroke-width="3.88907" stroke-linecap="round"/>
<path d="M82.3009 123.864C82.4379 123.567 82.575 123.27 83.0339 122.501C83.4928 121.731 84.2694 120.497 85.0692 119.371C85.8689 118.244 86.6684 117.262 87.1716 116.665C87.8408 115.871 88.434 115.217 89.0795 114.433C89.3366 114.129 89.4508 114.015 89.5439 113.91C89.637 113.806 89.7055 113.714 89.8453 113.482" stroke="#3FA9F5" stroke-width="3.88907" stroke-linecap="round"/>
</svg>
