<svg width="240" height="327" viewBox="0 0 240 327" fill="none" xmlns="http://www.w3.org/2000/svg">
<path d="M137.025 20.4182C137.025 20.5806 137.025 20.7861 137.071 20.8285C137.885 21.5858 138.22 18.2945 139.968 15.3433C140.79 13.9553 141.4 13.1218 142.046 12.2599C142.449 11.7229 142.831 11.3143 143.061 11.1906C143.141 11.1477 143.2 11.3106 143.246 12.9569C143.292 14.6032 143.338 17.7703 143.339 19.544C143.34 22.0584 143.155 22.7929 143.154 23.5342C143.152 24.5176 143.753 21.7766 144.419 20.158C144.581 19.7645 144.674 19.4806 145.314 18.177C145.954 16.8733 147.14 14.5589 147.774 13.4479C148.408 12.3368 148.454 12.4992 148.477 13.2325C148.542 15.2645 148.455 16.9693 148.386 18.0306C148.275 19.7387 148.317 21.0715 148.248 22.3143C148.104 24.8939 148.27 26.4079 148.407 26.04C148.74 25.1496 149.645 23.6296 150.365 22.3087C151 21.1423 151.219 20.7885 151.403 20.5431C151.495 20.4194 151.586 20.2976 151.497 23.0162C151.407 25.7348 151.133 31.2976 150.992 34.082C150.851 36.8665 150.851 36.7041 151.011 36.1331C151.446 34.5775 151.956 33.2995 152.3 32.4831C152.522 31.9557 152.781 31.1795 153.31 30.0106C155.402 25.3868 155.736 24.6853 155.828 24.5407C156.185 23.9794 155.738 27.1289 155.187 30.2991C154.904 31.9321 154.454 33.5911 154.151 34.6923C153.515 37.0052 153.294 37.5198 153.179 37.6232C152.724 38.0331 152.787 36.3768 152.672 35.8003C152.453 34.7004 151.73 32.3213 151.405 31.6359C151.114 31.0236 150.533 33.7387 150.092 34.6474C149.47 35.5917 148.736 36.3275 147.744 36.9655C147.534 37.0695 147.397 37.1101 147.256 37.1519" stroke="#FF702D" stroke-width="3.7861" stroke-linecap="round"/>
<path d="M132.337 33.422C131.983 34.7047 131.215 36.8836 131.365 36.4057C131.994 34.4122 132.742 32.5493 133.15 31.7424C133.772 30.5127 134.375 28.9035 134.606 28.366C134.948 27.5719 134.479 30.1391 133.844 34.3978C133.619 35.909 133.561 36.4666 133.612 36.7679C133.809 37.946 135.597 33.9816 136.364 32.872C137.14 31.7509 137.793 31.1156 138.226 30.7008C138.414 30.5206 138.508 30.3773 138.56 30.8781C138.885 34.0052 138.459 35.1258 138.332 36.371C138.285 36.831 138.306 37.4723 138.306 37.6877C138.306 37.6745 138.407 37.2562 138.585 36.9106C138.663 36.7478 138.713 36.6107 138.918 36.1923" stroke="#FF702D" stroke-width="3.7861" stroke-linecap="round"/>
<path d="M126.614 30.1154L129.952 26.7518C130.647 26.0235 133.377 25.0378 133.377 25.0378C133.377 25.0378 135.951 24.053 136.833 23.9766C137.682 23.9031 138.472 23.6991 139.129 23.8745C139.819 24.0588 140.338 24.6551 140.944 25.059C141.608 25.5014 142.704 26.5158 143.466 27.3274C143.93 27.8214 144.072 28.5369 144.399 29.1677C144.797 29.9332 144.728 31.1055 144.854 32.3898C145.171 35.6329 144.629 36.2519 144.427 36.9833C144.225 37.6149 144.073 38.0687 143.948 38.3705C143.872 38.5226 143.772 38.6723 143.669 38.8266" stroke="#500311" stroke-width="4.81098" stroke-linecap="round"/>
<path d="M97.503 22.7517C97.503 22.8399 97.4593 24.8267 97.3714 27.8564C97.3346 29.1238 97.2384 29.5236 97.2821 29.7917C97.2925 29.8557 97.413 29.7068 98.2218 27.9179C99.0306 26.129 100.558 22.6875 101.498 20.6278C102.438 18.5681 102.743 17.9946 102.966 17.6108C103.189 17.2271 103.32 17.0506 103.235 19.0996C103.149 21.1486 102.844 25.4284 102.664 27.7434C102.468 30.2813 102.397 30.9476 102.397 31.5058C102.397 32.0591 102.965 29.3592 104.305 25.4758C105.202 22.874 107.034 18.0801 108.021 15.4703C109.327 12.0177 109.494 11.2105 109.626 11.1858C109.78 11.157 109.671 11.8229 109.06 15.8232C108.449 19.8236 107.227 27.3243 106.597 31.475C105.968 35.6258 105.968 36.1994 106.011 36.4287C106.055 36.658 106.142 36.5256 106.209 36.3471C106.484 35.6129 106.54 35.0108 107.85 30.7704C109.07 26.8237 111.605 19.2941 112.865 16.0031C114.124 12.712 114.081 13.9033 113.513 18.6644C112.945 23.4255 111.853 31.7204 111.291 36.2361C110.729 40.7519 110.729 41.2372 110.751 41.3328C110.912 42.0392 111.037 39.9577 111.584 38.0338C112.046 36.4063 113.046 33.5066 113.65 31.7859C114.416 29.603 114.915 28.5516 115.464 27.1525C116.148 25.4087 116.768 24.3574 116.922 24.2892C117.007 24.2519 117.033 24.6181 117.055 26.7179C117.078 28.8177 117.078 32.7445 117.121 34.6792C117.165 36.6138 117.252 36.4374 117.428 35.839C118.271 32.9736 118.488 32.1589 118.774 31.5546C119.206 30.6439 119.017 34.0655 119.105 36.912C119.178 39.2479 119.37 39.9978 119.458 40.0881C119.546 39.8254 119.634 39.4657 119.744 39.1769C119.81 39.0205 119.898 38.844 119.988 38.6621" stroke="#FF702D" stroke-width="3.7861" stroke-linecap="round"/>
<path d="M133.97 72.1424C131.47 76.3847 128.271 81.3727 126.399 84.2548C125.63 85.4385 125.029 86.3527 124.548 87.0812C122.958 89.6432 122.646 90.0468 122.676 89.9945C123.057 89.3256 123.535 88.6151 124.548 87.0812C124.845 86.6033 125.186 86.0503 125.577 85.4111C127.64 82.0451 131.515 75.9822 133.97 72.1424Z" fill="#3FA9F5"/>
<path d="M104.193 69.033C103.998 69.6269 102.643 72.5363 101.342 75.4381C100.178 78.0334 99.1648 79.7561 99.1641 79.8715C99.1575 80.9022 100.965 77.4723 103.616 74.4578C104.833 73.0734 106.935 71.1806 107.957 70.289C108.978 69.3973 108.93 69.6242 108.422 70.8073C107.913 71.9904 106.947 74.123 105.965 76.1063C104.092 79.8925 102.925 81.8184 102.754 82.0927C102.671 82.2263 102.632 82.367 102.752 82.301C103.223 82.0422 103.557 81.5008 104.26 80.4772C104.846 79.623 105.977 78.1378 107.782 76.0279C109.588 73.9181 112.053 71.2411 112.936 70.7014C113.957 70.0775 112.007 73.9332 111.52 74.7554C110.949 75.7194 110.301 77.0461 109.448 78.3956C108.279 80.2446 107.711 81.4018 107.537 81.9339C107.172 83.0472 109.413 79.5787 111.041 77.3891C112.043 76.0414 113.968 73.7545 115.036 72.4717C116.592 70.602 117.081 70.0889 117.276 69.95C117.992 69.4421 116.161 72.6394 114.484 76.0864C113.481 78.1471 111.985 80.7584 110.924 82.5905C108.583 86.6324 108.198 87.1807 108.148 87.2962C107.792 88.1201 109.56 85.3561 110.609 83.8423C110.891 83.4355 111.121 82.9748 113.131 80.1548C115.14 77.3348 118.91 72.1623 120.877 69.4296C122.843 66.697 122.891 66.5608 122.916 66.6268C123.252 67.5158 122.405 68.571 121.63 70.4368C120.999 71.9574 119.695 74.5712 118.589 76.6755C117.482 78.7799 116.564 80.2772 115.994 81.2527C114.43 83.9299 113.372 85.9432 113.396 86.0814C113.443 86.3606 114.343 84.9904 116.671 81.6658C118.453 79.1192 121.705 74.9837 123.469 72.7198C125.433 70.1998 125.821 69.8139 126.04 69.4709C126.148 69.3009 126.307 69.1732 125.922 70.2374C125.538 71.3016 124.62 73.5702 123.059 76.7126C121.498 79.855 119.323 83.8025 118.13 86.0402C116.937 88.2779 116.792 88.6862 116.838 88.7832C116.885 88.8801 117.126 88.6532 120.392 84.4982C123.659 80.3431 129.942 72.2668 133.566 67.6979C137.189 63.129 137.963 62.3123 138.482 61.7328C139.001 61.1532 139.243 60.8356 139.464 60.5813C139.685 60.3269 139.879 60.1454 139.35 61.5265C138.821 62.9076 137.564 65.8569 134.984 70.3935C132.403 74.93 128.536 80.9646 126.399 84.2548C124.012 87.9308 123.238 89.008 122.676 89.9945C122.641 90.0566 123.086 89.4768 125.577 85.4111C127.887 81.6428 132.467 74.4942 134.784 70.8692C137.1 67.2442 137.052 67.3803 134.417 72.0331C131.782 76.6858 126.562 85.8511 123.824 90.6861C121.087 95.521 120.99 95.7479 121.013 95.8421C121.052 96.0028 121.62 95.4811 122.18 94.727C122.464 94.3446 122.692 93.9275 125.982 89.3159C129.273 84.7044 135.605 75.9021 138.915 71.2995C142.225 66.697 142.322 66.5608 142.347 66.6268C142.471 66.9452 142.033 67.79 141.498 69.1141C141.185 69.8872 140.866 70.8919 137.84 76.4198C134.814 81.9477 129.11 91.9751 126.269 97.0499C123.427 102.125 123.621 101.943 123.865 101.668C124.11 101.393 124.4 101.03 128.44 94.8995C132.481 88.7687 140.262 76.8811 144.223 71.0067C148.183 65.1323 148.087 65.6314 146.708 68.8377C145.329 72.0441 142.67 77.9425 139.802 83.6127C136.935 89.2829 131.116 97.9899 129.5 100.905C127.884 103.821 130.56 100.786 134.111 95.211C137.661 89.6363 144.911 78.0663 148.646 72.174C152.381 66.2817 152.381 66.4178 151.487 68.6432C150.593 70.8685 148.804 75.1789 145.805 80.9839C142.805 86.7888 138.648 93.9577 136.459 97.7869C134.269 101.616 131.453 105.833 131.5 105.905C131.547 105.978 134.459 101.897 137.942 96.2683C141.425 90.64 148.192 79.5237 151.654 73.9786C155.116 68.4335 155.067 68.7965 151.321 76.0389C147.574 83.2814 140.131 97.3923 136.296 104.73C132.461 112.067 132.461 112.203 132.534 112.182C132.606 112.162 132.751 111.98 135.509 107.826C138.266 103.672 143.631 95.5499 146.661 91.0484C149.691 86.5468 150.222 85.9116 151.076 84.6996C151.93 83.4876 153.09 81.7181 153.688 80.8746C154.285 80.031 154.285 80.1672 151.409 86.5668C148.533 92.9664 144.223 98.9054 142.347 105.905C140.949 111.124 137.271 119.268 138.915 116.905C142.01 112.457 149.379 100.788 152.564 96.1177C155.748 91.4471 155.893 91.1749 155.944 91.2388C155.995 91.3027 155.946 91.7111 154.375 95.2336C152.803 98.7562 149.71 105.381 148.092 108.884C146.474 112.387 144.151 115.925 144.223 115.905C144.295 115.885 146.763 112.302 147.877 110.62C148.992 108.938 151.022 105.807 152.213 104.013C153.404 102.218 153.694 101.855 153.843 101.759C153.987 101.666 153.896 102.394 153.435 103.874C152.503 106.869 151.795 108.905 151.795 109.02C151.795 108.999 151.795 108.818 151.819 108.656C151.844 108.495 151.892 108.359 152.088 107.944" stroke="#3FA9F5" stroke-width="3.7861" stroke-linecap="round"/>
<path d="M96.7026 47.3638C96.4145 48.2281 96.1264 49.0924 95.2818 50.9781C94.4372 52.8638 93.0447 55.7447 92.3034 57.3008C91.5621 58.8569 91.5141 59.001 91.4413 59.1472C91.3686 59.2934 91.2725 59.4375 92.3274 57.6871C93.3823 55.9367 95.591 52.2876 96.7288 50.4797C97.8666 48.6719 97.8666 48.8159 97.8426 49.0342C97.7867 49.5425 97.289 51.1818 95.794 55.1394C94.7971 57.7785 93.0506 61.5938 92.1368 63.6447C91.1535 65.8515 90.9801 66.132 91.0034 66.1102C91.5123 65.633 91.6567 64.6813 92.1877 63.7887C93.0692 62.3072 93.8857 60.7557 94.5638 59.6667C94.8762 59.1648 95.0497 58.7216 96.5891 56.2903C98.1285 53.859 101.009 49.4416 102.542 47.0939C104.074 44.7463 104.17 44.6022 104.219 44.624C104.269 44.6459 104.269 44.8379 103.62 46.8575C102.972 48.877 101.676 52.7183 100.624 55.5613C99.5719 58.4044 98.8037 60.133 98.3119 61.1675C97.6726 62.5122 97.2861 63.2671 97.0198 64.0666C96.9118 64.391 96.8016 64.53 98.6727 61.6033C100.544 58.6765 104.385 52.6746 106.508 49.3906C108.631 46.1067 108.919 45.7226 109.067 45.6207C109.216 45.5189 109.216 45.7109 108.519 47.4904C107.823 49.2699 106.431 52.631 105.017 55.7068C103.604 58.7827 102.211 61.4716 101.47 62.9288C100.729 64.386 100.681 64.53 100.608 64.7003C100.535 64.8705 100.439 65.0626 101.638 63.3369C102.837 61.6113 105.334 57.9621 106.812 55.8662C108.622 53.3002 109.358 52.4607 110.491 50.9417C112.641 48.0589 114.355 46.1532 114.598 46.1503C114.794 46.148 114.553 46.9157 113.783 49.0131C113.013 51.1105 111.573 54.7116 109.918 58.2473C108.264 61.783 106.44 65.144 105.476 66.9475C104.512 68.751 104.464 68.8951 104.655 68.5611C104.846 68.2272 105.278 67.4109 107.83 63.7494C110.381 60.0879 115.039 53.6058 117.51 50.1945C119.981 46.7833 120.125 46.6392 120.2 46.661C120.274 46.6829 120.274 46.8749 119.578 48.7024C118.881 50.5299 117.489 53.987 115.883 57.4725C114.278 60.958 112.501 64.3671 111.562 66.2193C110.535 68.244 110.429 68.6535 110.356 68.8485C110.348 68.8698 110.522 68.6593 113.117 64.9593C115.712 61.2592 120.754 54.0569 123.375 50.2746C125.996 46.4923 126.044 46.3482 126.069 46.3941C126.094 46.4399 126.094 46.68 125.662 47.956C125.23 49.232 124.365 51.5368 122.672 55.1488C120.978 58.7609 118.481 63.6105 117.147 66.1807C115.813 68.751 115.717 68.8951 115.763 68.8492C115.81 68.8034 116.002 68.5633 117.253 66.6391C118.505 64.7148 120.809 61.1137 122.957 57.9861C125.104 54.8586 127.025 52.3138 128.158 50.8587C129.541 49.0843 130.165 48.4347 130.625 47.9487C130.789 47.7758 130.127 50.6856 128.843 54.6119C128.205 56.5641 127.312 58.1673 126.391 60.1781C125.189 62.8063 123.673 65.2546 122.968 66.5896C122.829 66.8519 122.797 67.0035 122.748 67.1498C122.699 67.296 122.651 67.44 123.107 66.65C123.562 65.8599 124.522 64.1313 126.794 60.7681C129.065 57.4048 132.618 52.4593 134.497 49.8155C136.375 47.1718 136.471 46.9797 136.52 47.0248C136.57 47.0699 136.57 47.358 135.874 49.1869C135.177 51.0159 133.785 54.377 132.804 56.5886C131.379 59.7995 130.558 61.2301 130.171 62.1256C129.835 62.9016 129.298 63.9437 128.933 64.9629C128.829 65.2535 129.001 65.1178 129.147 64.9476C129.293 64.7774 129.437 64.5853 131.648 61.5814C133.859 58.5776 138.133 52.7677 140.43 49.6787C142.888 46.374 143.261 46.0077 143.456 45.8848C143.528 45.8391 143.458 46.29 141.873 49.7762C140.287 53.2624 137.166 59.8885 135.535 63.374C133.903 66.8595 133.855 67.0035 133.878 67.0057C134.558 67.0694 134.917 65.3623 137.831 61.0278C140.093 57.6616 144.628 51.4669 146.928 48.3474C149.228 45.2279 149.228 45.4199 149.18 45.6389C149.077 46.1089 148.841 46.7294 148.216 48.5358C147.719 49.9699 146.726 52.4069 146.111 53.8604C145.496 55.314 145.256 55.6981 144.701 56.7843C143.245 59.6291 142.15 62.1496 141.882 63.0241C141.828 63.2014 142.34 62.4013 144.191 59.5648C145.902 56.9403 149.354 52.0228 151.566 48.8989C153.778 45.7749 154.691 44.6226 155.185 44.149C155.679 43.6754 155.727 43.9154 155.679 44.3752C155.632 44.835 155.488 45.5072 154.405 48.5184C153.323 51.5295 151.306 56.8592 150.219 59.7008C149.132 62.5425 149.036 62.7345 148.963 62.9055C148.889 63.0765 148.841 63.2205 150.401 61.014C151.961 58.8075 155.13 54.246 157.363 51.1759C159.595 48.1059 160.796 46.6654 161.414 46.1154C162.033 45.5654 162.033 45.9495 161.985 46.2675C161.937 46.5854 161.841 46.8255 161.503 48.0535C161.165 49.2815 160.589 51.4902 159.74 54.1165C158.891 56.7428 157.787 59.7198 157.17 61.3494C156.477 63.1789 156.31 63.513 156.309 63.6352C156.308 63.9222 157.129 62.2631 158.097 60.472C159.585 57.7173 160.863 56.2947 161.882 54.8156C162.283 54.2344 163.037 53.4428 163.408 53.2384C163.779 53.034 163.779 53.4661 163.755 53.7848C163.683 54.2955 163.345 55.4537 162.884 57.0287C162.712 57.6435 162.664 57.8835 162.469 58.4219" stroke="#3FA9F5" stroke-width="3.7861" stroke-linecap="round"/>
<path d="M88 43.9703C88 45.2712 88.0998 47.5979 88.1762 48.8315C88.2498 50.0197 88.4024 51.7307 88.5037 52.8403C88.6524 54.468 88.8562 55.4642 88.9326 56.4717C89.0998 58.6761 89.1588 62.1203 89.3607 62.8767C89.5631 63.6345 89.7639 64.2382 90.3924 64.9446C90.8913 65.5053 91.6276 65.5512 92.2335 65.7532C92.9298 65.9853 93.9451 66.1564 95.0305 66.2327C95.2605 66.2489 95.4095 66.3076 98.2073 66.3333C101.005 66.3591 106.447 66.3591 109.35 66.3341C113.109 66.3018 114.419 66.1079 115.854 66.0315C116.39 66.0031 117.689 65.9052 119.503 65.8803C120.219 65.8704 120.518 65.8054 125.34 65.7797C130.162 65.754 139.497 65.754 144.406 65.729C149.315 65.704 149.515 65.6541 150.841 65.6284C154.612 65.5553 157.283 65.5528 157.934 65.4771C160.294 65.2031 162.509 65.3001 163.963 65.1496C164.351 65.1095 164.745 64.9976 165.123 64.9227C165.894 64.7697 166.107 63.7904 166.511 63.059C167.011 62.1522 167.468 60.7165 167.722 59.6061C167.938 58.6594 167.973 57.7394 168 52.6134C168.008 51.0716 167.622 50.1786 167.445 49.243C167.281 48.371 167.169 47.7552 166.992 46.8732C166.837 46.1014 166.715 45.3862 166.638 44.3273C166.579 43.5011 166.361 43.0142 166.336 42.6368C166.237 41.1365 161.977 42.0551 160.743 41.9787C160.307 41.9517 159.859 41.8025 158.706 41.7268C156.46 41.5794 154.766 41.6512 152.715 41.5756C150.915 41.5092 147.569 41.5499 145.697 41.5748C142.913 41.6119 141.909 41.801 140.724 41.978C139.895 42.1019 138.487 42.155 136.994 42.2805C135.623 42.3959 134.495 42.3561 133.417 42.4318C131.198 42.5877 129.203 42.5573 128.071 42.7086C126.039 42.9804 123.919 42.9113 122.02 43.0369C118.768 43.2518 117.257 43.2139 114.84 43.3394C111.594 43.5081 109.331 43.4151 108.081 43.4907C104.939 43.6808 102.625 43.5664 101.025 43.642C99.6254 43.7081 97.0281 43.6677 95.616 43.6427C92.6018 43.5164 89.8168 43.5664 89.4401 43.642C89.2132 43.6677 88.9137 43.6677 88.4538 43.819" stroke="#500311" stroke-width="4.81098" stroke-linecap="round"/>
<path d="M157.89 67.418C157.939 67.9701 158.041 69.4753 158.191 70.6167C158.347 71.7999 158.443 73.112 158.52 74.6731C158.591 76.1382 158.696 77.7531 158.771 81.1757C158.843 84.398 158.797 90.6388 158.772 93.9283C158.747 97.2178 158.697 97.3675 158.672 98.4681C158.545 103.873 158.495 104.977 158.369 105.89C158.252 106.743 158.192 107.452 158.066 108.184C157.9 109.157 157.79 109.872 157.713 110.906C157.658 111.648 157.487 112.344 157.285 112.95C157.185 113.251 157.083 113.556 156.933 113.832C156.598 114.449 155.775 114.565 155.169 114.766C154.472 114.999 153.557 115.17 152.624 115.246" stroke="#500311" stroke-width="4.81098" stroke-linecap="round"/>
<path d="M126.028 26.4026C126.263 26.2562 128.676 23.1044 129.101 22.365C129.618 21.4654 130.514 20.6909 131.648 19.1632C132.65 17.813 134.898 15.1274 135.639 14.0582C136.169 13.2927 136.606 12.7523 137.125 12.0373C137.601 11.3818 138.583 10.3418 139.485 9.4981C140.182 8.84588 140.854 7.87209 141.585 7.03431C142.428 6.06773 143.732 4.66887 144.37 4.14905C145.089 3.56385 145.762 3.18704 146.33 2.86687C146.863 2.56599 147.836 2.54522 148.689 2.42247C148.924 2.38869 149.252 2.39733 149.537 2.51934C150.577 2.96402 150.767 3.87324 151.309 4.58753C152.117 5.65199 152.276 6.68012 152.703 7.44765C153.116 8.19204 153.457 8.90138 153.859 9.61641C154.268 10.3446 154.825 10.9718 155.134 11.5641C155.485 12.2365 156.1 13.1871 156.549 14.0774C157.117 15.201 157.847 16.4436 158.108 17.1586C158.36 17.8497 158.603 18.514 158.91 19.229C159.167 19.828 159.311 20.4365 159.501 21.0532C159.717 21.7603 159.784 22.4566 159.925 23.0992C160.066 23.7407 160.161 24.4295 160.233 25.7582C160.304 27.0906 160.444 28.866 160.469 31.6677C160.479 32.7683 160.257 33.5481 159.951 34.1907C159.681 34.757 159.549 35.373 159.36 35.9653C159.171 36.5576 158.796 37.1477 158.229 37.7644C157.592 38.4574 156.955 38.9726 155.918 39.7357C155.283 40.2027 154.689 40.3539 154.122 40.674C153.98 40.7487 153.84 40.7975 153.697 40.8715C153.555 40.9454 153.415 41.043 152.987 41.2915" stroke="#500311" stroke-width="4.81098" stroke-linecap="round"/>
<path d="M105.571 43.3651C105.32 43.0142 104.818 42.4091 103.936 41.6035C103.152 40.8876 102.298 40.3426 101.364 39.6362C100.498 38.9808 99.5233 38.4759 98.8925 38.047C98.0195 37.4535 97.0031 36.7635 96.3458 36.3822C95.728 36.0239 95.1363 35.6017 94.4049 35.0722C93.7943 34.6302 93.321 34.0889 92.7152 33.5594C92.1559 33.0707 91.5057 32.7274 90.6488 31.9468C90.0466 31.3984 89.4877 30.9636 88.9083 30.4583C88.7328 30.3053 88.5317 30.1073 88.4288 29.9046C88.085 29.2271 88.6769 28.4433 89.1057 27.7111C89.6834 26.7249 90.1896 26.1227 90.5935 25.5169C91.0359 24.8533 91.5511 24.1561 92.2311 23.4247C92.8412 22.7685 93.8142 21.5391 94.5517 20.6761C95.0966 20.0383 95.7354 19.3668 96.693 18.3328C97.2658 17.7143 97.7534 17.1975 99.2874 15.5871C100.069 14.7671 100.528 14.0207 101.131 13.2893C101.627 12.6887 101.989 12.0541 102.619 11.3227C103.072 10.7967 103.502 10.2388 103.931 9.65789C104.355 9.08274 105.263 8.27523 106.776 6.76172C107.536 6.00156 108.14 5.59765 108.746 5.3957C109.352 5.19374 111.054 5.09239 112.225 5.39343C112.958 5.58181 113.435 6.55069 113.89 7.23294C114.354 7.92846 114.596 8.5687 114.924 9.17456C115.232 9.74392 115.453 10.384 115.706 10.9899C115.952 11.5791 116.109 12.1993 116.437 12.8052C116.754 13.3914 117.017 14.0146 117.369 14.746C117.684 15.3983 118.024 15.9812 118.403 16.5871C118.781 17.1908 119.083 17.9478 119.462 18.5537C119.816 19.1187 120.042 19.7631 120.445 20.4938C121.207 21.8777 121.703 23.3393 122.662 25.8323C123.37 27.6736 123.773 28.3344 124.026 29.1672C124.326 30.1519 124.732 31.0573 124.959 31.8652C125.182 32.6603 125.488 33.2266 125.69 33.983C125.893 34.7408 126.093 35.3445 126.32 36.1009C126.558 36.892 126.85 37.5622 127.052 38.2444C127.152 38.6211 127.254 38.9766 127.354 39.2784C127.405 39.4305 127.455 39.5802 127.506 40.0371" stroke="#500311" stroke-width="4.81098" stroke-linecap="round"/>
<ellipse opacity="0.08" cx="181" cy="308.905" rx="59" ry="17.5" fill="#1B1B1B"/>
<ellipse opacity="0.08" cx="46" cy="311.905" rx="46" ry="14.5" fill="#1B1B1B"/>
<path d="M91 64.4053L94 56.4053C94 52.0053 99 62.9053 101.5 68.9053C102.7 63.7053 112.667 75.4053 117.5 81.9053C117.5 95.9053 134.833 120.739 143.5 131.405C148.3 102.605 171.167 93.7387 182 92.9053C223.2 82.9053 223.833 122.072 219 142.905C218.6 148.505 206.5 161.572 200.5 167.405L229.5 272.405L133.584 301.081C133.719 303.985 132.949 302.601 132.5 301.405L133.584 301.081C133.569 300.748 133.541 300.358 133.5 299.905C133.1 295.505 145.333 290.405 151.5 288.405L141 226.905L130.5 167.405L105.5 116.405C95.9 104.805 91.8333 76.9053 91 64.4053Z" fill="#FFFAF4"/>
<path d="M146.5 311.405C132.9 311.805 132.833 304.905 134.5 301.405L164.5 286.905L200.5 293.405V306.405C198.9 310.405 163.833 311.405 146.5 311.405Z" fill="#FFFAF4"/>
<path d="M152.006 287.988C152.075 286.983 151.536 284.551 150.355 279.096C149.075 273.183 149.574 269.963 149.069 265.576C148.906 264.156 148.899 263.2 147.928 259.247C147.069 255.75 145.285 249.274 144.222 245.23C142.792 239.79 142.413 237.532 142.212 235.948C141.386 229.466 139.242 219.77 138.766 217.266C138.274 214.672 137.754 211.866 136.91 207.848C136.132 204.146 135.995 199.904 135.255 195.186C134.62 191.132 134.442 189.094 134.34 187.303C134.226 185.3 133.834 182.747 133.497 180.313C133.103 177.469 132.079 175.515 131.706 173.892C131.605 173.485 131.471 173.083 131.269 172.609C131.066 172.135 129.181 165.767 128.5 164.405" stroke="#500311" stroke-width="4" stroke-linecap="round"/>
<path d="M90.9545 57.3934C90.8061 57.9491 90.6577 58.9132 90.3051 60.6037C89.6936 63.5354 90.1355 67.32 90.4686 69.9869C91.2825 76.5039 92.5145 79.6301 92.7762 80.8402C92.9187 81.4996 93.9952 85.4392 95.4269 91.0174C96.3102 94.4594 97.239 97.0374 97.648 98.0807C98.2701 99.6679 98.9864 101.242 99.4701 102.32C99.8024 103.061 100.103 103.809 100.326 104.422C100.514 104.938 101.988 108.024 104.052 112.523C104.797 114.147 104.9 114.445 105.804 116.235C108.371 121.319 110.221 124.9 110.406 125.345C110.841 126.39 111.593 127.906 113.742 132.924C114.872 135.563 116.657 139.879 117.642 142.264C119.04 145.652 119.703 147.137 120.281 148.239C120.796 149.222 121.228 150.449 122.121 152.16C122.772 153.407 123.31 154.798 126.018 159.697C127.439 162.266 127.999 163.357 128.538 164.381C129.041 165.589 129.944 166.694 130 167.905C130.018 168.186 131.462 172.305 131.5 172.905" stroke="#500311" stroke-width="4" stroke-linecap="round"/>
<path d="M91.1783 57.5545C92.1593 56.691 93.2583 55.9054 94.2835 55.4701C94.4747 55.3889 94.5992 55.3907 94.7666 55.4391C95.6606 55.6977 96.2707 56.7045 97.6943 59.0194C99.0171 61.1702 99.1244 62.3482 99.6925 64.4325C100.078 65.8465 100.533 68.0166 100.823 69.2278C101.29 71.1804 101.663 72.2662 101.998 73.3976C102.236 74.2003 102.372 75.0804 102.617 76.0911C103.224 78.5925 103.199 79.4869 103.375 80.1966C103.552 81.0215 103.828 82.3188 103.966 82.9907C103.986 83.1291 103.986 83.2655 103.986 83.4059" stroke="#500311" stroke-width="4" stroke-linecap="round"/>
<path d="M101.509 68.6342C101.853 68.6342 102.797 68.759 104.999 69.8276C106.086 70.3548 108.111 71.9307 110.846 74.6446C113.028 76.81 113.925 78.7147 115.229 80.8518C116.879 83.5564 117.647 85.6538 117.913 86.3588C119.02 89.2904 119.883 91.7286 120.169 92.8397C120.693 94.8754 122.027 98.0398 122.296 98.9377C123.034 101.406 125.046 105.495 125.81 107.04C126.261 107.951 126.911 109.227 127.826 111.259C128.244 112.187 128.774 112.793 129.571 114.108C131.329 117.005 132.871 118.909 135.105 121.314C137.188 123.558 141.177 127.901 143.843 130.838C147.758 135.15 149.105 136.813 149.403 137.221C150.613 138.761 152.129 140.783 153.009 142.008C153.479 142.666 154.291 143.79 155.316 145.326" stroke="#500311" stroke-width="4" stroke-linecap="round"/>
<path d="M143.306 129.817C143.556 128.1 144.5 123.65 145.645 120.965C146.307 119.413 147.321 117.561 148.397 115.707C149.473 113.854 150.627 112.075 151.831 110.41C153.034 108.744 154.251 107.246 155.611 105.819C156.972 104.392 158.438 103.082 160.77 101.314C163.101 99.547 166.253 97.3625 168.158 96.0968C170.062 94.8311 170.624 94.5502 172.364 93.9998C174.105 93.4495 177.007 92.6381 179.735 92.0329C182.462 91.4277 184.928 91.0532 188.507 90.8291C192.086 90.605 196.705 90.5426 199.474 90.5884C203.029 90.6473 204.139 91.0447 204.971 91.3738C206.254 91.8814 208.134 93.3057 210.383 95.2235C212.507 97.035 214.22 99.6056 216.106 102.622C217.113 104.232 217.993 106.138 218.756 107.992C219.519 109.846 220.081 111.625 220.495 113.493C220.909 115.361 221.159 117.264 221.256 119.681C221.354 122.097 221.291 124.968 221.212 126.712C221.109 128.991 220.694 131.562 220.315 134.729C220.108 136.464 219.998 137.284 219.607 139.306C219.349 140.638 218.872 143.039 218.288 145.057C217.232 148.704 215.81 150.898 214.976 151.969C214.512 152.564 214.199 152.951 213.557 153.922C212.246 155.907 210.267 158.019 207.787 160.452C204.219 163.954 201.749 166.064 201.324 166.504C201.088 166.726 200.807 166.945 200.584 167.12C200.361 167.295 200.205 167.419 200.045 167.643" stroke="#500311" stroke-width="4" stroke-linecap="round"/>
<path d="M180.862 114.432C180.918 114.325 181.665 113.537 182.782 112.382C183.26 111.888 184.423 110.714 186.227 109.037C187.393 107.953 188.038 107.639 188.526 107.4C188.952 107.192 189.739 107.121 190.427 107.144C190.87 107.158 191.77 107.81 192.537 108.425C193.143 108.911 193.475 109.411 193.696 110.053C193.975 110.864 193.851 111.557 193.678 112.497C193.523 113.337 193.183 114.905 192.81 116.275C192.437 117.645 192.03 118.768 191.717 119.576C190.927 121.41 190.643 121.948 190.348 122.653C190.272 122.824 190.187 122.984 190.009 123.262" stroke="#500311" stroke-width="4" stroke-linecap="round"/>
<path d="M164.416 123.56C164.76 124.02 166.399 124.783 167.702 125.343C169.464 126.1 170.265 125.978 171.137 126.121C171.777 126.226 173.382 126.341 175.975 126.476C178.7 126.572 180.338 126.554 180.721 126.458C180.895 126.419 181.028 126.4 181.338 126.323" stroke="#500311" stroke-width="4" stroke-linecap="round"/>
<path d="M159 66.4054C159.026 66.4847 161.402 67.9285 162.433 70.2569C163.465 72.5853 165.501 77.1605 166.63 79.8347C168.01 83.1059 168.16 84.0092 168.439 85.0041C169.282 88.7639 169.362 89.8289 169.482 91.3848C169.523 92.3589 169.523 93.7077 169.523 95.0973" stroke="#500311" stroke-width="4" stroke-linecap="round"/>
<path d="M215 304.405L226.5 298.905L215 288.405H190L203 302.905L206 304.905L215 304.405Z" fill="#FFFAF4"/>
<path d="M200.162 167.7C200.343 167.915 201.351 173.021 202.425 178.017C202.796 179.742 203.307 182.764 203.746 184.928C204.436 188.329 205.021 189.966 205.365 190.888C205.789 192.024 206.431 194.666 207.374 197.765C207.725 198.92 207.742 199.249 209.089 204.209C210.437 209.169 213.094 218.757 214.516 223.875C216.04 229.355 216.517 230.8 217.115 232.576C217.448 233.566 217.68 234.145 218.364 236.16C220.019 241.036 221.234 244.699 221.542 245.405C221.947 246.333 221.997 247.094 223.326 252.395C224.584 257.408 227.026 267.139 228.302 272.278C229.639 277.662 229.758 278.358 229.922 281.237C230.06 283.682 229.977 288.138 229.959 290.593C229.935 293.959 229.472 295.759 229.072 297.075C228.776 298.048 227.625 298.706 225.434 300.066C223.444 301.3 220.445 302.517 219.101 303.043C218.449 303.278 216.191 303.497 213.671 303.678C211.582 303.752 207.848 303.788 204 303.825" stroke="#500311" stroke-width="4" stroke-linecap="round"/>
<path d="M180.794 210.681C181.584 214.703 182.278 217.816 182.731 219.501C182.904 220.144 182.933 220.361 184.801 226.397C186.669 232.432 190.367 244.282 193.386 255.827C196.404 267.371 198.63 278.251 199.813 284.144C201.11 290.602 201.285 291.884 201.539 293.241C201.649 293.916 201.721 294.562 201.776 297.032C201.831 299.501 201.866 303.774 201.903 308.177" stroke="#500311" stroke-width="4" stroke-linecap="round"/>
<path d="M152.176 288.482C151.672 288.59 150.439 288.952 148.593 289.748C147.531 290.206 145.301 290.906 142.529 291.902C138.747 293.262 135.354 295.912 134.496 297.038C133.693 298.092 133.282 300.369 132.935 302.078C132.539 304.033 133.129 307.55 134.29 309.278C135.072 310.442 136.176 310.749 138.166 311.655C139.621 312.318 141.682 312.564 145.901 312.71C148.969 312.816 153.926 312.569 157.861 312.351C161.796 312.133 164.561 311.846 168.014 311.698C171.467 311.55 175.525 311.55 177.723 311.532C180.137 311.512 181.938 311.19 185.571 310.773C192.866 309.936 194.206 310.353 195.443 310.245C196.36 310.165 198.297 309.596 199.905 308.977C200.376 308.795 200.777 308.577 201.157 308.306C201.357 308.178 201.573 308.07 201.903 307.85" stroke="#500311" stroke-width="4" stroke-linecap="round"/>
<path d="M166.578 98.1303C167.843 97.6496 170.17 96.8119 170.856 96.821C171.35 96.8275 171.822 97.0066 172.299 97.3055C173.632 98.1397 174.246 100.283 174.615 101.592C174.977 102.878 174.296 104.673 173.943 105.92C173.438 107.703 172.547 109.37 171.923 110.325M171.923 110.325C171.426 111.083 170.933 111.749 170.401 112.516C170.274 112.683 172.023 110.216 171.923 110.325ZM171.923 110.325C171.822 110.434 171.609 110.802 171.468 110.998" stroke="#500311" stroke-width="4" stroke-linecap="round"/>
<path d="M33.9788 217.653C33.9829 217.815 33.9881 218.021 33.9435 218.064C33.149 218.842 32.7309 215.56 30.9085 212.654C30.0514 211.288 29.421 210.47 28.7531 209.624C28.3369 209.098 27.9448 208.699 27.7115 208.581C27.6305 208.54 27.5757 208.705 27.571 210.352C27.5664 211.999 27.6009 215.166 27.6451 216.939C27.7077 219.453 27.9104 220.182 27.9306 220.923C27.9573 221.906 27.2876 219.181 26.5805 217.58C26.4086 217.191 26.309 216.909 25.6361 215.622C24.9632 214.335 23.7188 212.052 23.0569 210.957C22.3951 209.862 22.3536 210.026 22.3487 210.759C22.335 212.792 22.4653 214.494 22.5613 215.554C22.7158 217.258 22.7074 218.592 22.8079 219.832C23.0166 222.408 22.8894 223.925 22.7425 223.561C22.3872 222.679 21.4438 221.183 20.691 219.881C20.0262 218.731 19.7991 218.382 19.609 218.142C19.5133 218.02 19.419 217.901 19.5776 220.616C19.7363 223.332 20.1507 228.886 20.3621 231.666C20.5736 234.446 20.5695 234.284 20.3954 233.717C19.921 232.173 19.379 230.908 19.0142 230.101C18.7785 229.579 18.5002 228.81 17.942 227.654C15.7337 223.085 15.3822 222.392 15.2867 222.25C14.9156 221.698 15.4413 224.835 16.0723 227.99C16.3973 229.616 16.8888 231.263 17.2194 232.356C17.9136 234.652 18.1479 235.161 18.2652 235.261C18.7305 235.66 18.6262 234.005 18.7263 233.426C18.9174 232.321 19.5795 229.924 19.8877 229.231C20.163 228.612 20.8123 231.311 21.2762 232.208C21.9221 233.137 22.6746 233.854 23.6824 234.466C23.8945 234.565 24.0323 234.602 24.1744 234.64" stroke="#FF702D" stroke-width="4" stroke-linecap="round"/>
<path d="M38.9949 230.534C39.3808 231.807 40.204 233.966 40.0412 233.492C39.3621 231.515 38.5673 229.672 38.1391 228.876C37.4865 227.662 36.8424 226.069 36.5977 225.537C36.2362 224.752 36.7696 227.306 37.5124 231.548C37.7759 233.053 37.8478 233.609 37.8049 233.911C37.6373 235.094 35.7499 231.176 34.9544 230.086C34.1507 228.985 33.4816 228.366 33.0381 227.963C32.8455 227.787 32.7483 227.646 32.709 228.148C32.4632 231.283 32.9175 232.392 33.076 233.634C33.1345 234.092 33.1299 234.734 33.1353 234.949C33.135 234.936 33.0234 234.521 32.8364 234.18C32.755 234.019 32.701 233.883 32.4854 233.47" stroke="#FF702D" stroke-width="4" stroke-linecap="round"/>
<path d="M44.6323 227.084L41.2101 223.806C40.4969 223.095 37.743 222.179 37.743 222.179C37.743 222.179 35.1442 221.26 34.2606 221.206C33.4102 221.154 32.6158 220.969 31.9631 221.162C31.278 221.363 30.7738 221.972 30.1784 222.392C29.5262 222.851 28.4557 223.892 27.7148 224.723C27.2638 225.229 27.1398 225.947 26.8283 226.586C26.4503 227.362 26.5484 228.532 26.4554 229.819C26.2205 233.069 26.7785 233.674 26.9989 234.4C27.2167 235.026 27.3794 235.476 27.5126 235.775C27.5921 235.925 27.6957 236.072 27.8024 236.224" stroke="#500311" stroke-width="4" stroke-linecap="round"/>
<path d="M73.5473 218.986C73.5496 219.074 73.6435 221.059 73.8081 224.085C73.8769 225.351 73.9831 225.749 73.9463 226.018C73.9375 226.082 73.8132 225.936 72.9594 224.168C72.1056 222.401 70.4914 218.999 69.4999 216.964C68.5083 214.928 68.1884 214.363 67.9559 213.985C67.7234 213.607 67.588 213.434 67.7252 215.48C67.8623 217.526 68.276 221.797 68.5138 224.106C68.7744 226.638 68.8626 227.303 68.8767 227.861C68.8907 228.414 68.2538 225.729 66.8168 221.881C65.8541 219.303 63.9013 214.557 62.8483 211.973C61.4552 208.554 61.2682 207.752 61.1354 207.73C60.9806 207.705 61.1065 208.368 61.8186 212.352C62.5307 216.336 63.9422 223.803 64.6766 227.936C65.411 232.07 65.4255 232.643 65.3877 232.874C65.3499 233.104 65.2593 232.974 65.188 232.797C64.8947 232.07 64.8229 231.47 63.406 227.264C62.0872 223.349 59.3625 215.886 58.0199 212.628C56.6772 209.37 56.751 210.56 57.4393 215.305C58.1277 220.05 59.4284 228.315 60.1046 232.815C60.7808 237.315 60.7931 237.8 60.7737 237.896C60.6304 238.606 60.4527 236.529 59.8579 234.619C59.3548 233.004 58.281 230.13 57.6339 228.426C56.8129 226.263 56.2873 225.224 55.7032 223.84C54.9753 222.114 54.3288 221.078 54.173 221.014C54.0877 220.979 54.071 221.346 54.1016 223.445C54.1323 225.545 54.2316 229.471 54.237 231.406C54.2423 233.341 54.1506 233.167 53.9596 232.573C53.0449 229.73 52.8074 228.921 52.5058 228.324C52.0514 227.425 52.3267 230.84 52.3102 233.688C52.2966 236.025 52.1238 236.78 52.0382 236.872C51.9436 236.612 51.8459 236.254 51.7289 235.968C51.6588 235.814 51.5671 235.64 51.4725 235.46" stroke="#FF702D" stroke-width="4" stroke-linecap="round"/>
<path d="M38.3419 269.283C40.9479 273.461 44.2724 278.367 46.2167 281.2C47.0151 282.364 47.6395 283.263 48.1387 283.979C49.7932 286.5 50.1151 286.896 50.0839 286.844C49.6858 286.185 49.1897 285.487 48.1387 283.979C47.83 283.509 47.4751 282.965 47.0673 282.336C44.9202 279.023 40.8931 273.06 38.3419 269.283C38.037 268.832 37.7531 268.412 37.496 268.031C35.0887 264.466 35.1404 264.601 37.8923 269.185C40.6441 273.77 46.0945 282.8 48.9535 287.564C51.8124 292.329 51.9148 292.553 51.8945 292.648C51.8598 292.809 51.2785 292.302 50.6993 291.562C50.4056 291.187 50.1673 290.776 46.7613 286.249C43.4925 281.905 37.3256 273.773 33.8059 269.131L33.3771 268.566L33.2106 268.346C29.9482 264.044 29.851 263.916 29.8275 263.982C29.7119 264.303 30.171 265.136 30.7397 266.447C31.0717 267.212 31.4165 268.208 34.5814 273.657C37.7464 279.107 43.7018 288.987 46.6707 293.988C49.6397 298.989 49.4419 298.813 49.1904 298.544C48.9389 298.275 48.6398 297.92 44.4456 291.893C40.2515 285.867 32.1713 274.18 28.0634 268.408C23.9555 262.635 24.0648 263.132 25.5245 266.302C26.9842 269.473 29.791 275.302 32.8014 280.898C35.8118 286.494 38.9408 291.679 40.6303 294.553C42.3198 297.427 42.4751 297.831 38.7848 292.348C35.0945 286.865 27.5538 275.482 23.671 269.686C19.7881 263.891 19.7916 264.027 20.7418 266.229C21.692 268.431 23.5889 272.694 26.7345 278.422C29.8801 284.149 34.217 291.21 36.5029 294.983C38.7888 298.755 38.8923 299.025 38.8473 299.098C38.8022 299.172 38.6055 299.04 34.9812 293.502C31.3569 287.964 24.3109 277.022 20.7099 271.567C17.1089 266.111 17.1664 266.472 21.0951 273.618C25.0239 280.763 32.8221 294.681 36.8411 301.919C40.8601 309.157 40.8635 309.293 40.7905 309.274C40.7175 309.256 40.5679 309.078 37.7064 304.994C34.8449 300.911 29.276 292.928 26.1334 288.504C22.9907 284.081 22.4431 283.46 21.5588 282.269C20.6745 281.079 19.4701 279.34 18.8513 278.512C18.2326 277.684 18.236 277.82 21.273 284.144C24.3099 290.469 31.6733 297.45 31.0697 304.516C30.8846 306.683 31.4056 308.517 31.9829 309.782C32.8391 311.658 33.8189 312.285 32.8014 310.899C32.545 310.55 32.2713 310.176 31.9829 309.782C31.4056 308.517 30.8846 306.683 31.0697 304.516C31.6733 297.45 24.3099 290.469 21.273 284.144C18.236 277.82 18.2326 277.684 18.8513 278.512C19.4701 279.34 20.6745 281.079 21.5588 282.269C22.4431 283.46 22.9907 284.081 26.1334 288.504C29.276 292.928 34.8449 300.911 37.7064 304.994C40.5679 309.078 40.7175 309.256 40.7905 309.274C40.8635 309.293 40.8601 309.157 36.8411 301.919C32.8221 294.681 25.0239 280.763 21.0951 273.618C17.1664 266.472 17.1089 266.111 20.7099 271.567C24.3109 277.022 31.3569 287.964 34.9812 293.502C38.6055 299.04 38.8022 299.172 38.8473 299.098C38.8923 299.025 38.7888 298.755 36.5029 294.983C34.217 291.21 29.8801 284.149 26.7345 278.422C23.5889 272.694 21.692 268.431 20.7418 266.229C19.7916 264.027 19.7881 263.891 23.671 269.686C27.5538 275.482 35.0945 286.865 38.7848 292.348C42.4751 297.831 42.3198 297.427 40.6303 294.553C38.9408 291.679 35.8118 286.494 32.8014 280.898C29.791 275.302 26.9842 269.473 25.5245 266.302C24.0648 263.132 23.9555 262.635 28.0634 268.408C32.1713 274.18 40.2515 285.867 44.4456 291.893C48.6398 297.92 48.9389 298.275 49.1904 298.544C49.4419 298.813 49.6397 298.989 46.6707 293.988C43.7018 288.987 37.7464 279.107 34.5814 273.657C31.4165 268.208 31.0717 267.212 30.7397 266.447C30.171 265.136 29.7119 264.303 29.8275 263.982C29.851 263.916 29.9482 264.044 33.2106 268.346L33.3771 268.566L33.8059 269.131C37.3256 273.773 43.4925 281.905 46.7613 286.249C50.1673 290.776 50.4056 291.187 50.6993 291.562C51.2785 292.302 51.8598 292.809 51.8945 292.648C51.9148 292.553 51.8124 292.329 48.9535 287.564C46.0945 282.8 40.6441 273.77 37.8923 269.185C35.1404 264.601 35.0887 264.466 37.496 268.031C37.7531 268.412 38.037 268.832 38.3419 269.283Z" fill="#3FA9F5"/>
<path d="M68.0304 265.421C68.2402 266.01 69.6682 268.884 71.0426 271.752C72.2718 274.317 73.3284 276.014 73.3321 276.129C73.3647 277.16 71.4711 273.776 68.7446 270.83C67.4925 269.477 65.3438 267.638 64.2999 266.772C63.2561 265.907 63.3101 266.132 63.8481 267.302C64.3862 268.472 65.4065 270.58 66.4377 272.537C68.4063 276.275 69.622 278.171 69.7995 278.441C69.8859 278.572 69.9287 278.712 69.807 278.649C69.3294 278.402 68.9814 277.869 68.2534 276.864C67.6459 276.025 66.4774 274.569 64.6194 272.505C62.7613 270.442 60.2293 267.828 59.3327 267.311C58.2961 266.713 60.3428 270.518 60.8505 271.328C61.4457 272.277 62.1274 273.587 63.0145 274.914C64.2299 276.733 64.8264 277.875 65.0141 278.403C65.4068 279.507 63.0788 276.096 61.3959 273.948C60.3601 272.626 58.3777 270.389 57.2779 269.133C55.6748 267.304 55.1735 266.803 54.9745 266.669C54.2467 266.18 56.1576 269.33 57.9213 272.733C58.9758 274.768 60.5375 277.34 61.6447 279.145C64.0873 283.126 64.4865 283.665 64.5392 283.779C64.9152 284.594 63.0786 281.875 61.9912 280.388C61.6989 279.989 61.4575 279.534 59.3772 276.766C57.297 273.998 53.3972 268.922 51.3623 266.24C49.3275 263.558 49.2757 263.423 49.2525 263.49C48.9397 264.387 49.8127 265.421 50.6345 267.266C51.3042 268.77 52.6733 271.35 53.8328 273.426C54.9923 275.502 55.9482 276.975 56.5425 277.936C58.1734 280.573 59.2821 282.559 59.2622 282.697C59.2219 282.978 58.2872 281.631 55.8765 278.366C54.0298 275.865 50.6749 271.813 48.8539 269.595C46.8269 267.125 46.4296 266.749 46.202 266.412C46.0892 266.245 45.9273 266.121 46.3385 267.175C46.7498 268.23 47.7253 270.474 49.3649 273.576C51.0046 276.678 53.2788 280.569 54.5281 282.776C55.7773 284.983 55.9326 285.387 55.8889 285.485C55.8452 285.583 55.5979 285.363 52.2276 281.292C48.8572 277.221 42.3714 269.306 38.6333 264.83C34.8952 260.354 34.1014 259.558 33.5677 258.991C33.034 258.425 32.7843 258.114 32.5568 257.865C32.3293 257.616 32.1314 257.44 32.6949 258.807C33.2585 260.174 34.5894 263.091 37.2841 267.561C39.9789 272.031 43.9971 277.965 46.2167 281.2C48.6965 284.815 49.4967 285.872 50.0839 286.844C50.1209 286.905 49.6609 286.337 47.0673 282.336C44.6635 278.627 39.9034 271.596 37.496 268.031C35.0887 264.466 35.1404 264.601 37.8923 269.185C40.6441 273.77 46.0945 282.8 48.9535 287.564C51.8124 292.329 51.9148 292.553 51.8945 292.648C51.8598 292.809 51.2785 292.302 50.6993 291.562C50.4056 291.187 50.1673 290.776 46.7613 286.249C43.3552 281.723 36.8027 273.083 33.3771 268.566C29.9515 264.049 29.8514 263.915 29.8275 263.982C29.7119 264.303 30.171 265.136 30.7397 266.447C31.0717 267.212 31.4165 268.208 34.5814 273.657C37.7464 279.107 43.7018 288.987 46.6707 293.988C49.6397 298.989 49.4419 298.813 49.1904 298.544C48.9389 298.275 48.6398 297.92 44.4456 291.893C40.2515 285.867 32.1713 274.18 28.0634 268.408C23.9555 262.635 24.0648 263.132 25.5245 266.302C26.9842 269.473 29.791 275.302 32.8014 280.898C35.8118 286.494 38.9408 291.679 40.6303 294.553C42.3198 297.427 42.4751 297.831 38.7848 292.348C35.0945 286.865 27.5538 275.482 23.671 269.686C19.7881 263.891 19.7916 264.027 20.7418 266.229C21.692 268.431 23.5889 272.694 26.7345 278.422C29.8801 284.149 34.217 291.21 36.5029 294.983C38.7888 298.755 38.8923 299.025 38.8473 299.098C38.8022 299.172 38.6055 299.04 34.9812 293.502C31.3569 287.964 24.3109 277.022 20.7099 271.567C17.1089 266.111 17.1664 266.472 21.0951 273.618C25.0239 280.763 32.8221 294.681 36.8411 301.919C40.8601 309.157 40.8635 309.293 40.7905 309.274C40.7175 309.256 40.5679 309.078 37.7064 304.994C34.8449 300.911 29.276 292.928 26.1334 288.504C22.9907 284.081 22.4431 283.46 21.5588 282.269C20.6745 281.079 19.4701 279.34 18.8513 278.512C18.2326 277.684 18.236 277.82 21.273 284.144C24.3099 290.469 31.6733 297.45 31.0697 304.516C30.61 309.899 34.5049 313.219 32.8014 310.899C29.5942 306.531 23.663 298.31 20.3608 293.722C17.0587 289.133 16.9069 288.865 16.858 288.93C16.8091 288.995 16.8677 289.402 18.528 292.884C20.1882 296.365 23.4483 302.909 25.1541 306.371C26.86 309.832 28.1356 310.917 28.0634 310.899C27.9911 310.881 26.5694 309.754 25.4126 308.1C24.2557 306.447 22.1471 303.369 20.9113 301.605C19.6755 299.841 19.3764 299.486 19.2246 299.394C19.0782 299.304 19.188 300.03 19.6859 301.498C20.6934 304.468 21.4524 306.485 21.4553 306.6C21.4548 306.58 21.4502 306.398 21.422 306.237C21.3937 306.077 21.3419 305.942 21.1352 305.532" stroke="#3FA9F5" stroke-width="4" stroke-linecap="round"/>
<path d="M73.8824 243.383C74.1862 244.186 77.8374 245.334 78.7129 247.082C79.5884 248.83 77.679 251.153 78.4451 252.594C79.2112 254.035 79.2618 254.169 79.3368 254.304C79.4119 254.44 79.5097 254.572 78.4307 252.957C77.3516 251.341 75.0926 247.973 73.9306 246.306C72.7686 244.639 72.772 244.774 72.8008 244.978C72.8679 245.453 73.3963 246.979 74.9607 250.653C76.0038 253.104 77.8122 256.639 78.7596 258.54C79.7791 260.586 79.9563 260.844 79.9329 260.824C79.421 260.389 79.2564 259.5 78.7129 258.676C77.8108 257.309 76.9708 255.874 76.2781 254.869C75.9589 254.406 75.7777 253.995 74.2059 251.753C72.6341 249.511 69.6958 245.439 68.1331 243.275C66.5705 241.111 66.4726 240.978 66.4245 241C66.3763 241.022 66.3809 241.202 67.0664 243.08C67.7518 244.958 69.1181 248.529 70.2203 251.169C71.3224 253.81 72.1191 255.412 72.6273 256.37C73.288 257.616 73.6861 258.314 73.967 259.057C74.0809 259.359 74.1926 259.487 72.2828 256.788C70.373 254.089 66.4525 248.555 64.2866 245.528C62.1207 242.501 61.8282 242.148 61.6798 242.056C61.5314 241.964 61.536 242.144 62.263 243.796C62.99 245.448 64.4393 248.565 65.9027 251.415C67.366 254.265 68.7993 256.753 69.563 258.101C70.3268 259.449 70.3774 259.583 70.453 259.741C70.5286 259.899 70.6276 260.077 69.4074 258.488C68.1873 256.899 65.6449 253.539 64.1412 251.609C62.3003 249.248 61.556 248.479 60.4059 247.082C58.2232 244.432 56.492 242.687 56.2529 242.69C56.0602 242.693 56.3155 243.407 57.1223 245.355C57.9291 247.303 59.4314 250.645 61.1424 253.92C62.8535 257.195 64.7279 260.302 65.7187 261.97C66.7096 263.638 66.7603 263.772 66.5642 263.463C66.3681 263.155 65.9237 262.4 63.3274 259.029C60.7311 255.658 55.9963 249.694 53.4847 246.556C50.9731 243.418 50.828 243.286 50.7555 243.309C50.683 243.331 50.6876 243.511 51.4157 245.208C52.1439 246.905 53.5955 250.113 55.2574 253.342C56.9193 256.571 58.7476 259.725 59.7153 261.439C60.7732 263.312 60.8872 263.694 60.9641 263.875C60.9725 263.894 60.7958 263.701 58.1556 260.295C55.5155 256.889 50.3858 250.259 47.718 246.777C45.0501 243.295 44.9995 243.161 44.9763 243.204C44.953 243.248 44.9587 243.473 45.414 244.659C45.8694 245.845 46.7741 247.986 48.5256 251.331C50.2772 254.677 52.848 259.164 54.2213 261.541C55.5946 263.919 55.6925 264.052 55.6456 264.01C55.5987 263.968 55.4041 263.748 54.1277 261.974C52.8513 260.2 50.499 256.88 48.3125 254C46.126 251.12 44.1766 248.781 43.0273 247.444C41.6256 245.814 40.9963 245.22 40.5318 244.776C40.3666 244.618 41.0869 247.331 42.4431 250.982C43.1173 252.797 44.0337 254.278 44.9865 256.141C46.232 258.577 47.781 260.835 48.5061 262.07C48.6485 262.312 48.684 262.454 48.7354 262.59C48.7869 262.726 48.8375 262.86 48.3708 262.13C47.9041 261.4 46.9186 259.803 44.6049 256.705C42.2911 253.607 38.6791 249.056 36.7688 246.623C34.8585 244.19 34.7595 244.013 34.7119 244.056C34.6643 244.1 34.6712 244.37 35.3994 246.068C36.1276 247.766 37.5769 250.884 38.5946 252.934C40.0722 255.91 40.9137 257.232 41.3156 258.062C41.6639 258.782 42.2174 259.746 42.6001 260.693C42.7092 260.963 42.5372 260.84 42.3894 260.684C42.2415 260.528 42.0953 260.351 39.8494 257.589C37.6036 254.826 33.2627 249.483 30.9297 246.643C28.4337 243.604 28.0577 243.27 27.8637 243.16C27.7916 243.119 27.8712 243.54 29.5131 246.77C31.155 250.001 34.382 256.138 36.0696 259.367C37.7573 262.595 37.808 262.729 37.7851 262.732C37.1183 262.808 36.7243 261.216 33.7557 257.223C31.4503 254.122 26.8435 248.425 24.507 245.556C22.1704 242.687 22.175 242.867 22.2274 243.071C22.3399 243.51 22.5867 244.086 23.2449 245.765C23.7675 247.097 24.8023 249.358 25.4414 250.707C26.0805 252.055 26.3258 252.409 26.8982 253.414C28.3975 256.046 29.5343 258.383 29.8183 259.196C29.876 259.361 29.3528 258.624 27.4658 256.009C25.7199 253.59 22.2087 249.064 19.9586 246.189C17.7085 243.314 16.7838 242.255 16.2867 241.823C15.7896 241.391 15.7481 241.618 15.8055 242.048C15.863 242.478 16.0206 243.105 17.1568 245.902C18.293 248.7 20.403 253.649 21.5395 256.287C22.6759 258.925 22.7749 259.103 22.8513 259.261C22.9276 259.42 22.9782 259.554 21.3918 257.523C19.8053 255.492 16.5801 251.293 14.3113 248.469C12.0424 245.645 10.8276 244.323 10.2063 243.823C9.58508 243.322 9.59421 243.683 9.64898 243.98C9.70375 244.277 9.80389 244.5 10.1651 245.643C10.5262 246.786 11.1454 248.844 12.0427 251.286C12.9401 253.728 14.097 256.493 14.7424 258.006C15.4671 259.705 15.6396 260.014 15.6432 260.129C15.6517 260.398 14.8042 258.862 13.81 257.206C12.281 254.66 10.9904 253.357 9.95282 251.995C9.54502 251.46 8.78468 250.736 8.41491 250.554C8.04513 250.371 8.0554 250.777 8.08658 251.075C8.16954 251.552 8.52904 252.63 9.01937 254.096C9.20354 254.668 9.25647 254.892 9.46101 255.392" stroke="#3FA9F5" stroke-width="4" stroke-linecap="round"/>
<path d="M14.3104 265.166C14.2744 265.719 14.2112 267.226 14.0896 268.371C13.9636 269.558 13.901 270.872 13.8641 272.435C13.8295 273.901 13.7659 275.518 13.7768 278.941C13.7872 282.164 13.9906 288.402 14.0988 291.69C14.207 294.978 14.2607 295.126 14.3142 296.226C14.5773 301.626 14.6559 302.728 14.8045 303.637C14.9435 304.488 15.021 305.194 15.165 305.923C15.3565 306.892 15.4845 307.604 15.587 308.635C15.6605 309.375 15.8495 310.067 16.0667 310.668C16.1749 310.967 16.2839 311.268 16.4414 311.541C16.7919 312.149 17.6176 312.244 18.2283 312.43C18.9303 312.645 19.8499 312.792 20.7849 312.845" stroke="#500311" stroke-width="4" stroke-linecap="round"/>
<path d="M45.1235 223.357C44.8848 223.217 42.393 220.127 41.9496 219.399C41.4102 218.512 40.4945 217.761 39.3226 216.262C38.2868 214.938 35.9709 212.31 35.2035 211.26C34.6541 210.508 34.2036 209.979 33.6667 209.277C33.1744 208.634 32.1664 207.619 31.2433 206.799C30.5297 206.164 29.8332 205.208 29.0816 204.389C28.2143 203.444 26.8756 202.078 26.224 201.575C25.4905 201.008 24.8081 200.648 24.2331 200.343C23.6926 200.055 22.7194 200.059 21.8634 199.958C21.6278 199.93 21.3 199.947 21.0179 200.076C19.9895 200.547 19.8227 201.461 19.2986 202.189C18.5175 203.273 18.3846 204.305 17.978 205.083C17.5836 205.838 17.2602 206.556 16.877 207.281C16.4867 208.019 15.9451 208.66 15.6515 209.26C15.3182 209.941 14.7271 210.907 14.3002 211.808C13.7614 212.946 13.0627 214.207 12.8203 214.928C12.586 215.625 12.3591 216.295 12.0707 217.018C11.8291 217.623 11.6999 218.235 11.5266 218.857C11.3278 219.569 11.2782 220.267 11.1537 220.913C11.0293 221.557 10.9516 222.248 10.9137 223.579C10.8758 224.912 10.7808 226.691 10.8269 229.492C10.845 230.593 11.0861 231.367 11.4088 232.001C11.6933 232.56 11.8401 233.173 12.0441 233.76C12.248 234.348 12.6381 234.928 13.2207 235.53C13.8753 236.207 14.5246 236.706 15.5808 237.442C16.2273 237.893 16.8245 238.029 17.3996 238.335C17.5438 238.406 17.6851 238.451 17.8293 238.522C17.9734 238.592 18.116 238.686 18.5498 238.923" stroke="#500311" stroke-width="4" stroke-linecap="round"/>
<path d="M66.0031 239.797C66.2453 239.439 66.732 238.822 67.5933 237.994C68.3587 237.259 69.1992 236.692 70.1144 235.962C70.9634 235.285 71.9255 234.756 72.5452 234.311C73.4029 233.696 74.4016 232.98 75.049 232.583C75.6576 232.209 76.2383 231.772 76.9561 231.224C77.5554 230.766 78.0148 230.213 78.607 229.669C79.1537 229.166 79.795 228.806 80.632 228.004C81.2201 227.441 81.7678 226.992 82.3342 226.472C82.5057 226.315 82.7019 226.112 82.7996 225.907C83.1261 225.221 82.5146 224.452 82.0673 223.731C81.4649 222.76 80.9436 222.171 80.5245 221.575C80.0654 220.923 79.5328 220.239 78.8345 219.525C78.208 218.884 77.2042 217.68 76.4451 216.836C75.8842 216.212 75.2286 215.557 74.2452 214.548C73.6569 213.944 73.1564 213.44 71.5822 211.869C70.7805 211.068 70.3025 210.334 69.6806 209.618C69.17 209.03 68.7919 208.405 68.1435 207.69C67.6772 207.175 67.2336 206.629 66.7902 206.059C66.3512 205.494 65.4237 204.71 63.8723 203.235C63.0932 202.495 62.4796 202.106 61.8688 201.92C61.258 201.733 59.5541 201.675 58.3905 202.005C57.6623 202.212 57.2107 203.193 56.7728 203.887C56.3264 204.594 56.1004 205.24 55.7883 205.854C55.495 206.431 55.2904 207.076 55.0524 207.688C54.821 208.283 54.68 208.907 54.3679 209.521C54.0659 210.115 53.8185 210.745 53.4847 211.485C53.187 212.145 52.8611 212.737 52.4976 213.352C52.1354 213.965 51.8523 214.729 51.4888 215.345C51.1498 215.918 50.9395 216.568 50.5557 217.309C49.8288 218.712 49.3695 220.185 48.4745 222.702C47.8136 224.561 47.4271 225.231 47.1949 226.07C46.9203 227.062 46.5372 227.978 46.3308 228.791C46.1277 229.591 45.836 230.165 45.6532 230.927C45.4701 231.689 45.2847 232.298 45.077 233.06C44.8597 233.857 44.5846 234.534 44.4 235.221C44.309 235.6 44.2167 235.958 44.1237 236.262C44.0769 236.416 44.0308 236.567 43.9909 237.025" stroke="#500311" stroke-width="4" stroke-linecap="round"/>
<path d="M83.5842 239.957C83.6171 241.258 83.5761 243.586 83.531 244.821C83.4875 246.011 83.3783 247.725 83.305 248.837C83.1976 250.468 83.0191 251.469 82.9682 252.478C82.8569 254.686 82.885 258.131 82.7023 258.892C82.5192 259.655 82.3337 260.263 81.7232 260.985C81.2387 261.558 80.5038 261.623 79.9033 261.84C79.213 262.09 78.2023 262.286 77.1192 262.39C76.8897 262.412 76.7423 262.475 73.946 262.571C71.1497 262.668 65.71 262.805 62.8074 262.854C59.0481 262.917 57.734 262.756 56.2969 262.716C55.7609 262.701 54.4594 262.636 52.6455 262.657C51.9296 262.665 51.6289 262.608 46.8079 262.704C41.9868 262.801 32.6546 263.037 27.7467 263.136C22.8387 263.235 22.6378 263.191 21.3117 263.198C17.5396 263.221 14.8697 263.286 14.2168 263.227C11.851 263.012 9.63844 263.166 8.18133 263.052C7.79264 263.022 7.39564 262.92 7.01643 262.854C6.2418 262.721 6.00404 261.747 5.58176 261.026C5.05825 260.133 4.56522 258.709 4.28382 257.605C4.04388 256.664 3.98478 255.745 3.82861 250.622C3.78163 249.081 4.14431 248.178 4.29757 247.238C4.4404 246.363 4.53666 245.744 4.69128 244.858C4.8266 244.082 4.9304 243.364 4.97997 242.304C5.01865 241.476 5.22425 240.984 5.23965 240.606C5.30087 239.104 9.58254 239.914 10.8139 239.807C11.2491 239.769 11.6933 239.608 12.8438 239.504C15.0856 239.299 16.7813 239.328 18.8293 239.201C20.6269 239.089 23.9726 239.045 25.8455 239.022C28.6286 238.989 29.6379 239.153 30.8265 239.3C31.6586 239.402 33.0676 239.42 34.5627 239.508C35.9364 239.588 37.0636 239.52 38.1423 239.568C40.3654 239.668 42.3586 239.587 43.4936 239.71C45.5326 239.93 47.65 239.807 49.5518 239.885C52.8077 240.017 54.3177 239.941 56.7367 240.006C59.9858 240.092 62.2456 239.942 63.4974 239.986C66.6428 240.096 68.9533 239.923 70.5552 239.958C71.9559 239.989 74.5513 239.883 75.9623 239.822C78.9723 239.62 81.7577 239.599 82.1362 239.665C82.3637 239.685 82.6631 239.678 83.1266 239.817" stroke="#500311" stroke-width="4" stroke-linecap="round"/>
<path d="M40 302.464C42.5061 306.547 44.3281 309.383 45.1007 310.37C45.3182 310.648 45.2786 310.381 44.7892 308.791C44.2998 307.201 43.3865 304.272 43.4045 303.473C43.4226 302.674 44.3995 304.094 45.8054 305.791C47.2113 307.488 49.0165 309.418 50.3713 310.746C51.726 312.073 52.5755 312.739 52.907 312.904C53.2384 313.07 53.026 312.715 52.099 311.455C51.1719 310.196 49.5366 308.044 48.4711 306.536C46.8821 304.286 43.3839 297.029 43.4045 296.849C43.4137 296.769 46.7112 303.091 48.8164 304.5C50.9215 305.91 54.9568 308.684 57.1099 310.18C59.263 311.675 59.4116 311.808 57.2157 309.314C55.0199 306.819 50.4749 301.693 48.038 298.886C45.6011 296.079 45.4099 295.746 45.4601 295.775C45.5103 295.803 45.8077 296.202 48.6581 298.738C51.5085 301.274 56.903 305.934 57.7705 305.217C58.6381 304.499 54.8152 298.264 54.1201 296.849C53.4251 295.434 55.9736 299.029 58.083 301.78C60.1923 304.53 64.2591 308.521 65.0265 309.314C65.794 310.107 63.2139 307.647 61.1841 304.869C59.1542 302.091 55.2039 296.81 53.7317 294.777C52.2595 292.745 53.3852 294.12 56.3118 296.804C59.2385 299.488 63.9321 303.438 64.0245 302.61C64.1168 301.782 59.4657 296.057 57.0272 293.041C54.5887 290.025 52.4117 285.315 54.1201 287.399C55.8285 289.483 61.4248 298.365 64.4087 301.681C67.3927 304.997 69.7501 307.194 70.9327 308.237C72.1153 309.28 72.0515 309.102 69.6294 305.76C67.2073 302.418 60.8848 291.827 61.1841 291.507C61.4833 291.186 68.5492 301.333 69.1638 300.681C69.7784 300.03 65.3184 292.485 63.6686 289.741C63.3687 289.242 66.2207 293.879 66.3719 294.102C67.7601 296.145 60.4916 285.737 58.332 282.733C56.1725 279.73 56.4486 280.263 58.3111 282.745C60.1736 285.228 63.6142 289.643 65.6627 292.196C67.7112 294.748 68.2634 295.303 68.5585 295.355C68.8536 295.408 68.8748 294.942 68.3336 293.226C67.7923 291.511 66.6879 288.559 65.8748 286.562C65.0616 284.565 64.5731 283.61 64.3534 283.274C64.1336 282.938 64.1973 283.249 65.0265 285.428C65.8558 287.607 67.4487 291.646 68.8851 294.78C70.3216 297.915 74.6773 302.531 75.3225 303.473C75.9677 304.414 72.865 301.618 72.791 301.037C72.717 300.455 72.5471 299.59 71.472 296.481C70.3969 293.373 68.4217 288.047 67.2025 284.893C65.9832 281.739 65.5797 280.918 66.3169 282.104C67.0541 283.29 68.9443 286.507 70.3428 288.675C72.4613 291.959 73.5936 293.026 73.776 293.095C73.8405 293.119 76.8614 296.126 76.5 294.78C76.1386 293.435 72.3862 287.676 70.9951 283.988C69.604 280.3 67.5439 275.485 67.0348 274.435C66.2053 272.725 69.1078 279.708 69.6864 280.526C69.9116 280.844 70.0526 280.922 70.0864 280.624C70.1202 280.325 70.0564 279.638 69.5139 277.785C68.9714 275.933 67.9519 272.937 67.533 271.683C67.114 270.428 67.3264 271.005 67.6588 271.724C68.3921 273.309 69.5551 275.042 71.1048 276.931C71.9565 277.969 75.6019 284.133 76.5 284.893C77.9855 286.15 76.637 281.438 77.3334 281.562C77.6239 281.613 77.7961 281.574 77.9049 281.485C78.1241 281.306 77.9725 280.415 77.3653 278.674C76.9765 277.559 76.0572 276.134 75.3225 274.958C73.1611 271.498 72.0515 270.681 71.8478 270.658C70.8234 270.538 71.9202 273.384 72.242 274.344C72.5453 275.248 71.8604 271.405 71.3565 270.384C71.204 270.075 71.1286 270.273 71.1174 270.631C71.0894 271.521 71.1917 272.203 71.2667 272.261C72.1023 272.901 69.5178 277.416 69.2556 276.931C69.3402 276.733 70.3745 265.457 70.5382 266.463C72.242 276.931 75.3882 267.165 75.3225 266.463" stroke="#3FA9F5" stroke-width="4" stroke-linecap="round"/>
<path d="M77.392 262.338C77.392 262.744 77.4123 264.314 77.4634 266.711C77.4998 268.418 77.597 269.23 77.6277 269.546C77.8148 271.471 78.0075 274.05 78.0379 274.489C78.0586 274.787 78.1293 275.233 78.1709 279.769C78.2124 284.304 78.2327 292.916 78.1924 297.748C78.1521 302.58 78.0506 303.372 77.9982 303.892C77.8535 305.33 77.7207 306.646 77.424 308.173C77.285 308.888 77.1877 309.417 77.0745 309.91C76.9574 310.42 76.6141 310.894 76.2039 311.428C75.9383 311.654 75.406 311.982 74.7502 312.351C74.4803 312.496 74.3382 312.557 74.0686 312.62" stroke="#500311" stroke-width="4" stroke-linecap="round"/>
<path d="M20.8322 312.866C21.0556 312.846 21.279 312.825 29.9446 312.886C38.6101 312.947 55.711 313.089 73.33 313.235" stroke="#500311" stroke-width="4" stroke-linecap="round"/>
<circle cx="21.5" cy="168.905" r="3.5" fill="#3FA9F5"/>
<circle cx="60" cy="155.405" r="3" fill="#1E5E8C"/>
<circle cx="39.5" cy="139.905" r="2.5" fill="#C7E7FF"/>
<circle cx="40.5" cy="187.905" r="2.5" fill="#FF702D"/>
<circle cx="57.5" cy="174.905" r="1.5" fill="#A35531"/>
<path d="M39.3141 149.897C39.9207 149.134 41.0793 149.134 41.6859 149.897L42.7932 151.29C43.1479 151.736 43.723 151.945 44.2815 151.831L46.0248 151.476C46.9799 151.282 47.8675 152.026 47.8418 153.001L47.7948 154.779C47.7798 155.349 48.0858 155.879 48.5867 156.151L50.1504 157C51.0071 157.464 51.2083 158.606 50.5623 159.335L49.3831 160.668C49.0054 161.094 48.8991 161.697 49.1081 162.227L49.7605 163.883C50.1179 164.789 49.5386 165.793 48.5746 165.937L46.8149 166.199C46.2512 166.283 45.7824 166.677 45.6017 167.217L45.0375 168.905C44.7284 169.829 43.6396 170.225 42.8087 169.716L41.2919 168.786C40.806 168.488 40.194 168.488 39.7081 168.786L38.1913 169.716C37.3604 170.225 36.2716 169.829 35.9625 168.905L35.3983 167.217C35.2176 166.677 34.7488 166.283 34.1851 166.199L32.4254 165.937C31.4614 165.793 30.8821 164.789 31.2395 163.883L31.8919 162.227C32.1009 161.697 31.9946 161.094 31.6169 160.668L30.4377 159.335C29.7917 158.606 29.9929 157.464 30.8496 157L32.4133 156.151C32.9142 155.879 33.2202 155.349 33.2052 154.779L33.1582 153.001C33.1325 152.026 34.0201 151.282 34.9752 151.476L36.7185 151.831C37.277 151.945 37.8521 151.736 38.2068 151.29L39.3141 149.897Z" fill="#FFEA9F"/>
</svg>
