<svg width="58" height="81" viewBox="0 0 58 81" fill="none" xmlns="http://www.w3.org/2000/svg">
<path d="M22.0732 13.5281C22.076 13.6395 22.0796 13.7805 22.049 13.8105C21.5036 14.3443 21.2165 12.0914 19.9655 10.0964C19.3771 9.15818 18.9444 8.59673 18.4858 8.01645C18.2001 7.65493 17.9309 7.38116 17.7708 7.30029C17.7152 7.27222 17.6775 7.38504 17.6743 8.51565C17.6711 9.64627 17.6949 11.8206 17.7252 13.0378C17.7682 14.7634 17.9073 15.2643 17.9212 15.773C17.9395 16.4478 17.4798 14.5772 16.9943 13.4779C16.8763 13.2107 16.808 13.0175 16.346 12.134C15.8841 11.2504 15.0298 9.68272 14.5754 8.93123C14.1211 8.17974 14.0926 8.292 14.0892 8.79567C14.0798 10.1913 14.1693 11.3597 14.2352 12.0868C14.3412 13.2572 14.3355 14.1726 14.4045 15.0242C14.5478 16.792 14.4604 17.834 14.3596 17.5839C14.1157 16.9786 13.4681 15.9512 12.9513 15.0572C12.4949 14.2678 12.339 14.0288 12.2085 13.8635C12.1428 13.7803 12.078 13.6983 12.1869 15.5624C12.2958 17.4266 12.5803 21.2394 12.7255 23.1478C12.8706 25.0563 12.8678 24.9448 12.7483 24.5558C12.4227 23.4957 12.0506 22.6275 11.8001 22.0732C11.6383 21.7152 11.4473 21.1869 11.064 20.3939C9.54812 17.2571 9.30682 16.7815 9.24121 16.6839C8.98647 16.3048 9.34737 18.4585 9.78055 20.6246C10.0037 21.7403 10.3411 22.871 10.568 23.6215C11.0446 25.1977 11.2054 25.5471 11.286 25.616C11.6054 25.8894 11.5338 24.7538 11.6025 24.3562C11.7337 23.5976 12.1882 21.9523 12.3998 21.4763C12.5888 21.051 13.0345 22.9042 13.353 23.5202C13.7964 24.1575 14.313 24.6497 15.0049 25.0702C15.1504 25.138 15.2451 25.1634 15.3426 25.1897" stroke="#FF702D" stroke-width="2.74597" stroke-linecap="round"/>
<path d="M25.5167 22.3708C25.7816 23.2449 26.3468 24.7269 26.235 24.4016C25.7688 23.0444 25.2232 21.779 24.9292 21.2323C24.4813 20.3992 24.0391 19.3053 23.8711 18.9405C23.6229 18.4014 23.9891 20.1551 24.499 23.0667C24.6799 24.0999 24.7293 24.4815 24.6998 24.6892C24.5848 25.5011 23.289 22.8115 22.743 22.0634C22.1912 21.3074 21.7319 20.8828 21.4274 20.6056C21.2952 20.4853 21.2285 20.3885 21.2015 20.7331C21.0328 22.8848 21.3446 23.6464 21.4534 24.4988C21.4936 24.8136 21.4904 25.2541 21.4942 25.4019C21.4939 25.3929 21.4173 25.1076 21.289 24.8735C21.2331 24.7631 21.196 24.6699 21.048 24.3864" stroke="#FF702D" stroke-width="2.74597" stroke-linecap="round"/>
<path d="M29.3868 20.0022L27.0375 17.7518C26.5479 17.2641 24.6573 16.6351 24.6573 16.6351C24.6573 16.6351 22.8733 16.0039 22.2667 15.9668C21.6829 15.9311 21.1375 15.8048 20.6895 15.9366C20.2191 16.0751 19.873 16.4933 19.4643 16.7811C19.0166 17.0962 18.2817 17.8114 17.7731 18.3816C17.4634 18.7287 17.3783 19.2221 17.1645 19.6607C16.905 20.193 16.9723 20.9963 16.9085 21.8799C16.7472 24.1111 17.1303 24.5264 17.2816 25.0249C17.4311 25.4548 17.5428 25.7636 17.6342 25.9686C17.6888 26.0716 17.7599 26.1726 17.8332 26.2767" stroke="#500311" stroke-width="2.74597" stroke-linecap="round"/>
<path d="M49.2367 14.4429C49.2383 14.5035 49.3027 15.8662 49.4157 17.9439C49.463 18.813 49.5359 19.0858 49.5106 19.2705C49.5046 19.3146 49.4193 19.2145 48.8332 18.0009C48.247 16.7872 47.1389 14.452 46.4582 13.0548C45.7775 11.6576 45.5579 11.2693 45.3983 11.0098C45.2387 10.7504 45.1457 10.6315 45.2399 12.0362C45.334 13.4409 45.618 16.3727 45.7812 17.9583C45.9601 19.6966 46.0207 20.1526 46.0304 20.5357C46.04 20.9154 45.6028 19.0724 44.6163 16.4306C43.9554 14.6606 42.6148 11.4026 41.8919 9.62864C40.9356 7.2819 40.8072 6.73088 40.716 6.71621C40.6098 6.69911 40.6962 7.1542 41.1851 9.88892C41.6739 12.6236 42.6429 17.7499 43.1471 20.5875C43.6512 23.4252 43.6612 23.8188 43.6352 23.9769C43.6093 24.135 43.547 24.0457 43.4981 23.9244C43.2968 23.4253 43.2475 23.013 42.2748 20.1257C41.3694 17.4384 39.499 12.3151 38.5773 10.0784C37.6555 7.84174 37.7062 8.65852 38.1787 11.9161C38.6513 15.1736 39.5442 20.8472 40.0084 23.9365C40.4726 27.0258 40.4811 27.3589 40.4677 27.4248C40.3694 27.9124 40.2473 26.4861 39.839 25.1752C39.4937 24.0664 38.7565 22.0938 38.3123 20.9234C37.7487 19.4386 37.3879 18.7258 36.9869 17.7751C36.4872 16.5903 36.0434 15.8796 35.9364 15.8355C35.8779 15.8113 35.8664 16.0631 35.8874 17.5045C35.9084 18.9459 35.9767 21.6408 35.9803 22.9693C35.984 24.2977 35.921 24.1781 35.7899 23.7706C35.162 21.8188 34.9989 21.2634 34.7919 20.8537C34.48 20.2362 34.669 22.581 34.6576 24.5361C34.6483 26.1404 34.5297 26.6584 34.4709 26.7218C34.4059 26.5431 34.3389 26.2978 34.2585 26.1015C34.2104 25.9953 34.1474 25.8757 34.0826 25.7525" stroke="#FF702D" stroke-width="2.74597" stroke-linecap="round"/>
<path d="M25.0685 48.972C26.8575 51.84 29.1397 55.2075 30.4744 57.1529C31.0226 57.9518 31.4512 58.5688 31.7939 59.0604C32.9297 60.791 33.1507 61.0626 33.1293 61.0271C32.856 60.5748 32.5154 60.0955 31.7939 59.0604C31.582 58.7376 31.3383 58.364 31.0584 57.9321C29.5844 55.658 26.8198 51.5645 25.0685 48.972C24.8591 48.6621 24.6642 48.3737 24.4878 48.1123C22.8351 45.6648 22.8707 45.7574 24.7598 48.9047C26.6489 52.052 30.3906 58.2512 32.3532 61.5217C34.3159 64.7923 34.3862 64.9463 34.3722 65.0113C34.3484 65.1223 33.9493 64.7742 33.5517 64.2663C33.3501 64.0088 33.1865 63.7265 30.8483 60.6189C28.6039 57.6361 24.3695 52.0521 21.9535 48.8662L21.6602 48.4794L21.5455 48.3282C19.3063 45.3753 19.2395 45.2873 19.2234 45.3323C19.144 45.5529 19.4592 46.1251 19.8496 47.0245C20.0775 47.5496 20.3142 48.2335 22.4869 51.9746C24.6596 55.7157 28.748 62.4981 30.7861 65.9315C32.8243 69.3649 32.6885 69.2437 32.5159 69.0593C32.3432 68.8748 32.1379 68.6307 29.2586 64.4935C26.3793 60.3563 20.8324 52.3333 18.0123 48.3706C15.1923 44.408 15.2673 44.7488 16.2694 46.9253C17.2714 49.1018 19.1983 53.1035 21.2649 56.945C23.3316 60.7865 25.4796 64.3465 26.6394 66.3193C27.7993 68.2921 27.9059 68.5698 25.3725 64.8057C22.8391 61.0417 17.6625 53.2274 14.997 49.2486C12.3314 45.2698 12.3338 45.3632 12.9861 46.8748C13.6384 48.3865 14.9406 51.3135 17.1001 55.2452C19.2595 59.1769 22.2367 64.0245 23.806 66.6143C25.3752 69.2041 25.4463 69.3893 25.4154 69.4396C25.3845 69.49 25.2494 69.3999 22.7613 65.5979C20.2733 61.7959 15.4363 54.2846 12.9642 50.5393C10.4922 46.794 10.5316 47.0422 13.2287 51.9474C15.9257 56.8526 21.2791 66.4073 24.0381 71.3761C26.7971 76.3449 26.7995 76.4383 26.7494 76.4254C26.6993 76.4125 26.5966 76.2905 24.6322 73.4873C22.6678 70.6842 18.8448 65.2037 16.6874 62.1671C14.53 59.1304 14.1541 58.7037 13.547 57.8868C12.9399 57.0699 12.1131 55.8756 11.6883 55.3071C11.2636 54.7386 11.2659 54.832 13.3507 59.174C15.4356 63.5159 20.4905 68.3078 20.0762 73.1586C19.9491 74.6467 20.3068 75.9053 20.703 76.7738C21.2908 78.0621 21.9634 78.4923 21.2649 77.5409C21.0889 77.3013 20.901 77.0447 20.703 76.7738C20.3068 75.9053 19.9491 74.6467 20.0762 73.1586C20.4905 68.3078 15.4356 63.5159 13.3507 59.174C11.2659 54.832 11.2636 54.7386 11.6883 55.3071C12.1131 55.8756 12.9399 57.0699 13.547 57.8868C14.1541 58.7037 14.53 59.1304 16.6874 62.1671C18.8448 65.2037 22.6678 70.6842 24.6322 73.4873C26.5966 76.2905 26.6993 76.4125 26.7494 76.4254C26.7995 76.4383 26.7971 76.3449 24.0381 71.3761C21.2791 66.4073 15.9257 56.8526 13.2287 51.9474C10.5316 47.0422 10.4922 46.794 12.9642 50.5393C15.4363 54.2846 20.2733 61.7959 22.7613 65.5979C25.2494 69.3999 25.3845 69.49 25.4154 69.4396C25.4463 69.3893 25.3752 69.2041 23.806 66.6143C22.2367 64.0245 19.2595 59.1769 17.1001 55.2452C14.9406 51.3135 13.6384 48.3865 12.9861 46.8748C12.3338 45.3632 12.3314 45.2698 14.997 49.2486C17.6625 53.2274 22.8391 61.0417 25.3725 64.8057C27.9059 68.5698 27.7993 68.2921 26.6394 66.3193C25.4796 64.3465 23.3316 60.7865 21.2649 56.945C19.1983 53.1035 17.2714 49.1018 16.2694 46.9253C15.2673 44.7488 15.1923 44.408 18.0123 48.3706C20.8324 52.3333 26.3793 60.3563 29.2586 64.4935C32.1379 68.6307 32.3432 68.8748 32.5159 69.0593C32.6885 69.2437 32.8243 69.3649 30.7861 65.9315C28.748 62.4981 24.6596 55.7157 22.4869 51.9746C20.3142 48.2335 20.0775 47.5496 19.8496 47.0245C19.4592 46.1251 19.144 45.5529 19.2234 45.3323C19.2395 45.2873 19.3063 45.3753 21.5455 48.3282L21.6602 48.4794L21.9535 48.8662C24.3695 52.0521 28.6039 57.6361 30.8483 60.6189C33.1865 63.7265 33.3501 64.0088 33.5517 64.2663C33.9493 64.7742 34.3484 65.1223 34.3722 65.0113C34.3862 64.9463 34.3159 64.7923 32.3532 61.5217C30.3906 58.2512 26.6489 52.052 24.7598 48.9047C22.8707 45.7574 22.8351 45.6648 24.4878 48.1123C24.6642 48.3737 24.8591 48.6621 25.0685 48.972Z" fill="#3FA9F5"/>
<path d="M45.4494 46.3208C45.5934 46.725 46.5737 48.6981 47.5172 50.6669C48.3611 52.4278 49.0864 53.5924 49.089 53.6716C49.1113 54.3788 47.8114 52.0564 45.9397 50.0336C45.0801 49.1047 43.605 47.8423 42.8884 47.2481C42.1718 46.6539 42.209 46.8088 42.5783 47.6119C42.9477 48.415 43.6481 49.8617 44.356 51.2058C45.7075 53.7716 46.542 55.0731 46.6639 55.2583C46.7232 55.3485 46.7526 55.4444 46.669 55.4012C46.3412 55.2318 46.1022 54.8661 45.6025 54.1758C45.1854 53.5997 44.3833 52.6001 43.1078 51.1836C41.8322 49.767 40.094 47.9727 39.4785 47.6177C38.7669 47.2072 40.1719 49.8194 40.5204 50.3752C40.929 51.0268 41.397 51.926 42.006 52.8373C42.8404 54.086 43.2499 54.8703 43.3787 55.2324C43.6483 55.9901 42.0502 53.6487 40.8949 52.1743C40.1838 51.2668 38.8229 49.7308 38.0679 48.869C36.9674 47.6129 36.6232 47.2693 36.4866 47.1774C35.987 46.8412 37.2988 49.0037 38.5096 51.3401C39.2335 52.7369 40.3056 54.5029 41.0657 55.7418C42.7425 58.475 43.0165 58.8446 43.0527 58.923C43.3108 59.4823 42.05 57.6161 41.3035 56.5955C41.1029 56.3212 40.9371 56.009 39.5091 54.1086C38.081 52.2082 35.4038 48.724 34.0069 46.8828C32.61 45.0416 32.5744 44.949 32.5585 44.9947C32.3438 45.6107 32.9431 46.3201 33.5072 47.5871C33.967 48.6196 34.9069 50.3908 35.7028 51.8157C36.4988 53.2406 37.1551 54.2522 37.563 54.9118C38.6826 56.7219 39.4438 58.0853 39.4301 58.1805C39.4024 58.3729 38.7608 57.4482 37.1058 55.2071C35.8381 53.4904 33.5349 50.7088 32.2849 49.1858C30.8934 47.4905 30.6206 47.2324 30.4644 47.0008C30.3869 46.886 30.2757 46.8011 30.5581 47.5248C30.8404 48.2484 31.5101 49.7894 32.6357 51.9188C33.7613 54.0483 35.3225 56.7195 36.1801 58.2345C37.0377 59.7494 37.1443 60.0271 37.1143 60.0944C37.0844 60.1618 36.9146 60.0103 34.6009 57.2155C32.2871 54.4208 27.8347 48.9874 25.2685 45.9148C22.7023 42.8422 22.1574 42.2952 21.791 41.9065C21.4246 41.5178 21.2532 41.304 21.097 41.1333C20.9408 40.9626 20.805 40.8414 21.1918 41.78C21.5787 42.7187 22.4924 44.7208 24.3423 47.7893C26.1922 50.8578 28.9507 54.932 30.4744 57.1529C32.1768 59.6341 32.7261 60.3599 33.1293 61.0271C33.1546 61.0692 32.8388 60.679 31.0584 57.9321C29.4082 55.3861 26.1404 50.5598 24.4878 48.1123C22.8351 45.6648 22.8707 45.7574 24.7598 48.9047C26.6489 52.052 30.3906 58.2512 32.3532 61.5217C34.3159 64.7923 34.3862 64.9463 34.3722 65.0113C34.3484 65.1223 33.9493 64.7742 33.5517 64.2663C33.3501 64.0088 33.1865 63.7265 30.8483 60.6189C28.5101 57.5113 24.0118 51.5805 21.6602 48.4794C19.3085 45.3783 19.2398 45.2866 19.2234 45.3323C19.144 45.5529 19.4592 46.1251 19.8496 47.0245C20.0775 47.5496 20.3142 48.2335 22.4869 51.9746C24.6596 55.7157 28.748 62.4981 30.7861 65.9315C32.8243 69.3649 32.6885 69.2437 32.5159 69.0593C32.3432 68.8748 32.1379 68.6307 29.2586 64.4935C26.3793 60.3563 20.8324 52.3333 18.0123 48.3706C15.1923 44.408 15.2673 44.7488 16.2694 46.9253C17.2714 49.1018 19.1983 53.1035 21.2649 56.945C23.3316 60.7865 25.4796 64.3465 26.6394 66.3193C27.7993 68.2921 27.9059 68.5698 25.3725 64.8057C22.8391 61.0417 17.6625 53.2274 14.997 49.2486C12.3314 45.2698 12.3338 45.3632 12.9861 46.8748C13.6384 48.3865 14.9406 51.3135 17.1001 55.2452C19.2595 59.1769 22.2367 64.0245 23.806 66.6143C25.3752 69.2041 25.4463 69.3893 25.4154 69.4396C25.3845 69.49 25.2494 69.3999 22.7613 65.5979C20.2733 61.7959 15.4363 54.2846 12.9642 50.5393C10.4922 46.794 10.5316 47.0422 13.2287 51.9474C15.9257 56.8526 21.2791 66.4073 24.0381 71.3761C26.7971 76.3449 26.7995 76.4383 26.7494 76.4254C26.6993 76.4125 26.5966 76.2905 24.6322 73.4873C22.6678 70.6842 18.8448 65.2037 16.6874 62.1671C14.53 59.1304 14.1541 58.7037 13.547 57.8868C12.9399 57.0699 12.1131 55.8756 11.6883 55.3071C11.2636 54.7386 11.2659 54.832 13.3507 59.174C15.4356 63.5159 20.4905 68.3078 20.0762 73.1586C19.7605 76.8539 22.4344 79.1337 21.2649 77.5409C19.0632 74.5422 14.9915 68.8986 12.7246 65.7486C10.4577 62.5986 10.3535 62.4143 10.3199 62.459C10.2863 62.5038 10.3266 62.7832 11.4663 65.1733C12.6061 67.5635 14.8441 72.0559 16.0151 74.432C17.1862 76.8081 18.0619 77.5534 18.0123 77.5409C17.9627 77.5285 16.9867 76.7547 16.1926 75.6195C15.3984 74.4844 13.9508 72.3712 13.1025 71.1605C12.2541 69.9498 12.0488 69.7057 11.9446 69.6423C11.844 69.5811 11.9194 70.0791 12.2613 71.0869C12.9529 73.1258 13.4739 74.5105 13.4759 74.5898C13.4756 74.5756 13.4724 74.4511 13.453 74.3406C13.4336 74.2302 13.3981 74.1376 13.2562 73.856" stroke="#3FA9F5" stroke-width="2.74597" stroke-linecap="round"/>
<path d="M49.4668 31.1913C49.6754 31.7429 52.1819 32.531 52.7829 33.7308C53.3839 34.9306 52.0732 36.5253 52.5991 37.5146C53.125 38.504 53.1597 38.5959 53.2112 38.6888C53.2628 38.7817 53.3299 38.8728 52.5892 37.7638C51.8484 36.6547 50.2976 34.3428 49.4999 33.1981C48.7022 32.0535 48.7045 32.1462 48.7243 32.2864C48.7703 32.6127 49.1331 33.6597 50.207 36.1825C50.9232 37.8648 52.1646 40.2917 52.815 41.5966C53.5148 43.0008 53.6365 43.1785 53.6204 43.1648C53.269 42.8663 53.1561 42.2559 52.7829 41.6902C52.1636 40.7513 51.587 39.7663 51.1115 39.0766C50.8923 38.7588 50.7679 38.4764 49.6889 36.9372C48.6099 35.398 46.5927 32.6028 45.52 31.1173C44.4472 29.6318 44.38 29.5407 44.347 29.5556C44.3139 29.5705 44.3171 29.6942 44.7877 30.9835C45.2582 32.2728 46.1962 34.7241 46.9528 36.5368C47.7094 38.3495 48.2563 39.4494 48.6052 40.1071C49.0588 40.962 49.332 41.4415 49.5249 41.9518C49.6031 42.1588 49.6798 42.2464 48.3687 40.3939C47.0576 38.5413 44.3662 34.7423 42.8793 32.664C41.3925 30.5857 41.1917 30.3433 41.0898 30.2803C40.988 30.2172 40.9911 30.3409 41.4902 31.4748C41.9893 32.6087 42.9842 34.7491 43.9888 36.7056C44.9933 38.662 45.9773 40.3696 46.5016 41.2952C47.0259 42.2208 47.0607 42.3127 47.1126 42.4211C47.1645 42.5295 47.2324 42.6515 46.3948 41.5608C45.5572 40.4702 43.8119 38.1631 42.7796 36.8388C41.5158 35.2175 41.0048 34.6895 40.2153 33.7308C38.7169 31.9113 37.5284 30.7135 37.3643 30.7158C37.232 30.7176 37.4072 31.2078 37.9611 32.5452C38.515 33.8826 39.5463 36.1768 40.7209 38.4251C41.8956 40.6735 43.1823 42.8065 43.8625 43.9513C44.5428 45.0961 44.5775 45.1881 44.4429 44.9763C44.3083 44.7646 44.0032 44.2464 42.2209 41.9323C40.4385 39.6182 37.1882 35.524 35.4639 33.3697C33.7397 31.2154 33.6401 31.1251 33.5904 31.1404C33.5406 31.1557 33.5437 31.2794 34.0436 32.4442C34.5435 33.6091 35.54 35.8113 36.6809 38.0282C37.8218 40.2451 39.0769 42.4098 39.7412 43.5864C40.4674 44.8726 40.5457 45.1345 40.5985 45.2588C40.6043 45.2723 40.4829 45.1398 38.6705 42.8017C36.8581 40.4635 33.3366 35.9121 31.5051 33.5214C29.6737 31.1308 29.6389 31.0389 29.623 31.0688C29.607 31.0987 29.6109 31.2533 29.9235 32.0676C30.2361 32.8818 30.8572 34.3511 32.0596 36.648C33.262 38.9449 35.0268 42.0249 35.9696 43.6571C36.9124 45.2893 36.9796 45.3804 36.9474 45.3517C36.9152 45.323 36.7816 45.1717 35.9054 43.954C35.0291 42.7363 33.4143 40.4569 31.9133 38.4798C30.4123 36.5027 29.074 34.8969 28.285 33.9793C27.3228 32.8604 26.8907 32.4528 26.5719 32.1477C26.4584 32.0392 26.9529 33.9015 27.8839 36.4078C28.3468 37.6538 28.9759 38.6709 29.63 39.9499C30.485 41.6217 31.5484 43.1723 32.0461 44.0198C32.1439 44.1863 32.1683 44.2834 32.2036 44.3768C32.2389 44.4701 32.2737 44.562 31.9533 44.0611C31.6329 43.5601 30.9564 42.4635 29.368 40.3367C27.7796 38.2099 25.3 35.0861 23.9886 33.4159C22.6772 31.7457 22.6092 31.6237 22.5766 31.6536C22.5439 31.6834 22.5486 31.8689 23.0485 33.0347C23.5484 34.2005 24.5433 36.3409 25.242 37.7482C26.2564 39.7914 26.834 40.6985 27.1099 41.2685C27.349 41.7625 27.729 42.4243 27.9917 43.0743C28.0666 43.2597 27.9486 43.1753 27.8471 43.0681C27.7456 42.961 27.6452 42.8398 26.1034 40.9434C24.5617 39.047 21.5817 35.379 19.9801 33.4293C18.2666 31.3433 18.0085 31.1139 17.8753 31.038C17.8258 31.0099 17.8804 31.299 19.0076 33.5167C20.1348 35.7344 22.35 39.9476 23.5086 42.1641C24.6672 44.3805 24.702 44.4724 24.6863 44.4742C24.2285 44.5269 23.9581 43.4338 21.9201 40.6926C20.3375 38.5637 17.175 34.6524 15.5709 32.6831C13.9669 30.7137 13.97 30.8374 14.006 30.9775C14.0832 31.2784 14.2527 31.6739 14.7046 32.8264C15.0633 33.7413 15.7736 35.2935 16.2124 36.219C16.6512 37.1444 16.8195 37.3877 17.2125 38.0776C18.2418 39.8844 19.0221 41.4887 19.2171 42.0472C19.2567 42.1605 18.8975 41.6541 17.6022 39.8592C16.4036 38.1985 13.9932 35.0911 12.4485 33.1174C10.9038 31.1437 10.269 30.4173 9.9278 30.1208C9.58655 29.8243 9.55804 29.9797 9.59746 30.2749C9.63689 30.5702 9.7451 31.0006 10.5251 32.9209C11.3051 34.8413 12.7536 38.2387 13.5338 40.0499C14.3139 41.861 14.3819 41.9831 14.4343 42.0919C14.4867 42.2007 14.5215 42.2927 13.4324 40.8985C12.3433 39.5044 10.1292 36.6214 8.57166 34.6827C7.01411 32.744 6.18014 31.837 5.75365 31.4935C5.32716 31.1499 5.33342 31.3972 5.37102 31.6011C5.40863 31.805 5.47737 31.958 5.72531 32.7429C5.97324 33.5279 6.39828 34.9402 7.01433 36.6168C7.63037 38.2934 8.42454 40.1914 8.86764 41.2302C9.3651 42.3964 9.48352 42.6086 9.486 42.6873C9.49183 42.8721 8.91005 41.8178 8.22755 40.6811C7.17787 38.9327 6.29189 38.0385 5.57961 37.1036C5.29966 36.7361 4.77769 36.2394 4.52384 36.1141C4.26999 35.9888 4.27704 36.267 4.29845 36.4718C4.3554 36.7994 4.60219 37.5394 4.9388 38.5457C5.06523 38.9386 5.10157 39.0924 5.24199 39.4357" stroke="#3FA9F5" stroke-width="2.74597" stroke-linecap="round"/>
<path d="M8.57099 46.1452C8.54633 46.525 8.50292 47.5597 8.41945 48.3456C8.33292 49.1603 8.28994 50.0625 8.26463 51.1352C8.24088 52.1418 8.19719 53.2519 8.20474 55.6021C8.21184 57.8147 8.35148 62.0968 8.42575 64.3538C8.50002 66.6109 8.53689 66.7128 8.57365 67.4676C8.75422 71.1746 8.80818 71.9312 8.91021 72.5556C9.00562 73.1395 9.05881 73.6244 9.15769 74.1247C9.28917 74.7899 9.377 75.2785 9.44739 75.9867C9.49789 76.4948 9.62758 76.9696 9.7767 77.3819C9.85098 77.5872 9.92582 77.7941 10.0339 77.9815C10.2746 78.3986 10.8414 78.4639 11.2607 78.5919C11.7426 78.7391 12.3738 78.8406 13.0157 78.8768" stroke="#500311" stroke-width="2.74597" stroke-linecap="round"/>
<path d="M29.7241 17.444C29.5602 17.3476 27.8496 15.2265 27.5452 14.7264C27.1749 14.118 26.5462 13.6021 25.7418 12.5734C25.0307 11.6642 23.4408 9.8602 22.914 9.13929C22.5368 8.62315 22.2276 8.25993 21.859 7.77824C21.5211 7.33664 20.8291 6.63997 20.1954 6.07664C19.7055 5.64116 19.2274 4.98454 18.7114 4.42229C18.116 3.77359 17.197 2.83624 16.7497 2.4906C16.2461 2.10148 15.7777 1.85458 15.3829 1.64471C15.0119 1.44748 14.3438 1.45013 13.7561 1.38071C13.5944 1.36161 13.3694 1.37324 13.1757 1.46192C12.4697 1.78516 12.3552 2.41243 11.9954 2.91205C11.4592 3.6566 11.368 4.36494 11.0888 4.89908C10.8181 5.41712 10.5961 5.90985 10.333 6.40753C10.0651 6.91436 9.69329 7.35448 9.49172 7.76631C9.26288 8.23388 8.85714 8.89694 8.56405 9.51573C8.19414 10.2967 7.71449 11.1621 7.5481 11.6574C7.38727 12.136 7.23151 12.5961 7.03353 13.0922C6.86768 13.5077 6.779 13.9278 6.65997 14.3543C6.52349 14.8434 6.48951 15.3224 6.40397 15.7658C6.31858 16.2085 6.26527 16.6828 6.23928 17.5959C6.21321 18.5116 6.14798 19.7324 6.17964 21.6556C6.19208 22.411 6.35759 22.9424 6.57916 23.378C6.77442 23.762 6.8752 24.1825 7.01523 24.5857C7.15526 24.9888 7.42304 25.3873 7.82296 25.8006C8.27239 26.2652 8.7181 26.6077 9.44321 27.1134C9.887 27.4228 10.297 27.5162 10.6918 27.7261C10.7907 27.7749 10.8878 27.806 10.9867 27.8542C11.0857 27.9025 11.1836 27.967 11.4814 28.1301" stroke="#500311" stroke-width="2.74597" stroke-linecap="round"/>
<path d="M44.0577 28.7295C44.2239 28.4843 44.5581 28.0603 45.1493 27.4922C45.6748 26.9873 46.2518 26.5984 46.88 26.0974C47.4629 25.6325 48.1233 25.2691 48.5488 24.9638C49.1376 24.5414 49.8232 24.0501 50.2676 23.7771C50.6854 23.5205 51.0841 23.2204 51.5768 22.8443C51.9882 22.5304 52.3036 22.1507 52.7102 21.7768C53.0855 21.4317 53.5257 21.1848 54.1003 20.6342C54.504 20.2474 54.88 19.9393 55.2689 19.5824C55.3866 19.4744 55.5213 19.335 55.5883 19.1941C55.8125 18.7232 55.3927 18.1956 55.0857 17.7006C54.6721 17.0338 54.3142 16.6293 54.0265 16.2206C53.7114 15.7729 53.3457 15.3034 52.8663 14.8132C52.4363 14.3735 51.7471 13.5466 51.2261 12.9672C50.841 12.539 50.3909 12.0892 49.7158 11.3963C49.312 10.9817 48.9683 10.6355 47.8877 9.55707C47.3373 9.00785 47.0092 8.5036 46.5822 8.01213C46.2317 7.60862 45.9721 7.17937 45.527 6.68836C45.207 6.33528 44.9024 5.95985 44.598 5.56865C44.2966 5.18132 43.6599 4.6429 42.5949 3.63051C42.06 3.12204 41.6388 2.85534 41.2195 2.72727C40.8002 2.5992 39.6305 2.5592 38.8317 2.78615C38.3318 2.92817 38.0218 3.60136 37.7211 4.07748C37.4147 4.56286 37.2595 5.00645 37.0453 5.42792C36.844 5.82401 36.7035 6.26712 36.5401 6.68731C36.3812 7.09593 36.2844 7.52432 36.0702 7.9458C35.8629 8.35363 35.6931 8.78589 35.4639 9.29396C35.2595 9.74703 35.0358 10.153 34.7863 10.5754C34.5376 10.9963 34.3433 11.521 34.0937 11.9434C33.861 12.3373 33.7166 12.7835 33.4531 13.2919C32.9541 14.2549 32.6388 15.2665 32.0245 16.9941C31.5707 18.27 31.3054 18.7305 31.146 19.3064C30.9574 19.9874 30.6945 20.6159 30.5528 21.1742C30.4133 21.7238 30.2131 22.1177 30.0876 22.6403C29.9619 23.1639 29.8346 23.5817 29.692 24.1047C29.5429 24.6517 29.3541 25.1168 29.2273 25.5885C29.1648 25.8487 29.1014 26.0945 29.0376 26.3033C29.0055 26.4085 28.9739 26.5122 28.9465 26.8266" stroke="#500311" stroke-width="2.74597" stroke-linecap="round"/>
<path d="M56.127 28.8396C56.1496 29.7324 56.1215 31.3309 56.0905 32.1788C56.0607 32.9955 55.9857 34.1724 55.9354 34.9356C55.8616 36.0553 55.7391 36.7424 55.7041 37.4352C55.6277 38.9509 55.6471 41.3156 55.5216 41.8382C55.3959 42.3618 55.2686 42.7796 54.8495 43.2753C54.5169 43.6688 54.0124 43.7131 53.6001 43.8622C53.1262 44.0336 52.4324 44.1686 51.6889 44.2399C51.5313 44.255 51.4301 44.2979 49.5105 44.3641C47.5908 44.4304 43.8566 44.5249 41.8639 44.5582C39.2832 44.6013 38.3811 44.491 37.3945 44.4635C37.0265 44.4533 36.133 44.4087 34.8878 44.4231C34.3964 44.4288 34.1899 44.3894 30.8803 44.4555C27.5707 44.5216 21.1642 44.6838 17.795 44.7519C14.4257 44.82 14.2878 44.7893 13.3774 44.7946C10.7879 44.81 8.95503 44.8546 8.50679 44.814C6.88269 44.667 5.36379 44.7721 4.3635 44.694C4.09666 44.6732 3.82412 44.6033 3.5638 44.5584C3.03202 44.4669 2.8688 43.7985 2.57891 43.3035C2.21952 42.69 1.88106 41.7126 1.68788 40.955C1.52317 40.309 1.48259 39.6782 1.37538 36.1609C1.34313 35.103 1.59211 34.4834 1.69732 33.8382C1.79537 33.2369 1.86146 32.8124 1.9676 32.204C2.0605 31.6716 2.13175 31.1787 2.16579 30.4507C2.19234 29.8827 2.33348 29.5447 2.34405 29.2853C2.38608 28.254 5.32542 28.8104 6.17071 28.7365C6.46946 28.7104 6.77446 28.6002 7.56423 28.5283C9.10324 28.3881 10.2673 28.4079 11.6732 28.3204C12.9073 28.2436 15.2041 28.2134 16.4898 28.1979C18.4004 28.1751 19.0933 28.2874 19.9093 28.3882C20.4805 28.4589 21.4478 28.4708 22.4741 28.5311C23.4172 28.5864 24.191 28.5396 24.9315 28.5728C26.4577 28.6412 27.826 28.5857 28.6052 28.6699C30.0049 28.8211 31.4584 28.7369 32.764 28.79C34.9992 28.8811 36.0358 28.8288 37.6964 28.8729C39.9269 28.9323 41.4782 28.8292 42.3376 28.8593C44.4969 28.9352 46.083 28.8165 47.1827 28.8406C48.1443 28.8617 49.926 28.7888 50.8947 28.7471C52.961 28.6081 54.8732 28.594 55.133 28.6393C55.2891 28.653 55.4947 28.6478 55.8129 28.7437" stroke="#500311" stroke-width="2.74597" stroke-linecap="round"/>
<path d="M26.2068 71.7503C27.9272 74.5533 29.178 76.4999 29.7084 77.1778C29.8577 77.3686 29.8305 77.1854 29.4945 76.0937C29.1585 75.002 28.5316 72.9912 28.544 72.4428C28.5563 71.8943 29.227 72.8693 30.1922 74.0342C31.1573 75.1991 32.3966 76.5244 33.3266 77.4356C34.2566 78.3469 34.8398 78.8039 35.0673 78.9175C35.2949 79.031 35.1491 78.7873 34.5126 77.9229C33.8762 77.0585 32.7536 75.5809 32.0221 74.5454C30.9313 73.0012 28.5298 68.019 28.544 67.8958C28.5503 67.8409 30.814 72.1806 32.2592 73.1483C33.7043 74.1161 36.4745 76.0203 37.9526 77.047C39.4307 78.0736 39.5327 78.165 38.0253 76.4526C36.5178 74.7402 33.3977 71.2213 31.7248 69.2943C30.0519 67.3672 29.9207 67.1387 29.9551 67.1581C29.9896 67.1775 30.1937 67.4517 32.1505 69.1925C34.1073 70.9333 37.8106 74.1323 38.4061 73.64C39.0017 73.1476 36.3773 68.867 35.9002 67.8958C35.423 66.9245 37.1726 69.3924 38.6206 71.2806C40.0687 73.1689 42.8605 75.9084 43.3873 76.4526C43.9142 76.9969 42.143 75.3085 40.7495 73.4015C39.356 71.4946 36.6442 67.869 35.6335 66.4735C34.6229 65.0781 35.3956 66.0225 37.4048 67.8649C39.4139 69.7072 42.636 72.4187 42.6994 71.8505C42.7628 71.2822 39.5699 67.352 37.8958 65.2816C36.2218 63.2113 34.7274 59.9779 35.9002 61.4084C37.0729 62.839 40.9147 68.9363 42.9632 71.2128C45.0117 73.4892 46.63 74.9974 47.4419 75.7133C48.2537 76.4293 48.2099 76.3074 46.5472 74.013C44.8844 71.7185 40.5441 64.4482 40.7495 64.2282C40.9549 64.0082 45.8056 70.9739 46.2275 70.5266C46.6495 70.0793 43.5877 64.8999 42.4551 63.0162C42.2492 62.6738 44.2071 65.8568 44.3109 66.0096C45.2639 67.4121 40.2741 60.267 38.7916 58.2054C37.3091 56.1438 37.4986 56.5094 38.7772 58.2135C40.0558 59.9176 42.4178 62.9491 43.8241 64.7011C45.2304 66.4532 45.6094 66.8341 45.812 66.8703C46.0146 66.9065 46.0292 66.5866 45.6576 65.4088C45.286 64.231 44.5279 62.2049 43.9696 60.8337C43.4114 59.4624 43.0761 58.8074 42.9252 58.5766C42.7743 58.3458 42.8181 58.559 43.3873 60.0552C43.9566 61.5513 45.0501 64.3238 46.0362 66.4756C47.0224 68.6275 50.0125 71.7963 50.4555 72.4428C50.8984 73.0893 48.7684 71.1696 48.7176 70.7705C48.6668 70.3715 48.5501 69.7774 47.8121 67.6433C47.074 65.5092 45.7181 61.8532 44.8811 59.6879C44.0441 57.5227 43.7671 56.9591 44.2732 57.7731C44.7793 58.5872 46.0769 60.7961 47.0369 62.2843C48.4913 64.5388 49.2685 65.2715 49.3938 65.3183C49.4381 65.3349 51.5119 67.3993 51.2638 66.4756C51.0157 65.5519 48.4397 61.5984 47.4847 59.0666C46.5297 56.5348 45.1155 53.2292 44.766 52.5088C44.1966 51.335 46.1891 56.1286 46.5863 56.6899C46.7409 56.9084 46.8377 56.9618 46.8609 56.7571C46.8841 56.5524 46.8403 56.0801 46.4679 54.8086C46.0954 53.5371 45.3956 51.4806 45.108 50.6192C44.8204 49.7578 44.9662 50.1539 45.1944 50.6473C45.6977 51.7359 46.4962 52.9254 47.56 54.2219C48.1447 54.9344 50.6472 59.1663 51.2638 59.6879C52.2836 60.5507 51.3579 57.3164 51.8359 57.4011C52.0354 57.4364 52.1536 57.4096 52.2282 57.3484C52.3787 57.2252 52.2746 56.6138 51.8578 55.4186C51.5909 54.6535 50.9598 53.6751 50.4555 52.8677C48.9717 50.4923 48.2099 49.9318 48.0701 49.9154C47.3668 49.833 48.1198 51.7871 48.3407 52.4458C48.5489 53.0665 48.0787 50.4285 47.7328 49.7278C47.6281 49.5158 47.5764 49.6516 47.5687 49.8972C47.5494 50.5081 47.6197 50.9765 47.6712 51.0159C48.2448 51.4558 46.4706 54.5552 46.2905 54.2219C46.3486 54.0862 47.0587 46.3455 47.171 47.0356C48.3407 54.2219 50.5005 47.5175 50.4555 47.0356" stroke="#3FA9F5" stroke-width="2.74597" stroke-linecap="round"/>
<path d="M51.8761 44.2039C51.8761 44.4827 51.8901 45.5605 51.9251 47.2059C51.9501 48.3781 52.0168 48.935 52.0379 49.1524C52.1663 50.4736 52.2986 52.2445 52.3195 52.5457C52.3337 52.75 52.3823 53.0561 52.4108 56.1699C52.4393 59.2838 52.4533 65.1954 52.4256 68.5127C52.3979 71.83 52.3282 72.3737 52.2923 72.7305C52.1929 73.7175 52.1017 74.6214 51.8981 75.6692C51.8026 76.1603 51.7358 76.5235 51.6581 76.862C51.5777 77.2118 51.3421 77.5375 51.0605 77.9041C50.8782 78.0589 50.5127 78.2841 50.0625 78.5374C49.8773 78.6373 49.7797 78.6791 49.5946 78.7222" stroke="#500311" stroke-width="2.74597" stroke-linecap="round"/>
<path d="M13.0483 78.8912C13.2016 78.8772 13.355 78.8633 19.3038 78.9049C25.2527 78.9465 36.9923 79.0441 49.0877 79.1447" stroke="#500311" stroke-width="2.74597" stroke-linecap="round"/>
</svg>
