<svg width="187" height="284" viewBox="0 0 187 284" fill="none" xmlns="http://www.w3.org/2000/svg">
<path d="M88.7783 71.8927C88.0382 71.2763 87.5453 70.8649 86.9684 70.4121C86.3259 69.9079 85.6107 68.8907 85.0739 68.3323C84.4775 67.7119 83.592 67.0351 82.5845 66.09C82.0391 65.5784 81.3707 65.0189 80.8321 64.4617C80.2739 63.8843 79.6411 63.1262 78.672 61.9112C77.8399 60.868 77.4149 60.0772 77.1456 59.5404C76.877 59.0051 76.6317 58.4292 76.3018 57.4013C76.0464 56.6053 75.6854 55.5507 75.3135 54.2924C75.1714 53.8115 74.6167 51.8963 73.9169 49.1593C73.4614 47.3779 73.5011 46.6112 73.4388 45.9515C73.3492 45.005 73.2541 43.8513 73.2324 40.3829C73.2253 39.2337 73.4987 38.2549 73.6234 37.366C73.7735 36.2971 74.4425 33.9433 74.9608 32.2403C75.3769 30.873 75.6409 30.2222 76.1542 28.9677C76.723 27.5774 76.8763 26.9682 77.1438 26.3288C77.3757 25.7744 77.6175 25.115 77.9054 24.4757C78.2901 23.6213 79.0556 22.071 79.4089 21.3458C79.7278 20.6912 80.0884 20.1314 80.3762 19.6162C80.7808 18.8921 81.2002 18.1547 81.9804 17.0447C82.4693 16.3491 82.8878 15.4788 84.7761 12.7887C85.5486 11.6882 86.7522 10.4186 87.4588 9.62977C88.1195 8.89227 89.1859 8.06635 90.3973 7.03972C91.0532 6.48378 92.2547 5.61035 93.3734 4.86292C96.6423 2.67886 97.5052 2.62806 98.5318 2.31983C99.0513 2.16386 99.9612 2.09436 101.218 2.03136C104.062 1.8888 105.948 2.00912 106.4 2.07089C107.343 2.19973 108.5 2.33898 109.652 2.60521C110.879 2.889 111.67 3.2433 112.352 3.47061C113.181 3.74726 114.388 4.31317 115.253 4.72518C117.367 5.73322 118.218 6.41337 118.94 6.90815C119.635 7.3841 120.113 7.81433 120.65 8.24672C121.231 8.71449 121.885 9.29682 122.605 9.89291C123.325 10.4889 123.983 11.229 124.603 11.9517C125.505 13.0037 125.962 13.3737 126.641 14.0315C127.137 14.5115 127.486 15.0613 128.124 15.7611C128.588 16.2713 128.969 16.7908 129.647 17.5519C130.353 18.3439 130.861 19.1356 131.419 19.8176C132.202 20.777 132.717 21.7325 133.087 22.2273C133.484 22.7588 134.073 23.7067 134.692 24.7778C135.453 26.097 135.845 26.6321 136.34 27.2918C136.835 28.0331 137.246 28.7743 137.576 29.2691C137.659 29.3933 137.74 29.5156 137.824 29.7651" stroke="#500311" stroke-width="3.92895" stroke-linecap="round"/>
<path d="M88.431 33.4615C88.5953 33.7073 88.8412 34.2002 89.2118 34.7154C89.6808 35.3674 90.1581 35.7247 90.6325 36.1775C91.089 36.6132 91.5171 37.0837 92.0119 37.4136C92.4887 37.7314 92.9996 37.867 93.6173 38.1344C94.2372 38.4028 94.9342 38.3611 96.9066 38.342C97.7869 38.3334 98.1883 37.5408 98.5398 36.9435C98.8446 36.4255 99.0136 35.7297 99.1785 35.1317C99.4181 34.2632 99.4262 33.4244 99.5287 32.0092C99.7072 29.5466 99.509 27.7798 99.4472 27.3907C99.4262 26.7161 99.3854 26.133 99.3237 25.784C99.3027 25.5981 99.3027 25.3942 99.3027 25.1842" stroke="#500311" stroke-width="3.92895" stroke-linecap="round"/>
<path d="M106.122 24.6158C106.287 24.8616 106.532 25.3545 106.903 25.8697C107.372 26.5217 107.849 26.879 108.324 27.3318C108.78 27.7675 109.208 28.238 109.703 28.5679C110.18 28.8857 110.691 29.0213 111.309 29.2887C111.928 29.5571 112.626 29.5154 114.598 29.4963C115.478 29.4877 115.88 28.6951 116.231 28.0978C116.536 27.5798 116.705 26.884 116.87 26.286C117.109 25.4175 117.117 24.5787 117.22 23.1635C117.398 20.7009 117.2 18.9341 117.138 18.5449C117.117 17.8704 117.077 17.2873 117.015 16.9383C116.994 16.7524 116.994 16.5485 116.994 16.3385" stroke="#500311" stroke-width="3.92895" stroke-linecap="round"/>
<path d="M110.545 43.1717C111.162 42.6788 111.654 42.2674 112.149 41.9172C112.805 41.4529 113.589 40.7454 114.146 40.2907C114.792 39.7635 115.931 38.7736 116.7 37.9848C117.381 37.2861 118.407 36.1743 119.744 34.8172C120.016 34.5251 120.097 34.4028 120.2 34.299C120.304 34.1952 120.426 34.1137 120.552 34.0297" stroke="#500311" stroke-width="3.92895" stroke-linecap="round"/>
<path d="M88.3319 71.7756C88.0337 72.2957 87.7356 73.3404 87.4363 74.2383C87.1147 75.203 86.8389 76.2548 86.5396 77.3757C86.2213 78.5679 86.0901 79.7655 85.867 80.7396C85.6558 81.6621 85.2696 82.6799 84.7842 83.6539C84.3565 84.5124 84.1487 85.4463 83.8494 86.3441C83.5278 87.3088 83.104 88.3606 82.7285 89.2585C82.3633 90.1316 82.131 91.0508 81.8318 91.9487C81.5243 92.8711 81.0101 93.741 80.4878 94.6758C79.8833 95.7576 79.4408 96.6554 78.8075 98.1473C77.871 100.353 77.0511 101.287 76.6386 102.261C76.1367 103.446 75.2576 104.726 74.659 105.624C74.0605 106.522 73.6121 107.416 73.2758 108.314C72.9046 109.305 72.1191 110.254 71.7066 111.228C71.3084 112.169 70.9219 113.021 70.8087 114.105C70.757 114.6 70.5475 115.041 70.3245 115.414C70.2155 115.596 69.9535 115.639 69.6912 115.566C68.4977 115.235 67.5637 114.523 66.5896 114.147C65.7065 113.807 64.7973 113.55 63.8994 113.064C63.0557 112.608 62.1071 112.281 61.2092 111.682C60.3114 111.084 59.4169 110.339 58.5191 109.851C57.5894 109.345 56.7267 108.694 55.8289 108.281C54.9009 107.855 54.0365 107.497 53.1387 107.161C52.1824 106.802 51.3464 106.376 50.4485 106.077C49.4838 105.755 48.284 105.479 46.9378 105.366C46.4046 105.321 45.9637 105.105 45.4795 105.104C44.2234 105.101 43.7242 106.744 43.0124 107.678C42.0477 108.945 40.9578 110.106 40.3222 111.004C39.6329 111.978 38.9401 112.796 38.3046 113.731C37.4932 114.925 36.5503 116.083 35.8016 117.354C34.8952 118.893 34.0843 119.894 33.6326 120.868C33.2235 121.75 32.811 122.66 32.4747 123.558C32.1035 124.55 31.4659 125.351 30.9435 126.435C30.4778 127.401 29.9728 128.265 29.4113 129.349C28.9409 130.257 28.5515 131.179 28.2522 132.114C27.9091 133.186 27.6548 134.094 27.3555 134.992C27.0562 135.889 26.7581 136.784 26.6449 140.101C26.6125 141.049 26.4577 141.79 26.5316 142.686C26.6258 143.826 28.0225 144.406 29.1792 144.821C31.5387 145.667 33.3266 144.263 34.6728 143.963C35.8064 143.711 37.1377 143.218 38.1857 142.805C39.5706 142.26 40.7246 141.425 41.7727 140.789C43.0513 140.014 43.9394 139.407 44.8742 138.771C45.9821 138.018 48.3333 135.762 49.8073 134.176C49.9712 133.999 50.2165 133.95 50.4418 133.986C51.4492 134.147 52.2341 135.067 53.132 135.665C54.0298 136.264 54.9243 136.712 55.8221 137.198C56.6909 137.667 57.6145 138.057 58.5123 138.543C59.3561 138.999 60.3047 139.178 61.2395 139.478C62.3115 139.821 63.367 140.075 64.5641 140.374C65.6918 140.656 66.8777 140.972 68.151 141.085C69.3715 141.193 70.6888 141.496 71.7761 141.719C73.0895 141.989 75.1679 142.169 76.5209 142.392C78.1563 142.662 79.9565 142.765 81.3027 142.878C82.379 142.969 83.5434 143.29 84.8874 143.476C85.4781 143.558 86.4443 143.514 87.0137 143.366C88.375 143.012 88.7758 141.501 89.2645 140.603C89.8008 139.618 90.4213 138.586 91.0938 137.391C92.2431 135.35 93.3357 133.282 93.9342 132.308C94.4992 131.389 95.1291 130.516 95.6156 129.581C96.255 128.352 96.9226 127.601 97.5211 126.518C98.0887 125.49 98.864 124.315 99.6128 123.156C100.739 121.412 101.182 120.428 101.781 119.53C102.357 118.665 102.751 117.737 103.35 116.84C103.927 115.974 104.321 115.047 104.919 114.149C105.518 113.252 106.114 112.357 106.713 111.459C106.863 111.234 107.011 111.012 107.124 110.787C107.237 110.561 107.311 110.339 107.387 110.111" stroke="#500311" stroke-width="3.92895" stroke-linecap="round"/>
<path d="M127.054 45.4222C127.054 45.4943 127.019 47.1168 126.947 49.591C126.917 50.6261 126.838 50.9526 126.874 51.1716C126.882 51.2238 126.981 51.1022 127.641 49.6413C128.302 48.1803 129.549 45.3698 130.317 43.6877C131.084 42.0057 131.334 41.5372 131.516 41.2239C131.698 40.9105 131.805 40.7664 131.735 42.4397C131.665 44.113 131.416 47.6082 131.27 49.4988C131.109 51.5714 131.051 52.1155 131.051 52.5714C131.051 53.0232 131.515 50.8183 132.609 47.6469C133.342 45.5221 134.838 41.6071 135.644 39.4758C136.711 36.6561 136.847 35.997 136.955 35.9768C137.081 35.9533 136.992 36.4971 136.493 39.764C135.994 43.031 134.996 49.1565 134.481 52.5462C133.967 55.936 133.967 56.4044 134.003 56.5917C134.039 56.779 134.11 56.6709 134.164 56.5251C134.389 55.9255 134.435 55.4337 135.505 51.9708C136.501 48.7477 138.571 42.5986 139.6 39.9109C140.628 37.2232 140.593 38.1961 140.129 42.0843C139.665 45.9725 138.774 52.7466 138.315 56.4345C137.856 60.1223 137.856 60.5187 137.874 60.5968C138.005 61.1736 138.107 59.4737 138.553 57.9025C138.931 56.5734 139.748 54.2054 140.241 52.8001C140.867 51.0174 141.274 50.1588 141.723 49.0162C142.281 47.5921 142.788 46.7336 142.913 46.6779C142.982 46.6474 143.004 46.9465 143.022 48.6613C143.04 50.3761 143.04 53.583 143.076 55.163C143.112 56.7429 143.183 56.5988 143.327 56.1102C144.015 53.7701 144.192 53.1047 144.426 52.6112C144.778 51.8675 144.624 54.6618 144.696 56.9864C144.756 58.8941 144.912 59.5065 144.984 59.5802C145.056 59.3657 145.128 59.0719 145.218 58.8361C145.272 58.7083 145.343 58.5642 145.417 58.4157" stroke="#FF702D" stroke-width="3.09197" stroke-linecap="round"/>
<path d="M159.331 43.5165C159.331 43.6492 159.331 43.817 159.368 43.8516C160.033 44.4701 160.306 41.7822 161.734 39.3721C162.405 38.2385 162.903 37.5578 163.431 36.8539C163.76 36.4154 164.072 36.0817 164.26 35.9807C164.325 35.9457 164.373 36.0787 164.411 37.4232C164.449 38.7677 164.486 41.3541 164.487 42.8026C164.488 44.8561 164.337 45.4559 164.336 46.0613C164.335 46.8644 164.825 44.6259 165.369 43.304C165.501 42.9827 165.577 42.7508 166.1 41.6862C166.622 40.6216 167.591 38.7315 168.109 37.8241C168.627 36.9167 168.664 37.0494 168.683 37.6483C168.736 39.3077 168.665 40.7 168.609 41.5666C168.518 42.9616 168.552 44.0501 168.496 45.065C168.378 47.1716 168.514 48.4081 168.626 48.1076C168.898 47.3805 169.637 46.1392 170.225 45.0605C170.744 44.1079 170.922 43.819 171.072 43.6185C171.148 43.5175 171.222 43.4181 171.149 45.6383C171.076 47.8584 170.852 52.4013 170.737 54.6753C170.622 56.9492 170.622 56.8166 170.752 56.3504C171.108 55.0799 171.524 54.0362 171.805 53.3695C171.987 52.9388 172.198 52.3049 172.63 51.3503C174.338 47.5742 174.611 47.0013 174.686 46.8833C174.977 46.4248 174.613 48.9969 174.163 51.5859C173.931 52.9195 173.564 54.2744 173.317 55.1737C172.798 57.0625 172.617 57.4828 172.523 57.5672C172.151 57.902 172.202 56.5493 172.109 56.0785C171.93 55.1803 171.34 53.2374 171.074 52.6777C170.836 52.1776 170.362 54.3949 170.002 55.137C169.494 55.9082 168.894 56.5091 168.084 57.0301C167.913 57.115 167.801 57.1482 167.686 57.1824" stroke="#FF702D" stroke-width="3.09197" stroke-linecap="round"/>
<path d="M155.502 54.1363C155.213 55.1838 154.586 56.9633 154.709 56.573C155.222 54.945 155.833 53.4236 156.166 52.7647C156.674 51.7604 157.167 50.4462 157.356 50.0073C157.634 49.3587 157.252 51.4553 156.733 54.9333C156.549 56.1674 156.502 56.6228 156.543 56.8688C156.704 57.8309 158.164 54.5933 158.791 53.6872C159.425 52.7716 159.958 52.2528 160.312 51.914C160.465 51.7669 160.542 51.6498 160.584 52.0588C160.85 54.6126 160.502 55.5277 160.398 56.5447C160.36 56.9203 160.377 57.444 160.377 57.6199C160.377 57.6092 160.459 57.2676 160.605 56.9853C160.668 56.8524 160.709 56.7404 160.877 56.3988" stroke="#FF702D" stroke-width="3.09197" stroke-linecap="round"/>
<path d="M156.836 85.7579C154.794 89.2224 152.182 93.2959 150.653 95.6496C150.025 96.6163 149.534 97.3629 149.141 97.9578C147.843 100.05 147.588 100.38 147.612 100.337C147.924 99.7907 148.314 99.2105 149.141 97.9578C149.383 97.5675 149.662 97.1159 149.982 96.5939C151.666 93.8451 154.831 88.8937 156.836 85.7579Z" fill="#3FA9F5"/>
<path d="M132.518 83.2185C132.359 83.7035 131.252 86.0795 130.19 88.4493C129.239 90.5688 128.412 91.9756 128.411 92.0699C128.406 92.9117 129.882 90.1106 132.047 87.6487C133.041 86.5181 134.757 84.9724 135.592 84.2442C136.426 83.516 136.386 83.7013 135.971 84.6675C135.556 85.6337 134.767 87.3753 133.965 88.995C132.435 92.0871 131.482 93.6599 131.343 93.8839C131.275 93.993 131.243 94.1079 131.341 94.054C131.726 93.8426 131.999 93.4005 132.572 92.5646C133.051 91.8669 133.975 90.654 135.449 88.931C136.923 87.208 138.937 85.0218 139.658 84.5811C140.492 84.0715 138.899 87.2203 138.502 87.8918C138.036 88.679 137.506 89.7625 136.809 90.8646C135.855 92.3746 135.391 93.3197 135.249 93.7542C134.951 94.6634 136.781 91.8308 138.111 90.0426C138.929 88.942 140.501 87.0744 141.373 86.0267C142.644 84.4998 143.043 84.0808 143.203 83.9674C143.787 83.5526 142.292 86.1637 140.922 88.9787C140.103 90.6616 138.882 92.7942 138.015 94.2904C136.103 97.5913 135.788 98.039 135.748 98.1334C135.457 98.8063 136.901 96.549 137.758 95.3127C137.988 94.9805 138.176 94.6042 139.817 92.3012C141.458 89.9983 144.537 85.7741 146.143 83.5424C147.749 81.3107 147.788 81.1996 147.808 81.2535C148.082 81.9795 147.391 82.8412 146.758 84.3649C146.243 85.6067 145.178 87.7413 144.274 89.4599C143.371 91.1784 142.621 92.4012 142.155 93.1978C140.878 95.3842 140.014 97.0285 140.033 97.1413C140.072 97.3693 140.807 96.2503 142.708 93.5353C144.164 91.4555 146.819 88.0782 148.26 86.2294C149.864 84.1714 150.18 83.8563 150.359 83.5761C150.448 83.4373 150.578 83.333 150.264 84.2021C149.95 85.0712 149.2 86.9239 147.925 89.4902C146.651 92.0565 144.874 95.2802 143.9 97.1076C142.926 98.9351 142.807 99.2686 142.845 99.3477C142.883 99.4269 143.08 99.2416 145.747 95.8483C148.415 92.4551 153.546 85.8594 156.506 82.1282C159.465 78.3969 160.097 77.73 160.521 77.2567C160.945 76.7834 161.142 76.524 161.323 76.3163C161.503 76.1085 161.661 75.9603 161.229 77.0882C160.797 78.2161 159.771 80.6247 157.664 84.3295C155.556 88.0344 152.398 92.9626 150.653 95.6496C148.703 98.6517 148.072 99.5313 147.612 100.337C147.583 100.388 147.947 99.9142 149.982 96.5939C151.868 93.5164 155.609 87.6785 157.5 84.718C159.392 81.7576 159.353 81.8688 157.201 85.6685C155.049 89.4683 150.786 96.9532 148.55 100.902C146.314 104.85 146.236 105.036 146.254 105.112C146.286 105.244 146.75 104.818 147.207 104.202C147.439 103.89 147.625 103.549 150.313 99.7828C153 96.0168 158.171 88.8283 160.874 85.0695C163.577 81.3107 163.656 81.1996 163.677 81.2535C163.778 81.5135 163.421 82.2034 162.983 83.2847C162.728 83.9161 162.467 84.7366 159.996 89.251C157.525 93.7655 152.867 101.954 150.546 106.099C148.226 110.243 148.384 110.095 148.584 109.871C148.783 109.646 149.02 109.35 152.32 104.343C155.619 99.3359 161.974 89.6277 165.209 84.8303C168.443 80.0329 168.364 80.4405 167.238 83.059C166.112 85.6775 163.941 90.4946 161.599 95.1252C159.257 99.7559 156.809 104.054 155.49 106.435C154.17 108.816 154.051 109.15 156.951 104.597C159.85 100.044 165.771 90.5956 168.821 85.7836C171.871 80.9716 171.871 81.0828 171.141 82.9001C170.411 84.7175 168.95 88.2376 166.501 92.9783C164.051 97.719 160.656 103.574 158.868 106.701C157.08 109.828 157.001 110.05 157.039 110.109C157.077 110.168 157.235 110.057 160.08 105.461C162.924 100.864 168.45 91.7859 171.278 87.2574C174.105 82.7289 174.065 83.0253 171.005 88.94C167.946 94.8546 161.867 106.378 158.735 112.371C155.604 118.363 155.604 118.474 155.663 118.457C155.722 118.44 155.841 118.292 158.092 114.899C160.344 111.507 164.726 104.874 167.2 101.198C169.674 97.5214 170.108 97.0026 170.806 96.0128C171.503 95.0231 172.45 93.5779 172.938 92.8891C173.426 92.2002 173.426 92.3114 171.078 97.5377C168.729 102.764 164.032 113.102 161.671 118.391C159.311 123.679 159.429 123.605 161.957 119.973C164.485 116.34 169.419 109.152 172.02 105.338C174.621 101.523 174.74 101.301 174.781 101.353C174.822 101.405 174.783 101.739 173.499 104.616C172.216 107.492 169.69 112.902 168.369 115.763C167.047 118.624 167.008 118.773 167.067 118.756C167.125 118.74 167.283 118.555 168.193 117.181C169.104 115.807 170.761 113.25 171.734 111.785C172.706 110.32 172.943 110.023 173.065 109.945C173.183 109.869 173.108 110.463 172.732 111.672C171.971 114.118 171.393 115.78 171.393 115.874C171.393 115.858 171.393 115.709 171.413 115.577C171.432 115.446 171.472 115.334 171.632 114.995" stroke="#3FA9F5" stroke-width="3.09197" stroke-linecap="round"/>
<path d="M126.401 65.5221C126.166 66.2279 125.93 66.9337 125.241 68.4737C124.551 70.0137 123.414 72.3664 122.808 73.6372C122.203 74.9081 122.164 75.0257 122.104 75.1451C122.045 75.2646 121.966 75.3822 122.828 73.9527C123.689 72.5233 125.493 69.5431 126.422 68.0667C127.351 66.5903 127.351 66.7079 127.332 66.8862C127.286 67.3013 126.88 68.64 125.659 71.8721C124.845 74.0273 123.418 77.1432 122.672 78.818C121.869 80.6203 121.727 80.8493 121.746 80.8315C122.162 80.4419 122.28 79.6647 122.714 78.9357C123.434 77.7257 124.1 76.4587 124.654 75.5693C124.909 75.1595 125.051 74.7976 126.308 72.812C127.565 70.8264 129.918 67.2189 131.169 65.3016C132.421 63.3844 132.499 63.2668 132.539 63.2846C132.58 63.3024 132.58 63.4593 132.05 65.1086C131.521 66.7578 130.462 69.8948 129.603 72.2167C128.744 74.5385 128.117 75.9502 127.715 76.795C127.193 77.8932 126.877 78.5097 126.66 79.1626C126.572 79.4276 126.482 79.5411 128.01 77.1509C129.538 74.7607 132.675 69.8592 134.408 67.1773C136.142 64.4954 136.377 64.1817 136.499 64.0985C136.62 64.0154 136.62 64.1722 136.051 65.6254C135.483 67.0787 134.346 69.8235 133.191 72.3355C132.037 74.8475 130.9 77.0434 130.294 78.2334C129.689 79.4234 129.65 79.5411 129.59 79.6801C129.531 79.8191 129.452 79.976 130.431 78.5667C131.411 77.1574 133.45 74.1773 134.657 72.4656C136.135 70.3701 136.736 69.6845 137.661 68.444C139.417 66.0897 140.817 64.5334 141.015 64.5311C141.175 64.5291 140.978 65.1561 140.35 66.8689C139.721 68.5818 138.545 71.5227 137.194 74.4102C135.843 77.2977 134.353 80.0425 133.565 81.5154C132.778 82.9882 132.739 83.1058 132.895 82.8331C133.052 82.5604 133.404 81.8938 135.488 78.9036C137.572 75.9133 141.375 70.6197 143.393 67.8338C145.412 65.048 145.529 64.9303 145.59 64.9481C145.651 64.966 145.651 65.1228 145.082 66.6153C144.513 68.1077 143.376 70.931 142.065 73.7775C140.754 76.6239 139.303 79.408 138.536 80.9206C137.697 82.5742 137.611 82.9086 137.551 83.0678C137.544 83.0852 137.687 82.9133 139.806 79.8916C141.925 76.8699 146.043 70.988 148.183 67.8992C150.324 64.8103 150.363 64.6927 150.383 64.7301C150.404 64.7675 150.404 64.9636 150.051 66.0057C149.698 67.0478 148.992 68.93 147.609 71.8798C146.226 74.8297 144.187 78.7901 143.097 80.8891C142.007 82.9882 141.929 83.1058 141.967 83.0684C142.005 83.031 142.162 82.8349 143.184 81.2634C144.206 79.692 146.088 76.7511 147.842 74.1969C149.596 71.6428 151.164 69.5645 152.09 68.3762C153.219 66.9272 153.728 66.3966 154.104 65.9997C154.238 65.8586 153.697 68.2348 152.649 71.4413C152.127 73.0356 151.398 74.3448 150.647 75.987C149.664 78.1334 148.426 80.1328 147.851 81.223C147.738 81.4372 147.711 81.5611 147.671 81.6805C147.631 81.7999 147.592 81.9176 147.964 81.2724C148.336 80.6271 149.12 79.2155 150.975 76.4688C152.83 73.7222 155.732 69.6833 157.266 67.5243C158.8 65.3652 158.878 65.2084 158.919 65.2452C158.959 65.282 158.959 65.5173 158.39 67.0109C157.822 68.5046 156.685 71.2494 155.883 73.0556C154.72 75.6778 154.049 76.8461 153.733 77.5775C153.459 78.2112 153.02 79.0622 152.722 79.8946C152.638 80.1319 152.778 80.0211 152.897 79.8821C153.017 79.7431 153.134 79.5862 154.94 77.1331C156.745 74.6799 160.235 69.9352 162.111 67.4126C164.119 64.7137 164.424 64.4146 164.582 64.3142C164.641 64.2769 164.584 64.6451 163.29 67.4922C161.995 70.3392 159.446 75.7505 158.114 78.597C156.781 81.4435 156.742 81.5611 156.761 81.5629C157.316 81.6149 157.609 80.2208 159.989 76.681C161.837 73.9319 165.54 68.8729 167.418 66.3253C169.297 63.7777 169.297 63.9346 169.258 64.1134C169.173 64.4972 168.981 65.004 168.47 66.4792C168.064 67.6504 167.253 69.6405 166.751 70.8276C166.249 72.0147 166.053 72.3284 165.599 73.2154C164.41 75.5386 163.516 77.5971 163.297 78.3112C163.253 78.4561 163.672 77.8027 165.182 75.4862C166.58 73.3428 169.399 69.3269 171.206 66.7757C173.012 64.2245 173.758 63.2834 174.161 62.8966C174.564 62.5098 174.604 62.7059 174.565 63.0814C174.526 63.4569 174.409 64.0059 173.525 66.4649C172.641 68.924 170.994 73.2766 170.106 75.5973C169.218 77.9179 169.14 78.0748 169.08 78.2144C169.02 78.354 168.981 78.4716 170.255 76.6697C171.528 74.8677 174.116 71.1425 175.94 68.6353C177.763 66.1281 178.743 64.9517 179.248 64.5025C179.753 64.0534 179.753 64.3671 179.714 64.6267C179.675 64.8863 179.597 65.0824 179.321 66.0853C179.045 67.0882 178.575 68.892 177.881 71.0367C177.188 73.1815 176.286 75.6127 175.782 76.9436C175.217 78.4376 175.08 78.7105 175.079 78.8103C175.078 79.0447 175.749 77.6898 176.539 76.227C177.755 73.9773 178.798 72.8156 179.63 71.6077C179.958 71.133 180.573 70.4866 180.876 70.3196C181.179 70.1527 181.179 70.5056 181.16 70.7658C181.101 71.1829 180.825 72.1288 180.449 73.415C180.308 73.9171 180.269 74.1131 180.11 74.5528" stroke="#3FA9F5" stroke-width="3.09197" stroke-linecap="round"/>
<path d="M119.294 62.7507C119.294 63.8131 119.375 65.7132 119.438 66.7207C119.498 67.691 119.622 69.0883 119.705 69.9945C119.827 71.3238 119.993 72.1373 120.055 72.9601C120.192 74.7604 120.24 77.5732 120.405 78.1909C120.57 78.8097 120.734 79.3027 121.248 79.8797C121.655 80.3376 122.256 80.3751 122.751 80.54C123.32 80.7296 124.149 80.8692 125.035 80.9316C125.223 80.9448 125.345 80.9928 127.63 81.0138C129.915 81.0348 134.358 81.0348 136.729 81.0144C139.799 80.988 140.869 80.8297 142.041 80.7673C142.479 80.7441 143.54 80.6642 145.021 80.6438C145.606 80.6357 145.85 80.5826 149.788 80.5616C153.726 80.5406 161.35 80.5406 165.359 80.5202C169.367 80.4999 169.531 80.4591 170.613 80.4381C173.693 80.3783 175.874 80.3763 176.406 80.3145C178.333 80.0907 180.143 80.17 181.33 80.0471C181.647 80.0143 181.969 79.9229 182.277 79.8618C182.907 79.7368 183.081 78.9371 183.41 78.3397C183.819 77.5992 184.192 76.4267 184.399 75.5199C184.576 74.7467 184.605 73.9954 184.627 69.8092C184.633 68.5501 184.318 67.8208 184.174 67.0567C184.039 66.3446 183.948 65.8417 183.803 65.1214C183.677 64.4911 183.577 63.907 183.515 63.0422C183.466 62.3676 183.288 61.9699 183.268 61.6617C183.187 60.4364 179.708 61.1866 178.7 61.1243C178.344 61.1022 177.978 60.9803 177.037 60.9186C175.202 60.7982 173.819 60.8568 172.144 60.795C170.674 60.7408 167.942 60.774 166.412 60.7944C164.14 60.8247 163.319 60.9791 162.352 61.1236C161.674 61.2248 160.524 61.2682 159.306 61.3707C158.186 61.4649 157.264 61.4325 156.385 61.4943C154.572 61.6216 152.943 61.5968 152.019 61.7203C150.359 61.9423 148.627 61.8859 147.076 61.9884C144.421 62.164 143.187 62.133 141.213 62.2355C138.562 62.3732 136.714 62.2973 135.693 62.359C133.128 62.5143 131.238 62.4208 129.931 62.4826C128.788 62.5366 126.667 62.5036 125.513 62.4832C123.052 62.3801 120.777 62.4208 120.47 62.4826C120.285 62.5036 120.04 62.5036 119.664 62.6271" stroke="#500311" stroke-width="3.92895" stroke-linecap="round"/>
<path d="M124.235 81.6525C124.235 82.8768 124.317 85.3562 124.379 86.6713C124.399 86.9635 124.44 87.0858 124.461 87.5361C124.482 87.9864 124.482 88.761 124.482 89.5591" stroke="#500311" stroke-width="3.92895" stroke-linecap="round"/>
<path d="M176.37 81.8995C176.411 82.3505 176.493 83.5797 176.616 84.5118C176.744 85.4781 176.822 86.5496 176.884 87.8246C176.943 89.021 177.028 90.3399 177.09 93.135C177.148 95.7665 177.111 100.863 177.091 103.55C177.07 106.236 177.03 106.358 177.009 107.257C176.905 111.671 176.864 112.572 176.762 113.318C176.666 114.015 176.617 114.594 176.514 115.191C176.378 115.986 176.288 116.57 176.226 117.415C176.181 118.02 176.041 118.589 175.876 119.084C175.794 119.33 175.711 119.578 175.589 119.804C175.315 120.308 174.643 120.402 174.148 120.567C173.579 120.757 172.832 120.897 172.069 120.959C171.296 121.022 169.995 121.186 168.839 121.288C167.497 121.407 166.488 121.35 165.508 121.412C161.307 121.676 160.643 121.309 159.921 121.207C159.531 121.186 159.199 121.145 158.952 121.063C158.828 121.021 158.706 120.981 158.333 120.939" stroke="#500311" stroke-width="3.92895" stroke-linecap="round"/>
<path d="M150.35 48.4038C150.542 48.2842 152.512 45.7103 152.859 45.1064C153.281 44.3717 154.014 43.7392 154.939 42.4917C155.757 41.389 157.594 39.1957 158.199 38.3226C158.632 37.6974 158.989 37.2561 159.412 36.6722C159.801 36.1369 160.603 35.2875 161.34 34.5985C161.909 34.0659 162.458 33.2706 163.055 32.5864C163.743 31.797 164.808 30.6546 165.329 30.2301C165.917 29.7522 166.466 29.4445 166.929 29.183C167.365 28.9373 168.159 28.9203 168.856 28.8201C169.048 28.7925 169.316 28.7996 169.549 28.8992C170.398 29.2624 170.553 30.0049 170.996 30.5882C171.656 31.4575 171.786 32.2972 172.134 32.924C172.472 33.5319 172.75 34.1112 173.078 34.6951C173.412 35.2898 173.868 35.802 174.12 36.2857C174.406 36.8349 174.908 37.6112 175.276 38.3383C175.739 39.2559 176.335 40.2706 176.548 40.8546C176.754 41.419 176.953 41.9615 177.203 42.5454C177.413 43.0346 177.531 43.5315 177.686 44.0351C177.863 44.6126 177.917 45.1813 178.033 45.706C178.147 46.2299 178.225 46.7924 178.283 47.8775C178.342 48.9656 178.456 50.4156 178.477 52.7036C178.485 53.6024 178.304 54.2393 178.053 54.764C177.833 55.2265 177.725 55.7296 177.571 56.2133C177.417 56.697 177.11 57.1789 176.647 57.6825C176.127 58.2485 175.607 58.6693 174.76 59.2924C174.241 59.6739 173.757 59.7973 173.293 60.0587C173.177 60.1197 173.063 60.1596 172.946 60.22C172.83 60.2804 172.716 60.3601 172.366 60.563" stroke="#500311" stroke-width="3.92895" stroke-linecap="round"/>
<path d="M150.828 51.4359L153.554 48.689C154.122 48.0942 156.351 47.2893 156.351 47.2893C156.351 47.2893 158.454 46.485 159.174 46.4226C159.867 46.3626 160.512 46.1959 161.049 46.3392C161.612 46.4897 162.036 46.9767 162.531 47.3066C163.073 47.6678 163.969 48.4963 164.591 49.1591C164.969 49.5625 165.085 50.1468 165.353 50.6619C165.678 51.2872 165.622 52.2445 165.724 53.2934C165.983 55.9419 165.54 56.4474 165.375 57.0447C165.21 57.5605 165.087 57.9311 164.984 58.1776C164.922 58.3017 164.841 58.424 164.757 58.5501" stroke="#500311" stroke-width="3.92895" stroke-linecap="round"/>
<path d="M133.644 62.2565C133.439 61.9699 133.028 61.4757 132.308 60.8179C131.668 60.2332 130.97 59.7881 130.208 59.2112C129.501 58.6759 128.704 58.2636 128.189 57.9134C127.476 57.4287 126.646 56.8651 126.109 56.5538C125.605 56.2612 125.122 55.9163 124.524 55.484C124.026 55.123 123.639 54.6809 123.144 54.2485C122.688 53.8494 122.157 53.5691 121.457 52.9316C120.965 52.4837 120.509 52.1286 120.036 51.7159C119.892 51.591 119.728 51.4293 119.644 51.2638C119.363 50.7105 119.847 50.0704 120.197 49.4724C120.669 48.667 121.082 48.1753 121.412 47.6805C121.773 47.1386 122.194 46.5692 122.749 45.9719C123.247 45.436 124.042 44.432 124.644 43.7271C125.089 43.2064 125.611 42.6579 126.393 41.8135C126.861 41.3084 127.259 40.8863 128.512 39.5712C129.15 38.9015 129.525 38.292 130.018 37.6946C130.422 37.2042 130.718 36.6859 131.233 36.0886C131.603 35.6591 131.954 35.2034 132.304 34.729C132.651 34.2593 133.392 33.5999 134.628 32.3638C135.248 31.743 135.741 31.4132 136.236 31.2482C136.731 31.0833 138.121 31.0005 139.078 31.2464C139.676 31.4002 140.065 32.1915 140.437 32.7487C140.816 33.3167 141.014 33.8395 141.282 34.3343C141.533 34.7993 141.713 35.322 141.92 35.8168C142.121 36.298 142.25 36.8045 142.517 37.2993C142.776 37.7781 142.991 38.287 143.279 38.8843C143.535 39.417 143.814 39.893 144.123 40.3878C144.431 40.8809 144.678 41.4991 144.988 41.9939C145.276 42.4553 145.462 42.9816 145.79 43.5783C146.413 44.7085 146.818 45.9021 147.601 47.9381C148.179 49.4418 148.508 49.9814 148.715 50.6615C148.96 51.4657 149.291 52.2052 149.477 52.8649C149.659 53.5143 149.909 53.9768 150.074 54.5945C150.239 55.2133 150.403 55.7063 150.589 56.324C150.782 56.9701 151.021 57.5174 151.186 58.0746C151.268 58.3822 151.351 58.6726 151.433 58.919C151.474 59.0432 151.515 59.1655 151.557 59.5386" stroke="#500311" stroke-width="3.92895" stroke-linecap="round"/>
<path d="M127.054 45.4222C127.054 45.4943 127.019 47.1168 126.947 49.591C126.917 50.6261 126.838 50.9526 126.874 51.1716C126.882 51.2238 126.981 51.1022 127.641 49.6413C128.302 48.1803 129.549 45.3698 130.317 43.6877C131.084 42.0057 131.334 41.5372 131.516 41.2239C131.698 40.9105 131.805 40.7664 131.735 42.4397C131.665 44.113 131.416 47.6082 131.27 49.4988C131.109 51.5714 131.051 52.1155 131.051 52.5714C131.051 53.0232 131.515 50.8183 132.609 47.6469C133.342 45.5221 134.838 41.6071 135.644 39.4758C136.711 36.6561 136.847 35.997 136.955 35.9768C137.081 35.9533 136.992 36.4971 136.493 39.764C135.994 43.031 134.996 49.1565 134.481 52.5462C133.967 55.936 133.967 56.4044 134.003 56.5917C134.039 56.779 134.11 56.6709 134.164 56.5251C134.389 55.9255 134.435 55.4337 135.505 51.9708C136.501 48.7477 138.571 42.5986 139.6 39.9109C140.628 37.2232 140.593 38.1961 140.129 42.0843C139.665 45.9725 138.774 52.7466 138.315 56.4345C137.856 60.1223 137.856 60.5187 137.874 60.5968C138.005 61.1736 138.107 59.4737 138.553 57.9025C138.931 56.5734 139.748 54.2054 140.241 52.8001C140.867 51.0174 141.274 50.1588 141.723 49.0162C142.281 47.5921 142.788 46.7336 142.913 46.6779C142.982 46.6474 143.004 46.9465 143.022 48.6613C143.04 50.3761 143.04 53.583 143.076 55.163C143.112 56.7429 143.183 56.5988 143.327 56.1102C144.015 53.7701 144.192 53.1047 144.426 52.6112C144.778 51.8675 144.624 54.6618 144.696 56.9864C144.756 58.8941 144.912 59.5065 144.984 59.5802C145.056 59.3657 145.128 59.0719 145.218 58.8361C145.272 58.7083 145.343 58.5642 145.417 58.4157" stroke="#FF702D" stroke-width="3.09197" stroke-linecap="round"/>
<path d="M159.331 43.5165C159.331 43.6492 159.331 43.817 159.368 43.8516C160.033 44.4701 160.306 41.7822 161.734 39.3721C162.405 38.2385 162.903 37.5578 163.431 36.8539C163.76 36.4154 164.072 36.0817 164.26 35.9807C164.325 35.9457 164.373 36.0787 164.411 37.4232C164.449 38.7677 164.486 41.3541 164.487 42.8026C164.488 44.8561 164.337 45.4559 164.336 46.0613C164.335 46.8644 164.825 44.6259 165.369 43.304C165.501 42.9827 165.577 42.7508 166.1 41.6862C166.622 40.6216 167.591 38.7315 168.109 37.8241C168.627 36.9167 168.664 37.0494 168.683 37.6483C168.736 39.3077 168.665 40.7 168.609 41.5666C168.518 42.9616 168.552 44.0501 168.496 45.065C168.378 47.1716 168.514 48.4081 168.626 48.1076C168.898 47.3805 169.637 46.1392 170.225 45.0605C170.744 44.1079 170.922 43.819 171.072 43.6185C171.148 43.5175 171.222 43.4181 171.149 45.6383C171.076 47.8584 170.852 52.4013 170.737 54.6753C170.622 56.9492 170.622 56.8166 170.752 56.3504C171.108 55.0799 171.524 54.0362 171.805 53.3695C171.987 52.9388 172.198 52.3049 172.63 51.3503C174.338 47.5742 174.611 47.0013 174.686 46.8833C174.977 46.4248 174.613 48.9969 174.163 51.5859C173.931 52.9195 173.564 54.2744 173.317 55.1737C172.798 57.0625 172.617 57.4828 172.523 57.5672C172.151 57.902 172.202 56.5493 172.109 56.0785C171.93 55.1803 171.34 53.2374 171.074 52.6777C170.836 52.1776 170.362 54.3949 170.002 55.137C169.494 55.9082 168.894 56.5091 168.084 57.0301C167.913 57.115 167.801 57.1482 167.686 57.1824" stroke="#FF702D" stroke-width="3.09197" stroke-linecap="round"/>
<path d="M155.502 54.1363C155.213 55.1838 154.586 56.9633 154.709 56.573C155.222 54.945 155.833 53.4236 156.166 52.7647C156.674 51.7604 157.167 50.4462 157.356 50.0073C157.634 49.3587 157.252 51.4553 156.733 54.9333C156.549 56.1674 156.502 56.6228 156.543 56.8688C156.704 57.8309 158.164 54.5933 158.791 53.6872C159.425 52.7716 159.958 52.2528 160.312 51.914C160.465 51.7669 160.542 51.6498 160.584 52.0588C160.85 54.6126 160.502 55.5277 160.398 56.5447C160.36 56.9203 160.377 57.444 160.377 57.6199C160.377 57.6092 160.459 57.2676 160.605 56.9853C160.668 56.8524 160.709 56.7404 160.877 56.3988" stroke="#FF702D" stroke-width="3.09197" stroke-linecap="round"/>
<path d="M156.836 85.7579C154.794 89.2224 152.182 93.2959 150.653 95.6496C150.025 96.6163 149.534 97.3629 149.141 97.9578C147.843 100.05 147.588 100.38 147.612 100.337C147.924 99.7907 148.314 99.2105 149.141 97.9578C149.383 97.5675 149.662 97.1159 149.982 96.5939C151.666 93.845 154.831 88.8937 156.836 85.7579C157.075 85.383 157.298 85.0341 157.5 84.718C159.392 81.7576 159.353 81.8688 157.201 85.6685C155.049 89.4683 150.786 96.9532 148.55 100.902C146.314 104.85 146.236 105.036 146.254 105.112C146.286 105.244 146.75 104.818 147.207 104.202C147.439 103.89 147.625 103.549 150.313 99.7828C152.891 96.1688 157.757 89.403 160.535 85.541L160.874 85.0695L161.006 84.8862C163.58 81.3071 163.657 81.2005 163.677 81.2535C163.778 81.5135 163.421 82.2034 162.983 83.2847C162.728 83.9161 162.467 84.7366 159.996 89.251C157.525 93.7655 152.867 101.954 150.546 106.099C148.226 110.243 148.384 110.095 148.584 109.871C148.783 109.646 149.02 109.35 152.32 104.343C155.619 99.3359 161.974 89.6277 165.209 84.8303C168.443 80.0329 168.364 80.4405 167.238 83.059C166.112 85.6775 163.941 90.4946 161.599 95.1252C159.257 99.7559 156.81 104.054 155.49 106.435C154.17 108.816 154.051 109.15 156.951 104.597C159.85 100.044 165.771 90.5956 168.821 85.7836C171.871 80.9716 171.871 81.0828 171.141 82.9001C170.411 84.7175 168.95 88.2376 166.501 92.9783C164.051 97.719 160.656 103.574 158.868 106.701C157.08 109.828 157.001 110.05 157.039 110.109C157.077 110.168 157.235 110.057 160.08 105.461C162.924 100.864 168.45 91.7859 171.278 87.2574C174.105 82.7289 174.065 83.0253 171.005 88.94C167.946 94.8546 161.867 106.378 158.735 112.371C155.604 118.363 155.604 118.474 155.663 118.457C155.722 118.44 155.841 118.292 158.092 114.899C160.344 111.507 164.726 104.874 167.2 101.198C169.674 97.5214 170.108 97.0026 170.806 96.0128C171.503 95.0231 172.45 93.5779 172.938 92.8891C173.426 92.2002 173.426 92.3114 171.078 97.5377C168.729 102.764 162.862 108.615 163.501 114.371C163.688 116.062 163.459 117.333 163.184 118.147C162.745 119.443 162.189 119.576 163.014 118.391C163.07 118.31 163.127 118.229 163.184 118.147C163.459 117.333 163.688 116.062 163.501 114.371C162.862 108.615 168.729 102.764 171.078 97.5377C173.426 92.3114 173.426 92.2002 172.938 92.8891C172.45 93.5779 171.503 95.0231 170.806 96.0128C170.108 97.0026 169.674 97.5214 167.2 101.198C164.726 104.874 160.344 111.507 158.092 114.899C155.841 118.292 155.722 118.44 155.663 118.457C155.604 118.474 155.604 118.363 158.735 112.371C161.867 106.378 167.946 94.8546 171.005 88.94C174.065 83.0253 174.105 82.7289 171.278 87.2574C168.45 91.7859 162.924 100.864 160.08 105.461C157.235 110.057 157.077 110.168 157.039 110.109C157.001 110.05 157.08 109.828 158.868 106.701C160.656 103.574 164.051 97.719 166.501 92.9783C168.95 88.2376 170.411 84.7175 171.141 82.9001C171.871 81.0828 171.871 80.9716 168.821 85.7836C165.771 90.5956 159.85 100.044 156.951 104.597C154.051 109.15 154.17 108.816 155.49 106.435C156.81 104.054 159.257 99.7559 161.599 95.1252C163.941 90.4946 166.112 85.6775 167.238 83.059C168.364 80.4405 168.443 80.0329 165.209 84.8303C161.974 89.6277 155.619 99.3359 152.32 104.343C149.02 109.35 148.783 109.646 148.584 109.871C148.384 110.095 148.226 110.243 150.546 106.099C152.867 101.954 157.525 93.7655 159.996 89.251C162.467 84.7366 162.728 83.9161 162.983 83.2847C163.421 82.2034 163.778 81.5135 163.677 81.2535C163.657 81.2005 163.58 81.3071 161.006 84.8862L160.874 85.0695L160.535 85.541C157.757 89.403 152.891 96.1688 150.313 99.7828C147.625 103.549 147.439 103.89 147.207 104.202C146.75 104.818 146.286 105.244 146.254 105.112C146.236 105.036 146.314 104.85 148.55 100.902C150.786 96.9532 155.049 89.4683 157.201 85.6685C159.353 81.8688 159.392 81.7576 157.5 84.718C157.298 85.0341 157.075 85.383 156.836 85.7579Z" fill="#3FA9F5"/>
<path d="M132.518 83.2185C132.359 83.7035 131.252 86.0795 130.19 88.4493C129.239 90.5688 128.412 91.9756 128.411 92.0699C128.406 92.9117 129.882 90.1106 132.047 87.6487C133.041 86.5181 134.757 84.9724 135.592 84.2442C136.426 83.516 136.386 83.7013 135.971 84.6675C135.556 85.6337 134.767 87.3753 133.965 88.995C132.435 92.0871 131.482 93.6599 131.343 93.8839C131.275 93.993 131.243 94.1079 131.341 94.054C131.726 93.8426 131.999 93.4005 132.572 92.5646C133.051 91.8669 133.975 90.654 135.449 88.931C136.923 87.208 138.937 85.0218 139.658 84.5811C140.492 84.0715 138.899 87.2203 138.502 87.8918C138.036 88.679 137.506 89.7625 136.809 90.8646C135.855 92.3746 135.391 93.3197 135.249 93.7542C134.951 94.6634 136.781 91.8308 138.111 90.0426C138.929 88.942 140.501 87.0744 141.373 86.0267C142.644 84.4998 143.043 84.0808 143.203 83.9674C143.787 83.5526 142.292 86.1637 140.922 88.9787C140.103 90.6616 138.882 92.7942 138.015 94.2904C136.103 97.5913 135.788 98.039 135.748 98.1334C135.457 98.8063 136.901 96.549 137.758 95.3127C137.988 94.9805 138.176 94.6042 139.817 92.3012C141.458 89.9983 144.537 85.7741 146.143 83.5424C147.749 81.3107 147.788 81.1996 147.808 81.2535C148.082 81.9795 147.391 82.8412 146.758 84.3649C146.243 85.6067 145.178 87.7413 144.274 89.4599C143.371 91.1784 142.621 92.4012 142.155 93.1979C140.878 95.3842 140.014 97.0285 140.033 97.1413C140.072 97.3693 140.807 96.2503 142.708 93.5353C144.164 91.4555 146.819 88.0782 148.26 86.2294C149.864 84.1714 150.18 83.8563 150.359 83.5761C150.448 83.4373 150.578 83.333 150.264 84.2021C149.95 85.0712 149.2 86.9239 147.925 89.4902C146.651 92.0565 144.874 95.2802 143.9 97.1076C142.926 98.9351 142.807 99.2686 142.845 99.3477C142.883 99.4269 143.08 99.2416 145.747 95.8484C148.415 92.4551 153.546 85.8594 156.506 82.1282C159.465 78.3969 160.097 77.73 160.521 77.2567C160.945 76.7834 161.142 76.524 161.323 76.3163C161.503 76.1085 161.661 75.9603 161.229 77.0882C160.797 78.2161 159.771 80.6247 157.664 84.3295C155.556 88.0344 152.398 92.9626 150.653 95.6496C148.703 98.6517 148.072 99.5313 147.612 100.337C147.583 100.388 147.947 99.9142 149.982 96.5939C151.868 93.5164 155.609 87.6785 157.5 84.718C159.392 81.7576 159.353 81.8688 157.201 85.6685C155.049 89.4683 150.786 96.9532 148.55 100.902C146.314 104.85 146.236 105.036 146.254 105.112C146.286 105.244 146.75 104.818 147.207 104.202C147.439 103.89 147.625 103.549 150.313 99.7828C153 96.0168 158.171 88.8283 160.874 85.0695C163.577 81.3107 163.656 81.1996 163.677 81.2535C163.778 81.5135 163.421 82.2034 162.983 83.2847C162.728 83.9161 162.467 84.7366 159.996 89.251C157.525 93.7655 152.867 101.954 150.546 106.099C148.226 110.243 148.384 110.095 148.584 109.871C148.783 109.646 149.02 109.35 152.32 104.343C155.619 99.3359 161.974 89.6277 165.209 84.8303C168.443 80.0329 168.364 80.4405 167.238 83.059C166.112 85.6775 163.941 90.4946 161.599 95.1252C159.257 99.7559 156.81 104.054 155.49 106.435C154.17 108.816 154.051 109.15 156.951 104.597C159.85 100.044 165.771 90.5956 168.821 85.7836C171.871 80.9716 171.871 81.0828 171.141 82.9001C170.411 84.7175 168.95 88.2376 166.501 92.9783C164.051 97.719 160.656 103.574 158.868 106.701C157.08 109.828 157.001 110.05 157.039 110.109C157.077 110.168 157.235 110.057 160.08 105.461C162.924 100.864 168.45 91.7859 171.278 87.2574C174.105 82.7289 174.065 83.0253 171.005 88.94C167.946 94.8546 161.867 106.378 158.735 112.371C155.604 118.363 155.604 118.474 155.663 118.457C155.722 118.44 155.841 118.292 158.092 114.899C160.344 111.507 164.726 104.874 167.2 101.198C169.674 97.5214 170.108 97.0026 170.806 96.0128C171.503 95.0231 172.45 93.5779 172.938 92.8891C173.426 92.2002 173.426 92.3114 171.078 97.5377C168.729 102.764 162.862 108.615 163.501 114.371C163.987 118.756 161.671 120.32 163.014 118.391C165.542 114.758 169.419 109.152 172.02 105.338C174.621 101.523 174.74 101.301 174.781 101.353C174.822 101.405 174.783 101.739 173.499 104.616C172.216 107.492 169.69 112.902 168.369 115.763C167.047 118.624 167.008 118.773 167.067 118.756C167.125 118.74 167.283 118.555 168.193 117.181C169.104 115.807 170.761 113.25 171.734 111.785C172.706 110.32 172.943 110.023 173.065 109.945C173.183 109.869 173.108 110.463 172.732 111.672C171.971 114.118 171.393 115.78 171.393 115.874C171.393 115.858 171.393 115.709 171.413 115.577C171.432 115.446 171.472 115.334 171.632 114.995" stroke="#3FA9F5" stroke-width="3.09197" stroke-linecap="round"/>
<path d="M126.401 65.5221C126.166 66.2279 125.93 66.9337 125.241 68.4737C124.551 70.0137 123.414 72.3664 122.808 73.6372C122.203 74.9081 122.164 75.0257 122.104 75.1451C122.045 75.2646 121.966 75.3822 122.828 73.9527C123.689 72.5233 125.493 69.5431 126.422 68.0667C127.351 66.5903 127.351 66.7079 127.332 66.8862C127.286 67.3013 126.88 68.64 125.659 71.8721C124.845 74.0273 123.418 77.1432 122.672 78.818C121.869 80.6203 121.727 80.8493 121.746 80.8315C122.162 80.4419 122.28 79.6647 122.714 78.9357C123.434 77.7257 124.1 76.4587 124.654 75.5693C124.909 75.1595 125.051 74.7976 126.308 72.812C127.565 70.8264 129.918 67.2189 131.169 65.3016C132.421 63.3844 132.499 63.2668 132.539 63.2846C132.58 63.3024 132.58 63.4593 132.05 65.1086C131.521 66.7578 130.462 69.8948 129.603 72.2167C128.744 74.5385 128.117 75.9502 127.715 76.795C127.193 77.8932 126.877 78.5097 126.66 79.1626C126.572 79.4276 126.482 79.5411 128.01 77.1509C129.538 74.7607 132.675 69.8592 134.408 67.1773C136.142 64.4954 136.377 64.1817 136.499 64.0985C136.62 64.0154 136.62 64.1722 136.051 65.6254C135.483 67.0787 134.346 69.8235 133.191 72.3355C132.037 74.8475 130.9 77.0434 130.294 78.2334C129.689 79.4234 129.65 79.5411 129.59 79.6801C129.531 79.8191 129.452 79.976 130.431 78.5667C131.411 77.1574 133.45 74.1773 134.657 72.4656C136.135 70.3701 136.736 69.6845 137.661 68.444C139.417 66.0897 140.817 64.5334 141.015 64.5311C141.175 64.5291 140.978 65.1561 140.35 66.8689C139.721 68.5818 138.545 71.5227 137.194 74.4102C135.843 77.2977 134.353 80.0425 133.565 81.5154C132.778 82.9882 132.739 83.1058 132.895 82.8331C133.052 82.5604 133.404 81.8938 135.488 78.9036C137.572 75.9133 141.375 70.6197 143.393 67.8338C145.412 65.048 145.529 64.9303 145.59 64.9481C145.651 64.966 145.651 65.1228 145.082 66.6153C144.513 68.1077 143.376 70.931 142.065 73.7775C140.754 76.6239 139.303 79.408 138.536 80.9206C137.697 82.5742 137.611 82.9086 137.551 83.0678C137.544 83.0852 137.687 82.9133 139.806 79.8916C141.925 76.8699 146.043 70.988 148.183 67.8992C150.324 64.8103 150.363 64.6927 150.383 64.7301C150.404 64.7675 150.404 64.9636 150.051 66.0057C149.698 67.0478 148.992 68.93 147.609 71.8798C146.226 74.8297 144.187 78.7901 143.097 80.8891C142.007 82.9882 141.929 83.1058 141.967 83.0684C142.005 83.031 142.162 82.8349 143.184 81.2634C144.206 79.692 146.088 76.7511 147.842 74.1969C149.596 71.6428 151.164 69.5645 152.09 68.3762C153.219 66.9272 153.728 66.3966 154.104 65.9997C154.238 65.8586 153.697 68.2348 152.649 71.4413C152.127 73.0356 151.398 74.3448 150.647 75.987C149.664 78.1334 148.426 80.1328 147.851 81.223C147.738 81.4372 147.711 81.5611 147.671 81.6805C147.631 81.7999 147.592 81.9176 147.964 81.2724C148.336 80.6271 149.12 79.2155 150.975 76.4688C152.83 73.7222 155.732 69.6833 157.266 67.5243C158.8 65.3652 158.878 65.2084 158.919 65.2452C158.959 65.282 158.959 65.5173 158.39 67.0109C157.822 68.5046 156.685 71.2494 155.883 73.0556C154.72 75.6778 154.049 76.8461 153.733 77.5775C153.459 78.2112 153.02 79.0622 152.722 79.8946C152.638 80.1319 152.778 80.0211 152.897 79.8821C153.017 79.7431 153.134 79.5862 154.94 77.1331C156.745 74.6799 160.235 69.9352 162.111 67.4126C164.119 64.7137 164.424 64.4146 164.582 64.3142C164.641 64.2769 164.584 64.6451 163.29 67.4922C161.995 70.3392 159.446 75.7505 158.114 78.597C156.781 81.4435 156.742 81.5611 156.761 81.5629C157.316 81.6149 157.609 80.2208 159.989 76.681C161.837 73.9319 165.54 68.8729 167.418 66.3253C169.297 63.7777 169.297 63.9346 169.258 64.1134C169.173 64.4972 168.981 65.004 168.47 66.4792C168.064 67.6504 167.253 69.6405 166.751 70.8276C166.249 72.0147 166.053 72.3284 165.599 73.2154C164.41 75.5386 163.516 77.5971 163.297 78.3112C163.253 78.4561 163.672 77.8027 165.182 75.4862C166.58 73.3428 169.399 69.3269 171.206 66.7757C173.012 64.2245 173.758 63.2834 174.161 62.8966C174.564 62.5098 174.604 62.7059 174.565 63.0814C174.526 63.4569 174.409 64.0059 173.525 66.4649C172.641 68.924 170.994 73.2766 170.106 75.5973C169.218 77.9179 169.14 78.0748 169.08 78.2144C169.02 78.354 168.981 78.4716 170.255 76.6697C171.528 74.8677 174.116 71.1425 175.94 68.6353C177.763 66.1281 178.743 64.9517 179.248 64.5025C179.753 64.0534 179.753 64.3671 179.714 64.6267C179.675 64.8863 179.597 65.0824 179.321 66.0853C179.045 67.0882 178.575 68.892 177.881 71.0367C177.188 73.1815 176.286 75.6127 175.782 76.9436C175.217 78.4376 175.08 78.7105 175.079 78.8103C175.078 79.0447 175.749 77.6898 176.539 76.227C177.755 73.9773 178.798 72.8156 179.63 71.6077C179.958 71.133 180.573 70.4866 180.876 70.3196C181.179 70.1527 181.179 70.5056 181.16 70.7658C181.101 71.1829 180.825 72.1288 180.449 73.415C180.308 73.9171 180.269 74.1131 180.11 74.5528" stroke="#3FA9F5" stroke-width="3.09197" stroke-linecap="round"/>
<path d="M119.294 62.7507C119.294 63.8131 119.375 65.7132 119.438 66.7207C119.498 67.691 119.622 69.0883 119.705 69.9945C119.827 71.3238 119.993 72.1373 120.055 72.9601C120.192 74.7604 120.24 77.5732 120.405 78.1909C120.57 78.8097 120.734 79.3027 121.248 79.8797C121.655 80.3376 122.256 80.3751 122.751 80.54C123.32 80.7296 124.149 80.8692 125.035 80.9316C125.223 80.9448 125.345 80.9928 127.63 81.0138C129.915 81.0348 134.358 81.0348 136.729 81.0144C139.799 80.988 140.869 80.8297 142.041 80.7673C142.479 80.7441 143.54 80.6642 145.021 80.6438C145.606 80.6357 145.85 80.5826 149.788 80.5616C153.726 80.5406 161.35 80.5406 165.359 80.5202C169.367 80.4999 169.531 80.4591 170.613 80.4381C173.693 80.3783 175.874 80.3763 176.406 80.3145C178.333 80.0907 180.143 80.17 181.33 80.0471C181.647 80.0143 181.969 79.9229 182.277 79.8618C182.907 79.7368 183.081 78.9371 183.41 78.3397C183.819 77.5992 184.192 76.4267 184.399 75.5199C184.576 74.7467 184.605 73.9954 184.627 69.8092C184.633 68.5501 184.318 67.8208 184.174 67.0567C184.039 66.3446 183.948 65.8417 183.803 65.1214C183.677 64.4911 183.577 63.907 183.515 63.0422C183.466 62.3676 183.288 61.9699 183.268 61.6617C183.187 60.4364 179.708 61.1866 178.7 61.1243C178.344 61.1022 177.978 60.9803 177.037 60.9186C175.202 60.7982 173.819 60.8568 172.144 60.795C170.674 60.7408 167.942 60.774 166.412 60.7944C164.14 60.8247 163.319 60.9791 162.352 61.1236C161.674 61.2248 160.524 61.2682 159.306 61.3707C158.186 61.4649 157.264 61.4325 156.385 61.4943C154.572 61.6216 152.943 61.5968 152.019 61.7203C150.359 61.9423 148.627 61.8859 147.076 61.9884C144.421 62.164 143.187 62.133 141.213 62.2355C138.562 62.3732 136.714 62.2973 135.693 62.359C133.128 62.5143 131.238 62.4208 129.931 62.4826C128.788 62.5366 126.667 62.5036 125.513 62.4832C123.052 62.3801 120.777 62.4208 120.47 62.4826C120.285 62.5036 120.04 62.5036 119.664 62.6271" stroke="#500311" stroke-width="3.92895" stroke-linecap="round"/>
<path d="M176.37 81.8995C176.411 82.3505 176.493 83.5797 176.616 84.5118C176.744 85.4781 176.822 86.5496 176.884 87.8246C176.943 89.021 177.028 90.3399 177.09 93.135C177.148 95.7665 177.111 100.863 177.091 103.55C177.07 106.236 177.03 106.358 177.009 107.257C176.905 111.671 176.864 112.572 176.762 113.318C176.666 114.015 176.617 114.594 176.514 115.191C176.378 115.986 176.288 116.57 176.226 117.415C176.181 118.02 176.041 118.589 175.876 119.084C175.794 119.33 175.711 119.578 175.589 119.804C175.315 120.308 174.643 120.402 174.148 120.567C173.579 120.757 172.832 120.897 172.069 120.959C171.296 121.022 169.995 121.186 168.839 121.288C167.497 121.407 166.488 121.35 165.508 121.412C161.307 121.676 160.643 121.309 159.921 121.207C159.531 121.186 159.199 121.145 158.952 121.063C158.828 121.021 158.706 120.981 158.333 120.939" stroke="#500311" stroke-width="3.92895" stroke-linecap="round"/>
<path d="M150.35 48.4038C150.542 48.2842 152.512 45.7103 152.859 45.1064C153.281 44.3717 154.014 43.7392 154.939 42.4917C155.757 41.389 157.594 39.1957 158.199 38.3226C158.632 37.6974 158.989 37.2561 159.412 36.6722C159.801 36.1369 160.603 35.2875 161.34 34.5985C161.909 34.0659 162.458 33.2706 163.055 32.5864C163.743 31.797 164.808 30.6546 165.329 30.2301C165.917 29.7522 166.466 29.4445 166.929 29.183C167.365 28.9373 168.159 28.9203 168.856 28.8201C169.048 28.7925 169.316 28.7996 169.549 28.8992C170.398 29.2624 170.553 30.0049 170.996 30.5882C171.656 31.4575 171.786 32.2972 172.134 32.924C172.472 33.5319 172.75 34.1112 173.078 34.6951C173.412 35.2898 173.868 35.802 174.12 36.2857C174.406 36.8349 174.908 37.6112 175.276 38.3383C175.739 39.2559 176.335 40.2706 176.548 40.8546C176.754 41.419 176.953 41.9615 177.203 42.5454C177.413 43.0346 177.531 43.5315 177.686 44.0351C177.863 44.6126 177.917 45.1813 178.033 45.706C178.147 46.2299 178.225 46.7924 178.283 47.8775C178.342 48.9656 178.456 50.4156 178.477 52.7036C178.485 53.6024 178.304 54.2393 178.053 54.764C177.833 55.2265 177.725 55.7296 177.571 56.2133C177.417 56.697 177.11 57.1789 176.647 57.6825C176.127 58.2485 175.607 58.6693 174.76 59.2924C174.241 59.6739 173.757 59.7973 173.293 60.0587C173.177 60.1197 173.063 60.1596 172.946 60.22C172.83 60.2804 172.716 60.3601 172.366 60.563" stroke="#500311" stroke-width="3.92895" stroke-linecap="round"/>
<path d="M133.644 62.2565C133.439 61.9699 133.028 61.4757 132.308 60.8179C131.668 60.2332 130.97 59.7881 130.208 59.2112C129.501 58.6759 128.704 58.2636 128.189 57.9134C127.476 57.4287 126.646 56.8651 126.109 56.5538C125.605 56.2612 125.122 55.9163 124.524 55.484C124.026 55.123 123.639 54.6809 123.144 54.2485C122.688 53.8494 122.157 53.5691 121.457 52.9316C120.965 52.4837 120.509 52.1286 120.036 51.7159C119.892 51.591 119.728 51.4293 119.644 51.2638C119.363 50.7105 119.847 50.0704 120.197 49.4724C120.669 48.667 121.082 48.1753 121.412 47.6805C121.773 47.1386 122.194 46.5692 122.749 45.9719C123.247 45.436 124.042 44.432 124.644 43.7271C125.089 43.2064 125.611 42.6579 126.393 41.8135C126.861 41.3084 127.259 40.8863 128.512 39.5712C129.15 38.9015 129.525 38.292 130.018 37.6946C130.422 37.2042 130.718 36.6859 131.233 36.0886C131.603 35.6591 131.954 35.2034 132.304 34.729C132.651 34.2593 133.392 33.5999 134.628 32.3638C135.248 31.743 135.741 31.4132 136.236 31.2482C136.731 31.0833 138.121 31.0005 139.078 31.2464C139.676 31.4002 140.065 32.1915 140.437 32.7487C140.816 33.3167 141.014 33.8395 141.282 34.3343C141.533 34.7993 141.713 35.322 141.92 35.8168C142.121 36.298 142.25 36.8045 142.517 37.2993C142.776 37.7781 142.991 38.287 143.279 38.8843C143.535 39.417 143.814 39.893 144.123 40.3878C144.431 40.8809 144.678 41.4991 144.988 41.9939C145.276 42.4553 145.462 42.9816 145.79 43.5783C146.413 44.7085 146.818 45.9021 147.601 47.9381C148.179 49.4418 148.508 49.9814 148.715 50.6615C148.96 51.4657 149.291 52.2052 149.477 52.8649C149.659 53.5143 149.909 53.9768 150.074 54.5945C150.239 55.2133 150.403 55.7063 150.589 56.324C150.782 56.9701 151.021 57.5174 151.186 58.0746C151.268 58.3822 151.351 58.6726 151.433 58.919C151.474 59.0432 151.515 59.1655 151.557 59.5386" stroke="#500311" stroke-width="3.92895" stroke-linecap="round"/>
<path d="M109.629 73.5691C109.703 74.0892 110.001 75.1339 110.673 76.2178C111.412 77.4105 112.243 78.945 113.435 80.7351C114.747 82.7066 116.122 84.3209 117.211 85.4474C118.04 86.3045 119.04 87.3877 120.161 88.3617C121.282 89.336 122.771 90.9701 123.974 92.1359C124.838 92.9738 126.582 94.3328 128.082 95.5726C129.507 96.7508 131.066 97.7001 132.379 98.6741C133.807 99.7325 135.549 100.762 136.863 101.627C138.248 102.538 139.365 103.157 140.339 103.831C141.194 104.424 142.131 104.95 143.066 105.625C144.153 106.409 145.27 107.044 146.168 107.792C147.016 108.498 148.184 109.21 149.119 109.921C150.801 111.202 152.372 113.245 152.857 114.143C153.327 115.011 153.717 115.935 153.979 117.425C154.365 119.614 153.795 121.318 153.348 121.691C152.601 122.314 151.556 122.513 150.584 122.851C149.378 123.271 147.086 123.113 145.465 122.63C143.926 122.171 142.961 120.652 142.176 120.126C141.977 119.992 141.84 119.755 141.875 119.678C141.909 119.6 142.131 119.674 142.32 119.823C143.1 120.442 143.328 121.688 143.89 122.885C144.388 123.946 144.526 124.902 144.788 126.059C145.276 128.213 144.454 129.162 143.894 130.06C143.291 131.028 139.921 130.96 137.843 130.737C136.702 130.614 135.863 129.915 134.779 129.43C133.846 129.012 132.801 128.422 131.641 127.786C130.569 127.199 129.662 126.256 124.075 120.745C121.533 118.238 120.619 117.513 119.572 116.429C118.739 115.567 117.929 114.599 117.068 113.887C116.251 113.212 115.167 112.061 111.548 108.406C110.214 107.058 109.41 106.228 108.698 105.406C107.61 104.15 105.899 102.569 104.776 101.409C103.982 100.589 103.28 99.8029 101.752 98.1607C100.856 97.1993 99.9222 95.92 99.2811 94.8698C98.7296 93.9664 98.2723 93.0774 97.7869 92.1796C97.6737 91.9543 97.5997 91.7323 97.5246 91.507C97.4495 91.2817 97.3755 91.0598 97.2993 90.8311" stroke="#500311" stroke-width="3.92895" stroke-linecap="round"/>
<path d="M101.783 123.786C101.857 124.306 102.303 125.351 103.013 126.582C104.115 128.497 105.289 129.906 106.449 131.365C107.414 132.579 108.132 133.793 109.289 135.14C110.143 136.134 110.97 137.38 112.798 139.322C114.091 140.694 116.413 143.124 117.921 144.482C118.904 145.369 119.713 146.052 120.611 146.836C121.44 147.561 122.403 147.921 123.301 148.444C124.2 148.967 125.094 149.266 125.991 149.566C126.889 149.865 127.932 150.163 130.58 150.276C132.421 150.355 134.509 150.316 135.63 150.053C136.729 149.796 137.648 149.643 138.546 149.307C139.751 148.855 141.158 148.074 142.691 147.365C143.776 146.863 144.745 146.132 145.905 145.311C146.969 144.557 148.108 143.743 149.119 142.845C150.138 141.94 151.247 141.129 152.444 140.117C153.598 139.142 154.461 138.51 155.359 137.725C156.234 136.961 157.524 136.345 158.87 135.112C159.87 134.195 160.815 133.206 161.413 132.308C162.012 131.41 162.46 130.516 162.723 129.396C163.183 127.428 162.241 126.48 161.642 125.583C161.02 124.649 160.075 123.79 159.177 123.153C158.279 122.741 157.607 122.367 157.159 122.218C156.934 122.143 156.712 122.069 156.035 121.768" stroke="#500311" stroke-width="3.92895" stroke-linecap="round"/>
<path d="M15.4771 112.767C17.3746 113.085 19.1267 113.349 20.4024 113.532C21.1073 113.678 22.0371 113.799 23.2341 113.88C23.7114 113.905 23.9246 113.896 24.2345 113.898" stroke="#500311" stroke-width="2.91965" stroke-linecap="round"/>
<path d="M14.5983 119.724C14.8152 119.724 15.032 119.724 16.427 119.742C17.822 119.76 20.3885 119.796 23.0327 119.833" stroke="#500311" stroke-width="2.91965" stroke-linecap="round"/>
<path d="M14.644 126.24C14.8581 126.206 15.0722 126.171 16.452 125.965C17.8318 125.759 20.3709 125.383 22.9869 124.996" stroke="#500311" stroke-width="2.91965" stroke-linecap="round"/>
</svg>
